<svg id="Layer_1" viewBox="0 0 310 310" xmlns="http://www.w3.org/2000/svg" xmlns:xlink="http://www.w3.org/1999/xlink" data-name="Layer 1"><linearGradient id="linear-gradient" gradientUnits="userSpaceOnUse" x1="45.4" x2="264.6" y1="45.4" y2="264.6"><stop offset="0" stop-color="#00cefd"/><stop offset="1" stop-color="#0052e1"/></linearGradient><path d="m89.67 152.11c-2.63-2.82-5.06-5.65-7.25-8.48-11.55-14.9-15.4-28.25-10.56-36.63 3.77-6.54 12.81-10.01 25.46-10.01 3.57 0 7.43.28 11.54.84 3.52.48 7.17 1.16 10.9 2.02-2.59 9.48-4.52 20.12-5.64 31.58-9.17 6.59-17.43 13.57-24.45 20.68zm2.77 2.89c6.16 6.25 13.31 12.4 21.22 18.28-.44-5.91-.67-12.02-.67-18.28s.23-12.36.67-18.28c-7.91 5.87-15.06 12.03-21.22 18.28zm41.55-36.38c5.37-3.1 10.79-5.95 16.19-8.54-9.05-3.92-17.96-7.04-26.46-9.25-2.34 8.47-4.09 17.75-5.22 27.54 4.95-3.38 10.12-6.65 15.5-9.75zm51.17-21.64c-1.13-3.69-2.37-7.21-3.72-10.52-7.12-17.45-16.76-27.46-26.44-27.46s-19.32 10.01-26.44 27.46c-1.35 3.29-2.58 6.79-3.7 10.46 9.5 2.5 19.68 6.15 30.16 10.9 10.29-4.65 20.47-8.31 30.14-10.83zm-9.16 21.64c5.37 3.1 10.55 6.37 15.49 9.75-1.13-9.79-2.89-19.07-5.22-27.54-8.5 2.21-17.41 5.33-26.45 9.24 5.35 2.58 10.75 5.42 16.18 8.55zm-2 3.46c6.31 3.64 12.34 7.51 18.04 11.53.63 6.94.97 14.1.97 21.39s-.34 14.45-.97 21.39c-5.69 4.02-11.72 7.89-18.04 11.53-6.31 3.65-12.68 6.93-19.01 9.85-6.33-2.92-12.69-6.21-19.01-9.85-6.31-3.64-12.34-7.51-18.04-11.53-.63-6.94-.97-14.1-.97-21.39s.34-14.45.97-21.39c5.69-4.02 11.72-7.89 18.04-11.53 6.31-3.65 12.68-6.93 19.01-9.85 6.33 2.92 12.69 6.21 19.01 9.85zm-2.1 32.92c0-9.32-7.58-16.91-16.91-16.91s-16.91 7.58-16.91 16.91 7.58 16.91 16.91 16.91 16.91-7.58 16.91-16.91zm-82.23 2.89c-2.63 2.82-5.06 5.65-7.25 8.48-11.55 14.9-15.4 28.25-10.56 36.63s18.33 11.73 37 9.17c3.52-.48 7.17-1.16 10.9-2.02-2.59-9.48-4.52-20.12-5.64-31.58-9.17-6.59-17.43-13.57-24.45-20.68zm65.33-15.8c-7.12 0-12.91 5.79-12.91 12.91s5.79 12.91 12.91 12.91 12.91-5.79 12.91-12.91-5.79-12.91-12.91-12.91zm83.14-35.09c-3.77-6.54-12.81-10.01-25.46-10.01-3.57 0-7.43.28-11.54.84-3.52.48-7.17 1.16-10.9 2.02 2.59 9.48 4.52 20.12 5.64 31.58 9.17 6.59 17.43 13.57 24.45 20.68 2.63-2.82 5.06-5.65 7.25-8.48 11.55-14.9 15.4-28.25 10.56-36.63zm-104.14 84.38c-5.37-3.1-10.55-6.37-15.5-9.75 1.13 9.79 2.89 19.08 5.22 27.54 8.5-2.21 17.41-5.33 26.46-9.25-5.4-2.59-10.82-5.44-16.19-8.54zm176.01-36.38c0 85.6-69.4 155-155 155s-155.01-69.4-155.01-155 69.4-155 155-155 155 69.4 155 155zm-86.89 0c2.77-2.96 5.33-5.94 7.63-8.92 12.78-16.48 16.64-31.07 10.86-41.08s-20.34-13.96-41.01-11.13c-3.71.51-7.54 1.22-11.46 2.13-7.57-25-19.92-41-34.13-41s-26.54 15.97-34.11 40.93c-25.39-5.92-45.39-3.22-52.49 9.07-5.78 10.01-1.92 24.59 10.86 41.08 2.31 2.98 4.86 5.96 7.63 8.92-2.77 2.96-5.33 5.94-7.63 8.92-12.78 16.48-16.64 31.07-10.86 41.08 4.71 8.16 15.09 12.1 28.95 12.09 7.04 0 14.99-1.04 23.53-3.03 7.57 24.97 19.91 40.94 34.11 40.94s26.57-16 34.13-41c3.92.91 7.75 1.63 11.46 2.13 4.36.6 8.45.89 12.24.89 14.18 0 24.21-4.13 28.77-12.02 5.78-10.01 1.92-24.59-10.86-41.08-2.31-2.98-4.86-5.96-7.63-8.92zm-5.55 0c-6.16-6.25-13.31-12.4-21.22-18.28.44 5.91.67 12.02.67 18.28s-.23 12.36-.67 18.28c7.91-5.87 15.06-12.03 21.22-18.28zm-92.7 58.08c1.12 3.66 2.36 7.16 3.7 10.46 7.12 17.45 16.76 27.46 26.44 27.46s19.32-10.01 26.44-27.46c1.35-3.31 2.59-6.83 3.72-10.52-9.67-2.52-19.85-6.19-30.14-10.83-10.49 4.76-20.66 8.4-30.16 10.9zm71.02-34.51c-1.12 11.46-3.05 22.1-5.64 31.58 3.73.86 7.37 1.54 10.9 2.02 18.67 2.55 32.16-.79 37-9.17s.99-21.73-10.56-36.63c-2.19-2.83-4.62-5.66-7.25-8.48-7.02 7.11-15.28 14.09-24.45 20.68zm-19.88 12.81c-5.42 3.13-10.82 5.98-16.16 8.56 9.04 3.91 17.94 7.03 26.44 9.24 2.34-8.47 4.09-17.75 5.22-27.54-4.95 3.38-10.12 6.65-15.49 9.75z" fill="url(#linear-gradient)"/></svg>