<svg width="249" height="30" viewBox="0 0 249 30" fill="none" xmlns="http://www.w3.org/2000/svg">
<path id="Ellipse 79" d="M0.786687 28.2135C0.536936 28.3313 0.429976 28.6292 0.547786 28.879C0.665596 29.1287 0.963562 29.2357 1.21331 29.1179L0.786687 28.2135ZM249 28.6657L245.686 23.9383L243.249 29.1723L249 28.6657ZM1.21331 29.1179C2.08898 28.7048 2.96704 28.296 3.84747 27.8915L3.42995 26.9828C2.54648 27.3888 1.66538 27.799 0.786687 28.2135L1.21331 29.1179ZM9.15277 25.5181C10.9276 24.7455 12.7116 23.9901 14.5047 23.2521L14.1241 22.3273C12.3248 23.0679 10.5346 23.8259 8.75362 24.6013L9.15277 25.5181ZM19.9013 21.0942C21.7055 20.3937 23.5185 19.7108 25.34 19.0455L24.997 18.1062C23.1692 18.7738 21.3499 19.4591 19.5394 20.162L19.9013 21.0942ZM30.8193 17.1068C32.65 16.4797 34.489 15.8704 36.3361 15.2791L36.0312 14.3267C34.1777 14.9201 32.3323 15.5315 30.4952 16.1608L30.8193 17.1068ZM41.8892 13.5628C43.7435 13.0102 45.6055 12.4755 47.475 11.9591L47.2088 10.9952C45.3327 11.5134 43.4643 12.0499 41.6036 12.6045L41.8892 13.5628ZM53.0931 10.468C54.9678 9.99068 56.8498 9.53154 58.7388 9.09083L58.5116 8.11698C56.616 8.55922 54.7275 9.01995 52.8464 9.49897L53.0931 10.468ZM64.4127 7.82725C66.3047 7.42583 68.2035 7.04283 70.109 6.67845L69.9212 5.69625C68.0091 6.06189 66.1037 6.44621 64.2051 6.84902L64.4127 7.82725ZM75.8288 5.6441C77.7353 5.31907 79.6481 5.01262 81.5671 4.72494L81.4188 3.73599C79.4933 4.02466 77.5738 4.33217 75.6608 4.65832L75.8288 5.6441ZM87.3234 3.92084C89.2413 3.67246 91.1651 3.4428 93.0945 3.23202L92.9859 2.23794C91.0499 2.44943 89.1195 2.67989 87.195 2.92912L87.3234 3.92084ZM98.8778 2.65852C100.804 2.48685 102.736 2.33398 104.673 2.2001L104.604 1.20248C102.66 1.33682 100.722 1.49021 98.7891 1.66247L98.8778 2.65852ZM110.474 1.85686C112.405 1.76176 114.341 1.68551 116.282 1.6283L116.253 0.628738C114.305 0.686139 112.362 0.762644 110.424 0.858074L110.474 1.85686ZM122.093 1.51425C123.061 1.50476 124.03 1.5 125 1.5V0.5C124.026 0.5 123.054 0.504773 122.083 0.514296L122.093 1.51425ZM125 1.5C125.97 1.5 126.939 1.50476 127.908 1.51425L127.917 0.514297C126.946 0.504773 125.974 0.5 125 0.5V1.5ZM133.718 1.6283C135.659 1.68551 137.595 1.76176 139.526 1.85687L139.576 0.858076C137.638 0.762645 135.695 0.68614 133.747 0.628739L133.718 1.6283ZM145.327 2.2001C147.264 2.33398 149.196 2.48685 151.122 2.65852L151.211 1.66247C149.278 1.49021 147.34 1.33682 145.396 1.20248L145.327 2.2001ZM156.906 3.23202C158.835 3.4428 160.759 3.67247 162.677 3.92084L162.805 2.92912C160.881 2.67989 158.95 2.44944 157.014 2.23794L156.906 3.23202ZM168.433 4.72494C170.352 5.01262 172.265 5.31907 174.171 5.6441L174.339 4.65832C172.426 4.33217 170.507 4.02467 168.581 3.736L168.433 4.72494ZM179.891 6.67845C181.796 7.04284 183.695 7.42583 185.587 7.82725L185.795 6.84902C183.896 6.44622 181.991 6.0619 180.079 5.69625L179.891 6.67845ZM191.261 9.09083C193.15 9.53154 195.032 9.99068 196.907 10.4681L197.154 9.49897C195.272 9.01995 193.384 8.55922 191.488 8.11698L191.261 9.09083ZM202.525 11.9591C204.395 12.4755 206.257 13.0102 208.111 13.5628L208.396 12.6045C206.536 12.0499 204.667 11.5134 202.791 10.9952L202.525 11.9591ZM213.664 15.2791C215.511 15.8704 217.35 16.4797 219.181 17.1068L219.505 16.1608C217.668 15.5315 215.822 14.9201 213.969 14.3267L213.664 15.2791ZM224.66 19.0455C226.481 19.7108 228.294 20.3937 230.099 21.0942L230.461 20.162C228.65 19.4591 226.831 18.7738 225.003 18.1062L224.66 19.0455ZM235.495 23.2521C237.288 23.9901 239.072 24.7455 240.847 25.5182L241.246 24.6013C239.465 23.826 237.675 23.0679 235.876 22.3273L235.495 23.2521ZM0.786687 28.2135C0.536936 28.3313 0.429976 28.6292 0.547786 28.879C0.665596 29.1287 0.963562 29.2357 1.21331 29.1179L0.786687 28.2135ZM249 28.6657L245.686 23.9383L243.249 29.1723L249 28.6657ZM1.21331 29.1179C2.08898 28.7048 2.96704 28.296 3.84747 27.8915L3.42995 26.9828C2.54648 27.3888 1.66538 27.799 0.786687 28.2135L1.21331 29.1179ZM9.15277 25.5181C10.9276 24.7455 12.7116 23.9901 14.5047 23.2521L14.1241 22.3273C12.3248 23.0679 10.5346 23.8259 8.75362 24.6013L9.15277 25.5181ZM19.9013 21.0942C21.7055 20.3937 23.5185 19.7108 25.34 19.0455L24.997 18.1062C23.1692 18.7738 21.3499 19.4591 19.5394 20.162L19.9013 21.0942ZM30.8193 17.1068C32.65 16.4797 34.489 15.8704 36.3361 15.2791L36.0312 14.3267C34.1777 14.9201 32.3323 15.5315 30.4952 16.1608L30.8193 17.1068ZM41.8892 13.5628C43.7435 13.0102 45.6055 12.4755 47.475 11.9591L47.2088 10.9952C45.3327 11.5134 43.4643 12.0499 41.6036 12.6045L41.8892 13.5628ZM53.0931 10.468C54.9678 9.99068 56.8498 9.53154 58.7388 9.09083L58.5116 8.11698C56.616 8.55922 54.7275 9.01995 52.8464 9.49897L53.0931 10.468ZM64.4127 7.82725C66.3047 7.42583 68.2035 7.04283 70.109 6.67845L69.9212 5.69625C68.0091 6.06189 66.1037 6.44621 64.2051 6.84902L64.4127 7.82725ZM75.8288 5.6441C77.7353 5.31907 79.6481 5.01262 81.5671 4.72494L81.4188 3.73599C79.4933 4.02466 77.5738 4.33217 75.6608 4.65832L75.8288 5.6441ZM87.3234 3.92084C89.2413 3.67246 91.1651 3.4428 93.0945 3.23202L92.9859 2.23794C91.0499 2.44943 89.1195 2.67989 87.195 2.92912L87.3234 3.92084ZM98.8778 2.65852C100.804 2.48685 102.736 2.33398 104.673 2.2001L104.604 1.20248C102.66 1.33682 100.722 1.49021 98.7891 1.66247L98.8778 2.65852ZM110.474 1.85686C112.405 1.76176 114.341 1.68551 116.282 1.6283L116.253 0.628738C114.305 0.686139 112.362 0.762644 110.424 0.858074L110.474 1.85686ZM122.093 1.51425C123.061 1.50476 124.03 1.5 125 1.5V0.5C124.026 0.5 123.054 0.504773 122.083 0.514296L122.093 1.51425ZM125 1.5C125.97 1.5 126.939 1.50476 127.908 1.51425L127.917 0.514297C126.946 0.504773 125.974 0.5 125 0.5V1.5ZM133.718 1.6283C135.659 1.68551 137.595 1.76176 139.526 1.85687L139.576 0.858076C137.638 0.762645 135.695 0.68614 133.747 0.628739L133.718 1.6283ZM145.327 2.2001C147.264 2.33398 149.196 2.48685 151.122 2.65852L151.211 1.66247C149.278 1.49021 147.34 1.33682 145.396 1.20248L145.327 2.2001ZM156.906 3.23202C158.835 3.4428 160.759 3.67247 162.677 3.92084L162.805 2.92912C160.881 2.67989 158.95 2.44944 157.014 2.23794L156.906 3.23202ZM168.433 4.72494C170.352 5.01262 172.265 5.31907 174.171 5.6441L174.339 4.65832C172.426 4.33217 170.507 4.02467 168.581 3.736L168.433 4.72494ZM179.891 6.67845C181.796 7.04284 183.695 7.42583 185.587 7.82725L185.795 6.84902C183.896 6.44622 181.991 6.0619 180.079 5.69625L179.891 6.67845ZM191.261 9.09083C193.15 9.53154 195.032 9.99068 196.907 10.4681L197.154 9.49897C195.272 9.01995 193.384 8.55922 191.488 8.11698L191.261 9.09083ZM202.525 11.9591C204.395 12.4755 206.257 13.0102 208.111 13.5628L208.396 12.6045C206.536 12.0499 204.667 11.5134 202.791 10.9952L202.525 11.9591ZM213.664 15.2791C215.511 15.8704 217.35 16.4797 219.181 17.1068L219.505 16.1608C217.668 15.5315 215.822 14.9201 213.969 14.3267L213.664 15.2791ZM224.66 19.0455C226.481 19.7108 228.294 20.3937 230.099 21.0942L230.461 20.162C228.65 19.4591 226.831 18.7738 225.003 18.1062L224.66 19.0455ZM235.495 23.2521C237.288 23.9901 239.072 24.7455 240.847 25.5182L241.246 24.6013C239.465 23.826 237.675 23.0679 235.876 22.3273L235.495 23.2521Z" fill="white" fill-opacity="0.4"/>
</svg>
