<svg width="18" height="18" viewBox="0 0 18 18" fill="none" xmlns="http://www.w3.org/2000/svg">
<path d="M14.25 1.5H3.75C2.51221 1.5 1.5 2.51257 1.5 3.75V14.25C1.5 15.4874 2.51221 16.5 3.75 16.5H14.25C15.4878 16.5 16.5 15.4874 16.5 14.25V3.75C16.5 2.51257 15.4878 1.5 14.25 1.5ZM12.345 7.65747L8.59497 11.4075C8.44482 11.5499 8.25732 11.625 8.0625 11.625C7.86768 11.625 7.68018 11.5499 7.53003 11.4075L5.65503 9.53247C5.36279 9.23987 5.36279 8.76013 5.65503 8.46753C5.94727 8.17493 6.42773 8.17493 6.71997 8.46753L8.0625 9.81738L11.28 6.59253C11.5723 6.29993 12.0527 6.29993 12.345 6.59253C12.6372 6.88513 12.6372 7.36487 12.345 7.65747Z" fill="#006FBD"/>
</svg>
