<svg width="18" height="18" viewBox="0 0 18 18" fill="none" xmlns="http://www.w3.org/2000/svg">
<path d="M14.25 16.5H3.75C2.50928 16.5 1.5 15.4907 1.5 14.25V3.75C1.5 2.50928 2.50928 1.5 3.75 1.5H14.25C15.4907 1.5 16.5 2.50928 16.5 3.75V14.25C16.5 15.4907 15.4907 16.5 14.25 16.5ZM3.75 3C3.33618 3 3 3.33655 3 3.75V14.25C3 14.6635 3.33618 15 3.75 15H14.25C14.6638 15 15 14.6635 15 14.25V3.75C15 3.33655 14.6638 3 14.25 3H3.75ZM8.59277 11.4053L12.3428 7.65527C12.6357 7.36231 12.6357 6.8877 12.3428 6.59473C12.0498 6.30176 11.5752 6.30176 11.2822 6.59473L8.0625 9.81445L6.71777 8.46973C6.42481 8.17676 5.9502 8.17676 5.65723 8.46973C5.36426 8.7627 5.36426 9.23731 5.65723 9.53027L7.53223 11.4053C7.67871 11.5518 7.87061 11.625 8.0625 11.625C8.2544 11.625 8.44629 11.5518 8.59277 11.4053Z" fill="#334257" fill-opacity="0.5"/>
</svg>
