<svg width="14" height="14" viewBox="0 0 14 14" fill="none" xmlns="http://www.w3.org/2000/svg">
<g id="la:shipping-fast">
<path id="Vector" d="M0 2.625V3.5H8.3125V10.0625H5.61925C5.42412 9.31044 4.74775 8.75 3.9375 8.75C3.12725 8.75 2.45088 9.31044 2.25575 10.0625H1.75V7.875H0.875V10.9375H2.25575C2.45088 11.6896 3.12725 12.25 3.9375 12.25C4.74775 12.25 5.42412 11.6896 5.61925 10.9375H9.25575C9.45088 11.6896 10.1272 12.25 10.9375 12.25C11.7478 12.25 12.4241 11.6896 12.6193 10.9375H14V7.36925L13.9724 7.30056L13.0974 4.67556L13.0025 4.375H9.1875V2.625H0ZM0.4375 4.375V5.25H4.375V4.375H0.4375ZM9.1875 5.25H12.3729L13.125 7.49219V10.0625H12.6193C12.4241 9.31044 11.7478 8.75 10.9375 8.75C10.1272 8.75 9.45088 9.31044 9.25575 10.0625H9.1875V5.25ZM0.875 6.125V7H3.5V6.125H0.875ZM3.9375 9.625C4.42619 9.625 4.8125 10.0113 4.8125 10.5C4.8125 10.9887 4.42619 11.375 3.9375 11.375C3.44881 11.375 3.0625 10.9887 3.0625 10.5C3.0625 10.0113 3.44881 9.625 3.9375 9.625ZM10.9375 9.625C11.4262 9.625 11.8125 10.0113 11.8125 10.5C11.8125 10.9887 11.4262 11.375 10.9375 11.375C10.4488 11.375 10.0625 10.9887 10.0625 10.5C10.0625 10.0113 10.4488 9.625 10.9375 9.625Z" fill="#262D34"/>
</g>
</svg>
