<?xml version="1.0" encoding="iso-8859-1"?>
<!-- Generator: Adobe Illustrator 19.0.0, SVG Export Plug-In . SVG Version: 6.00 Build 0)  -->
<svg version="1.1" id="Capa_1" xmlns="http://www.w3.org/2000/svg" xmlns:xlink="http://www.w3.org/1999/xlink" x="0px" y="0px"
	 viewBox="0 0 512 512" style="enable-background:new 0 0 512 512;" xml:space="preserve">
<path style="fill:#EF5350;" d="M142.063,368.565c0,0,52.167,0.49,52.167-44.013s-3.753-55.391-3.753-55.391h-78.393l-7.985,49.702
	L142.063,368.565z"/>
<path style="fill:#409FFF;" d="M162.531,431.028c-7.827,0-14.308-6.075-14.799-13.886c-1.436-22.839-5.945-68.43-19.683-94.912
	c-18.869-36.373-59.518-34.922-59.518-34.922l-13.043,25.328c30.988,29.457,39.155,79.344,41.307,118.669
	c1.128,20.605,18.132,36.742,38.767,36.742h26.968c10.223,0,18.509-8.287,18.509-18.509
	C181.041,439.315,172.754,431.028,162.531,431.028z"/>
<path style="fill:#F5F5F5;" d="M346.751,92.51c0,0-63.584,69.394-184.772,69.394c-1.21,0-2.407,0-3.596,0.011l-79.192,80.472
	l79.192,80.472c1.187,0.011,2.386,0.011,3.596,0.011c121.187,0,184.772,69.393,184.772,69.393l25.2-149.875L346.751,92.51z"/>
<path style="fill:#EF5350;" d="M371.949,67.309L371.949,67.309c-13.916,0-25.196,11.281-25.196,25.196v299.761
	c0,13.916,11.28,25.196,25.196,25.196l0,0c13.916,0,25.196-11.28,25.196-25.196V92.506C397.146,78.59,385.864,67.309,371.949,67.309
	z"/>
<path style="fill:#D44A47;" d="M371.949,387.016L371.949,387.016c-13.916,0-25.196-11.28-25.196-25.196v30.446
	c0,13.916,11.28,25.196,25.196,25.196l0,0c13.916,0,25.196-11.28,25.196-25.196V361.82
	C397.146,375.736,385.864,387.016,371.949,387.016z"/>
<path style="fill:#E0E0E0;" d="M161.98,292.422c-1.21,0-2.407,0-3.596-0.011c-10.85-0.037-21.03-0.248-30.592-0.64l30.592,31.086
	c1.187,0.011,2.386,0.011,3.596,0.011c121.187,0,184.773,69.393,184.773,69.393v-30.446
	C346.751,361.816,283.167,292.422,161.98,292.422z"/>
<path style="fill:#3A8FE6;" d="M128.05,322.229c-18.869-36.373-59.518-34.922-59.518-34.922l-13.043,25.328
	c10.553,10.032,18.454,22.436,24.378,35.983c16.905,2.406,36.393,3.848,58.945,4.414
	C136.073,341.692,132.562,330.927,128.05,322.229z"/>
<path style="fill:#EF5350;" d="M158.384,161.915v160.943C39.993,322.457,0,301.684,0,242.386
	C0,183.088,39.993,162.315,158.384,161.915z"/>
<path style="fill:#D44A47;" d="M1.025,227.163c-0.162,1.121-0.301,2.263-0.424,3.418c-0.013,0.124-0.027,0.247-0.04,0.37
	c-0.121,1.178-0.224,2.371-0.306,3.585c0,0.008-0.001,0.016-0.001,0.023c-0.075,1.124-0.128,2.269-0.169,3.424
	c-0.01,0.273-0.019,0.547-0.027,0.821C0.022,239.985,0,241.175,0,242.386c0,59.298,39.993,80.072,158.384,80.471v-30.446
	C50.752,292.048,7.922,274.842,1.025,227.163z"/>
<g>
	<path style="fill:#36474F;" d="M504.389,249.998h-70.892c-4.205,0-7.611-3.408-7.611-7.611s3.407-7.611,7.611-7.611h70.892
		c4.205,0,7.611,3.408,7.611,7.611S508.593,249.998,504.389,249.998z"/>
	<path style="fill:#36474F;" d="M437.065,109.305c-1.948,0-3.896-0.743-5.383-2.23c-2.973-2.973-2.973-7.792,0-10.765l50.128-50.128
		c2.974-2.973,7.792-2.973,10.765,0c2.973,2.973,2.973,7.792,0,10.765l-50.128,50.128
		C440.96,108.561,439.012,109.305,437.065,109.305z"/>
	<path style="fill:#36474F;" d="M487.193,440.819c-1.949,0-3.896-0.743-5.383-2.23l-50.128-50.128
		c-2.973-2.973-2.973-7.792,0-10.765c2.975-2.973,7.793-2.972,10.765,0l50.128,50.128c2.973,2.973,2.973,7.792,0,10.765
		C491.089,440.075,489.14,440.819,487.193,440.819z"/>
</g>
<g>
</g>
<g>
</g>
<g>
</g>
<g>
</g>
<g>
</g>
<g>
</g>
<g>
</g>
<g>
</g>
<g>
</g>
<g>
</g>
<g>
</g>
<g>
</g>
<g>
</g>
<g>
</g>
<g>
</g>
</svg>
