<svg width="18" height="19" viewBox="0 0 18 19" fill="none" xmlns="http://www.w3.org/2000/svg">
<path d="M9.75 10.4063C9.75 10.8205 9.41421 11.1563 9 11.1563C8.58579 11.1563 8.25 10.8205 8.25 10.4063V8.15625C8.25 7.74204 8.58579 7.40625 9 7.40625C9.41421 7.40625 9.75 7.74204 9.75 8.15625V10.4063ZM9.75 13.4063C9.75 13.8205 9.41421 14.1563 9 14.1563C8.58579 14.1563 8.25 13.8205 8.25 13.4063C8.25 12.992 8.58579 12.6563 9 12.6563C9.41421 12.6563 9.75 12.992 9.75 13.4063ZM1.61902 14.9052C1.23306 15.5719 1.71411 16.4063 2.48445 16.4063H15.5156C16.2859 16.4063 16.7669 15.5719 16.381 14.9052L9.86543 3.65108C9.48026 2.98579 8.51974 2.98579 8.13457 3.65108L1.61902 14.9052Z" fill="#FFC128"/>
</svg>
