<svg width="20" height="20" viewBox="0 0 20 20" fill="none" xmlns="http://www.w3.org/2000/svg">
<g id="Warning">
<path id="Vector" opacity="0.2" d="M8.91826 3.12381L2.04511 14.9982C1.93513 15.1882 1.87714 15.4038 1.87695 15.6234C1.87677 15.8429 1.93441 16.0586 2.04408 16.2488C2.15374 16.439 2.31156 16.5969 2.50166 16.7068C2.69175 16.8166 2.90742 16.8744 3.12696 16.8744H16.8732C17.0928 16.8744 17.3084 16.8166 17.4985 16.7068C17.6886 16.5969 17.8465 16.439 17.9561 16.2488C18.0658 16.0586 18.1234 15.8429 18.1232 15.6234C18.1231 15.4038 18.0651 15.1882 17.9551 14.9982L11.0819 3.12381C10.9721 2.93411 10.8144 2.77661 10.6245 2.66712C10.4346 2.55763 10.2193 2.5 10.0001 2.5C9.78091 2.5 9.56558 2.55763 9.3757 2.66712C9.18581 2.77661 9.02806 2.93411 8.91826 3.12381Z" fill="#00AA5B"/>
<path id="Vector_2" d="M10 8.75V11.25" stroke="#00AA5B" stroke-width="2" stroke-linecap="round" stroke-linejoin="round"/>
<path id="Vector_3" d="M8.91826 3.12381L2.04511 14.9982C1.93513 15.1882 1.87714 15.4038 1.87695 15.6234C1.87677 15.8429 1.93441 16.0586 2.04408 16.2488C2.15374 16.439 2.31156 16.5969 2.50166 16.7068C2.69175 16.8166 2.90742 16.8744 3.12696 16.8744H16.8732C17.0928 16.8744 17.3084 16.8166 17.4985 16.7068C17.6886 16.5969 17.8465 16.439 17.9561 16.2488C18.0658 16.0586 18.1234 15.8429 18.1232 15.6234C18.1231 15.4038 18.0651 15.1882 17.9551 14.9982L11.0819 3.12381C10.9721 2.93411 10.8144 2.77661 10.6245 2.66712C10.4346 2.55763 10.2193 2.5 10.0001 2.5C9.78091 2.5 9.56558 2.55763 9.3757 2.66712C9.18581 2.77661 9.02806 2.93411 8.91826 3.12381V3.12381Z" stroke="#00AA5B" stroke-width="2" stroke-linecap="round" stroke-linejoin="round"/>
<path id="Vector_4" d="M10 15C10.5178 15 10.9375 14.5803 10.9375 14.0625C10.9375 13.5447 10.5178 13.125 10 13.125C9.48223 13.125 9.0625 13.5447 9.0625 14.0625C9.0625 14.5803 9.48223 15 10 15Z" fill="#00AA5B"/>
</g>
</svg>
