<svg height="512" viewBox="0 0 24 24" width="512" xmlns="http://www.w3.org/2000/svg"><g id="Layer_2" data-name="Layer 2"><path d="m21 3.75h-9.71a1.7 1.7 0 0 0 -1.59 1 .78.78 0 0 1 -1.39 0 1.72 1.72 0 0 0 -1.6-1h-3.71a1.76 1.76 0 0 0 -1.75 1.75v4.65a1.71 1.71 0 0 0 1.14 1.66 1.25 1.25 0 0 1 0 2.38 1.71 1.71 0 0 0 -1.14 1.66v2.65a1.76 1.76 0 0 0 1.75 1.75h3.71a1.7 1.7 0 0 0 1.59-1 .78.78 0 0 1 1.39 0 1.72 1.72 0 0 0 1.6 1h9.71a1.76 1.76 0 0 0 1.75-1.75v-13a1.76 1.76 0 0 0 -1.75-1.75z" fill="#ffcb27"/><g fill="#fff"><circle cx="10.85" cy="9.85" r="1.35"/><circle cx="15.15" cy="14.15" r="1.35"/><path d="m10.85 15.5a.81.81 0 0 1 -.51-.18.8.8 0 0 1 -.12-1.13l4.3-5.39a.81.81 0 0 1 1.14-.12.8.8 0 0 1 .12 1.13l-4.3 5.39a.81.81 0 0 1 -.63.3z"/></g></g></svg>