<svg width="18" height="18" viewBox="0 0 18 18" fill="none" xmlns="http://www.w3.org/2000/svg">
<path d="M9 2.10938C9.29127 2.10938 9.52734 1.87327 9.52734 1.58203V0.527344C9.52734 0.236109 9.29123 0 9 0C8.70877 0 8.47266 0.236109 8.47266 0.527344V1.58203C8.47266 1.87327 8.70877 2.10938 9 2.10938Z" fill="#015FA4"/>
<path d="M4.40092 4.01322C4.60686 3.80728 4.60686 3.4734 4.40092 3.26745L3.65511 2.52165C3.44917 2.3157 3.11529 2.3157 2.90934 2.52165C2.7034 2.72759 2.7034 3.06147 2.90934 3.26742L3.65515 4.01322C3.86106 4.21913 4.19497 4.21913 4.40092 4.01322Z" fill="#015FA4"/>
<path d="M1.96875 8.08594H0.914062C0.622828 8.08594 0.386719 8.32205 0.386719 8.61328C0.386719 8.90452 0.622828 9.14062 0.914062 9.14062H1.96875C2.25998 9.14062 2.49609 8.90452 2.49609 8.61328C2.49609 8.32205 2.25998 8.08594 1.96875 8.08594Z" fill="#015FA4"/>
<path d="M17.0859 8.08594H16.0312C15.74 8.08594 15.5039 8.32205 15.5039 8.61328C15.5039 8.90452 15.74 9.14062 16.0312 9.14062H17.0859C17.3772 9.14062 17.6133 8.90452 17.6133 8.61328C17.6133 8.32205 17.3772 8.08594 17.0859 8.08594Z" fill="#015FA4"/>
<path d="M14.3446 2.52165L13.5988 3.26745C13.3928 3.4734 13.3928 3.80728 13.5988 4.01322C13.8047 4.21917 14.1386 4.21917 14.3446 4.01322L15.0904 3.26742C15.2963 3.06147 15.2963 2.72759 15.0904 2.52165C14.8844 2.3157 14.5505 2.3157 14.3446 2.52165Z" fill="#015FA4"/>
<path d="M9 3.16406C5.99527 3.16406 3.55078 5.60855 3.55078 8.61328C3.55078 10.1134 4.18078 11.5622 5.27924 12.588C5.74474 13.0228 6.01172 13.6326 6.01172 14.2612V16.418C6.01172 17.2903 6.72142 18 7.59375 18H10.4062C11.2786 18 11.9883 17.2903 11.9883 16.418V14.2612C11.9883 13.6326 12.2553 13.0227 12.7208 12.588C13.8192 11.5622 14.4492 10.1134 14.4492 8.61328C14.4492 5.60855 12.0047 3.16406 9 3.16406ZM10.9336 16.418C10.9336 16.7087 10.697 16.9453 10.4062 16.9453H7.59375C7.30297 16.9453 7.06641 16.7087 7.06641 16.418V15.1172H10.9336V16.418ZM12.0009 11.8172C11.3716 12.4049 10.9912 13.2141 10.9396 14.0625H7.06036C7.00871 13.2141 6.62839 12.4049 5.99906 11.8172C5.1004 10.9779 4.60547 9.84009 4.60547 8.61328C4.60547 6.19014 6.57686 4.21875 9 4.21875C11.4231 4.21875 13.3945 6.19014 13.3945 8.61328C13.3945 9.84009 12.8996 10.9779 12.0009 11.8172Z" fill="#015FA4"/>
</svg>
