<svg width="340" height="329" viewBox="0 0 340 329" fill="none" xmlns="http://www.w3.org/2000/svg">
<g clip-path="url(#clip0_3266_32103)">
<g clip-path="url(#clip1_3266_32103)">
<path d="M417.406 296.92H-17.3591V297.137H417.406V296.92Z" fill="#EBEBEB"/>
<path d="M270.647 313.254H263.09V313.471H270.647V313.254Z" fill="#EBEBEB"/>
<path d="M344.174 302.834H327.488V303.051H344.174V302.834Z" fill="#EBEBEB"/>
<path d="M65.8113 304.291H28.2563V304.508H65.8113V304.291Z" fill="#EBEBEB"/>
<path d="M79.063 304.291H73.5588V304.508H79.063V304.291Z" fill="#EBEBEB"/>
<path d="M178.415 307.957H96.9578V308.174H178.415V307.957Z" fill="#EBEBEB"/>
<path d="M188.719 258.192H20.8218C18.0828 258.192 15.8655 255.969 15.8655 253.234V17.5398C15.8916 14.8219 18.1002 12.6337 20.8218 12.625H188.719C191.458 12.625 193.684 14.848 193.684 17.5832V253.234C193.684 255.969 191.458 258.192 188.719 258.192ZM20.8218 12.7987C18.2045 12.7987 16.0829 14.9261 16.0829 17.5398V253.234C16.0829 255.847 18.2045 257.966 20.8218 257.975H188.719C191.337 257.975 193.458 255.847 193.467 253.234V17.5398C193.467 14.9261 191.337 12.8074 188.719 12.7987H20.8218Z" fill="#EBEBEB"/>
<path d="M376.807 258.192H208.901C206.162 258.192 203.945 255.969 203.936 253.234V17.5398C203.962 14.8219 206.179 12.6337 208.901 12.625H376.807C379.529 12.6337 381.729 14.8219 381.755 17.5398V253.234C381.755 255.969 379.546 258.183 376.807 258.192ZM208.901 12.7987C206.284 12.7987 204.162 14.9261 204.153 17.5398V253.234C204.153 255.847 206.284 257.966 208.901 257.975H376.807C379.424 257.975 381.546 255.847 381.555 253.234V17.5398C381.555 14.9261 379.424 12.8074 376.807 12.7987H208.901Z" fill="#EBEBEB"/>
<path d="M369.947 66.6191H159.277V269.412H369.947V66.6191Z" fill="#E0E0E0"/>
<path d="M369.947 70.3008H162.66V265.869H369.947V70.3008Z" fill="#F5F5F5"/>
<path d="M164.19 218.508V159.678H170.303V151.906L184.076 145.48V137.526H186.372V159.678H188.667V218.508H191.728V187.942H198.615V171.904H200.91V218.508H206.258V200.933H210.084V196.348H218.501V180.309H223.092V169.611H228.448V153.565H230.744V169.611H236.1V180.309H240.683V196.348H249.1V200.933H252.926V218.508H257.517V196.348H265.934V147.46H268.229V142.111H286.585V147.46H290.411V182.602H305.715V186.414H311.062V188.706H305.715V202.461H321.775V156.621H324.836V147.46H332.487V112.318H334.783V147.46H340.139V156.621H369.947V265.867H162.66V218.508H164.19Z" fill="#E6E6E6"/>
<path d="M340.244 159.02H338.079V161.182H340.244V159.02Z" fill="#F0F0F0"/>
<path d="M340.244 162.648H338.079V164.811H340.244V162.648Z" fill="#F0F0F0"/>
<path d="M340.244 166.277H338.079V168.44H340.244V166.277Z" fill="#F0F0F0"/>
<path d="M340.244 169.908H338.079V172.07H340.244V169.908Z" fill="#F0F0F0"/>
<path d="M340.244 173.537H338.079V175.699H340.244V173.537Z" fill="#F0F0F0"/>
<path d="M340.244 177.168H338.079V179.33H340.244V177.168Z" fill="#F0F0F0"/>
<path d="M340.244 180.787H338.079V182.949H340.244V180.787Z" fill="#F0F0F0"/>
<path d="M340.244 184.418H338.079V186.58H340.244V184.418Z" fill="#F0F0F0"/>
<path d="M340.244 206.195H338.079V208.357H340.244V206.195Z" fill="#F0F0F0"/>
<path d="M340.244 209.824H338.079V211.986H340.244V209.824Z" fill="#F0F0F0"/>
<path d="M340.244 213.455H338.079V215.617H340.244V213.455Z" fill="#F0F0F0"/>
<path d="M340.244 217.076H338.079V219.238H340.244V217.076Z" fill="#F0F0F0"/>
<path d="M340.244 231.594H338.079V233.756H340.244V231.594Z" fill="#F0F0F0"/>
<path d="M336.8 159.02H334.635V161.182H336.8V159.02Z" fill="#F0F0F0"/>
<path d="M336.8 162.648H334.635V164.811H336.8V162.648Z" fill="#F0F0F0"/>
<path d="M336.8 166.277H334.635V168.44H336.8V166.277Z" fill="#F0F0F0"/>
<path d="M336.8 169.908H334.635V172.07H336.8V169.908Z" fill="#F0F0F0"/>
<path d="M336.8 173.537H334.635V175.699H336.8V173.537Z" fill="#F0F0F0"/>
<path d="M336.8 177.168H334.635V179.33H336.8V177.168Z" fill="#F0F0F0"/>
<path d="M336.8 180.787H334.635V182.949H336.8V180.787Z" fill="#F0F0F0"/>
<path d="M336.8 184.418H334.635V186.58H336.8V184.418Z" fill="#F0F0F0"/>
<path d="M336.8 188.047H334.635V190.209H336.8V188.047Z" fill="#F0F0F0"/>
<path d="M336.8 191.678H334.635V193.84H336.8V191.678Z" fill="#F0F0F0"/>
<path d="M336.8 202.566H334.635V204.729H336.8V202.566Z" fill="#F0F0F0"/>
<path d="M336.8 206.195H334.635V208.357H336.8V206.195Z" fill="#F0F0F0"/>
<path d="M336.8 209.824H334.635V211.986H336.8V209.824Z" fill="#F0F0F0"/>
<path d="M336.8 213.455H334.635V215.617H336.8V213.455Z" fill="#F0F0F0"/>
<path d="M336.8 217.076H334.635V219.238H336.8V217.076Z" fill="#F0F0F0"/>
<path d="M336.8 231.594H334.635V233.756H336.8V231.594Z" fill="#F0F0F0"/>
<path d="M333.357 159.02H331.192V161.182H333.357V159.02Z" fill="#F0F0F0"/>
<path d="M333.357 162.648H331.192V164.811H333.357V162.648Z" fill="#F0F0F0"/>
<path d="M333.357 166.277H331.192V168.44H333.357V166.277Z" fill="#F0F0F0"/>
<path d="M333.357 169.908H331.192V172.07H333.357V169.908Z" fill="#F0F0F0"/>
<path d="M333.357 173.537H331.192V175.699H333.357V173.537Z" fill="#F0F0F0"/>
<path d="M333.357 177.168H331.192V179.33H333.357V177.168Z" fill="#F0F0F0"/>
<path d="M333.357 180.787H331.192V182.949H333.357V180.787Z" fill="#F0F0F0"/>
<path d="M333.357 184.418H331.192V186.58H333.357V184.418Z" fill="#F0F0F0"/>
<path d="M333.357 188.047H331.192V190.209H333.357V188.047Z" fill="#F0F0F0"/>
<path d="M333.357 191.678H331.192V193.84H333.357V191.678Z" fill="#F0F0F0"/>
<path d="M333.357 195.307H331.192V197.469H333.357V195.307Z" fill="#F0F0F0"/>
<path d="M333.357 198.936H331.192V201.098H333.357V198.936Z" fill="#F0F0F0"/>
<path d="M333.357 202.566H331.192V204.729H333.357V202.566Z" fill="#F0F0F0"/>
<path d="M333.357 206.195H331.192V208.357H333.357V206.195Z" fill="#F0F0F0"/>
<path d="M333.357 209.824H331.192V211.986H333.357V209.824Z" fill="#F0F0F0"/>
<path d="M333.357 213.455H331.192V215.617H333.357V213.455Z" fill="#F0F0F0"/>
<path d="M333.357 217.076H331.192V219.238H333.357V217.076Z" fill="#F0F0F0"/>
<path d="M333.357 220.705H331.192V222.867H333.357V220.705Z" fill="#F0F0F0"/>
<path d="M329.914 159.02H327.749V161.182H329.914V159.02Z" fill="#F0F0F0"/>
<path d="M329.914 162.648H327.749V164.811H329.914V162.648Z" fill="#F0F0F0"/>
<path d="M329.914 166.277H327.749V168.44H329.914V166.277Z" fill="#F0F0F0"/>
<path d="M329.914 169.908H327.749V172.07H329.914V169.908Z" fill="#F0F0F0"/>
<path d="M329.914 173.537H327.749V175.699H329.914V173.537Z" fill="#F0F0F0"/>
<path d="M329.914 177.168H327.749V179.33H329.914V177.168Z" fill="#F0F0F0"/>
<path d="M329.914 180.787H327.749V182.949H329.914V180.787Z" fill="#F0F0F0"/>
<path d="M329.914 184.418H327.749V186.58H329.914V184.418Z" fill="#F0F0F0"/>
<path d="M329.914 188.047H327.749V190.209H329.914V188.047Z" fill="#F0F0F0"/>
<path d="M329.914 191.678H327.749V193.84H329.914V191.678Z" fill="#F0F0F0"/>
<path d="M329.914 202.566H327.749V204.729H329.914V202.566Z" fill="#F0F0F0"/>
<path d="M329.914 206.195H327.749V208.357H329.914V206.195Z" fill="#F0F0F0"/>
<path d="M329.914 209.824H327.749V211.986H329.914V209.824Z" fill="#F0F0F0"/>
<path d="M329.914 213.455H327.749V215.617H329.914V213.455Z" fill="#F0F0F0"/>
<path d="M326.479 159.02H324.314V161.182H326.479V159.02Z" fill="#F0F0F0"/>
<path d="M326.479 162.648H324.314V164.811H326.479V162.648Z" fill="#F0F0F0"/>
<path d="M326.479 166.277H324.314V168.44H326.479V166.277Z" fill="#F0F0F0"/>
<path d="M326.479 169.908H324.314V172.07H326.479V169.908Z" fill="#F0F0F0"/>
<path d="M326.479 173.537H324.314V175.699H326.479V173.537Z" fill="#F0F0F0"/>
<path d="M326.479 177.168H324.314V179.33H326.479V177.168Z" fill="#F0F0F0"/>
<path d="M326.479 180.787H324.314V182.949H326.479V180.787Z" fill="#F0F0F0"/>
<path d="M326.479 184.418H324.314V186.58H326.479V184.418Z" fill="#F0F0F0"/>
<path d="M326.479 188.047H324.314V190.209H326.479V188.047Z" fill="#F0F0F0"/>
<path d="M326.479 191.678H324.314V193.84H326.479V191.678Z" fill="#F0F0F0"/>
<path d="M326.479 202.566H324.314V204.729H326.479V202.566Z" fill="#F0F0F0"/>
<path d="M326.479 206.195H324.314V208.357H326.479V206.195Z" fill="#F0F0F0"/>
<path d="M326.479 209.824H324.314V211.986H326.479V209.824Z" fill="#F0F0F0"/>
<path d="M287.715 149.598H285.55V151.76H287.715V149.598Z" fill="#F0F0F0"/>
<path d="M287.715 153.227H285.55V155.389H287.715V153.227Z" fill="#F0F0F0"/>
<path d="M287.715 156.857H285.55V159.02H287.715V156.857Z" fill="#F0F0F0"/>
<path d="M287.715 160.486H285.55V162.649H287.715V160.486Z" fill="#F0F0F0"/>
<path d="M287.715 164.115H285.55V166.277H287.715V164.115Z" fill="#F0F0F0"/>
<path d="M287.715 167.744H285.55V169.906H287.715V167.744Z" fill="#F0F0F0"/>
<path d="M287.715 171.367H285.55V173.529H287.715V171.367Z" fill="#F0F0F0"/>
<path d="M287.715 174.996H285.55V177.158H287.715V174.996Z" fill="#F0F0F0"/>
<path d="M287.715 185.885H285.55V188.047H287.715V185.885Z" fill="#F0F0F0"/>
<path d="M287.715 189.516H285.55V191.678H287.715V189.516Z" fill="#F0F0F0"/>
<path d="M284.272 149.598H282.107V151.76H284.272V149.598Z" fill="#F0F0F0"/>
<path d="M284.272 153.227H282.107V155.389H284.272V153.227Z" fill="#F0F0F0"/>
<path d="M284.272 156.857H282.107V159.02H284.272V156.857Z" fill="#F0F0F0"/>
<path d="M284.272 160.486H282.107V162.649H284.272V160.486Z" fill="#F0F0F0"/>
<path d="M284.272 164.115H282.107V166.277H284.272V164.115Z" fill="#F0F0F0"/>
<path d="M284.272 167.744H282.107V169.906H284.272V167.744Z" fill="#F0F0F0"/>
<path d="M284.272 171.367H282.107V173.529H284.272V171.367Z" fill="#F0F0F0"/>
<path d="M284.272 174.996H282.107V177.158H284.272V174.996Z" fill="#F0F0F0"/>
<path d="M284.272 189.516H282.107V191.678H284.272V189.516Z" fill="#F0F0F0"/>
<path d="M280.829 149.598H278.664V151.76H280.829V149.598Z" fill="#F0F0F0"/>
<path d="M280.829 153.227H278.664V155.389H280.829V153.227Z" fill="#F0F0F0"/>
<path d="M280.829 156.857H278.664V159.02H280.829V156.857Z" fill="#F0F0F0"/>
<path d="M280.829 160.486H278.664V162.649H280.829V160.486Z" fill="#F0F0F0"/>
<path d="M280.829 164.115H278.664V166.277H280.829V164.115Z" fill="#F0F0F0"/>
<path d="M280.829 167.744H278.664V169.906H280.829V167.744Z" fill="#F0F0F0"/>
<path d="M280.829 171.367H278.664V173.529H280.829V171.367Z" fill="#F0F0F0"/>
<path d="M280.829 174.996H278.664V177.158H280.829V174.996Z" fill="#F0F0F0"/>
<path d="M277.385 149.598H275.22V151.76H277.385V149.598Z" fill="#F0F0F0"/>
<path d="M277.385 153.227H275.22V155.389H277.385V153.227Z" fill="#F0F0F0"/>
<path d="M277.385 156.857H275.22V159.02H277.385V156.857Z" fill="#F0F0F0"/>
<path d="M277.385 160.486H275.22V162.649H277.385V160.486Z" fill="#F0F0F0"/>
<path d="M277.385 164.115H275.22V166.277H277.385V164.115Z" fill="#F0F0F0"/>
<path d="M277.385 167.744H275.22V169.906H277.385V167.744Z" fill="#F0F0F0"/>
<path d="M277.385 174.996H275.22V177.158H277.385V174.996Z" fill="#F0F0F0"/>
<path d="M277.385 178.625H275.22V180.787H277.385V178.625Z" fill="#F0F0F0"/>
<path d="M277.385 189.516H275.22V191.678H277.385V189.516Z" fill="#F0F0F0"/>
<path d="M277.385 193.145H275.22V195.307H277.385V193.145Z" fill="#F0F0F0"/>
<path d="M277.385 196.773H275.22V198.936H277.385V196.773Z" fill="#F0F0F0"/>
<path d="M277.385 200.404H275.22V202.566H277.385V200.404Z" fill="#F0F0F0"/>
<path d="M277.385 204.033H275.22V206.195H277.385V204.033Z" fill="#F0F0F0"/>
<path d="M277.385 207.654H275.22V209.816H277.385V207.654Z" fill="#F0F0F0"/>
<path d="M277.385 211.285H275.22V213.447H277.385V211.285Z" fill="#F0F0F0"/>
<path d="M273.942 149.598H271.777V151.76H273.942V149.598Z" fill="#F0F0F0"/>
<path d="M273.942 153.227H271.777V155.389H273.942V153.227Z" fill="#F0F0F0"/>
<path d="M273.942 156.857H271.777V159.02H273.942V156.857Z" fill="#F0F0F0"/>
<path d="M273.942 160.486H271.777V162.649H273.942V160.486Z" fill="#F0F0F0"/>
<path d="M273.942 164.115H271.777V166.277H273.942V164.115Z" fill="#F0F0F0"/>
<path d="M273.942 167.744H271.777V169.906H273.942V167.744Z" fill="#F0F0F0"/>
<path d="M273.942 178.625H271.777V180.787H273.942V178.625Z" fill="#F0F0F0"/>
<path d="M273.942 182.256H271.777V184.418H273.942V182.256Z" fill="#F0F0F0"/>
<path d="M273.942 185.885H271.777V188.047H273.942V185.885Z" fill="#F0F0F0"/>
<path d="M273.942 189.516H271.777V191.678H273.942V189.516Z" fill="#F0F0F0"/>
<path d="M273.942 193.145H271.777V195.307H273.942V193.145Z" fill="#F0F0F0"/>
<path d="M273.942 196.773H271.777V198.936H273.942V196.773Z" fill="#F0F0F0"/>
<path d="M273.942 200.404H271.777V202.566H273.942V200.404Z" fill="#F0F0F0"/>
<path d="M273.942 204.033H271.777V206.195H273.942V204.033Z" fill="#F0F0F0"/>
<path d="M273.942 207.654H271.777V209.816H273.942V207.654Z" fill="#F0F0F0"/>
<path d="M273.942 211.285H271.777V213.447H273.942V211.285Z" fill="#F0F0F0"/>
<path d="M273.942 214.914H271.777V217.076H273.942V214.914Z" fill="#F0F0F0"/>
<path d="M273.942 222.172H271.777V224.334H273.942V222.172Z" fill="#F0F0F0"/>
<path d="M270.499 149.598H268.333V151.76H270.499V149.598Z" fill="#F0F0F0"/>
<path d="M270.499 153.227H268.333V155.389H270.499V153.227Z" fill="#F0F0F0"/>
<path d="M270.499 156.857H268.333V159.02H270.499V156.857Z" fill="#F0F0F0"/>
<path d="M270.499 160.486H268.333V162.649H270.499V160.486Z" fill="#F0F0F0"/>
<path d="M270.499 164.115H268.333V166.277H270.499V164.115Z" fill="#F0F0F0"/>
<path d="M270.499 167.744H268.333V169.906H270.499V167.744Z" fill="#F0F0F0"/>
<path d="M270.499 178.625H268.333V180.787H270.499V178.625Z" fill="#F0F0F0"/>
<path d="M270.499 182.256H268.333V184.418H270.499V182.256Z" fill="#F0F0F0"/>
<path d="M270.499 185.885H268.333V188.047H270.499V185.885Z" fill="#F0F0F0"/>
<path d="M270.499 189.516H268.333V191.678H270.499V189.516Z" fill="#F0F0F0"/>
<path d="M270.499 200.404H268.333V202.566H270.499V200.404Z" fill="#F0F0F0"/>
<path d="M270.499 204.033H268.333V206.195H270.499V204.033Z" fill="#F0F0F0"/>
<path d="M270.499 207.654H268.333V209.816H270.499V207.654Z" fill="#F0F0F0"/>
<path d="M270.499 211.285H268.333V213.447H270.499V211.285Z" fill="#F0F0F0"/>
<path d="M270.499 214.914H268.333V217.076H270.499V214.914Z" fill="#F0F0F0"/>
<path d="M270.499 222.172H268.333V224.334H270.499V222.172Z" fill="#F0F0F0"/>
<path d="M270.499 225.803H268.333V227.965H270.499V225.803Z" fill="#F0F0F0"/>
<path d="M239.265 183.342H237.1V185.504H239.265V183.342Z" fill="#F0F0F0"/>
<path d="M239.265 186.971H237.1V189.133H239.265V186.971Z" fill="#F0F0F0"/>
<path d="M239.265 190.6H237.1V192.762H239.265V190.6Z" fill="#F0F0F0"/>
<path d="M239.265 194.221H237.1V196.383H239.265V194.221Z" fill="#F0F0F0"/>
<path d="M239.265 197.852H237.1V200.014H239.265V197.852Z" fill="#F0F0F0"/>
<path d="M239.265 201.48H237.1V203.643H239.265V201.48Z" fill="#F0F0F0"/>
<path d="M239.265 205.111H237.1V207.274H239.265V205.111Z" fill="#F0F0F0"/>
<path d="M239.265 215.998H237.1V218.16H239.265V215.998Z" fill="#F0F0F0"/>
<path d="M239.265 219.629H237.1V221.791H239.265V219.629Z" fill="#F0F0F0"/>
<path d="M239.265 223.26H237.1V225.422H239.265V223.26Z" fill="#F0F0F0"/>
<path d="M235.822 183.342H233.657V185.504H235.822V183.342Z" fill="#F0F0F0"/>
<path d="M235.822 186.971H233.657V189.133H235.822V186.971Z" fill="#F0F0F0"/>
<path d="M235.822 190.6H233.657V192.762H235.822V190.6Z" fill="#F0F0F0"/>
<path d="M235.822 194.221H233.657V196.383H235.822V194.221Z" fill="#F0F0F0"/>
<path d="M235.822 197.852H233.657V200.014H235.822V197.852Z" fill="#F0F0F0"/>
<path d="M235.822 201.48H233.657V203.643H235.822V201.48Z" fill="#F0F0F0"/>
<path d="M235.822 205.111H233.657V207.274H235.822V205.111Z" fill="#F0F0F0"/>
<path d="M232.378 183.342H230.213V185.504H232.378V183.342Z" fill="#F0F0F0"/>
<path d="M232.378 186.971H230.213V189.133H232.378V186.971Z" fill="#F0F0F0"/>
<path d="M232.378 190.6H230.213V192.762H232.378V190.6Z" fill="#F0F0F0"/>
<path d="M232.378 194.221H230.213V196.383H232.378V194.221Z" fill="#F0F0F0"/>
<path d="M232.378 197.852H230.213V200.014H232.378V197.852Z" fill="#F0F0F0"/>
<path d="M232.378 201.48H230.213V203.643H232.378V201.48Z" fill="#F0F0F0"/>
<path d="M232.378 205.111H230.213V207.274H232.378V205.111Z" fill="#F0F0F0"/>
<path d="M228.935 183.342H226.77V185.504H228.935V183.342Z" fill="#F0F0F0"/>
<path d="M228.935 186.971H226.77V189.133H228.935V186.971Z" fill="#F0F0F0"/>
<path d="M228.935 190.6H226.77V192.762H228.935V190.6Z" fill="#F0F0F0"/>
<path d="M228.935 194.221H226.77V196.383H228.935V194.221Z" fill="#F0F0F0"/>
<path d="M228.935 197.852H226.77V200.014H228.935V197.852Z" fill="#F0F0F0"/>
<path d="M228.935 201.48H226.77V203.643H228.935V201.48Z" fill="#F0F0F0"/>
<path d="M228.935 205.111H226.77V207.274H228.935V205.111Z" fill="#F0F0F0"/>
<path d="M228.935 208.74H226.77V210.902H228.935V208.74Z" fill="#F0F0F0"/>
<path d="M228.935 212.369H226.77V214.531H228.935V212.369Z" fill="#F0F0F0"/>
<path d="M228.935 215.998H226.77V218.16H228.935V215.998Z" fill="#F0F0F0"/>
<path d="M228.935 219.629H226.77V221.791H228.935V219.629Z" fill="#F0F0F0"/>
<path d="M225.492 183.342H223.327V185.504H225.492V183.342Z" fill="#F0F0F0"/>
<path d="M225.492 186.971H223.327V189.133H225.492V186.971Z" fill="#F0F0F0"/>
<path d="M225.492 190.6H223.327V192.762H225.492V190.6Z" fill="#F0F0F0"/>
<path d="M225.492 194.221H223.327V196.383H225.492V194.221Z" fill="#F0F0F0"/>
<path d="M225.492 197.852H223.327V200.014H225.492V197.852Z" fill="#F0F0F0"/>
<path d="M225.492 201.48H223.327V203.643H225.492V201.48Z" fill="#F0F0F0"/>
<path d="M225.492 205.111H223.327V207.274H225.492V205.111Z" fill="#F0F0F0"/>
<path d="M225.492 208.74H223.327V210.902H225.492V208.74Z" fill="#F0F0F0"/>
<path d="M225.492 212.369H223.327V214.531H225.492V212.369Z" fill="#F0F0F0"/>
<path d="M225.492 215.998H223.327V218.16H225.492V215.998Z" fill="#F0F0F0"/>
<path d="M225.492 219.629H223.327V221.791H225.492V219.629Z" fill="#F0F0F0"/>
<path d="M225.492 223.26H223.327V225.422H225.492V223.26Z" fill="#F0F0F0"/>
<path d="M225.492 234.139H223.327V236.301H225.492V234.139Z" fill="#F0F0F0"/>
<path d="M225.492 237.768H223.327V239.93H225.492V237.768Z" fill="#F0F0F0"/>
<path d="M222.048 183.342H219.883V185.504H222.048V183.342Z" fill="#F0F0F0"/>
<path d="M222.048 186.971H219.883V189.133H222.048V186.971Z" fill="#F0F0F0"/>
<path d="M222.048 190.6H219.883V192.762H222.048V190.6Z" fill="#F0F0F0"/>
<path d="M222.048 201.48H219.883V203.643H222.048V201.48Z" fill="#F0F0F0"/>
<path d="M222.048 205.111H219.883V207.274H222.048V205.111Z" fill="#F0F0F0"/>
<path d="M222.048 208.74H219.883V210.902H222.048V208.74Z" fill="#F0F0F0"/>
<path d="M222.048 212.369H219.883V214.531H222.048V212.369Z" fill="#F0F0F0"/>
<path d="M222.048 215.998H219.883V218.16H222.048V215.998Z" fill="#F0F0F0"/>
<path d="M222.048 219.629H219.883V221.791H222.048V219.629Z" fill="#F0F0F0"/>
<path d="M222.048 223.26H219.883V225.422H222.048V223.26Z" fill="#F0F0F0"/>
<path d="M222.048 234.139H219.883V236.301H222.048V234.139Z" fill="#F0F0F0"/>
<path d="M222.048 237.768H219.883V239.93H222.048V237.768Z" fill="#F0F0F0"/>
<path d="M222.048 241.398H219.883V243.561H222.048V241.398Z" fill="#F0F0F0"/>
<path d="M185.972 161.562H183.807V163.725H185.972V161.562Z" fill="#F0F0F0"/>
<path d="M185.972 165.193H183.807V167.356H185.972V165.193Z" fill="#F0F0F0"/>
<path d="M185.972 168.822H183.807V170.984H185.972V168.822Z" fill="#F0F0F0"/>
<path d="M185.972 172.451H183.807V174.613H185.972V172.451Z" fill="#F0F0F0"/>
<path d="M185.972 176.08H183.807V178.242H185.972V176.08Z" fill="#F0F0F0"/>
<path d="M185.972 179.711H183.807V181.873H185.972V179.711Z" fill="#F0F0F0"/>
<path d="M185.972 183.342H183.807V185.504H185.972V183.342Z" fill="#F0F0F0"/>
<path d="M185.972 186.971H183.807V189.133H185.972V186.971Z" fill="#F0F0F0"/>
<path d="M185.972 190.6H183.807V192.762H185.972V190.6Z" fill="#F0F0F0"/>
<path d="M185.972 194.221H183.807V196.383H185.972V194.221Z" fill="#F0F0F0"/>
<path d="M185.972 197.852H183.807V200.014H185.972V197.852Z" fill="#F0F0F0"/>
<path d="M185.972 201.48H183.807V203.643H185.972V201.48Z" fill="#F0F0F0"/>
<path d="M185.972 205.111H183.807V207.274H185.972V205.111Z" fill="#F0F0F0"/>
<path d="M185.972 208.74H183.807V210.902H185.972V208.74Z" fill="#F0F0F0"/>
<path d="M185.972 212.369H183.807V214.531H185.972V212.369Z" fill="#F0F0F0"/>
<path d="M185.972 215.998H183.807V218.16H185.972V215.998Z" fill="#F0F0F0"/>
<path d="M185.972 219.629H183.807V221.791H185.972V219.629Z" fill="#F0F0F0"/>
<path d="M185.972 223.26H183.807V225.422H185.972V223.26Z" fill="#F0F0F0"/>
<path d="M185.972 226.889H183.807V229.051H185.972V226.889Z" fill="#F0F0F0"/>
<path d="M185.972 230.51H183.807V232.672H185.972V230.51Z" fill="#F0F0F0"/>
<path d="M185.972 234.139H183.807V236.301H185.972V234.139Z" fill="#F0F0F0"/>
<path d="M185.972 237.768H183.807V239.93H185.972V237.768Z" fill="#F0F0F0"/>
<path d="M185.972 241.398H183.807V243.561H185.972V241.398Z" fill="#F0F0F0"/>
<path d="M182.528 161.562H180.363V163.725H182.528V161.562Z" fill="#F0F0F0"/>
<path d="M182.528 165.193H180.363V167.356H182.528V165.193Z" fill="#F0F0F0"/>
<path d="M182.528 168.822H180.363V170.984H182.528V168.822Z" fill="#F0F0F0"/>
<path d="M182.528 172.451H180.363V174.613H182.528V172.451Z" fill="#F0F0F0"/>
<path d="M182.528 176.08H180.363V178.242H182.528V176.08Z" fill="#F0F0F0"/>
<path d="M182.528 179.711H180.363V181.873H182.528V179.711Z" fill="#F0F0F0"/>
<path d="M182.528 183.342H180.363V185.504H182.528V183.342Z" fill="#F0F0F0"/>
<path d="M182.528 186.971H180.363V189.133H182.528V186.971Z" fill="#F0F0F0"/>
<path d="M182.528 190.6H180.363V192.762H182.528V190.6Z" fill="#F0F0F0"/>
<path d="M182.528 194.221H180.363V196.383H182.528V194.221Z" fill="#F0F0F0"/>
<path d="M182.528 197.852H180.363V200.014H182.528V197.852Z" fill="#F0F0F0"/>
<path d="M182.528 201.48H180.363V203.643H182.528V201.48Z" fill="#F0F0F0"/>
<path d="M182.528 205.111H180.363V207.274H182.528V205.111Z" fill="#F0F0F0"/>
<path d="M182.528 208.74H180.363V210.902H182.528V208.74Z" fill="#F0F0F0"/>
<path d="M182.528 212.369H180.363V214.531H182.528V212.369Z" fill="#F0F0F0"/>
<path d="M182.528 215.998H180.363V218.16H182.528V215.998Z" fill="#F0F0F0"/>
<path d="M182.528 219.629H180.363V221.791H182.528V219.629Z" fill="#F0F0F0"/>
<path d="M182.528 223.26H180.363V225.422H182.528V223.26Z" fill="#F0F0F0"/>
<path d="M182.528 226.889H180.363V229.051H182.528V226.889Z" fill="#F0F0F0"/>
<path d="M179.085 161.562H176.92V163.725H179.085V161.562Z" fill="#F0F0F0"/>
<path d="M179.085 165.193H176.92V167.356H179.085V165.193Z" fill="#F0F0F0"/>
<path d="M179.085 168.822H176.92V170.984H179.085V168.822Z" fill="#F0F0F0"/>
<path d="M179.085 172.451H176.92V174.613H179.085V172.451Z" fill="#F0F0F0"/>
<path d="M179.085 176.08H176.92V178.242H179.085V176.08Z" fill="#F0F0F0"/>
<path d="M179.085 179.711H176.92V181.873H179.085V179.711Z" fill="#F0F0F0"/>
<path d="M179.085 183.342H176.92V185.504H179.085V183.342Z" fill="#F0F0F0"/>
<path d="M179.085 186.971H176.92V189.133H179.085V186.971Z" fill="#F0F0F0"/>
<path d="M179.085 190.6H176.92V192.762H179.085V190.6Z" fill="#F0F0F0"/>
<path d="M179.085 194.221H176.92V196.383H179.085V194.221Z" fill="#F0F0F0"/>
<path d="M179.085 197.852H176.92V200.014H179.085V197.852Z" fill="#F0F0F0"/>
<path d="M179.085 201.48H176.92V203.643H179.085V201.48Z" fill="#F0F0F0"/>
<path d="M179.085 205.111H176.92V207.274H179.085V205.111Z" fill="#F0F0F0"/>
<path d="M179.085 208.74H176.92V210.902H179.085V208.74Z" fill="#F0F0F0"/>
<path d="M179.085 212.369H176.92V214.531H179.085V212.369Z" fill="#F0F0F0"/>
<path d="M179.085 215.998H176.92V218.16H179.085V215.998Z" fill="#F0F0F0"/>
<path d="M179.085 219.629H176.92V221.791H179.085V219.629Z" fill="#F0F0F0"/>
<path d="M179.085 223.26H176.92V225.422H179.085V223.26Z" fill="#F0F0F0"/>
<path d="M179.085 226.889H176.92V229.051H179.085V226.889Z" fill="#F0F0F0"/>
<path d="M175.642 161.562H173.477V163.725H175.642V161.562Z" fill="#F0F0F0"/>
<path d="M175.642 165.193H173.477V167.356H175.642V165.193Z" fill="#F0F0F0"/>
<path d="M175.642 168.822H173.477V170.984H175.642V168.822Z" fill="#F0F0F0"/>
<path d="M175.642 172.451H173.477V174.613H175.642V172.451Z" fill="#F0F0F0"/>
<path d="M175.642 176.08H173.477V178.242H175.642V176.08Z" fill="#F0F0F0"/>
<path d="M175.642 179.711H173.477V181.873H175.642V179.711Z" fill="#F0F0F0"/>
<path d="M175.642 183.342H173.477V185.504H175.642V183.342Z" fill="#F0F0F0"/>
<path d="M175.642 186.971H173.477V189.133H175.642V186.971Z" fill="#F0F0F0"/>
<path d="M175.642 190.6H173.477V192.762H175.642V190.6Z" fill="#F0F0F0"/>
<path d="M175.642 194.221H173.477V196.383H175.642V194.221Z" fill="#F0F0F0"/>
<path d="M175.642 197.852H173.477V200.014H175.642V197.852Z" fill="#F0F0F0"/>
<path d="M175.642 201.48H173.477V203.643H175.642V201.48Z" fill="#F0F0F0"/>
<path d="M175.642 205.111H173.477V207.274H175.642V205.111Z" fill="#F0F0F0"/>
<path d="M175.642 208.74H173.477V210.902H175.642V208.74Z" fill="#F0F0F0"/>
<path d="M175.642 212.369H173.477V214.531H175.642V212.369Z" fill="#F0F0F0"/>
<path d="M172.198 161.562H170.033V163.725H172.198V161.562Z" fill="#F0F0F0"/>
<path d="M172.198 165.193H170.033V167.356H172.198V165.193Z" fill="#F0F0F0"/>
<path d="M172.198 168.822H170.033V170.984H172.198V168.822Z" fill="#F0F0F0"/>
<path d="M172.198 172.451H170.033V174.613H172.198V172.451Z" fill="#F0F0F0"/>
<path d="M172.198 176.08H170.033V178.242H172.198V176.08Z" fill="#F0F0F0"/>
<path d="M172.198 179.711H170.033V181.873H172.198V179.711Z" fill="#F0F0F0"/>
<path d="M172.198 183.342H170.033V185.504H172.198V183.342Z" fill="#F0F0F0"/>
<path d="M172.198 186.971H170.033V189.133H172.198V186.971Z" fill="#F0F0F0"/>
<path d="M172.198 190.6H170.033V192.762H172.198V190.6Z" fill="#F0F0F0"/>
<path d="M172.198 194.221H170.033V196.383H172.198V194.221Z" fill="#F0F0F0"/>
<path d="M172.198 197.852H170.033V200.014H172.198V197.852Z" fill="#F0F0F0"/>
<path d="M172.198 201.48H170.033V203.643H172.198V201.48Z" fill="#F0F0F0"/>
<path d="M172.198 205.111H170.033V207.274H172.198V205.111Z" fill="#F0F0F0"/>
<path d="M168.755 161.562H166.59V163.725H168.755V161.562Z" fill="#F0F0F0"/>
<path d="M168.755 165.193H166.59V167.356H168.755V165.193Z" fill="#F0F0F0"/>
<path d="M168.755 168.822H166.59V170.984H168.755V168.822Z" fill="#F0F0F0"/>
<path d="M168.755 172.451H166.59V174.613H168.755V172.451Z" fill="#F0F0F0"/>
<path d="M168.755 176.08H166.59V178.242H168.755V176.08Z" fill="#F0F0F0"/>
<path d="M168.755 179.711H166.59V181.873H168.755V179.711Z" fill="#F0F0F0"/>
<path d="M168.755 183.342H166.59V185.504H168.755V183.342Z" fill="#F0F0F0"/>
<path d="M168.755 186.971H166.59V189.133H168.755V186.971Z" fill="#F0F0F0"/>
<path d="M168.755 190.6H166.59V192.762H168.755V190.6Z" fill="#F0F0F0"/>
<path d="M168.755 194.221H166.59V196.383H168.755V194.221Z" fill="#F0F0F0"/>
<path d="M168.755 197.852H166.59V200.014H168.755V197.852Z" fill="#F0F0F0"/>
<path d="M168.755 201.48H166.59V203.643H168.755V201.48Z" fill="#F0F0F0"/>
<path d="M302.758 185.885H300.593V188.047H302.758V185.885Z" fill="#F0F0F0"/>
<path d="M302.758 189.516H300.593V191.678H302.758V189.516Z" fill="#F0F0F0"/>
<path d="M302.758 193.145H300.593V195.307H302.758V193.145Z" fill="#F0F0F0"/>
<path d="M302.758 196.773H300.593V198.936H302.758V196.773Z" fill="#F0F0F0"/>
<path d="M302.758 200.404H300.593V202.566H302.758V200.404Z" fill="#F0F0F0"/>
<path d="M302.758 204.033H300.593V206.195H302.758V204.033Z" fill="#F0F0F0"/>
<path d="M302.758 207.654H300.593V209.816H302.758V207.654Z" fill="#F0F0F0"/>
<path d="M302.758 211.285H300.593V213.447H302.758V211.285Z" fill="#F0F0F0"/>
<path d="M302.758 214.914H300.593V217.076H302.758V214.914Z" fill="#F0F0F0"/>
<path d="M302.758 218.543H300.593V220.705H302.758V218.543Z" fill="#F0F0F0"/>
<path d="M302.758 222.172H300.593V224.334H302.758V222.172Z" fill="#F0F0F0"/>
<path d="M302.758 225.803H300.593V227.965H302.758V225.803Z" fill="#F0F0F0"/>
<path d="M302.758 229.432H300.593V231.594H302.758V229.432Z" fill="#F0F0F0"/>
<path d="M302.758 236.691H300.593V238.854H302.758V236.691Z" fill="#F0F0F0"/>
<path d="M302.758 240.312H300.593V242.475H302.758V240.312Z" fill="#F0F0F0"/>
<path d="M302.758 243.941H300.593V246.104H302.758V243.941Z" fill="#F0F0F0"/>
<path d="M302.758 247.572H300.593V249.734H302.758V247.572Z" fill="#F0F0F0"/>
<path d="M302.758 254.832H300.593V256.994H302.758V254.832Z" fill="#F0F0F0"/>
<path d="M302.758 258.461H300.593V260.623H302.758V258.461Z" fill="#F0F0F0"/>
<path d="M302.758 262.09H300.593V264.252H302.758V262.09Z" fill="#F0F0F0"/>
<path d="M299.315 185.885H297.149V188.047H299.315V185.885Z" fill="#F0F0F0"/>
<path d="M299.315 189.516H297.149V191.678H299.315V189.516Z" fill="#F0F0F0"/>
<path d="M299.315 193.145H297.149V195.307H299.315V193.145Z" fill="#F0F0F0"/>
<path d="M299.315 196.773H297.149V198.936H299.315V196.773Z" fill="#F0F0F0"/>
<path d="M299.315 200.404H297.149V202.566H299.315V200.404Z" fill="#F0F0F0"/>
<path d="M299.315 204.033H297.149V206.195H299.315V204.033Z" fill="#F0F0F0"/>
<path d="M299.315 207.654H297.149V209.816H299.315V207.654Z" fill="#F0F0F0"/>
<path d="M299.315 211.285H297.149V213.447H299.315V211.285Z" fill="#F0F0F0"/>
<path d="M299.315 214.914H297.149V217.076H299.315V214.914Z" fill="#F0F0F0"/>
<path d="M299.315 218.543H297.149V220.705H299.315V218.543Z" fill="#F0F0F0"/>
<path d="M299.315 222.172H297.149V224.334H299.315V222.172Z" fill="#F0F0F0"/>
<path d="M299.315 225.803H297.149V227.965H299.315V225.803Z" fill="#F0F0F0"/>
<path d="M299.315 229.432H297.149V231.594H299.315V229.432Z" fill="#F0F0F0"/>
<path d="M299.315 240.312H297.149V242.475H299.315V240.312Z" fill="#F0F0F0"/>
<path d="M299.315 243.941H297.149V246.104H299.315V243.941Z" fill="#F0F0F0"/>
<path d="M299.315 251.203H297.149V253.365H299.315V251.203Z" fill="#F0F0F0"/>
<path d="M299.315 254.832H297.149V256.994H299.315V254.832Z" fill="#F0F0F0"/>
<path d="M299.315 258.461H297.149V260.623H299.315V258.461Z" fill="#F0F0F0"/>
<path d="M299.315 262.09H297.149V264.252H299.315V262.09Z" fill="#F0F0F0"/>
<path d="M295.872 185.885H293.707V188.047H295.872V185.885Z" fill="#F0F0F0"/>
<path d="M295.872 189.516H293.707V191.678H295.872V189.516Z" fill="#F0F0F0"/>
<path d="M295.872 193.145H293.707V195.307H295.872V193.145Z" fill="#F0F0F0"/>
<path d="M295.872 196.773H293.707V198.936H295.872V196.773Z" fill="#F0F0F0"/>
<path d="M295.872 200.404H293.707V202.566H295.872V200.404Z" fill="#F0F0F0"/>
<path d="M295.872 204.033H293.707V206.195H295.872V204.033Z" fill="#F0F0F0"/>
<path d="M295.872 207.654H293.707V209.816H295.872V207.654Z" fill="#F0F0F0"/>
<path d="M295.872 211.285H293.707V213.447H295.872V211.285Z" fill="#F0F0F0"/>
<path d="M295.872 214.914H293.707V217.076H295.872V214.914Z" fill="#F0F0F0"/>
<path d="M295.872 218.543H293.707V220.705H295.872V218.543Z" fill="#F0F0F0"/>
<path d="M295.872 222.172H293.707V224.334H295.872V222.172Z" fill="#F0F0F0"/>
<path d="M295.872 225.803H293.707V227.965H295.872V225.803Z" fill="#F0F0F0"/>
<path d="M295.872 229.432H293.707V231.594H295.872V229.432Z" fill="#F0F0F0"/>
<path d="M295.872 233.062H293.707V235.225H295.872V233.062Z" fill="#F0F0F0"/>
<path d="M295.872 240.312H293.707V242.475H295.872V240.312Z" fill="#F0F0F0"/>
<path d="M295.872 247.572H293.707V249.734H295.872V247.572Z" fill="#F0F0F0"/>
<path d="M295.872 251.203H293.707V253.365H295.872V251.203Z" fill="#F0F0F0"/>
<path d="M295.872 254.832H293.707V256.994H295.872V254.832Z" fill="#F0F0F0"/>
<path d="M295.872 258.461H293.707V260.623H295.872V258.461Z" fill="#F0F0F0"/>
<path d="M295.872 262.09H293.707V264.252H295.872V262.09Z" fill="#F0F0F0"/>
<path d="M316.784 206.578H314.619V208.74H316.784V206.578Z" fill="#F0F0F0"/>
<path d="M316.784 210.207H314.619V212.369H316.784V210.207Z" fill="#F0F0F0"/>
<path d="M316.784 213.836H314.619V215.998H316.784V213.836Z" fill="#F0F0F0"/>
<path d="M316.784 217.459H314.619V219.621H316.784V217.459Z" fill="#F0F0F0"/>
<path d="M316.784 221.088H314.619V223.25H316.784V221.088Z" fill="#F0F0F0"/>
<path d="M316.784 224.717H314.619V226.879H316.784V224.717Z" fill="#F0F0F0"/>
<path d="M316.784 235.605H314.619V237.768H316.784V235.605Z" fill="#F0F0F0"/>
<path d="M316.784 239.236H314.619V241.398H316.784V239.236Z" fill="#F0F0F0"/>
<path d="M316.784 242.867H314.619V245.029H316.784V242.867Z" fill="#F0F0F0"/>
<path d="M316.784 246.496H314.619V248.658H316.784V246.496Z" fill="#F0F0F0"/>
<path d="M316.784 250.125H314.619V252.287H316.784V250.125Z" fill="#F0F0F0"/>
<path d="M316.784 253.746H314.619V255.908H316.784V253.746Z" fill="#F0F0F0"/>
<path d="M316.784 257.375H314.619V259.537H316.784V257.375Z" fill="#F0F0F0"/>
<path d="M313.34 206.578H311.175V208.74H313.34V206.578Z" fill="#F0F0F0"/>
<path d="M313.34 210.207H311.175V212.369H313.34V210.207Z" fill="#F0F0F0"/>
<path d="M313.34 213.836H311.175V215.998H313.34V213.836Z" fill="#F0F0F0"/>
<path d="M313.34 217.459H311.175V219.621H313.34V217.459Z" fill="#F0F0F0"/>
<path d="M313.34 221.088H311.175V223.25H313.34V221.088Z" fill="#F0F0F0"/>
<path d="M313.34 224.717H311.175V226.879H313.34V224.717Z" fill="#F0F0F0"/>
<path d="M313.34 235.605H311.175V237.768H313.34V235.605Z" fill="#F0F0F0"/>
<path d="M313.34 239.236H311.175V241.398H313.34V239.236Z" fill="#F0F0F0"/>
<path d="M313.34 242.867H311.175V245.029H313.34V242.867Z" fill="#F0F0F0"/>
<path d="M313.34 246.496H311.175V248.658H313.34V246.496Z" fill="#F0F0F0"/>
<path d="M313.34 250.125H311.175V252.287H313.34V250.125Z" fill="#F0F0F0"/>
<path d="M313.34 253.746H311.175V255.908H313.34V253.746Z" fill="#F0F0F0"/>
<path d="M313.34 261.006H311.175V263.168H313.34V261.006Z" fill="#F0F0F0"/>
<path d="M198.971 190.6H196.806V192.762H198.971V190.6Z" fill="#F0F0F0"/>
<path d="M198.971 194.221H196.806V196.383H198.971V194.221Z" fill="#F0F0F0"/>
<path d="M198.971 197.852H196.806V200.014H198.971V197.852Z" fill="#F0F0F0"/>
<path d="M198.971 201.48H196.806V203.643H198.971V201.48Z" fill="#F0F0F0"/>
<path d="M198.971 205.111H196.806V207.274H198.971V205.111Z" fill="#F0F0F0"/>
<path d="M198.971 208.74H196.806V210.902H198.971V208.74Z" fill="#F0F0F0"/>
<path d="M198.971 212.369H196.806V214.531H198.971V212.369Z" fill="#F0F0F0"/>
<path d="M198.971 215.998H196.806V218.16H198.971V215.998Z" fill="#F0F0F0"/>
<path d="M198.971 219.629H196.806V221.791H198.971V219.629Z" fill="#F0F0F0"/>
<path d="M198.971 223.26H196.806V225.422H198.971V223.26Z" fill="#F0F0F0"/>
<path d="M198.971 226.889H196.806V229.051H198.971V226.889Z" fill="#F0F0F0"/>
<path d="M198.971 234.139H196.806V236.301H198.971V234.139Z" fill="#F0F0F0"/>
<path d="M198.971 237.768H196.806V239.93H198.971V237.768Z" fill="#F0F0F0"/>
<path d="M198.971 241.398H196.806V243.561H198.971V241.398Z" fill="#F0F0F0"/>
<path d="M198.971 245.029H196.806V247.191H198.971V245.029Z" fill="#F0F0F0"/>
<path d="M198.971 248.658H196.806V250.82H198.971V248.658Z" fill="#F0F0F0"/>
<path d="M198.971 252.287H196.806V254.449H198.971V252.287Z" fill="#F0F0F0"/>
<path d="M198.971 255.916H196.806V258.078H198.971V255.916Z" fill="#F0F0F0"/>
<path d="M198.971 259.545H196.806V261.707H198.971V259.545Z" fill="#F0F0F0"/>
<path d="M195.536 190.6H193.371V192.762H195.536V190.6Z" fill="#F0F0F0"/>
<path d="M195.536 194.221H193.371V196.383H195.536V194.221Z" fill="#F0F0F0"/>
<path d="M195.536 197.852H193.371V200.014H195.536V197.852Z" fill="#F0F0F0"/>
<path d="M195.536 201.48H193.371V203.643H195.536V201.48Z" fill="#F0F0F0"/>
<path d="M195.536 205.111H193.371V207.274H195.536V205.111Z" fill="#F0F0F0"/>
<path d="M195.536 208.74H193.371V210.902H195.536V208.74Z" fill="#F0F0F0"/>
<path d="M195.536 212.369H193.371V214.531H195.536V212.369Z" fill="#F0F0F0"/>
<path d="M195.536 215.998H193.371V218.16H195.536V215.998Z" fill="#F0F0F0"/>
<path d="M195.536 219.629H193.371V221.791H195.536V219.629Z" fill="#F0F0F0"/>
<path d="M195.536 223.26H193.371V225.422H195.536V223.26Z" fill="#F0F0F0"/>
<path d="M195.536 226.889H193.371V229.051H195.536V226.889Z" fill="#F0F0F0"/>
<path d="M195.536 230.51H193.371V232.672H195.536V230.51Z" fill="#F0F0F0"/>
<path d="M195.536 234.139H193.371V236.301H195.536V234.139Z" fill="#F0F0F0"/>
<path d="M195.536 237.768H193.371V239.93H195.536V237.768Z" fill="#F0F0F0"/>
<path d="M195.536 241.398H193.371V243.561H195.536V241.398Z" fill="#F0F0F0"/>
<path d="M195.536 245.029H193.371V247.191H195.536V245.029Z" fill="#F0F0F0"/>
<path d="M195.536 248.658H193.371V250.82H195.536V248.658Z" fill="#F0F0F0"/>
<path d="M195.536 252.287H193.371V254.449H195.536V252.287Z" fill="#F0F0F0"/>
<path d="M195.536 255.916H193.371V258.078H195.536V255.916Z" fill="#F0F0F0"/>
<path d="M195.536 259.545H193.371V261.707H195.536V259.545Z" fill="#F0F0F0"/>
<path d="M215.936 204.729H213.771V206.891H215.936V204.729Z" fill="#F0F0F0"/>
<path d="M215.936 208.357H213.771V210.52H215.936V208.357Z" fill="#F0F0F0"/>
<path d="M215.936 211.986H213.771V214.149H215.936V211.986Z" fill="#F0F0F0"/>
<path d="M215.936 215.617H213.771V217.779H215.936V215.617Z" fill="#F0F0F0"/>
<path d="M215.936 219.248H213.771V221.41H215.936V219.248Z" fill="#F0F0F0"/>
<path d="M215.936 222.877H213.771V225.039H215.936V222.877Z" fill="#F0F0F0"/>
<path d="M215.936 226.506H213.771V228.668H215.936V226.506Z" fill="#F0F0F0"/>
<path d="M215.936 230.127H213.771V232.289H215.936V230.127Z" fill="#F0F0F0"/>
<path d="M215.936 233.758H213.771V235.92H215.936V233.758Z" fill="#F0F0F0"/>
<path d="M215.936 237.387H213.771V239.549H215.936V237.387Z" fill="#F0F0F0"/>
<path d="M212.492 204.729H210.327V206.891H212.492V204.729Z" fill="#F0F0F0"/>
<path d="M212.492 208.357H210.327V210.52H212.492V208.357Z" fill="#F0F0F0"/>
<path d="M212.492 211.986H210.327V214.149H212.492V211.986Z" fill="#F0F0F0"/>
<path d="M212.492 215.617H210.327V217.779H212.492V215.617Z" fill="#F0F0F0"/>
<path d="M212.492 219.248H210.327V221.41H212.492V219.248Z" fill="#F0F0F0"/>
<path d="M212.492 222.877H210.327V225.039H212.492V222.877Z" fill="#F0F0F0"/>
<path d="M212.492 226.506H210.327V228.668H212.492V226.506Z" fill="#F0F0F0"/>
<path d="M212.492 230.127H210.327V232.289H212.492V230.127Z" fill="#F0F0F0"/>
<path d="M212.492 233.758H210.327V235.92H212.492V233.758Z" fill="#F0F0F0"/>
<path d="M232.97 67.0176H229.335V269.411H232.97V67.0176Z" fill="#E0E0E0"/>
<path d="M301.411 67.0176H297.776V269.411H301.411V67.0176Z" fill="#E0E0E0"/>
<path d="M111.175 249.684H133.591C135.713 249.684 137.426 251.394 137.426 253.513V296.782H107.349V253.548C107.331 251.429 109.027 249.701 111.149 249.684H111.175Z" fill="#F0F0F0"/>
<path d="M137.426 256.09H107.349V259.468H137.426V256.09Z" fill="#E6E6E6"/>
<path d="M124.453 291.111H131.948C133.087 291.111 134.009 292.032 134.009 293.169V296.816H122.383V293.169C122.383 292.032 123.305 291.111 124.444 291.111H124.453Z" fill="#E0E0E0"/>
<path d="M134.043 296.816H125.713C124.974 296.816 124.374 296.217 124.374 295.479C124.374 294.741 124.974 294.15 125.713 294.15H134.043C134.782 294.15 135.374 294.741 135.382 295.479C135.382 296.217 134.782 296.816 134.043 296.816Z" fill="#E6E6E6"/>
<path d="M267.596 57.5238C278.603 54.9294 285.42 43.9156 282.822 32.9237C280.224 21.9318 269.196 15.1243 258.189 17.7186C247.182 20.3129 240.365 31.3267 242.963 42.3186C245.561 53.3105 256.589 60.1181 267.596 57.5238Z" fill="#E0E0E0"/>
<path d="M262.89 54.9908C272.509 54.9908 280.307 47.2038 280.307 37.5979C280.307 27.9921 272.509 20.2051 262.89 20.2051C253.271 20.2051 245.474 27.9921 245.474 37.5979C245.474 47.2038 253.271 54.9908 262.89 54.9908Z" fill="#F0F0F0"/>
<path d="M263.716 25.6758V37.8326L271.777 33.2738" fill="#F0F0F0"/>
<path d="M263.716 38.6747C263.56 38.6747 263.403 38.6313 263.273 38.5531C263.012 38.3968 262.847 38.1103 262.847 37.8064V25.6496C262.847 25.172 263.238 24.7812 263.716 24.7812C264.194 24.7812 264.586 25.172 264.586 25.6496V36.3389L271.351 32.5182C271.768 32.2837 272.298 32.4313 272.533 32.8481C272.768 33.2649 272.629 33.7946 272.212 34.0291L264.142 38.5879C264.012 38.6487 263.864 38.6834 263.716 38.6747Z" fill="#E0E0E0"/>
<path d="M66.9245 237.212C65.3593 234.607 62.7855 236.873 62.7855 236.873C63.1507 231.941 58.6118 228.572 58.6118 228.572C58.6118 228.572 63.8898 228.572 64.6202 223.544C65.3506 218.517 62.7855 220.852 60.3682 220.818C57.9509 220.783 55.4206 227.834 58.6292 231.802C61.8377 235.77 60.9595 242.544 53.5946 249.056C51.8294 250.706 50.5165 252.764 49.7513 255.048C50.3078 249.065 50.6208 240.633 48.8817 235.006C45.8906 225.455 51.5947 222.85 53.2294 218.091C54.8641 213.333 48.8817 209.269 48.8817 209.269C48.8817 209.269 54.5424 206.664 51.7773 203.755C49.0122 200.846 43.3081 201.21 43.3081 205.057C43.3081 208.904 47.1775 210.371 47.1775 210.371C47.1775 210.371 51.5947 214.965 51.5947 217.318C51.5947 219.671 47.1775 224.855 47.1775 224.855C47.1775 224.855 49.2035 220.453 45.1515 220.271C41.0995 220.088 39.8126 225.411 41.4734 227.799C43.1342 230.187 45.8906 228.172 45.8906 228.172C46.0645 230.96 46.4818 233.73 47.1514 236.439C47.5688 237.82 47.3775 243.212 47.0296 248.822C46.2645 246.798 45.0297 244.975 43.4385 243.507C36.0736 236.995 35.2214 230.222 38.4126 226.253C41.6038 222.285 39.0734 215.234 36.6735 215.269C34.2736 215.304 31.6738 212.959 32.4129 217.987C33.152 223.015 38.43 223.023 38.43 223.023C38.43 223.023 33.8824 226.392 34.2476 231.325C34.2476 231.325 31.639 229.084 30.1086 231.663C27.3174 236.257 33.7954 239.105 34.8823 236.873C34.8823 236.873 48.6122 246.581 45.3167 260.553L46.0819 261.69C45.9862 262.819 45.9253 263.497 45.9253 263.497L46.9949 263.036L48.2209 264.834C48.1774 266.866 48.2818 268.898 48.5339 270.912L51.8121 266.067C48.4991 252.095 62.2464 242.387 62.2464 242.387C63.2464 244.662 69.7157 241.805 66.9245 237.212Z" fill="#E0E0E0"/>
<path opacity="0.2" d="M66.9245 237.212C65.3593 234.607 62.7855 236.873 62.7855 236.873C63.1507 231.941 58.6118 228.572 58.6118 228.572C58.6118 228.572 63.8898 228.572 64.6202 223.544C65.3506 218.517 62.7855 220.852 60.3682 220.818C57.9509 220.783 55.4206 227.834 58.6292 231.802C61.8377 235.77 60.9595 242.544 53.5946 249.056C51.8294 250.706 50.5165 252.764 49.7513 255.048C50.3078 249.065 50.6208 240.633 48.8817 235.006C45.8906 225.455 51.5947 222.85 53.2294 218.091C54.8641 213.333 48.8817 209.269 48.8817 209.269C48.8817 209.269 54.5424 206.664 51.7773 203.755C49.0122 200.846 43.3081 201.21 43.3081 205.057C43.3081 208.904 47.1775 210.371 47.1775 210.371C47.1775 210.371 51.5947 214.965 51.5947 217.318C51.5947 219.671 47.1775 224.855 47.1775 224.855C47.1775 224.855 49.2035 220.453 45.1515 220.271C41.0995 220.088 39.8126 225.411 41.4734 227.799C43.1342 230.187 45.8906 228.172 45.8906 228.172C46.0645 230.96 46.4818 233.73 47.1514 236.439C47.5688 237.82 47.3775 243.212 47.0296 248.822C46.2645 246.798 45.0297 244.975 43.4385 243.507C36.0736 236.995 35.2214 230.222 38.4126 226.253C41.6038 222.285 39.0734 215.234 36.6735 215.269C34.2736 215.304 31.6738 212.959 32.4129 217.987C33.152 223.015 38.43 223.023 38.43 223.023C38.43 223.023 33.8824 226.392 34.2476 231.325C34.2476 231.325 31.639 229.084 30.1086 231.663C27.3174 236.257 33.7954 239.105 34.8823 236.873C34.8823 236.873 48.6122 246.581 45.3167 260.553L46.0819 261.69C45.9862 262.819 45.9253 263.497 45.9253 263.497L46.9949 263.036L48.2209 264.834C48.1774 266.866 48.2818 268.898 48.5339 270.912L51.8121 266.067C48.4991 252.095 62.2464 242.387 62.2464 242.387C63.2464 244.662 69.7157 241.805 66.9245 237.212Z" fill="#E0E0E0"/>
<path d="M64.2375 296.816H32.7867L29.3955 262.43H67.6374L64.2375 296.816Z" fill="#E6E6E6"/>
<path d="M69.3068 258.635H27.7085V266.224H69.3068V258.635Z" fill="#F0F0F0"/>
<path d="M200.023 336.132C293.135 336.132 368.616 331.731 368.616 326.302C368.616 320.874 293.135 316.473 200.023 316.473C106.912 316.473 31.4302 320.874 31.4302 326.302C31.4302 331.731 106.912 336.132 200.023 336.132Z" fill="#F5F5F5"/>
<path d="M339.539 298.934C339.67 298.066 342.713 277.078 336.618 269.836C335.392 268.291 333.531 267.379 331.557 267.344C319.244 267.057 317.566 276.896 317.549 277.026L319.001 277.252C319.053 276.896 320.514 268.568 331.522 268.812C333.079 268.838 334.539 269.558 335.496 270.774C341.165 277.521 338.104 298.5 338.104 298.717L339.539 298.934Z" fill="currentColor"/>
<path d="M339.539 298.934C339.67 298.066 342.713 277.078 336.618 269.836C335.392 268.291 333.531 267.379 331.557 267.344C319.244 267.057 317.566 276.896 317.549 277.026L319.001 277.252C319.053 276.896 320.514 268.568 331.522 268.812C333.079 268.838 334.539 269.558 335.496 270.774C341.165 277.521 338.104 298.5 338.104 298.717L339.539 298.934Z" fill="currentColor"/>
<path d="M340.278 297.979L341.748 297.927C341.748 297.735 341.261 278.606 350.695 274.655C359.947 270.791 364.112 278.745 364.277 279.084L365.59 278.424C365.547 278.328 360.66 268.872 350.13 273.309C339.765 277.642 340.252 297.145 340.278 297.979Z" fill="currentColor"/>
<path d="M340.278 297.979L341.748 297.927C341.748 297.735 341.261 278.606 350.695 274.655C359.947 270.791 364.112 278.745 364.277 279.084L365.59 278.424C365.547 278.328 360.66 268.872 350.13 273.309C339.765 277.642 340.252 297.145 340.278 297.979Z" fill="currentColor"/>
<path d="M340.235 299.481C340.235 299.178 340.33 268.925 346.234 260.076C351.904 251.575 361.016 255.578 361.443 255.734L362.043 254.397C361.938 254.354 351.382 249.7 345.008 259.243C338.861 268.456 338.774 298.196 338.774 299.464L340.235 299.481Z" fill="currentColor"/>
<path d="M340.235 299.481C340.235 299.178 340.33 268.925 346.234 260.076C351.904 251.575 361.016 255.578 361.443 255.734L362.043 254.397C361.938 254.354 351.382 249.7 345.008 259.243C338.861 268.456 338.774 298.196 338.774 299.464L340.235 299.481Z" fill="currentColor"/>
<path d="M329.792 268.074C329.792 268.074 335.165 270.053 333.566 274.716C331.966 279.379 314.984 287.073 314.984 287.073C314.984 287.073 307.862 280.56 314.401 269.966C320.94 259.373 329.644 264.73 329.792 268.074Z" fill="currentColor"/>
<path d="M329.792 268.074C329.792 268.074 335.165 270.053 333.566 274.716C331.966 279.379 314.984 287.073 314.984 287.073C314.984 287.073 307.862 280.56 314.401 269.966C320.94 259.373 329.644 264.73 329.792 268.074Z" fill="currentColor"/>
<path opacity="0.2" d="M329.792 268.074C329.792 268.074 335.165 270.053 333.566 274.716C331.966 279.379 314.984 287.073 314.984 287.073C314.984 287.073 307.862 280.56 314.401 269.966C320.94 259.373 329.644 264.73 329.792 268.074Z" fill="black"/>
<path d="M326.905 327.026H352.104L354.817 299.482H324.192L326.905 327.026Z" fill="currentColor"/>
<path d="M326.905 327.026H352.104L354.817 299.482H324.192L326.905 327.026Z" fill="currentColor"/>
<path opacity="0.5" d="M326.905 327.026H352.104L354.817 299.482H324.192L326.905 327.026Z" fill="white"/>
<path d="M356.165 296.434H322.844V302.512H356.165V296.434Z" fill="currentColor"/>
<path d="M356.165 296.434H322.844V302.512H356.165V296.434Z" fill="currentColor"/>
<path opacity="0.2" d="M356.165 296.434H322.844V302.512H356.165V296.434Z" fill="white"/>
<path d="M298.384 307.278L273.333 304.82V269.652H263.403V304.803L238.282 307.278C235.787 307.521 233.882 309.622 233.882 312.123V315.883H302.819V312.123C302.819 309.605 300.897 307.503 298.384 307.278Z" fill="#263238"/>
<path opacity="0.2" d="M298.384 307.278L273.333 304.82V269.652H263.403V304.803L238.282 307.278C235.787 307.521 233.882 309.622 233.882 312.123V315.883H302.819V312.123C302.819 309.605 300.897 307.503 298.384 307.278Z" fill="white"/>
<path d="M236.5 327.032C240.087 327.032 242.995 324.127 242.995 320.545C242.995 316.963 240.087 314.059 236.5 314.059C232.912 314.059 230.004 316.963 230.004 320.545C230.004 324.127 232.912 327.032 236.5 327.032Z" fill="#263238"/>
<path d="M300.141 327.032C303.728 327.032 306.636 324.127 306.636 320.545C306.636 316.963 303.728 314.059 300.141 314.059C296.554 314.059 293.646 316.963 293.646 320.545C293.646 324.127 296.554 327.032 300.141 327.032Z" fill="#263238"/>
<path d="M261.699 245.895H275.046V273.621C275.046 275.6 273.437 277.207 271.455 277.207H265.29C263.307 277.207 261.699 275.6 261.699 273.621V245.895Z" fill="#263238"/>
<path opacity="0.3" d="M261.699 245.895H275.046V273.621C275.046 275.6 273.437 277.207 271.455 277.207H265.29C263.307 277.207 261.699 275.6 261.699 273.621V245.895Z" fill="white"/>
<path d="M292.106 190.938C292.106 190.938 294.002 237.828 280.924 245.895H295.854C295.854 245.895 307.418 229.926 304.149 190.938H292.106Z" fill="#263238"/>
<path opacity="0.3" d="M292.106 190.938C292.106 190.938 294.002 237.828 280.924 245.895H295.854C295.854 245.895 307.418 229.926 304.149 190.938H292.106Z" fill="white"/>
<path d="M300.932 249.491H234.048V243.682C234.048 241.285 235.996 239.34 238.395 239.34H296.584C298.984 239.34 300.932 241.285 300.932 243.682V249.491Z" fill="#263238"/>
<path d="M301.966 244.418H233.004C232.039 244.418 231.256 245.199 231.256 246.163V247.744C231.256 248.708 232.039 249.489 233.004 249.489H301.966C302.932 249.489 303.714 248.708 303.714 247.744V246.163C303.714 245.199 302.932 244.418 301.966 244.418Z" fill="#263238"/>
<path opacity="0.6" d="M301.966 244.418H233.004C232.039 244.418 231.256 245.199 231.256 246.163V247.744C231.256 248.708 232.039 249.489 233.004 249.489H301.966C302.932 249.489 303.714 248.708 303.714 247.744V246.163C303.714 245.199 302.932 244.418 301.966 244.418Z" fill="white"/>
<path d="M307.81 165.799H283.898C276.896 165.799 271.22 171.467 271.22 178.459V187.803C271.22 194.795 276.896 200.463 283.898 200.463H307.81C314.812 200.463 320.488 194.795 320.488 187.803V178.459C320.488 171.467 314.812 165.799 307.81 165.799Z" fill="#263238"/>
<path d="M211.37 127.489L206.597 114.924C206.597 114.924 208.649 113.031 207.24 111.112C205.831 109.193 197.032 103.801 195.432 104.747C193.832 105.694 190.258 109.271 192.189 111.26C194.119 113.248 202.623 116.557 202.623 116.557L206.849 133.055L211.37 127.489Z" fill="#E4897B"/>
<path d="M244.699 151.376C244.699 151.376 222.961 146.922 220.64 145.854C218.318 144.786 209.588 119.23 209.588 119.23L202.884 122.357C202.884 122.357 208.275 148.007 213.788 154.103C219.3 160.199 242.83 165.391 242.83 165.391L244.699 151.376Z" fill="currentColor"/>
<path d="M244.699 151.376C244.699 151.376 222.961 146.922 220.64 145.854C218.318 144.786 209.588 119.23 209.588 119.23L202.884 122.357C202.884 122.357 208.275 148.007 213.788 154.103C219.3 160.199 242.83 165.391 242.83 165.391L244.699 151.376Z" fill="currentColor"/>
<path opacity="0.2" d="M242.778 165.365L242.378 165.27C241.195 165.001 237.482 164.132 233.074 162.839C225.918 160.763 216.892 157.629 213.744 154.112C208.24 148.033 202.84 122.357 202.84 122.357L209.536 119.23C209.536 119.23 218.274 144.794 220.64 145.854C223.005 146.913 244.699 151.376 244.699 151.376L242.778 165.365Z" fill="black"/>
<path d="M209.649 118.727L211.031 121.392L202.423 124.353L202.753 121.097L209.649 118.727Z" fill="currentColor"/>
<path d="M209.649 118.727L211.031 121.392L202.423 124.353L202.753 121.097L209.649 118.727Z" fill="currentColor"/>
<path opacity="0.2" d="M242.943 165.011C241.743 164.837 237.978 164.255 233.474 163.274C236.039 158.845 243.551 156.57 243.551 156.57L242.943 165.011Z" fill="black"/>
<path d="M275.307 133.679C275.307 133.679 276.585 145.688 272.133 148.64C267.681 151.593 245.76 148.137 243.274 143.3C240.787 138.464 250.143 125.352 250.143 125.352L275.307 133.679Z" fill="#263238"/>
<path d="M186.624 291.7L192.345 293.081L195.241 285.196L197.867 278.024L191.354 275.254L188.85 283.955L186.624 291.7Z" fill="#E4897B"/>
<path opacity="0.2" d="M188.85 283.955L195.241 285.196L197.867 278.024L191.354 275.254L188.85 283.955Z" fill="black"/>
<path d="M189.423 279.795L197.353 282.739C197.353 282.739 218.509 229.918 222.857 229.77C227.204 229.622 271.472 249.907 282.567 238.636C293.663 227.365 277.62 200.186 277.62 200.186C277.62 200.186 250.934 196.382 248.925 202.4C248.43 204.171 248.056 205.977 247.795 207.801C247.491 209.642 247.282 211.187 247.282 211.187C246.456 210.979 219.666 204.076 209.109 211.187C198.371 218.421 189.423 279.795 189.423 279.795Z" fill="currentColor"/>
<path d="M189.423 279.795L197.353 282.739C197.353 282.739 218.509 229.918 222.857 229.77C227.204 229.622 271.472 249.907 282.567 238.636C293.663 227.365 277.62 200.186 277.62 200.186C277.62 200.186 250.934 196.382 248.925 202.4C248.43 204.171 248.056 205.977 247.795 207.801C247.491 209.642 247.282 211.187 247.282 211.187C246.456 210.979 219.666 204.076 209.109 211.187C198.371 218.421 189.423 279.795 189.423 279.795Z" fill="currentColor"/>
<path opacity="0.6" d="M189.423 279.795L197.353 282.739C197.353 282.739 218.509 229.918 222.857 229.77C227.204 229.622 271.472 249.907 282.567 238.636C293.663 227.365 277.62 200.186 277.62 200.186C277.62 200.186 250.934 196.382 248.925 202.4C248.43 204.171 248.056 205.977 247.795 207.801C247.491 209.642 247.282 211.187 247.282 211.187C246.456 210.979 219.666 204.076 209.109 211.187C198.371 218.421 189.423 279.795 189.423 279.795Z" fill="white"/>
<path d="M235.039 314.235L240.734 312.785L239.639 304.614L238.621 297.129L231.578 297.763L233.404 306.49L235.039 314.235Z" fill="#E4897B"/>
<path opacity="0.2" d="M233.448 306.661L239.674 304.768L238.639 297.205L231.587 297.804L233.448 306.661Z" fill="black"/>
<path d="M200.632 279.805L189.076 275.889L188.58 280.612L197.345 283.704L200.632 279.805Z" fill="currentColor"/>
<path d="M200.632 279.805L189.076 275.889L188.58 280.612L197.345 283.704L200.632 279.805Z" fill="currentColor"/>
<path d="M263.403 241.311C263.403 241.311 261.594 241.354 233.604 240.052C233.604 240.052 237.787 274.994 240.074 301.157L231.7 302.581C231.7 302.581 211.701 246.564 211.918 237.664C212.136 228.763 222.353 226.158 222.353 226.158C222.353 226.158 242.291 237.664 263.403 241.311Z" fill="currentColor"/>
<path d="M263.403 241.311C263.403 241.311 261.594 241.354 233.604 240.052C233.604 240.052 237.787 274.994 240.074 301.157L231.7 302.581C231.7 302.581 211.701 246.564 211.918 237.664C212.136 228.763 222.353 226.158 222.353 226.158C222.353 226.158 242.291 237.664 263.403 241.311Z" fill="currentColor"/>
<path opacity="0.6" d="M263.403 241.311C263.403 241.311 261.594 241.354 233.604 240.052C233.604 240.052 237.787 274.994 240.074 301.157L231.7 302.581C231.7 302.581 211.701 246.564 211.918 237.664C212.136 228.763 222.353 226.158 222.353 226.158C222.353 226.158 242.291 237.664 263.403 241.311Z" fill="white"/>
<path opacity="0.1" d="M263.403 241.311C263.403 241.311 261.594 241.354 233.604 240.052C233.604 240.052 237.787 274.994 240.074 301.157L231.7 302.581C231.7 302.581 211.701 246.564 211.918 237.664C212.136 228.763 222.353 226.158 222.353 226.158C222.353 226.158 242.291 237.664 263.403 241.311Z" fill="black"/>
<path d="M241.291 298.621L229.787 299.932L232.013 304.43L241.326 303.241L241.291 298.621Z" fill="currentColor"/>
<path d="M241.291 298.621L229.787 299.932L232.013 304.43L241.326 303.241L241.291 298.621Z" fill="currentColor"/>
<path opacity="0.1" d="M247.282 211.187L262.89 214.435C262.89 214.435 254.265 209.676 247.795 207.801C247.491 209.642 247.282 211.187 247.282 211.187Z" fill="black"/>
<path d="M276.976 196.045L277.62 200.187L248.925 202.401L248.169 197.495L276.976 196.045Z" fill="#263238"/>
<path opacity="0.2" d="M276.976 196.045L277.62 200.187L248.925 202.401L248.169 197.495L276.976 196.045Z" fill="black"/>
<path d="M268.606 195.624L267.187 195.77L267.93 202.982L269.348 202.837L268.606 195.624Z" fill="currentColor"/>
<path d="M268.606 195.624L267.187 195.77L267.93 202.982L269.348 202.837L268.606 195.624Z" fill="currentColor"/>
<path d="M261.159 197.104L254.877 197.508L255.183 202.265L261.466 201.862L261.159 197.104Z" fill="white"/>
<path d="M250.994 196.386L249.575 196.531L250.318 203.744L251.736 203.598L250.994 196.386Z" fill="currentColor"/>
<path d="M250.994 196.386L249.575 196.531L250.318 203.744L251.736 203.598L250.994 196.386Z" fill="currentColor"/>
<path opacity="0.6" d="M268.606 195.624L267.187 195.77L267.93 202.982L269.348 202.837L268.606 195.624Z" fill="white"/>
<path opacity="0.6" d="M250.994 196.386L249.575 196.531L250.318 203.744L251.736 203.598L250.994 196.386Z" fill="white"/>
<path d="M244.178 150.986C249.551 152.471 255.134 153.079 260.699 152.801C269.916 152.332 280.889 156.769 280.889 156.769L276.941 196.018L248.125 197.469C248.125 197.469 238.482 164.723 244.178 150.986Z" fill="currentColor"/>
<path d="M244.178 150.986C249.551 152.471 255.134 153.079 260.699 152.801C269.916 152.332 280.889 156.769 280.889 156.769L276.941 196.018L248.125 197.469C248.125 197.469 238.482 164.723 244.178 150.986Z" fill="currentColor"/>
<path d="M248.812 128.819C248.812 128.819 250.43 109.767 266.377 116.662C286.376 125.345 270.481 148.565 260.699 143.806C250.917 139.048 248.812 128.819 248.812 128.819Z" fill="#263238"/>
<path opacity="0.2" d="M253.282 153.87L253.743 164.637L257.316 159.575C257.316 159.575 256.038 171.48 256.786 177.966C256.786 177.966 257.473 166.339 259.09 159.575L262.89 164.637L268.342 153.939C268.342 153.939 259.516 150.77 253.282 153.87Z" fill="black"/>
<path d="M258.22 155.901L266.472 153.574C261.385 150.1 263.951 142.285 263.951 142.285L255.777 145.151C256.151 146.288 256.447 147.443 256.647 148.624C257.516 153.713 255.203 154.121 255.203 154.121L258.22 155.901Z" fill="#E4897B"/>
<path opacity="0.2" d="M255.777 145.108C256.151 146.245 256.447 147.4 256.647 148.581C260.56 147.009 263.942 142.225 263.942 142.225L255.777 145.108Z" fill="black"/>
<path d="M261.116 120.689C253.873 119.091 250.682 122.426 248.508 129.772C245.787 138.933 246.387 146.001 255.873 146.019C268.76 146.036 273.133 123.346 261.116 120.689Z" fill="#E4897B"/>
<path d="M253.273 130.406C252.456 131.361 251.525 132.204 250.508 132.933C250.803 133.645 251.482 134.123 252.247 134.175L253.273 130.406Z" fill="#DE5753"/>
<path d="M257.838 130.788C257.69 131.378 257.89 131.943 258.29 132.038C258.69 132.134 259.116 131.734 259.264 131.17C259.412 130.605 259.212 130.024 258.812 129.919C258.412 129.815 257.986 130.197 257.838 130.788Z" fill="#263238"/>
<path d="M258.969 129.965L257.812 129.148C257.812 129.148 258.186 130.39 258.969 129.965Z" fill="#263238"/>
<path d="M250.517 128.86C250.369 129.451 250.569 130.015 250.969 130.11C251.369 130.206 251.839 129.807 251.943 129.242C252.047 128.678 251.891 128.096 251.491 127.992C251.091 127.888 250.665 128.27 250.517 128.86Z" fill="#263238"/>
<path d="M251.647 128.036L250.456 127.246C250.456 127.246 250.864 128.453 251.647 128.036Z" fill="#263238"/>
<path d="M261.916 127.914C261.795 127.914 261.69 127.853 261.629 127.749C261.047 126.846 260.09 126.246 259.021 126.133C258.847 126.107 258.725 125.96 258.734 125.786C258.751 125.612 258.908 125.482 259.082 125.5C260.377 125.621 261.542 126.351 262.229 127.462C262.308 127.618 262.247 127.801 262.099 127.888C262.047 127.914 261.986 127.922 261.925 127.914H261.916Z" fill="#263238"/>
<path d="M253.821 124.641C253.76 124.641 253.708 124.624 253.656 124.589C252.786 124.172 251.786 124.172 250.917 124.589C250.76 124.65 250.586 124.58 250.517 124.424C250.456 124.259 250.526 124.077 250.691 124.007C251.743 123.521 252.96 123.547 253.995 124.077C254.143 124.172 254.186 124.363 254.091 124.511C254.03 124.598 253.925 124.65 253.821 124.641Z" fill="#263238"/>
<path d="M266.325 134.617C266.325 134.617 264.255 127.931 265.786 123.459C265.786 123.459 252.743 114.437 248.812 128.817C248.812 128.817 250.265 115.6 262.777 118.066C275.29 120.533 271.194 138.69 263.568 142.684C263.568 142.684 267.594 138.794 266.325 134.617Z" fill="#263238"/>
<path d="M264.803 135.93C265.333 134.219 267.151 133.264 268.864 133.785C271.055 134.523 271.098 139.359 265.281 139.229C264.438 139.168 264.16 138.291 264.803 135.93Z" fill="#E4897B"/>
<path d="M250.934 136.92C251.125 137.805 251.256 138.708 251.317 139.612H251.786C253.951 139.794 255.012 139.16 255.534 138.413C255.786 138.04 255.943 137.614 255.986 137.171C256.021 136.92 256.021 136.668 255.986 136.416C254.586 136.894 253.108 137.067 251.638 136.928C251.221 136.954 250.934 136.92 250.934 136.92Z" fill="#263238"/>
<path d="M251.673 136.971L251.804 137.761C253.838 137.926 255.282 137.761 255.986 137.214C256.021 136.963 256.021 136.711 255.986 136.459C254.604 136.937 253.134 137.11 251.673 136.971Z" fill="white"/>
<path d="M251.786 139.654C253.951 139.837 255.012 139.203 255.534 138.456C254.716 138.404 253.89 138.491 253.099 138.725C252.577 138.89 252.117 139.211 251.786 139.654Z" fill="#DE5753"/>
<path d="M261.142 121.272C261.142 121.272 261.42 133.802 268.968 135.313C276.516 136.824 268.272 119.197 268.272 119.197C268.272 119.197 257.055 111.885 249.577 117.043C242.1 122.201 248.83 128.818 248.83 128.818C248.83 128.818 250.386 119.509 261.142 121.272Z" fill="#263238"/>
<path d="M264.021 132.743C263.968 132.743 263.916 132.726 263.881 132.691C258.525 128.488 261.168 120.448 261.195 120.369C261.238 120.257 261.36 120.196 261.473 120.23C261.586 120.274 261.647 120.395 261.603 120.508C261.603 120.586 259.038 128.323 264.151 132.352C264.238 132.431 264.238 132.561 264.16 132.648H264.151C264.125 132.7 264.073 132.735 264.021 132.743Z" fill="#263238"/>
<path d="M271.151 137.883C270.194 140.436 267.734 141.869 265.655 141.096C263.577 140.323 262.673 137.623 263.629 135.07C264.586 132.517 267.047 131.084 269.125 131.866C271.203 132.647 272.107 135.339 271.151 137.883Z" fill="currentColor"/>
<path d="M271.151 137.883C270.194 140.436 267.734 141.869 265.655 141.096C263.577 140.323 262.673 137.623 263.629 135.07C264.586 132.517 267.047 131.084 269.125 131.866C271.203 132.647 272.107 135.339 271.151 137.883Z" fill="currentColor"/>
<path opacity="0.4" d="M271.151 137.883C270.194 140.436 267.734 141.869 265.655 141.096C263.577 140.323 262.673 137.623 263.629 135.07C264.586 132.517 267.047 131.084 269.125 131.866C271.203 132.647 272.107 135.339 271.151 137.883Z" fill="black"/>
<path d="M268.716 133.706C268.716 133.706 271.838 119.751 264.838 116.096C265.638 116.2 266.429 116.356 267.203 116.556C268.073 116.816 273.698 122.478 270.872 135.017L268.716 133.706Z" fill="currentColor"/>
<path d="M268.716 133.706C268.716 133.706 271.838 119.751 264.838 116.096C265.638 116.2 266.429 116.356 267.203 116.556C268.073 116.816 273.698 122.478 270.872 135.017L268.716 133.706Z" fill="currentColor"/>
<path opacity="0.2" d="M268.716 133.706C268.716 133.706 271.838 119.751 264.838 116.096C265.638 116.2 266.429 116.356 267.203 116.556C268.073 116.816 273.698 122.478 270.872 135.017L268.716 133.706Z" fill="black"/>
<path d="M255.673 141.694L255.151 141.616L255.29 140.748C259.134 141.338 263.055 140.505 266.325 138.412L266.838 139.107C263.551 141.286 259.586 142.198 255.673 141.694Z" fill="currentColor"/>
<path d="M255.673 141.694L255.151 141.616L255.29 140.748C259.134 141.338 263.055 140.505 266.325 138.412L266.838 139.107C263.551 141.286 259.586 142.198 255.673 141.694Z" fill="currentColor"/>
<g opacity="0.2">
<path d="M255.673 141.696L255.151 141.618L255.29 140.75C259.134 141.34 263.055 140.507 266.325 138.414L266.838 139.109C263.551 141.288 259.586 142.2 255.673 141.696Z" fill="black"/>
</g>
<path d="M270.855 137.536C270.229 139.221 268.594 140.141 267.229 139.655C265.864 139.169 265.255 137.363 265.89 135.678C266.525 133.993 268.151 133.073 269.516 133.559C270.881 134.046 271.49 135.852 270.855 137.536Z" fill="currentColor"/>
<path d="M270.855 137.536C270.229 139.221 268.594 140.141 267.229 139.655C265.864 139.169 265.255 137.363 265.89 135.678C266.525 133.993 268.151 133.073 269.516 133.559C270.881 134.046 271.49 135.852 270.855 137.536Z" fill="currentColor"/>
<path d="M254.855 142.007L254.151 141.912C253.638 141.842 253.273 141.373 253.342 140.861C253.403 140.34 253.873 139.975 254.386 140.036H254.403L255.099 140.131C255.612 140.201 255.977 140.678 255.916 141.191C255.847 141.703 255.368 142.068 254.855 142.007Z" fill="currentColor"/>
<path d="M254.855 142.007L254.151 141.912C253.638 141.842 253.273 141.373 253.342 140.861C253.403 140.34 253.873 139.975 254.386 140.036H254.403L255.099 140.131C255.612 140.201 255.977 140.678 255.916 141.191C255.847 141.703 255.368 142.068 254.855 142.007Z" fill="currentColor"/>
<path opacity="0.4" d="M254.855 142.007L254.151 141.912C253.638 141.842 253.273 141.373 253.342 140.861C253.403 140.34 253.873 139.975 254.386 140.036H254.403L255.099 140.131C255.612 140.201 255.977 140.678 255.916 141.191C255.847 141.703 255.368 142.068 254.855 142.007Z" fill="black"/>
<path d="M264.255 150.561L259.09 155.623L261.16 161.84L268.342 153.938L264.255 150.561Z" fill="currentColor"/>
<path d="M264.255 150.561L259.09 155.623L261.16 161.84L268.342 153.938L264.255 150.561Z" fill="currentColor"/>
<path d="M256.786 151.621L257.621 155.52L254.951 161.034L253.282 153.87L256.786 151.621Z" fill="currentColor"/>
<path d="M256.786 151.621L257.621 155.52L254.951 161.034L253.282 153.87L256.786 151.621Z" fill="currentColor"/>
<path d="M263.151 154.954L266.151 143.987C266.151 143.987 264.699 141.261 265.012 140.688C265.325 140.114 266.89 132.751 268.003 131.952C269.116 131.153 273.698 132.516 274.159 133.263C274.62 134.01 269.768 143.987 269.768 143.987L268.029 155.875L263.151 154.954Z" fill="#E4897B"/>
<path d="M280.889 156.769C289.15 165.209 272.603 184.33 263.116 183.514C253.629 182.697 263.359 148.033 263.359 148.033L269.446 149.032C269.446 149.032 267.316 164.037 267.985 165.209C268.655 166.381 278.15 153.964 280.889 156.769Z" fill="currentColor"/>
<path d="M280.889 156.769C289.15 165.209 272.603 184.33 263.116 183.514C253.629 182.697 263.359 148.033 263.359 148.033L269.446 149.032C269.446 149.032 267.316 164.037 267.985 165.209C268.655 166.381 278.15 153.964 280.889 156.769Z" fill="currentColor"/>
<path opacity="0.2" d="M280.889 156.769C289.15 165.209 272.603 184.33 263.116 183.514C253.629 182.697 263.359 148.033 263.359 148.033L269.446 149.032C269.446 149.032 267.316 164.037 267.985 165.209C268.655 166.381 278.15 153.964 280.889 156.769Z" fill="black"/>
<path d="M262.89 146.947L261.995 149.813L270.455 150.56V148.059L262.89 146.947Z" fill="currentColor"/>
<path d="M262.89 146.947L261.995 149.813L270.455 150.56V148.059L262.89 146.947Z" fill="currentColor"/>
<path opacity="0.6" d="M250.065 169.621H246.639C246.259 169.621 245.952 169.928 245.952 170.307V176.768C245.952 177.146 246.259 177.454 246.639 177.454H250.065C250.444 177.454 250.751 177.146 250.751 176.768V170.307C250.751 169.928 250.444 169.621 250.065 169.621Z" fill="white"/>
<path opacity="0.2" d="M250.134 170.141H246.239V175.464H250.134V170.141Z" fill="black"/>
<path d="M248.708 167.736H247.847V170.871H248.708V167.736Z" fill="#263238"/>
<path d="M177.163 302.799C178.033 302.399 178.963 302.156 179.92 302.096C179.92 302.096 183.224 300.159 186.493 292.613H190.171C191.45 292.622 192.58 293.43 193.006 294.637C193.067 294.801 193.102 294.966 193.11 295.14C193.067 296.026 192.971 296.912 192.823 297.789C192.284 300.724 191.571 303.624 190.676 306.472L190.05 306.316L191.18 300.828C191.563 298.97 189.597 300.767 188.693 302.643C187.789 304.518 186.389 306.42 182.32 305.491C177.581 304.327 175.676 303.65 177.163 302.799Z" fill="currentColor"/>
<path d="M177.163 302.799C178.033 302.399 178.963 302.156 179.92 302.096C179.92 302.096 183.224 300.159 186.493 292.613H190.171C191.45 292.622 192.58 293.43 193.006 294.637C193.067 294.801 193.102 294.966 193.11 295.14C193.067 296.026 192.971 296.912 192.823 297.789C192.284 300.724 191.571 303.624 190.676 306.472L190.05 306.316L191.18 300.828C191.563 298.97 189.597 300.767 188.693 302.643C187.789 304.518 186.389 306.42 182.32 305.491C177.581 304.327 175.676 303.65 177.163 302.799Z" fill="currentColor"/>
<path d="M187.163 290.642C187.163 290.642 182.563 300.246 179.919 302.095C179.919 302.095 183.467 304.206 187.163 299.49C191.936 293.412 193.11 295.105 193.11 295.105C193.006 294.055 192.815 293.021 192.528 292.005C191.815 290.06 187.163 290.642 187.163 290.642Z" fill="#E4897B"/>
<path d="M227.787 325.68C228.535 325.089 229.387 324.638 230.3 324.342C230.3 324.342 233.048 321.677 234.43 313.575L238.004 312.707C239.248 312.42 240.535 312.941 241.23 314.009C241.326 314.157 241.404 314.313 241.456 314.478C241.63 315.338 241.752 316.206 241.813 317.083C241.978 320.053 241.969 323.023 241.769 325.992H241.126L240.926 320.4C240.848 318.499 239.378 320.713 238.935 322.753C238.491 324.794 237.596 326.956 233.422 327.017C228.561 327.069 226.544 326.861 227.787 325.68Z" fill="currentColor"/>
<path d="M227.787 325.68C228.535 325.089 229.387 324.638 230.3 324.342C230.3 324.342 233.048 321.677 234.43 313.575L238.004 312.707C239.248 312.42 240.535 312.941 241.23 314.009C241.326 314.157 241.404 314.313 241.456 314.478C241.63 315.338 241.752 316.206 241.813 317.083C241.978 320.053 241.969 323.023 241.769 325.992H241.126L240.926 320.4C240.848 318.499 239.378 320.713 238.935 322.753C238.491 324.794 237.596 326.956 233.422 327.017C228.561 327.069 226.544 326.861 227.787 325.68Z" fill="currentColor"/>
<path d="M234.613 311.5C234.613 311.5 232.43 321.92 230.265 324.342C230.265 324.342 234.213 325.558 236.682 320.114C239.882 313.08 241.421 314.452 241.421 314.452C241.073 313.453 240.647 312.498 240.126 311.578C238.995 309.841 234.613 311.5 234.613 311.5Z" fill="#E4897B"/>
<path d="M315.462 101.326H285.107C282.672 101.326 280.698 103.297 280.698 105.729V118.693C280.698 121.124 282.672 123.095 285.107 123.095H315.462C317.897 123.095 319.871 121.124 319.871 118.693V105.729C319.871 103.297 317.897 101.326 315.462 101.326Z" fill="currentColor"/>
<path d="M315.462 101.326H285.107C282.672 101.326 280.698 103.297 280.698 105.729V118.693C280.698 121.124 282.672 123.095 285.107 123.095H315.462C317.897 123.095 319.871 121.124 319.871 118.693V105.729C319.871 103.297 317.897 101.326 315.462 101.326Z" fill="currentColor"/>
<path d="M291.193 120.611L282.046 133.029L296.802 121.445L291.193 120.611Z" fill="currentColor"/>
<path d="M291.193 120.611L282.046 133.029L296.802 121.445L291.193 120.611Z" fill="currentColor"/>
<path d="M291.532 112.206C291.532 112.918 290.967 113.491 290.254 113.5C289.541 113.509 288.967 112.936 288.959 112.224C288.95 111.511 289.524 110.938 290.237 110.93C290.237 110.93 290.245 110.93 290.254 110.93C290.959 110.93 291.532 111.503 291.532 112.206Z" fill="white"/>
<path d="M298.219 112.206C298.219 112.918 297.654 113.491 296.941 113.5C296.228 113.509 295.654 112.936 295.646 112.224C295.637 111.511 296.211 110.938 296.924 110.93C296.924 110.93 296.933 110.93 296.941 110.93C297.646 110.93 298.219 111.503 298.219 112.206Z" fill="white"/>
<path d="M304.906 112.206C304.906 112.918 304.341 113.491 303.628 113.5C302.915 113.509 302.341 112.936 302.332 112.224C302.323 111.511 302.897 110.938 303.61 110.93C303.61 110.93 303.619 110.93 303.628 110.93C304.332 110.93 304.906 111.503 304.906 112.206Z" fill="white"/>
<path d="M311.592 112.206C311.592 112.918 311.027 113.491 310.314 113.5C309.601 113.509 309.027 112.936 309.019 112.224C309.01 111.511 309.584 110.938 310.297 110.93C310.297 110.93 310.306 110.93 310.314 110.93C311.019 110.93 311.592 111.503 311.592 112.206Z" fill="white"/>
<path d="M178.202 79.896L171.29 92.7087C170.976 93.2913 171.194 94.0181 171.778 94.332L193.434 105.982C194.018 106.296 194.746 106.078 195.06 105.495L201.971 92.6825C202.285 92.0998 202.067 91.373 201.484 91.0592L179.827 79.4093C179.244 79.0954 178.516 79.3133 178.202 79.896Z" fill="currentColor"/>
<path d="M178.202 79.896L171.29 92.7087C170.976 93.2913 171.194 94.0181 171.778 94.332L193.434 105.982C194.018 106.296 194.746 106.078 195.06 105.495L201.971 92.6825C202.285 92.0998 202.067 91.373 201.484 91.0592L179.827 79.4093C179.244 79.0954 178.516 79.3133 178.202 79.896Z" fill="currentColor"/>
<path opacity="0.7" d="M178.202 79.896L171.29 92.7087C170.976 93.2913 171.194 94.0181 171.778 94.332L193.434 105.982C194.018 106.296 194.746 106.078 195.06 105.495L201.971 92.6825C202.285 92.0998 202.067 91.373 201.484 91.0592L179.827 79.4093C179.244 79.0954 178.516 79.3133 178.202 79.896Z" fill="white"/>
<path opacity="0.2" d="M177.633 80.9551L184.372 93.5894C184.902 94.5707 185.972 95.1438 187.085 95.0309L201.18 93.6415L186.832 95.7516C185.546 95.9426 184.285 95.2653 183.737 94.0844L177.633 80.9551Z" fill="black"/>
<path d="M161.19 78.6183C161.425 73.7903 165.007 64.0562 169.364 61.0778C173.72 58.0994 170.85 62.224 170.85 62.224C170.85 62.224 174.981 58.2123 177.154 58.3339C179.328 58.4554 177.154 60.9389 177.154 60.9389C177.154 60.9389 181.633 58.1862 183.693 58.3339C185.754 58.4815 183.693 60.8607 183.693 60.8607C183.693 60.8607 187.363 58.2557 188.85 59.4801C190.337 60.7044 169.816 74.2419 167.529 79.7472C165.242 85.2524 160.955 83.4897 161.19 78.6183Z" fill="currentColor"/>
<path d="M161.19 78.6183C161.425 73.7903 165.007 64.0562 169.364 61.0778C173.72 58.0994 170.85 62.224 170.85 62.224C170.85 62.224 174.981 58.2123 177.154 58.3339C179.328 58.4554 177.154 60.9389 177.154 60.9389C177.154 60.9389 181.633 58.1862 183.693 58.3339C185.754 58.4815 183.693 60.8607 183.693 60.8607C183.693 60.8607 187.363 58.2557 188.85 59.4801C190.337 60.7044 169.816 74.2419 167.529 79.7472C165.242 85.2524 160.955 83.4897 161.19 78.6183Z" fill="currentColor"/>
<path opacity="0.4" d="M161.19 78.6183C161.425 73.7903 165.007 64.0562 169.364 61.0778C173.72 58.0994 170.85 62.224 170.85 62.224C170.85 62.224 174.981 58.2123 177.154 58.3339C179.328 58.4554 177.154 60.9389 177.154 60.9389C177.154 60.9389 181.633 58.1862 183.693 58.3339C185.754 58.4815 183.693 60.8607 183.693 60.8607C183.693 60.8607 187.363 58.2557 188.85 59.4801C190.337 60.7044 169.816 74.2419 167.529 79.7472C165.242 85.2524 160.955 83.4897 161.19 78.6183Z" fill="white"/>
<path d="M178.824 77.8887L181.563 79.6254C181.667 79.6948 181.702 79.8337 181.633 79.938C181.589 80.0074 181.502 80.0508 181.424 80.0422L178.546 79.8164L178.789 82.022C178.807 82.1522 178.711 82.2738 178.581 82.2998C178.502 82.3085 178.415 82.2825 178.363 82.213L176.702 80.3548L178.824 77.8887Z" fill="currentColor"/>
<path d="M178.824 77.8887L181.563 79.6254C181.667 79.6948 181.702 79.8337 181.633 79.938C181.589 80.0074 181.502 80.0508 181.424 80.0422L178.546 79.8164L178.789 82.022C178.807 82.1522 178.711 82.2738 178.581 82.2998C178.502 82.3085 178.415 82.2825 178.363 82.213L176.702 80.3548L178.824 77.8887Z" fill="currentColor"/>
<path opacity="0.3" d="M178.824 77.8887L181.563 79.6254C181.667 79.6948 181.702 79.8337 181.633 79.938C181.589 80.0074 181.502 80.0508 181.424 80.0422L178.546 79.8164L178.789 82.022C178.807 82.1522 178.711 82.2738 178.581 82.2998C178.502 82.3085 178.415 82.2825 178.363 82.213L176.702 80.3548L178.824 77.8887Z" fill="white"/>
<path d="M140.347 67.0169C140.347 67.0169 144.139 64.4118 149.869 66.0964C149.869 66.0964 151.512 73.6597 156.025 76.1779C158.503 77.5585 164.564 77.4369 169.364 75.8913C175.059 74.0504 177.842 74.0504 178.876 76.1779C179.911 78.3053 178.763 80.5196 174.407 81.5529C170.051 82.5862 166.581 90.1408 158.694 90.2363C150.808 90.3318 146.617 82.4212 148.608 75.4745C146.721 71.923 143.852 68.988 140.347 67.0169Z" fill="currentColor"/>
<path d="M140.347 67.0169C140.347 67.0169 144.139 64.4118 149.869 66.0964C149.869 66.0964 151.512 73.6597 156.025 76.1779C158.503 77.5585 164.564 77.4369 169.364 75.8913C175.059 74.0504 177.842 74.0504 178.876 76.1779C179.911 78.3053 178.763 80.5196 174.407 81.5529C170.051 82.5862 166.581 90.1408 158.694 90.2363C150.808 90.3318 146.617 82.4212 148.608 75.4745C146.721 71.923 143.852 68.988 140.347 67.0169Z" fill="currentColor"/>
<path opacity="0.5" d="M140.347 67.0169C140.347 67.0169 144.139 64.4118 149.869 66.0964C149.869 66.0964 151.512 73.6597 156.025 76.1779C158.503 77.5585 164.564 77.4369 169.364 75.8913C175.059 74.0504 177.842 74.0504 178.876 76.1779C179.911 78.3053 178.763 80.5196 174.407 81.5529C170.051 82.5862 166.581 90.1408 158.694 90.2363C150.808 90.3318 146.617 82.4212 148.608 75.4745C146.721 71.923 143.852 68.988 140.347 67.0169Z" fill="white"/>
<path d="M176.702 77.6115C176.702 77.8285 176.528 78.0022 176.311 78.0022C176.094 78.0022 175.92 77.8285 175.92 77.6115C175.92 77.3944 176.094 77.2207 176.311 77.2207C176.528 77.2207 176.702 77.3944 176.702 77.6115Z" fill="#263238"/>
<path d="M156.86 83.9666C152.19 85.2344 141.808 84.835 137.635 81.6221C133.461 78.4093 138.261 79.8854 138.261 79.8854C138.261 79.8854 133.174 77.2023 132.609 75.1009C132.043 72.9995 135.113 74.2846 135.113 74.2846C135.113 74.2846 131.113 70.8894 130.591 68.8922C130.07 66.8951 132.991 68.1107 132.991 68.1107C132.991 68.1107 129.348 65.4362 130.087 63.6388C130.826 61.8413 150.034 77.1588 155.973 77.6364C161.912 78.114 161.59 82.6815 156.86 83.9666Z" fill="currentColor"/>
<path d="M156.86 83.9666C152.19 85.2344 141.808 84.835 137.635 81.6221C133.461 78.4093 138.261 79.8854 138.261 79.8854C138.261 79.8854 133.174 77.2023 132.609 75.1009C132.043 72.9995 135.113 74.2846 135.113 74.2846C135.113 74.2846 131.113 70.8894 130.591 68.8922C130.07 66.8951 132.991 68.1107 132.991 68.1107C132.991 68.1107 129.348 65.4362 130.087 63.6388C130.826 61.8413 150.034 77.1588 155.973 77.6364C161.912 78.114 161.59 82.6815 156.86 83.9666Z" fill="currentColor"/>
<path opacity="0.4" d="M156.86 83.9666C152.19 85.2344 141.808 84.835 137.635 81.6221C133.461 78.4093 138.261 79.8854 138.261 79.8854C138.261 79.8854 133.174 77.2023 132.609 75.1009C132.043 72.9995 135.113 74.2846 135.113 74.2846C135.113 74.2846 131.113 70.8894 130.591 68.8922C130.07 66.8951 132.991 68.1107 132.991 68.1107C132.991 68.1107 129.348 65.4362 130.087 63.6388C130.826 61.8413 150.034 77.1588 155.973 77.6364C161.912 78.114 161.59 82.6815 156.86 83.9666Z" fill="white"/>
<path d="M126.252 62.8395C126.252 62.8395 126.183 62.8395 126.148 62.8395C125.339 62.553 124.513 62.2838 123.678 62.032C123.504 61.9799 123.409 61.7975 123.461 61.6239C123.513 61.4502 123.696 61.3547 123.87 61.4068C124.739 61.6586 125.548 61.9365 126.365 62.2751C126.53 62.3359 126.626 62.5183 126.565 62.6832C126.522 62.8135 126.391 62.9003 126.252 62.9003V62.8395Z" fill="currentColor"/>
<path d="M126.252 62.8395C126.252 62.8395 126.183 62.8395 126.148 62.8395C125.339 62.553 124.513 62.2838 123.678 62.032C123.504 61.9799 123.409 61.7975 123.461 61.6239C123.513 61.4502 123.696 61.3547 123.87 61.4068C124.739 61.6586 125.548 61.9365 126.365 62.2751C126.53 62.3359 126.626 62.5183 126.565 62.6832C126.522 62.8135 126.391 62.9003 126.252 62.9003V62.8395Z" fill="currentColor"/>
<path d="M73.698 133.324C73.5154 133.324 73.3763 133.185 73.3676 133.003C73.3676 132.821 73.5067 132.682 73.6893 132.673C75.4197 132.647 77.1413 132.482 78.8456 132.169C79.0195 132.135 79.1934 132.256 79.2282 132.43C79.263 132.604 79.1499 132.777 78.976 132.812H78.9673C77.2283 133.133 75.4631 133.307 73.698 133.324ZM68.4808 133.046C66.7244 132.855 64.9853 132.569 63.2636 132.178C63.0897 132.143 62.9767 131.961 63.0115 131.787C63.055 131.614 63.2289 131.509 63.4028 131.544C65.0983 131.926 66.8113 132.213 68.533 132.413C68.7156 132.439 68.8373 132.612 68.8025 132.795C68.7765 132.934 68.6721 133.046 68.533 133.064L68.4808 133.046ZM83.9324 131.31C83.8019 131.31 83.6889 131.232 83.6367 131.119C83.5585 130.962 83.6367 130.763 83.7845 130.693H83.8019C85.3845 130.007 86.8453 129.087 88.1496 127.967C88.2974 127.854 88.5061 127.88 88.6104 128.027C88.7148 128.158 88.6974 128.34 88.5843 128.462C87.2279 129.625 85.7062 130.572 84.0715 131.284C84.0193 131.31 83.9671 131.327 83.915 131.327L83.9324 131.31ZM58.2899 130.719C58.2899 130.719 58.2204 130.719 58.1856 130.719C56.5335 130.172 54.8727 129.53 53.2641 128.826C53.1075 128.739 53.0467 128.531 53.1423 128.375C53.2206 128.236 53.3858 128.175 53.5336 128.227C55.1161 128.922 56.7509 129.556 58.3943 130.103C58.5595 130.164 58.6551 130.346 58.5943 130.52C58.5421 130.641 58.4204 130.719 58.2899 130.719ZM48.7251 126.499C48.6729 126.517 48.6208 126.517 48.5686 126.499C47.0121 125.631 45.4992 124.693 44.0905 123.712C43.9427 123.608 43.9079 123.408 44.0123 123.26C44.1166 123.113 44.3166 123.078 44.4644 123.182C45.8557 124.146 47.3426 125.075 48.8903 125.935C49.0468 126.022 49.099 126.213 49.0121 126.369C48.9338 126.49 48.8034 126.551 48.6642 126.525L48.7251 126.499ZM91.7146 124.511C91.6625 124.528 91.6103 124.528 91.5581 124.511C91.4016 124.424 91.3494 124.233 91.4364 124.076C91.706 123.599 91.9581 123.113 92.1842 122.609C92.6711 121.55 93.045 120.438 93.3146 119.301C93.3581 119.127 93.5407 119.023 93.7146 119.057C93.8885 119.101 93.9928 119.283 93.9493 119.457C93.6624 120.629 93.2711 121.775 92.7755 122.878C92.5407 123.399 92.2798 123.911 92.0016 124.398C91.9233 124.511 91.7842 124.563 91.6538 124.537L91.7146 124.511ZM40.1515 120.499C40.0733 120.499 40.0037 120.473 39.9429 120.421C38.6212 119.248 37.3778 117.989 36.23 116.652C36.1082 116.522 36.1082 116.322 36.23 116.192C36.3517 116.07 36.5604 116.07 36.6821 116.192C37.8125 117.503 39.0299 118.736 40.3255 119.882C40.4472 120.013 40.4472 120.212 40.3255 120.343C40.282 120.438 40.195 120.508 40.0907 120.525L40.1515 120.499ZM94.2189 114.473C94.045 114.473 93.8972 114.325 93.8972 114.151C93.8885 112.415 93.7233 110.695 93.4189 108.993C93.3841 108.82 93.5059 108.646 93.6798 108.611C93.8624 108.585 94.0276 108.707 94.0624 108.881C94.3754 110.617 94.5406 112.38 94.5493 114.143C94.5493 114.325 94.4015 114.473 94.2189 114.473ZM92.4798 104.174C92.332 104.174 92.2103 104.079 92.1668 103.94C91.7233 102.42 91.1755 100.805 90.506 98.9988C90.4364 98.8338 90.5147 98.6428 90.6799 98.582H90.6973C90.8625 98.5125 91.0538 98.5993 91.1147 98.7643C91.7929 100.588 92.3407 102.238 92.7929 103.749C92.845 103.922 92.7494 104.105 92.5755 104.157L92.4798 104.174ZM88.88 94.3184C88.7582 94.3184 88.6452 94.249 88.593 94.1361C88.0365 92.7467 87.28 91.149 86.4888 89.4557V89.3689C86.4366 89.1952 86.5322 89.0129 86.7149 88.9608C86.854 88.9174 87.0018 88.9694 87.0801 89.091V89.1779C87.88 90.9145 88.6278 92.4862 89.1843 93.8495C89.2539 94.0232 89.1843 94.2142 89.0104 94.2924L88.88 94.3184ZM84.5323 84.7667C84.4019 84.7667 84.2802 84.6972 84.228 84.5756C83.4454 82.7608 82.8194 81.1544 82.3237 79.6695C82.2629 79.4958 82.3585 79.3135 82.5237 79.2527C82.6976 79.1919 82.8802 79.2874 82.9411 79.4611C83.428 80.9286 84.0454 82.5177 84.828 84.3151C84.8975 84.4801 84.828 84.6712 84.6628 84.7406C84.6628 84.7406 84.6019 84.8014 84.5584 84.8101L84.541 84.7667H84.5323ZM81.3498 74.8155C81.1933 74.8155 81.0542 74.6939 81.0281 74.5376C80.8803 73.6085 80.802 72.6707 80.802 71.7242C80.802 70.8819 80.8716 70.0396 81.0281 69.2147C81.0803 69.041 81.2716 68.9455 81.4455 69.0063C81.5933 69.0497 81.689 69.1973 81.6716 69.3449C81.5238 70.1265 81.4455 70.9253 81.4542 71.7242C81.4542 72.636 81.5325 73.539 81.6716 74.4421C81.689 74.6158 81.5759 74.7808 81.402 74.8155H81.3498ZM83.6193 64.9511C83.5411 64.9511 83.4715 64.9251 83.4106 64.8817C83.2889 64.7514 83.2889 64.5517 83.4106 64.4215C84.5758 63.0582 86.0018 61.938 87.5931 61.1131C87.7496 61.0262 87.9496 61.087 88.0365 61.2433C88.1148 61.4083 88.0539 61.5993 87.8974 61.6862C86.3757 62.4677 85.028 63.5444 83.915 64.8383C83.8541 64.9338 83.7498 64.9946 83.6367 64.9946L83.6193 64.9511ZM118.679 60.6963H118.609C116.94 60.3489 115.209 60.0537 113.462 59.8279C113.288 59.8019 113.157 59.6456 113.183 59.4719C113.209 59.2896 113.366 59.168 113.54 59.1854C115.279 59.4111 117.018 59.7064 118.757 60.0537C118.931 60.0971 119.044 60.2708 119.009 60.4531C118.974 60.6008 118.853 60.705 118.696 60.705H118.67L118.679 60.6963ZM92.5929 59.9495C92.419 59.9669 92.2538 59.8366 92.2364 59.6629C92.219 59.4893 92.3494 59.3243 92.5233 59.3069C94.2363 58.9249 95.984 58.673 97.7405 58.5515C97.9231 58.5428 98.0709 58.673 98.0883 58.8554C98.1057 59.0291 97.9753 59.1854 97.7926 59.2027H97.784C96.0536 59.3156 94.3406 59.5587 92.6537 59.9408H92.5929V59.9495ZM108.244 59.3503C106.731 59.2461 104.931 59.1333 103.027 59.0985C102.845 59.0985 102.705 58.9509 102.705 58.7686C102.705 58.5949 102.853 58.4473 103.027 58.4473H103.036C104.958 58.4907 106.775 58.5949 108.253 58.6991C108.427 58.7078 108.566 58.8554 108.557 59.0377C108.575 59.2114 108.462 59.359 108.305 59.3938L108.244 59.3503Z" fill="currentColor"/>
<path d="M73.698 133.324C73.5154 133.324 73.3763 133.185 73.3676 133.003C73.3676 132.821 73.5067 132.682 73.6893 132.673C75.4197 132.647 77.1413 132.482 78.8456 132.169C79.0195 132.135 79.1934 132.256 79.2282 132.43C79.263 132.604 79.1499 132.777 78.976 132.812H78.9673C77.2283 133.133 75.4631 133.307 73.698 133.324ZM68.4808 133.046C66.7244 132.855 64.9853 132.569 63.2636 132.178C63.0897 132.143 62.9767 131.961 63.0115 131.787C63.055 131.614 63.2289 131.509 63.4028 131.544C65.0983 131.926 66.8113 132.213 68.533 132.413C68.7156 132.439 68.8373 132.612 68.8025 132.795C68.7765 132.934 68.6721 133.046 68.533 133.064L68.4808 133.046ZM83.9324 131.31C83.8019 131.31 83.6889 131.232 83.6367 131.119C83.5585 130.962 83.6367 130.763 83.7845 130.693H83.8019C85.3845 130.007 86.8453 129.087 88.1496 127.967C88.2974 127.854 88.5061 127.88 88.6104 128.027C88.7148 128.158 88.6974 128.34 88.5843 128.462C87.2279 129.625 85.7062 130.572 84.0715 131.284C84.0193 131.31 83.9671 131.327 83.915 131.327L83.9324 131.31ZM58.2899 130.719C58.2899 130.719 58.2204 130.719 58.1856 130.719C56.5335 130.172 54.8727 129.53 53.2641 128.826C53.1075 128.739 53.0467 128.531 53.1423 128.375C53.2206 128.236 53.3858 128.175 53.5336 128.227C55.1161 128.922 56.7509 129.556 58.3943 130.103C58.5595 130.164 58.6551 130.346 58.5943 130.52C58.5421 130.641 58.4204 130.719 58.2899 130.719ZM48.7251 126.499C48.6729 126.517 48.6208 126.517 48.5686 126.499C47.0121 125.631 45.4992 124.693 44.0905 123.712C43.9427 123.608 43.9079 123.408 44.0123 123.26C44.1166 123.113 44.3166 123.078 44.4644 123.182C45.8557 124.146 47.3426 125.075 48.8903 125.935C49.0468 126.022 49.099 126.213 49.0121 126.369C48.9338 126.49 48.8034 126.551 48.6642 126.525L48.7251 126.499ZM91.7146 124.511C91.6625 124.528 91.6103 124.528 91.5581 124.511C91.4016 124.424 91.3494 124.233 91.4364 124.076C91.706 123.599 91.9581 123.113 92.1842 122.609C92.6711 121.55 93.045 120.438 93.3146 119.301C93.3581 119.127 93.5407 119.023 93.7146 119.057C93.8885 119.101 93.9928 119.283 93.9493 119.457C93.6624 120.629 93.2711 121.775 92.7755 122.878C92.5407 123.399 92.2798 123.911 92.0016 124.398C91.9233 124.511 91.7842 124.563 91.6538 124.537L91.7146 124.511ZM40.1515 120.499C40.0733 120.499 40.0037 120.473 39.9429 120.421C38.6212 119.248 37.3778 117.989 36.23 116.652C36.1082 116.522 36.1082 116.322 36.23 116.192C36.3517 116.07 36.5604 116.07 36.6821 116.192C37.8125 117.503 39.0299 118.736 40.3255 119.882C40.4472 120.013 40.4472 120.212 40.3255 120.343C40.282 120.438 40.195 120.508 40.0907 120.525L40.1515 120.499ZM94.2189 114.473C94.045 114.473 93.8972 114.325 93.8972 114.151C93.8885 112.415 93.7233 110.695 93.4189 108.993C93.3841 108.82 93.5059 108.646 93.6798 108.611C93.8624 108.585 94.0276 108.707 94.0624 108.881C94.3754 110.617 94.5406 112.38 94.5493 114.143C94.5493 114.325 94.4015 114.473 94.2189 114.473ZM92.4798 104.174C92.332 104.174 92.2103 104.079 92.1668 103.94C91.7233 102.42 91.1755 100.805 90.506 98.9988C90.4364 98.8338 90.5147 98.6428 90.6799 98.582H90.6973C90.8625 98.5125 91.0538 98.5993 91.1147 98.7643C91.7929 100.588 92.3407 102.238 92.7929 103.749C92.845 103.922 92.7494 104.105 92.5755 104.157L92.4798 104.174ZM88.88 94.3184C88.7582 94.3184 88.6452 94.249 88.593 94.1361C88.0365 92.7467 87.28 91.149 86.4888 89.4557V89.3689C86.4366 89.1952 86.5322 89.0129 86.7149 88.9608C86.854 88.9174 87.0018 88.9694 87.0801 89.091V89.1779C87.88 90.9145 88.6278 92.4862 89.1843 93.8495C89.2539 94.0232 89.1843 94.2142 89.0104 94.2924L88.88 94.3184ZM84.5323 84.7667C84.4019 84.7667 84.2802 84.6972 84.228 84.5756C83.4454 82.7608 82.8194 81.1544 82.3237 79.6695C82.2629 79.4958 82.3585 79.3135 82.5237 79.2527C82.6976 79.1919 82.8802 79.2874 82.9411 79.4611C83.428 80.9286 84.0454 82.5177 84.828 84.3151C84.8975 84.4801 84.828 84.6712 84.6628 84.7406C84.6628 84.7406 84.6019 84.8014 84.5584 84.8101L84.541 84.7667H84.5323ZM81.3498 74.8155C81.1933 74.8155 81.0542 74.6939 81.0281 74.5376C80.8803 73.6085 80.802 72.6707 80.802 71.7242C80.802 70.8819 80.8716 70.0396 81.0281 69.2147C81.0803 69.041 81.2716 68.9455 81.4455 69.0063C81.5933 69.0497 81.689 69.1973 81.6716 69.3449C81.5238 70.1265 81.4455 70.9253 81.4542 71.7242C81.4542 72.636 81.5325 73.539 81.6716 74.4421C81.689 74.6158 81.5759 74.7808 81.402 74.8155H81.3498ZM83.6193 64.9511C83.5411 64.9511 83.4715 64.9251 83.4106 64.8817C83.2889 64.7514 83.2889 64.5517 83.4106 64.4215C84.5758 63.0582 86.0018 61.938 87.5931 61.1131C87.7496 61.0262 87.9496 61.087 88.0365 61.2433C88.1148 61.4083 88.0539 61.5993 87.8974 61.6862C86.3757 62.4677 85.028 63.5444 83.915 64.8383C83.8541 64.9338 83.7498 64.9946 83.6367 64.9946L83.6193 64.9511ZM118.679 60.6963H118.609C116.94 60.3489 115.209 60.0537 113.462 59.8279C113.288 59.8019 113.157 59.6456 113.183 59.4719C113.209 59.2896 113.366 59.168 113.54 59.1854C115.279 59.4111 117.018 59.7064 118.757 60.0537C118.931 60.0971 119.044 60.2708 119.009 60.4531C118.974 60.6008 118.853 60.705 118.696 60.705H118.67L118.679 60.6963ZM92.5929 59.9495C92.419 59.9669 92.2538 59.8366 92.2364 59.6629C92.219 59.4893 92.3494 59.3243 92.5233 59.3069C94.2363 58.9249 95.984 58.673 97.7405 58.5515C97.9231 58.5428 98.0709 58.673 98.0883 58.8554C98.1057 59.0291 97.9753 59.1854 97.7926 59.2027H97.784C96.0536 59.3156 94.3406 59.5587 92.6537 59.9408H92.5929V59.9495ZM108.244 59.3503C106.731 59.2461 104.931 59.1333 103.027 59.0985C102.845 59.0985 102.705 58.9509 102.705 58.7686C102.705 58.5949 102.853 58.4473 103.027 58.4473H103.036C104.958 58.4907 106.775 58.5949 108.253 58.6991C108.427 58.7078 108.566 58.8554 108.557 59.0377C108.575 59.2114 108.462 59.359 108.305 59.3938L108.244 59.3503Z" fill="currentColor"/>
<path d="M33.3865 112.485C33.2648 112.485 33.1605 112.424 33.0996 112.32C32.6561 111.556 32.2649 110.766 31.9257 109.958C31.8562 109.793 31.9257 109.602 32.0909 109.532C32.2562 109.463 32.4475 109.532 32.517 109.706C32.8561 110.488 33.23 111.26 33.6561 111.999C33.7517 112.146 33.717 112.337 33.5691 112.433C33.5083 112.467 33.4474 112.494 33.3778 112.485H33.3865Z" fill="currentColor"/>
<path d="M33.3865 112.485C33.2648 112.485 33.1605 112.424 33.0996 112.32C32.6561 111.556 32.2649 110.766 31.9257 109.958C31.8562 109.793 31.9257 109.602 32.0909 109.532C32.2562 109.463 32.4475 109.532 32.517 109.706C32.8561 110.488 33.23 111.26 33.6561 111.999C33.7517 112.146 33.717 112.337 33.5691 112.433C33.5083 112.467 33.4474 112.494 33.3778 112.485H33.3865Z" fill="currentColor"/>
<path d="M138.991 181.117H105.984V187.873H138.991V181.117Z" fill="white"/>
<path opacity="0.1" d="M138.991 181.117H105.984V187.873H138.991V181.117Z" fill="black"/>
<path opacity="0.1" d="M119.887 181.117H105.984V187.873H119.887V181.117Z" fill="black"/>
<path opacity="0.1" d="M105.984 182.09H135.365L105.984 182.923V182.09Z" fill="black"/>
<path opacity="0.1" d="M138.991 183.264L113.522 183.898H138.991V183.264Z" fill="black"/>
<path opacity="0.1" d="M107.331 185.157L119.887 184.645L138.347 185.157L119.887 185.443L107.331 185.157Z" fill="black"/>
<path opacity="0.1" d="M105.984 186.588H127.739L105.984 187.1V186.588Z" fill="black"/>
<path opacity="0.1" d="M138.939 187.1L124.409 187.369H138.991L138.939 187.1Z" fill="black"/>
<path d="M134.4 174.363H101.393V181.119H134.4V174.363Z" fill="white"/>
<path opacity="0.1" d="M134.4 174.363H101.393V181.119H134.4V174.363Z" fill="black"/>
<path opacity="0.1" d="M115.296 174.363H101.393V181.119H115.296V174.363Z" fill="black"/>
<path opacity="0.1" d="M101.393 175.336H130.774L101.393 176.161V175.336Z" fill="black"/>
<path opacity="0.1" d="M134.4 176.506L108.931 177.14H134.4V176.506Z" fill="black"/>
<path opacity="0.1" d="M102.731 178.4L115.287 177.879L133.748 178.4L115.287 178.686L102.731 178.4Z" fill="black"/>
<path opacity="0.1" d="M101.393 179.824H123.148L101.393 180.345V179.824Z" fill="black"/>
<path opacity="0.1" d="M134.348 180.346L119.818 180.615H134.4L134.348 180.346Z" fill="black"/>
<path d="M138.165 167.598H105.157V174.353H138.165V167.598Z" fill="white"/>
<path opacity="0.1" d="M138.165 167.598H105.157V174.353H138.165V167.598Z" fill="black"/>
<path opacity="0.1" d="M119.061 167.598H105.157V174.353H119.061V167.598Z" fill="black"/>
<path opacity="0.1" d="M105.157 168.57H134.539L105.157 169.404V168.57Z" fill="black"/>
<path opacity="0.1" d="M138.165 169.742L112.697 170.376H138.165V169.742Z" fill="black"/>
<path opacity="0.1" d="M106.505 171.635L119.061 171.123L137.521 171.635L119.061 171.922L106.505 171.635Z" fill="black"/>
<path opacity="0.1" d="M105.157 173.068H126.913L105.157 173.581V173.068Z" fill="black"/>
<path opacity="0.1" d="M138.121 173.58L123.592 173.849H138.165L138.121 173.58Z" fill="black"/>
<path d="M160.155 187.735L161.007 184.496H196.276L212.51 186.12L213.127 187.735H160.155Z" fill="#263238"/>
<path opacity="0.4" d="M196.276 184.496V187.735H160.155L161.007 184.496H196.276Z" fill="black"/>
<path d="M189.189 168.996C189.372 170.515 188.285 171.896 186.763 172.078C186.641 172.096 186.511 172.096 186.389 172.096H132.374C130.626 172.061 129.183 170.732 128.992 168.996L125.783 134.462C125.748 134.123 125.774 133.785 125.853 133.455C126.157 132.204 127.296 131.336 128.583 131.362H182.633C184.381 131.397 185.824 132.725 186.015 134.462L189.189 168.996Z" fill="#263238"/>
<path opacity="0.4" d="M186.198 172.096H132.374C130.626 172.062 129.183 170.733 128.992 168.996L125.783 134.462C125.748 134.124 125.774 133.785 125.853 133.455H179.676C181.424 133.49 182.868 134.818 183.059 136.555L186.267 171.089C186.302 171.428 186.276 171.766 186.198 172.096Z" fill="black"/>
<path d="M149.086 150.916H160.26L157.286 182.862L174.955 185.511V187.734H137.739V185.511L145.365 182.862L149.086 150.916Z" fill="#263238"/>
<path opacity="0.1" d="M160.26 150.916L151.982 187.23L145.365 187.03L149.086 150.916H160.26Z" fill="white"/>
<path d="M160.208 327.024H154.886L145.312 193.951H152.382L160.208 327.024Z" fill="#263238"/>
<path opacity="0.4" d="M160.216 327.026H154.886L145.782 200.57L145.312 194.17H152.382L152.764 200.57L160.216 327.026Z" fill="white"/>
<path opacity="0.2" d="M152.764 200.248H145.782L145.312 194.17H152.382L152.764 200.248Z" fill="black"/>
<path d="M199.301 327.024H193.98L193.11 193.951H200.171L199.301 327.024Z" fill="#263238"/>
<path opacity="0.5" d="M200.18 194.17L200.041 215.644L199.31 327.026H193.98L193.249 215.644L193.11 194.17H200.18Z" fill="white"/>
<path opacity="0.2" d="M200.18 194.17L200.041 215.878H193.249L193.11 194.17H200.18Z" fill="black"/>
<path d="M255.855 327.024H250.534L240.96 193.951H248.03L255.855 327.024Z" fill="#263238"/>
<path opacity="0.5" d="M255.864 327.026H250.534L241.43 200.57L240.96 194.17H248.03L248.412 200.57L255.864 327.026Z" fill="white"/>
<path opacity="0.2" d="M248.412 200.248H241.43L240.96 194.17H248.03L248.412 200.248Z" fill="black"/>
<path d="M99.2707 327.024H93.9492L101.775 193.951H108.844L99.2707 327.024Z" fill="#263238"/>
<path opacity="0.5" d="M108.844 194.17L108.375 200.57L99.2707 327.026H93.9492L101.392 200.57L101.775 194.17H108.844Z" fill="white"/>
<path opacity="0.2" d="M101.775 194.17H108.844L108.375 200.248H101.393L101.775 194.17Z" fill="black"/>
<path d="M96.1753 190.635H253.63V195.419C253.63 196.453 252.786 197.295 251.751 197.295H98.0535C97.0187 197.295 96.1753 196.453 96.1753 195.419V190.635Z" fill="currentColor"/>
<path d="M96.1753 190.635H253.63V195.419C253.63 196.453 252.786 197.295 251.751 197.295H98.0535C97.0187 197.295 96.1753 196.453 96.1753 195.419V190.635Z" fill="currentColor"/>
<path opacity="0.6" d="M96.1753 190.635H253.63V195.419C253.63 196.453 252.786 197.295 251.751 197.295H98.0535C97.0187 197.295 96.1753 196.453 96.1753 195.419V190.635Z" fill="white"/>
<path opacity="0.2" d="M253.63 190.627H96.1753V193.961H253.63V190.627Z" fill="black"/>
<path d="M256.934 191.502H92.8711C91.8364 191.502 90.9929 190.66 90.9929 189.626C90.9929 188.593 91.8364 187.751 92.8711 187.742H256.934C257.969 187.742 258.812 188.593 258.812 189.626C258.812 190.66 257.969 191.502 256.934 191.502Z" fill="currentColor"/>
<path d="M256.934 191.502H92.8711C91.8364 191.502 90.9929 190.66 90.9929 189.626C90.9929 188.593 91.8364 187.751 92.8711 187.742H256.934C257.969 187.742 258.812 188.593 258.812 189.626C258.812 190.66 257.969 191.502 256.934 191.502Z" fill="currentColor"/>
<path opacity="0.6" d="M256.934 191.502H92.8711C91.8364 191.502 90.9929 190.66 90.9929 189.626C90.9929 188.593 91.8364 187.751 92.8711 187.742H256.934C257.969 187.742 258.812 188.593 258.812 189.626C258.812 190.66 257.969 191.502 256.934 191.502Z" fill="white"/>
<path d="M218.118 181.952L220.135 178.931C220.535 178.332 221.214 177.967 221.944 177.967H224.501C224.709 177.967 224.927 178.002 225.127 178.062L234.248 180.824C234.77 180.98 235.204 181.319 235.483 181.787L236.796 183.984L218.118 181.952Z" fill="currentColor"/>
<path d="M218.118 181.952L220.135 178.931C220.535 178.332 221.214 177.967 221.944 177.967H224.501C224.709 177.967 224.927 178.002 225.127 178.062L234.248 180.824C234.77 180.98 235.204 181.319 235.483 181.787L236.796 183.984L218.118 181.952Z" fill="currentColor"/>
<path opacity="0.2" d="M236.795 183.984L223.5 182.543L218.101 181.952L220.118 178.931C220.518 178.332 221.196 177.967 221.927 177.967H224.483C224.7 177.967 224.909 178.002 225.118 178.062L225.318 178.123L234.23 180.824C234.752 180.98 235.196 181.319 235.474 181.787L236.795 183.984Z" fill="black"/>
<path opacity="0.2" d="M236.796 183.982L223.5 182.541L225.318 178.121L234.23 180.822C234.752 180.978 235.196 181.317 235.474 181.785L236.796 183.982Z" fill="black"/>
<path d="M243.109 187.448V187.734H214.918L215.962 183.662C216.362 182.125 217.753 181.048 219.344 181.057H231.848C232.266 181.057 232.674 181.126 233.066 181.274L234.631 181.856L240.839 184.165C242.213 184.678 243.117 185.989 243.109 187.448Z" fill="currentColor"/>
<path d="M243.109 187.448V187.734H214.918L215.962 183.662C216.362 182.125 217.753 181.048 219.344 181.057H231.848C232.266 181.057 232.674 181.126 233.066 181.274L234.631 181.856L240.839 184.165C242.213 184.678 243.117 185.989 243.109 187.448Z" fill="currentColor"/>
<path opacity="0.2" d="M243.109 187.449V187.735H231.535L232.153 183.333C232.3 182.325 233.239 181.622 234.248 181.77C234.379 181.787 234.5 181.822 234.631 181.865L240.839 184.175C242.213 184.679 243.117 185.99 243.109 187.449Z" fill="black"/>
<path d="M233.335 184.748L237.022 173.711C237.161 173.286 237.613 173.051 238.039 173.19C238.083 173.208 238.126 173.225 238.17 173.243C238.5 173.434 238.665 173.807 238.587 174.18L235.483 185.955C235.483 185.955 233.422 186.789 233.335 184.748Z" fill="#263238"/>
<path opacity="0.2" d="M218.118 186.823H216.483L216.796 185.217H218.431L218.118 186.823Z" fill="black"/>
<path opacity="0.2" d="M220.553 186.761H218.918L219.231 185.154H220.866L220.553 186.761Z" fill="black"/>
</g>
</g>
<defs>
<clipPath id="clip0_3266_32103">
<rect width="340" height="329" fill="white"/>
</clipPath>
<clipPath id="clip1_3266_32103">
<rect width="434.765" height="323.509" fill="white" transform="translate(-17.3591 12.625)"/>
</clipPath>
</defs>
</svg>
