<svg width="122" height="122" viewBox="0 0 122 122" fill="none" xmlns="http://www.w3.org/2000/svg">
    <path
        d="M56.756 4.60698C59.0415 2.12604 62.9585 2.12604 65.244 4.60698L71.1858 11.057C72.6977 12.6982 75.0204 13.3206 77.1503 12.6552L85.5211 10.0402C88.7409 9.0344 92.1331 10.9929 92.8719 14.2842L94.7926 22.841C95.2814 25.0183 96.9817 26.7186 99.159 27.2074L107.716 29.1281C111.007 29.8669 112.966 33.2591 111.96 36.4789L109.345 44.8497C108.679 46.9796 109.302 49.3023 110.943 50.8142L117.393 56.756C119.874 59.0415 119.874 62.9585 117.393 65.244L110.943 71.1858C109.302 72.6977 108.679 75.0204 109.345 77.1503L111.96 85.5211C112.966 88.7409 111.007 92.1331 107.716 92.8719L99.159 94.7926C96.9817 95.2814 95.2814 96.9817 94.7926 99.159L92.8719 107.716C92.1331 111.007 88.7409 112.966 85.5211 111.96L77.1503 109.345C75.0204 108.679 72.6977 109.302 71.1858 110.943L65.244 117.393C62.9585 119.874 59.0415 119.874 56.756 117.393L50.8142 110.943C49.3023 109.302 46.9796 108.679 44.8496 109.345L36.4789 111.96C33.2591 112.966 29.8669 111.007 29.1281 107.716L27.2074 99.159C26.7186 96.9817 25.0183 95.2814 22.841 94.7926L14.2842 92.8719C10.9929 92.1331 9.0344 88.7409 10.0402 85.5211L12.6552 77.1503C13.3206 75.0204 12.6982 72.6977 11.057 71.1858L4.60698 65.244C2.12604 62.9585 2.12604 59.0415 4.60698 56.756L11.057 50.8142C12.6982 49.3023 13.3206 46.9796 12.6552 44.8496L10.0402 36.4789C9.0344 33.2591 10.9929 29.8669 14.2842 29.1281L22.841 27.2074C25.0183 26.7186 26.7186 25.0183 27.2074 22.841L29.1281 14.2842C29.8669 10.9929 33.2591 9.0344 36.4789 10.0402L44.8497 12.6552C46.9796 13.3206 49.3023 12.6982 50.8142 11.057L56.756 4.60698Z"
        fill="currentColor"/>
    <path
        d="M91.0963 56.7177L38.5979 61.3107C37.5328 61.4039 36.5952 60.6172 36.5021 59.5521L35.3102 45.9291C35.217 44.8641 36.0037 43.9265 37.0688 43.8333L94.7379 38.7879C96.0864 38.67 97.137 39.9388 96.7689 41.2407L92.7921 55.3159C92.5723 56.0904 91.8982 56.6476 91.0963 56.7177Z"
        fill="#F8F8F8"/>
    <g filter="url(#filter0_d_3928_39368)">
        <path
            d="M90.694 56.7529L38.1955 61.3459C37.1304 61.4391 36.1929 60.6524 36.0997 59.5873L34.9079 45.9643C34.8147 44.8992 35.6014 43.9617 36.6665 43.8685L94.3356 38.8231C95.684 38.7051 96.7346 39.974 96.3666 41.2759L92.3898 55.351C92.17 56.1256 91.4958 56.6827 90.694 56.7529Z"
            fill="white"/>
    </g>
    <path
        d="M85.5661 76.8334L31.1404 81.5951L38.4027 64.3833C38.6811 63.7231 39.3016 63.2699 40.017 63.2073L89.2077 58.9037C90.5561 58.7857 91.6067 60.0546 91.2386 61.3564L87.2618 75.4316C87.0421 76.2062 86.3679 76.7633 85.5661 76.8334Z"
        fill="#F8F8F8"/>
    <g filter="url(#filter1_d_3928_39368)">
        <path
            d="M85.1637 76.8686L30.7381 81.6302L38.0003 64.4184C38.2787 63.7583 38.8992 63.305 39.6146 63.2425L88.8053 58.9388C90.1537 58.8209 91.2043 60.0897 90.8363 61.3916L86.8595 75.4668C86.6397 76.2413 85.9655 76.7984 85.1637 76.8686Z"
            fill="white"/>
    </g>
    <path
        d="M34.3524 35.9588L25.1381 65.9245L32.3003 65.2979L24.2911 92.5581L48.6746 51.1607L40.0626 52.8294L50.0412 32.1319L34.3524 35.9588Z"
        fill="#E6E6E6"/>
    <path
        d="M33.6971 35.4085L24.4828 65.3742L31.645 64.7476L23.6358 92.0078L48.0193 50.6104L39.4073 52.2791L49.3859 31.5816L33.6971 35.4085Z"
        fill="#FEFE01"/>
    <path
        d="M42.3653 33.2934L31.899 58.855L38.8304 57.7666L23.6358 92.0078L48.0193 50.6104L39.4073 52.2791L49.3859 31.5816L42.3653 33.2934Z"
        fill="#FDB603"/>
    <g filter="url(#filter2_d_3928_39368)">
        <path
            d="M53.6863 47.8143L53.3876 50.2731L56.1563 50.0308L55.9748 51.3805L53.2237 51.6212L52.8021 55.0837L51.0987 55.2328L52.1468 46.6152L57.1457 46.1778L56.9759 47.5265L53.6863 47.8143ZM62.1648 52.8838L61.995 54.2795L57.318 54.6886L58.3662 46.0711L60.0579 45.9231L59.1795 53.1449L62.1648 52.8838ZM67.5774 50.5652L67.0741 47.9122C67.0468 47.7736 67.0156 47.6098 66.9805 47.421C66.9454 47.2321 66.9122 47.0274 66.881 46.8068C66.7951 47.0376 66.7112 47.2526 66.6293 47.4517C66.5473 47.6508 66.4751 47.8256 66.4126 47.976L65.2594 50.768L67.5774 50.5652ZM69.9304 53.5852L68.6192 53.6999C68.4709 53.7129 68.3558 53.6877 68.2738 53.6244C68.1919 53.561 68.1353 53.4739 68.1041 53.363L67.7939 51.7273L64.7559 51.9931L64.0417 53.7185C63.991 53.8247 63.9129 53.9217 63.8076 54.0092C63.7022 54.0929 63.5812 54.1407 63.4447 54.1526L62.1101 54.2694L66.1962 45.386L67.9288 45.2344L69.9304 53.5852ZM75.7483 46.1662C75.6859 46.2539 75.6254 46.3219 75.5668 46.3701C75.5083 46.4144 75.4361 46.4403 75.3503 46.4478C75.2683 46.455 75.1844 46.4329 75.0986 46.3817C75.0127 46.3265 74.9132 46.2667 74.8 46.2021C74.6869 46.1376 74.5562 46.0825 74.4079 46.0367C74.2596 45.987 74.0801 45.9713 73.8694 45.9898C73.6703 46.0072 73.4947 46.0519 73.3425 46.124C73.1942 46.1918 73.0694 46.2811 72.9679 46.3918C72.8664 46.5025 72.7903 46.6287 72.7396 46.7702C72.6889 46.9118 72.6635 47.0609 72.6635 47.2176C72.6635 47.386 72.7083 47.5231 72.7981 47.6289C72.8878 47.7346 73.0049 47.8242 73.1493 47.8978C73.2976 47.971 73.4654 48.0347 73.6527 48.0888C73.8439 48.1387 74.0371 48.1942 74.2322 48.2555C74.4273 48.3168 74.6185 48.3901 74.8058 48.4756C74.997 48.5607 75.1648 48.6733 75.3092 48.8135C75.4575 48.9494 75.5765 49.1191 75.6662 49.3228C75.756 49.5265 75.8008 49.7792 75.8008 50.0808C75.8008 50.4999 75.7266 50.904 75.5783 51.2931C75.4339 51.6778 75.2251 52.0232 74.952 52.3291C74.6827 52.6308 74.3549 52.8808 73.9686 53.0791C73.5822 53.2775 73.1471 53.3978 72.6632 53.4401C72.4174 53.4616 72.1715 53.4557 71.9257 53.4224C71.6837 53.3887 71.4535 53.3325 71.235 53.2537C71.0164 53.1748 70.8135 53.0751 70.6262 52.9544C70.4389 52.8336 70.2789 52.6949 70.1462 52.538L70.7492 51.6803C70.796 51.6214 70.8546 51.5692 70.9248 51.5239C70.999 51.4743 71.0731 51.4463 71.1472 51.4398C71.2487 51.4309 71.3482 51.4634 71.4458 51.5371C71.5472 51.6066 71.6604 51.6828 71.7853 51.7659C71.914 51.8487 72.0643 51.9237 72.236 51.9909C72.4116 52.0539 72.6262 52.0743 72.8798 52.0521C73.2818 52.0169 73.594 51.878 73.8164 51.6352C74.0428 51.3882 74.156 51.0571 74.156 50.6419C74.156 50.4539 74.1111 50.305 74.0214 50.1953C73.9316 50.0818 73.8145 49.9902 73.6702 49.9205C73.5258 49.8509 73.3599 49.7929 73.1726 49.7466C72.9892 49.7 72.8 49.65 72.6048 49.5965C72.4097 49.5392 72.2185 49.4717 72.0312 49.3941C71.8478 49.3122 71.6839 49.2012 71.5395 49.061C71.3951 48.9209 71.2781 48.7451 71.1883 48.5335C71.0986 48.3181 71.0537 48.0478 71.0537 47.7227C71.0538 47.3506 71.1221 46.9881 71.2587 46.6354C71.3992 46.2784 71.5982 45.9574 71.8558 45.6724C72.1133 45.3835 72.4255 45.1446 72.7924 44.9558C73.1592 44.7671 73.5709 44.6527 74.0275 44.6128C74.2616 44.5923 74.4879 44.5979 74.7065 44.6297C74.9289 44.6612 75.1357 44.7136 75.3269 44.787C75.5181 44.8564 75.6918 44.945 75.8479 45.0528C76.0079 45.1603 76.1444 45.2795 76.2576 45.4107L75.7483 46.1662ZM84.4766 43.7867L83.4285 52.4043L81.7192 52.5538L82.1701 48.8243L78.8278 49.1167L78.3769 52.8462L76.6735 52.9952L77.7217 44.3777L79.425 44.2287L78.9742 47.917L82.3165 47.6246L82.7674 43.9362L84.4766 43.7867Z"
            fill="currentColor"/>
    </g>
    <g filter="url(#filter3_d_3928_39368)">
        <path
            d="M58.2573 69.4148C58.2573 69.8809 58.2046 70.3301 58.0992 70.7624C57.9977 71.1904 57.8494 71.5932 57.6543 71.9706C57.463 72.3438 57.2308 72.6854 56.9577 72.9952C56.6845 73.3051 56.3762 73.5769 56.0328 73.8106C55.6933 74.0401 55.3225 74.2273 54.9206 74.3721C54.5225 74.5127 54.103 74.6023 53.6621 74.6409L50.6417 74.9051L51.6898 66.2876L54.7102 66.0233C55.2565 65.9755 55.7482 66.0265 56.1853 66.1763C56.6262 66.3218 56.9989 66.5458 57.3033 66.8482C57.6116 67.1503 57.8476 67.5214 58.0115 67.9614C58.1754 68.3976 58.2573 68.882 58.2573 69.4148ZM56.5188 69.608C56.5188 69.2398 56.4739 68.9107 56.3842 68.6209C56.2984 68.3307 56.1716 68.0891 56.0038 67.8962C55.836 67.6993 55.6292 67.5549 55.3833 67.4628C55.1414 67.3703 54.8624 67.3379 54.5463 67.3656L53.2292 67.4808L52.5148 73.4074L53.826 73.2927C54.2358 73.2569 54.6065 73.1441 54.9382 72.9545C55.2699 72.7649 55.5528 72.511 55.787 72.1928C56.0211 71.8746 56.2007 71.4985 56.3256 71.0645C56.4544 70.6262 56.5188 70.1407 56.5188 69.608ZM61.5179 66.7615L61.2427 69.0419L63.8007 68.8181L63.6309 70.1198L61.0846 70.3426L60.7977 72.6828L64.1049 72.3934L63.9409 73.7416L58.9303 74.18L59.9785 65.5624L64.9774 65.125L64.8076 66.4737L61.5179 66.7615ZM69.7727 70.0055L69.2694 67.3525C69.2421 67.2139 69.2109 67.0502 69.1758 66.8613C69.1407 66.6724 69.1075 66.4677 69.0763 66.2471C68.9905 66.4779 68.9066 66.6929 68.8246 66.892C68.7426 67.0911 68.6704 67.2659 68.608 67.4163L67.4547 70.2083L69.7727 70.0055ZM72.1257 73.0255L70.8145 73.1402C70.6662 73.1532 70.5511 73.128 70.4692 73.0647C70.3872 73.0013 70.3306 72.9142 70.2994 72.8034L69.9893 71.1676L66.9513 71.4334L66.2371 73.1588C66.1863 73.2651 66.1083 73.362 66.0029 73.4495C65.8976 73.5332 65.7766 73.581 65.64 73.5929L64.3054 73.7097L68.3915 64.8263L70.1242 64.6748L72.1257 73.0255ZM77.7478 71.1528L77.578 72.5485L72.901 72.9577L73.9492 64.3401L75.6408 64.1921L74.7625 71.414L77.7478 71.1528Z"
            fill="currentColor"/>
    </g>
    <path
        d="M53.2644 35.2794C53.2362 35.3241 53.2081 35.3586 53.1801 35.3832C53.152 35.4057 53.116 35.4189 53.0721 35.4227C53.0303 35.4264 52.9862 35.4152 52.9397 35.3892C52.8931 35.3611 52.8392 35.3307 52.7781 35.2979C52.7171 35.2651 52.6473 35.2371 52.569 35.2138C52.4905 35.1885 52.3975 35.1806 52.2899 35.19C52.1883 35.1989 52.0999 35.2217 52.0248 35.2584C51.9516 35.2929 51.8913 35.3383 51.844 35.3947C51.7968 35.451 51.7632 35.5152 51.7434 35.5872C51.7236 35.6592 51.7172 35.735 51.7242 35.8147C51.7317 35.9004 51.7609 35.9701 51.8117 36.0239C51.8626 36.0776 51.9268 36.1232 52.0044 36.1606C52.0839 36.1978 52.1731 36.2302 52.2719 36.2577C52.3725 36.283 52.4743 36.3112 52.5774 36.3424C52.6805 36.3735 52.7822 36.4108 52.8823 36.4542C52.9845 36.4975 53.0758 36.5547 53.1563 36.626C53.2387 36.6951 53.3075 36.7814 53.3627 36.885C53.4179 36.9886 53.4523 37.1171 53.4657 37.2705C53.4843 37.4837 53.4642 37.6892 53.4052 37.8871C53.348 38.0828 53.256 38.2585 53.1291 38.4142C53.004 38.5676 52.8465 38.6949 52.6565 38.7958C52.4666 38.8967 52.2481 38.958 52.0011 38.9796C51.8756 38.9906 51.7488 38.9876 51.6209 38.9707C51.4949 38.9536 51.3739 38.9251 51.258 38.885C51.1421 38.845 51.0332 38.7943 50.9315 38.7329C50.8298 38.6715 50.7413 38.601 50.666 38.5212L50.938 38.0849C50.9595 38.0549 50.9873 38.0284 51.0214 38.0053C51.0574 37.9801 51.0943 37.9658 51.1321 37.9625C51.1839 37.958 51.2366 37.9744 51.29 38.0119C51.3453 38.0472 51.4069 38.086 51.4749 38.1282C51.5448 38.1703 51.6254 38.2084 51.7168 38.2426C51.8099 38.2746 51.9212 38.2849 52.0507 38.2736C52.2559 38.2557 52.4104 38.1849 52.514 38.0614C52.6194 37.9358 52.6629 37.7673 52.6445 37.5561C52.6361 37.4605 52.6064 37.3848 52.5553 37.329C52.5041 37.2713 52.4398 37.2247 52.3624 37.1893C52.285 37.1539 52.1971 37.1245 52.0987 37.101C52.0023 37.0773 51.9027 37.0519 51.7999 37.0247C51.697 36.9956 51.5956 36.9613 51.4958 36.9218C51.3978 36.8802 51.3085 36.8238 51.228 36.7525C51.1475 36.6813 51.0795 36.5919 51.0239 36.4843C50.9681 36.3747 50.933 36.2373 50.9185 36.0719C50.902 35.8826 50.921 35.6983 50.9755 35.5188C51.0319 35.3372 51.12 35.1739 51.2399 35.0289C51.3595 34.8819 51.5095 34.7604 51.6898 34.6643C51.8701 34.5683 52.0768 34.51 52.3099 34.4896C52.4295 34.4792 52.5462 34.482 52.66 34.4981C52.7758 34.5141 52.8846 34.5407 52.9862 34.578C53.0877 34.6133 53.1809 34.6583 53.266 34.7131C53.3531 34.7678 53.4287 34.8284 53.4928 34.8951L53.2644 35.2794ZM55.4898 36.4459C55.6373 36.433 55.7609 36.4001 55.8607 36.3472C55.9624 36.2941 56.0428 36.2259 56.1017 36.1424C56.1605 36.057 56.2001 35.9592 56.2206 35.849C56.2429 35.7366 56.2483 35.6146 56.2368 35.4832C56.2288 35.3915 56.2085 35.309 56.176 35.2355C56.1433 35.1601 56.0976 35.0968 56.0389 35.0457C55.9822 34.9945 55.9117 34.9575 55.8274 34.9347C55.7451 34.9118 55.6492 34.9052 55.5396 34.9148L55.0375 34.9587L54.9818 36.4904L55.4898 36.4459ZM55.5657 34.2499C55.8168 34.228 56.0347 34.24 56.2194 34.2861C56.4039 34.3302 56.5587 34.401 56.6837 34.4985C56.8106 34.5958 56.9075 34.7158 56.9741 34.8585C57.0428 35.0011 57.0848 35.159 57.0999 35.3323C57.1205 35.5675 57.1026 35.7878 57.0463 35.9935C56.9919 36.1971 56.8973 36.378 56.7626 36.5363C56.6297 36.6925 56.4552 36.8212 56.2392 36.9224C56.0232 37.0236 55.7648 37.0874 55.464 37.1137L54.9589 37.1579L54.9051 38.6774L54.0444 38.7527L54.194 34.37L55.5657 34.2499ZM58.5651 34.6711L58.525 35.831L59.831 35.7168L59.8016 36.3789L58.5016 36.4926L58.4582 37.6829L60.1467 37.5352L60.1224 38.2209L57.5642 38.4447L57.7197 34.0615L60.272 33.8382L60.2447 34.5242L58.5651 34.6711ZM62.478 37.3342C62.5935 37.3241 62.6934 37.3064 62.7775 37.2809C62.8616 37.2555 62.9333 37.2261 62.9926 37.1928C63.0539 37.1594 63.1051 37.1248 63.1461 37.0891C63.1872 37.0534 63.2234 37.0201 63.2549 36.9892C63.2883 36.9582 63.3172 36.9326 63.3415 36.9124C63.3678 36.892 63.3959 36.8805 63.4258 36.8779C63.4537 36.8755 63.477 36.8784 63.4959 36.8868C63.5166 36.895 63.5325 36.9047 63.5436 36.9158L63.8778 37.26C63.7097 37.4955 63.5022 37.6823 63.2553 37.8203C63.0084 37.9584 62.7206 38.0418 62.3918 38.0705C62.1228 38.0941 61.8786 38.0673 61.659 37.9901C61.4415 37.9128 61.2536 37.7967 61.0955 37.6419C60.9373 37.4851 60.8102 37.2954 60.7145 37.0729C60.6206 36.8483 60.5617 36.6005 60.538 36.3295C60.5162 36.0804 60.5226 35.843 60.557 35.6171C60.5933 35.3891 60.653 35.1771 60.7363 34.9811C60.8193 34.7831 60.924 34.6023 61.0502 34.4387C61.1784 34.2749 61.3236 34.1337 61.4859 34.0151C61.65 33.8943 61.8282 33.7974 62.0206 33.7244C62.2128 33.6493 62.4165 33.6024 62.6317 33.5836C62.7911 33.5696 62.9378 33.5718 63.0719 33.5902C63.206 33.6086 63.3292 33.64 63.4415 33.6844C63.5537 33.7268 63.6549 33.7821 63.7452 33.8505C63.8373 33.9168 63.9202 33.9918 63.9937 34.0757L63.723 34.4578C63.7034 34.4856 63.6795 34.5108 63.6513 34.5333C63.6252 34.5557 63.5892 34.5689 63.5434 34.5729C63.4975 34.5769 63.4532 34.5637 63.4104 34.5333C63.3674 34.5009 63.3153 34.4674 63.254 34.4326C63.1926 34.3958 63.1146 34.3645 63.0199 34.3386C62.9252 34.3108 62.8031 34.3034 62.6536 34.3164C62.4564 34.3337 62.2767 34.3906 62.1144 34.4871C61.9522 34.5836 61.815 34.713 61.7027 34.8754C61.5923 35.0357 61.5106 35.2265 61.4577 35.448C61.4068 35.6693 61.393 35.9134 61.4164 36.1804C61.4335 36.3756 61.4726 36.5479 61.5339 36.6971C61.5949 36.8443 61.673 36.968 61.7681 37.0681C61.863 37.1662 61.9707 37.2381 62.0911 37.2838C62.2115 37.3294 62.3405 37.3463 62.478 37.3342ZM65.2515 37.7722L64.3819 37.8483L64.5315 33.4655L65.4011 33.3895L65.2515 37.7722ZM68.2914 35.8529L67.9143 34.5037C67.8941 34.4332 67.8707 34.3499 67.8443 34.2538C67.8178 34.1578 67.7916 34.0536 67.7658 33.9415C67.7319 34.0589 67.6983 34.1682 67.665 34.2695C67.6317 34.3708 67.6023 34.4597 67.5769 34.5362L67.1079 35.9565L68.2914 35.8529ZM69.6363 37.3886L68.9669 37.4471C68.8912 37.4537 68.8308 37.441 68.7858 37.4088C68.7409 37.3766 68.7079 37.3323 68.6869 37.2759L68.4545 36.444L66.9034 36.5797L66.6128 37.4573C66.5914 37.5114 66.5556 37.5607 66.5053 37.6053C66.4548 37.6478 66.3947 37.6722 66.325 37.6783L65.6436 37.7379L67.3502 33.2189L68.2348 33.1415L69.6363 37.3886ZM72.4453 36.4351L72.42 37.145L70.0322 37.3539L70.1877 32.9707L71.0514 32.8951L70.9211 36.5685L72.4453 36.4351ZM78.0086 34.1837C78.0293 34.4208 78.0223 34.6502 77.9875 34.8721C77.9525 35.092 77.8934 35.299 77.8099 35.493C77.7285 35.6868 77.6236 35.8646 77.4952 36.0264C77.3669 36.1882 77.2197 36.3306 77.0538 36.4535C76.8897 36.5743 76.7076 36.6725 76.5074 36.7483C76.3092 36.8238 76.0976 36.8715 75.8724 36.8911C75.5915 36.9157 75.3352 36.889 75.1035 36.8109C74.8716 36.7308 74.6705 36.6118 74.5001 36.4541C74.3295 36.2943 74.1921 36.1006 74.0879 35.8728C73.9836 35.645 73.9196 35.3947 73.8957 35.1217C73.875 34.8846 73.8821 34.6561 73.917 34.4362C73.9518 34.2144 74.0099 34.0065 74.0913 33.8127C74.1748 33.6187 74.2807 33.4408 74.409 33.2789C74.5373 33.1151 74.6834 32.9729 74.8475 32.8521C75.0134 32.7292 75.1955 32.6299 75.3936 32.5544C75.5938 32.4786 75.8064 32.4309 76.0316 32.4112C76.3125 32.3867 76.5689 32.4144 76.8008 32.4945C77.0326 32.5746 77.2339 32.6945 77.4044 32.8543C77.575 33.014 77.7124 33.2078 77.8167 33.4355C77.9209 33.6633 77.9849 33.9127 78.0086 34.1837ZM77.1228 34.2822C77.1064 34.095 77.0686 33.9266 77.0094 33.7772C76.9499 33.6258 76.8707 33.5002 76.7716 33.4005C76.6744 33.2986 76.5594 33.2233 76.4266 33.1747C76.2959 33.1259 76.1498 33.1086 75.9884 33.1227C75.7792 33.141 75.5937 33.2004 75.4318 33.3009C75.272 33.4012 75.1391 33.5343 75.0331 33.7002C74.9292 33.8658 74.8549 34.0611 74.8103 34.2858C74.7657 34.5105 74.7551 34.7564 74.7785 35.0234C74.795 35.2127 74.8329 35.382 74.8922 35.5314C74.9513 35.6788 75.0284 35.8036 75.1237 35.9057C75.2209 36.0076 75.3349 36.0829 75.4657 36.1317C75.5983 36.1783 75.7452 36.1946 75.9066 36.1805C76.1158 36.1622 76.3014 36.1038 76.4635 36.0053C76.6253 35.9048 76.7582 35.7717 76.8622 35.606C76.9681 35.4401 77.0435 35.2458 77.0882 35.0231C77.1348 34.7982 77.1463 34.5512 77.1228 34.2822ZM79.5669 32.8337L79.5227 34.0843L80.9363 33.9607L80.903 34.6472L79.4984 34.7701L79.4356 36.5312L78.566 36.6073L78.7215 32.2241L81.2738 32.0008L81.2465 32.6868L79.5669 32.8337ZM82.7423 32.5559L82.6981 33.8065L84.1117 33.6828L84.0784 34.3694L82.6738 34.4922L82.611 36.2534L81.7413 36.3295L81.8969 31.9463L84.4492 31.723L84.4218 32.409L82.7423 32.5559ZM85.9176 32.2781L85.8776 33.438L87.1836 33.3237L87.1542 33.9858L85.8541 34.0996L85.8107 35.2899L87.4993 35.1421L87.4749 35.8279L84.9167 36.0517L85.0723 31.6685L87.6245 31.4452L87.5972 32.1312L85.9176 32.2781ZM89.4674 33.3618C89.6168 33.3488 89.7424 33.3157 89.8442 33.2626C89.9459 33.2096 90.0274 33.1422 90.0885 33.0606C90.1496 32.9789 90.1917 32.8859 90.2146 32.7815C90.2376 32.6771 90.2442 32.5681 90.2342 32.4546C90.2187 32.2772 90.1517 32.1426 90.0332 32.0505C89.9168 31.9583 89.745 31.9222 89.5178 31.942L89.1144 31.9773L89.0639 33.3971L89.4674 33.3618ZM89.541 31.2775C89.798 31.255 90.0196 31.2637 90.2058 31.3037C90.3938 31.3414 90.5499 31.404 90.674 31.4916C90.7999 31.5769 90.8957 31.685 90.9613 31.8158C91.0288 31.9444 91.0694 32.0874 91.0832 32.2448C91.0975 32.4081 91.0881 32.5646 91.055 32.714C91.0239 32.8633 90.9707 33.0014 90.8955 33.1285C90.8203 33.2555 90.7249 33.3703 90.6094 33.4727C90.4959 33.575 90.3629 33.6609 90.2103 33.7305C90.2648 33.7558 90.3148 33.7886 90.3605 33.8288C90.4081 33.8688 90.4506 33.9183 90.4879 33.9772L91.334 35.4903L90.554 35.5585C90.4045 35.5716 90.302 35.5243 90.2464 35.4168L89.5694 34.1148C89.541 34.0651 89.5078 34.0299 89.4698 34.0091C89.4318 33.9883 89.377 33.9811 89.3053 33.9873L89.0423 34.0104L88.982 35.696L88.1213 35.7713L88.2708 31.3886L89.541 31.2775Z"
        fill="white"/>
    <defs>
        <filter id="filter0_d_3928_39368" x="31.5196" y="37.6885" width="68.3016" height="29.2996"
                filterUnits="userSpaceOnUse" color-interpolation-filters="sRGB">
            <feFlood flood-opacity="0" result="BackgroundImageFix"/>
            <feColorMatrix in="SourceAlpha" type="matrix" values="0 0 0 0 0 0 0 0 0 0 0 0 0 0 0 0 0 0 127 0"
                           result="hardAlpha"/>
            <feOffset dy="2.25385"/>
            <feGaussianBlur stdDeviation="1.69039"/>
            <feComposite in2="hardAlpha" operator="out"/>
            <feColorMatrix type="matrix" values="0 0 0 0 0 0 0 0 0 0 0 0 0 0 0 0 0 0 0.15 0"/>
            <feBlend mode="normal" in2="BackgroundImageFix" result="effect1_dropShadow_3928_39368"/>
            <feBlend mode="normal" in="SourceGraphic" in2="effect1_dropShadow_3928_39368" result="shape"/>
        </filter>
        <filter id="filter1_d_3928_39368" x="27.3575" y="57.8042" width="66.9334" height="29.4608"
                filterUnits="userSpaceOnUse" color-interpolation-filters="sRGB">
            <feFlood flood-opacity="0" result="BackgroundImageFix"/>
            <feColorMatrix in="SourceAlpha" type="matrix" values="0 0 0 0 0 0 0 0 0 0 0 0 0 0 0 0 0 0 127 0"
                           result="hardAlpha"/>
            <feOffset dy="2.25385"/>
            <feGaussianBlur stdDeviation="1.69039"/>
            <feComposite in2="hardAlpha" operator="out"/>
            <feColorMatrix type="matrix" values="0 0 0 0 0 0 0 0 0 0 0 0 0 0 0 0 0 0 0.15 0"/>
            <feBlend mode="normal" in2="BackgroundImageFix" result="effect1_dropShadow_3928_39368"/>
            <feBlend mode="normal" in="SourceGraphic" in2="effect1_dropShadow_3928_39368" result="shape"/>
        </filter>
        <filter id="filter2_d_3928_39368" x="49.9717" y="43.1353" width="35.6318" height="13.8818"
                filterUnits="userSpaceOnUse" color-interpolation-filters="sRGB">
            <feFlood flood-opacity="0" result="BackgroundImageFix"/>
            <feColorMatrix in="SourceAlpha" type="matrix" values="0 0 0 0 0 0 0 0 0 0 0 0 0 0 0 0 0 0 127 0"
                           result="hardAlpha"/>
            <feOffset dy="0.563463"/>
            <feGaussianBlur stdDeviation="0.563463"/>
            <feComposite in2="hardAlpha" operator="out"/>
            <feColorMatrix type="matrix" values="0 0 0 0 0 0 0 0 0 0 0 0 0 0 0 0 0 0 0.15 0"/>
            <feBlend mode="normal" in2="BackgroundImageFix" result="effect1_dropShadow_3928_39368"/>
            <feBlend mode="normal" in="SourceGraphic" in2="effect1_dropShadow_3928_39368" result="shape"/>
        </filter>
        <filter id="filter3_d_3928_39368" x="49.5147" y="63.4443" width="29.3603" height="13.1513"
                filterUnits="userSpaceOnUse" color-interpolation-filters="sRGB">
            <feFlood flood-opacity="0" result="BackgroundImageFix"/>
            <feColorMatrix in="SourceAlpha" type="matrix" values="0 0 0 0 0 0 0 0 0 0 0 0 0 0 0 0 0 0 127 0"
                           result="hardAlpha"/>
            <feOffset dy="0.563463"/>
            <feGaussianBlur stdDeviation="0.563463"/>
            <feComposite in2="hardAlpha" operator="out"/>
            <feColorMatrix type="matrix" values="0 0 0 0 0 0 0 0 0 0 0 0 0 0 0 0 0 0 0.15 0"/>
            <feBlend mode="normal" in2="BackgroundImageFix" result="effect1_dropShadow_3928_39368"/>
            <feBlend mode="normal" in="SourceGraphic" in2="effect1_dropShadow_3928_39368" result="shape"/>
        </filter>
    </defs>
</svg>
