<svg width="70" height="70" viewBox="0 0 70 70" fill="none" xmlns="http://www.w3.org/2000/svg">
<path d="M42.2825 14.8239L46.3893 10.8208C46.6819 10.5359 46.8888 10.1749 46.9868 9.77845C47.0848 9.38205 47.0699 8.96613 46.9437 8.57777C46.8176 8.18941 46.5852 7.84412 46.273 7.58096C45.9608 7.3178 45.5811 7.14728 45.177 7.08871L39.5 6.26424L36.9623 1.1199C36.7608 0.778769 36.4738 0.496066 36.1297 0.299678C35.7856 0.103289 35.3963 0 35.0001 0C34.6039 0 34.2146 0.103289 33.8705 0.299678C33.5264 0.496066 33.2394 0.778769 33.0379 1.1199L30.5004 6.26402L24.8234 7.08849C24.4193 7.14706 24.0397 7.31758 23.7274 7.58074C23.4152 7.8439 23.1829 8.18919 23.0567 8.57755C22.9306 8.96591 22.9156 9.38183 23.0136 9.77824C23.1116 10.1746 23.3186 10.5357 23.6111 10.8206L27.7179 14.8237L26.748 20.4782C26.6789 20.8806 26.7238 21.2942 26.8776 21.6724C27.0314 22.0506 27.288 22.3782 27.6183 22.6182C27.9486 22.8581 28.3395 23.0008 28.7467 23.0302C29.1539 23.0595 29.5612 22.9743 29.9225 22.7842L35.0001 20.1142L40.0779 22.7845C40.4393 22.9746 40.8466 23.0597 41.2538 23.0304C41.661 23.001 42.0518 22.8583 42.3822 22.6184C42.7125 22.3784 42.969 22.0508 43.1228 21.6726C43.2766 21.2945 43.3215 20.8808 43.2524 20.4784L42.2825 14.8239Z" fill="#E0E0E0"/>
<path d="M69.8934 15.0441C69.7672 14.6558 69.5348 14.3106 69.2226 14.0475C68.9104 13.7843 68.5308 13.6138 68.1268 13.5551L62.4507 12.7304L59.9108 7.58648C59.7095 7.24518 59.4227 6.96228 59.0787 6.76574C58.7347 6.5692 58.3453 6.46582 57.9491 6.46582C57.5529 6.46582 57.1636 6.5692 56.8195 6.76574C56.4755 6.96228 56.1887 7.24518 55.9875 7.58648L53.45 12.7304L47.7741 13.5551C47.3701 13.6136 46.9906 13.7841 46.6784 14.0471C46.3662 14.3101 46.1339 14.6552 46.0076 15.0434C45.8814 15.4316 45.8663 15.8474 45.964 16.2437C46.0617 16.64 46.2684 17.0011 46.5607 17.2861L50.6686 21.2892L49.6986 26.9439C49.6295 27.3462 49.6742 27.7598 49.8279 28.138C49.9815 28.5162 50.238 28.8439 50.5682 29.0839C50.8983 29.324 51.2891 29.4669 51.6962 29.4964C52.1034 29.5259 52.5107 29.4409 52.872 29.251L57.9488 26.5823L63.0266 29.251C63.3879 29.4411 63.7952 29.5263 64.2025 29.497C64.6097 29.4676 65.0005 29.3249 65.3308 29.085C65.6611 28.845 65.9177 28.5174 66.0715 28.1392C66.2253 27.761 66.2702 27.3474 66.2011 26.945L65.2314 21.2903L69.3385 17.2872C69.6311 17.0024 69.8382 16.6413 69.9363 16.2449C70.0344 15.8485 70.0195 15.4325 69.8934 15.0441Z" fill="#E0E0E0"/>
<path d="M22.2265 13.555L16.5505 12.7303L14.013 7.58639C13.8324 7.22035 13.553 6.91215 13.2063 6.69665C12.8596 6.48115 12.4596 6.36694 12.0514 6.36694C11.6432 6.36694 11.2432 6.48115 10.8965 6.69665C10.5499 6.91215 10.2704 7.22035 10.0898 7.58639L7.54964 12.7303L1.87351 13.555C1.46945 13.6136 1.08985 13.7841 0.777663 14.0473C0.465478 14.3104 0.23317 14.6557 0.107024 15.044C-0.0191232 15.4323 -0.0340734 15.8482 0.0638644 16.2446C0.161802 16.6409 0.368719 17.002 0.661202 17.2869L4.76889 21.2902L3.79895 26.9449C3.72987 27.3473 3.77477 27.761 3.92857 28.1391C4.08237 28.5173 4.33894 28.8449 4.66925 29.0849C4.99956 29.3248 5.39043 29.4675 5.79764 29.4969C6.20485 29.5262 6.61214 29.441 6.97345 29.251L12.0513 26.5822L17.128 29.251C17.4894 29.441 17.8967 29.5262 18.3039 29.4969C18.7111 29.4675 19.1019 29.3248 19.4322 29.0849C19.7626 28.8449 20.0191 28.5173 20.1729 28.1391C20.3267 27.761 20.3716 27.3473 20.3025 26.9449L19.3326 21.2902L23.4405 17.2871C23.7328 17.0021 23.9394 16.641 24.0372 16.2447C24.1349 15.8484 24.1198 15.4326 23.9935 15.0444C23.8673 14.6562 23.635 14.3111 23.3228 14.0481C23.0106 13.7851 22.6304 13.6135 22.2265 13.555Z" fill="#E0E0E0"/>
<path d="M56.8752 32.7126H13.1252C11.3853 32.7146 9.71726 33.4066 8.48697 34.6369C7.25667 35.8672 6.56465 37.5352 6.56274 39.2751V56.7751C6.56465 58.515 7.25667 60.1831 8.48697 61.4134C9.71726 62.6437 11.3853 63.3357 13.1252 63.3376H27.5319L33.4537 69.2592C33.6567 69.4624 33.8978 69.6236 34.1632 69.7336C34.4286 69.8435 34.713 69.9001 35.0002 69.9001C35.2875 69.9001 35.5719 69.8435 35.8373 69.7336C36.1027 69.6236 36.3438 69.4624 36.5468 69.2592L42.4686 63.3376H56.8752C58.6151 63.3357 60.2832 62.6437 61.5135 61.4134C62.7438 60.1831 63.4358 58.515 63.4377 56.7751V39.2751C63.4358 37.5352 62.7438 35.8672 61.5135 34.6369C60.2832 33.4066 58.6151 32.7146 56.8752 32.7126ZM52.5002 54.5876H17.5002C16.9201 54.5876 16.3637 54.3572 15.9534 53.9469C15.5432 53.5367 15.3127 52.9803 15.3127 52.4001C15.3127 51.82 15.5432 51.2636 15.9534 50.8533C16.3637 50.4431 16.9201 50.2126 17.5002 50.2126H52.5002C53.0804 50.2126 53.6368 50.4431 54.047 50.8533C54.4573 51.2636 54.6877 51.82 54.6877 52.4001C54.6877 52.9803 54.4573 53.5367 54.047 53.9469C53.6368 54.3572 53.0804 54.5876 52.5002 54.5876ZM52.5002 45.8376H17.5002C16.9201 45.8376 16.3637 45.6072 15.9534 45.1969C15.5432 44.7867 15.3127 44.2303 15.3127 43.6501C15.3127 43.07 15.5432 42.5136 15.9534 42.1033C16.3637 41.6931 16.9201 41.4626 17.5002 41.4626H52.5002C53.0804 41.4626 53.6368 41.6931 54.047 42.1033C54.4573 42.5136 54.6877 43.07 54.6877 43.6501C54.6877 44.2303 54.4573 44.7867 54.047 45.1969C53.6368 45.6072 53.0804 45.8376 52.5002 45.8376Z" fill="#E0E0E0"/>
</svg>
