<svg width="70" height="70" viewBox="0 0 70 70" fill="none" xmlns="http://www.w3.org/2000/svg">
<g clip-path="url(#clip0_6311_98)">
<path fill-rule="evenodd" clip-rule="evenodd" d="M68.9746 42.6904V27.3096C68.9746 26.1818 68.0518 25.2588 66.9238 25.2588H3.07617C1.94824 25.2588 1.02539 26.1816 1.02539 27.3096V42.6904C1.02539 43.8184 1.94838 44.7412 3.07617 44.7412H66.9238C68.0516 44.7412 68.9746 43.8184 68.9746 42.6904Z" fill="#E0E0E0"/>
<path fill-rule="evenodd" clip-rule="evenodd" d="M57.6045 44.7412H12.3955C16.1696 53.4871 24.8693 59.6094 35 59.6094C45.1307 59.6094 53.8305 53.4871 57.6045 44.7412ZM57.6045 25.2588H12.3955C16.1696 16.5129 24.8693 10.3906 35 10.3906C45.1307 10.3906 53.8305 16.5129 57.6045 25.2588Z" fill="white"/>
<path fill-rule="evenodd" clip-rule="evenodd" d="M57.6045 44.7412H12.3955C12.8558 45.8078 13.3898 46.8351 13.9903 47.8174H56.0098C56.6103 46.8351 57.1442 45.8079 57.6045 44.7412ZM13.9903 22.1826H56.0098C56.6103 23.1648 57.1443 24.1921 57.6047 25.2588H12.3955C12.8558 24.1921 13.3898 23.1649 13.9903 22.1826Z" fill="#F3F3F3"/>
<path fill-rule="evenodd" clip-rule="evenodd" d="M35 59.6094C25.3366 59.6094 16.9753 54.0389 12.9489 45.9345C12.5937 45.2196 11.8785 44.7412 11.0803 44.7412H7.98856C6.90607 44.7412 6.02005 45.6025 5.98937 46.6845L5.87827 50.6024C5.85686 51.3573 6.2625 52.0599 6.92696 52.4188L13.319 55.8715C13.6618 56.0567 13.9431 56.3379 14.1282 56.6807L17.5809 63.0728C17.9398 63.7372 18.6424 64.1429 19.3973 64.1215L26.6595 63.9156C27.0489 63.9045 27.4331 64.0075 27.7649 64.2118L33.9513 68.0212C34.5944 68.4172 35.4056 68.4172 36.0487 68.0212L42.235 64.2119C42.5668 64.0076 42.9509 63.9047 43.3404 63.9157L50.6026 64.1216C51.3575 64.143 52.06 63.7374 52.4189 63.0729L55.8717 56.6808C56.0568 56.3381 56.3381 56.0568 56.6808 55.8717L63.0729 52.4189C63.7374 52.06 64.143 51.3575 64.1216 50.6026L64.0105 46.6847C63.9798 45.6026 63.0938 44.7413 62.0113 44.7413H58.9196C58.1214 44.7413 57.4061 45.2198 57.051 45.9347C53.0248 54.039 44.6633 59.6094 35 59.6094ZM35 10.3906C25.3366 10.3906 16.9752 15.961 12.9489 24.0655C12.5937 24.7803 11.8785 25.2588 11.0802 25.2588H7.9887C6.90621 25.2588 6.02019 24.3975 5.98951 23.3155L5.87841 19.3976C5.857 18.6427 6.26263 17.9401 6.92709 17.5812L13.3192 14.1285C13.6619 13.9433 13.9432 13.6621 14.1283 13.3193L17.5811 6.92722C17.94 6.26276 18.6425 5.85713 19.3974 5.87853L26.6596 6.08442C27.0491 6.09547 27.4333 5.99252 27.765 5.78824L33.9513 1.97877C34.5944 1.58279 35.4056 1.58278 36.0487 1.97876L42.235 5.78812C42.5668 5.99239 42.9509 6.09533 43.3404 6.08429L50.6026 5.8784C51.3575 5.857 52.06 6.26263 52.4189 6.92708L55.8717 13.3192C56.0568 13.6619 56.3381 13.9432 56.6808 14.1283L63.0729 17.5811C63.7374 17.94 64.143 18.6425 64.1216 19.3974L64.0105 23.3153C63.9798 24.3974 63.0938 25.2587 62.0113 25.2587H58.9196C58.1214 25.2587 57.4061 24.7802 57.051 24.0653C53.0248 15.961 44.6635 10.3906 35 10.3906Z" fill="#E0E0E0"/>
<path fill-rule="evenodd" clip-rule="evenodd" d="M13.9902 47.8174C13.3897 46.8352 12.8557 45.8079 12.3953 44.7412H6.04447L5.95725 47.8174H13.9902ZM64.0426 47.8174L63.9554 44.7412H57.6044C57.1441 45.8078 56.61 46.8351 56.0096 47.8174H64.0426ZM5.95738 22.1826H13.9903C13.3898 23.1648 12.8558 24.1921 12.3955 25.2588H6.04461L5.95738 22.1826ZM56.0098 22.1826H64.0428L63.9555 25.2588H57.6045C57.1443 24.1921 56.6103 23.1649 56.0098 22.1826Z" fill="#E0E0E0"/>
<path fill-rule="evenodd" clip-rule="evenodd" d="M6.15234 25.2588H3.07617C1.94824 25.2588 1.02539 26.1816 1.02539 27.3096V42.6904C1.02539 43.8184 1.94838 44.7412 3.07617 44.7412H6.15234C5.02455 44.7412 4.10156 43.8184 4.10156 42.6904V27.3096C4.10156 26.1816 5.02441 25.2588 6.15234 25.2588Z" fill="#E0E0E0"/>
<path d="M25.375 52.5H27.4258V54.5508H25.375V52.5Z" fill="#E0E0E0"/>
<path d="M41.1522 15.5176H43.203V17.5684H41.1522V15.5176Z" fill="#E0E0E0"/>
<path d="M45.2538 17.5684H47.3046V19.6191H45.2538V17.5684Z" fill="#E0E0E0"/>
<path d="M33.1367 29.8314L29.4023 39.6365L31.3188 40.3664L32.2089 38.0296H35.8035L36.6846 40.3645L38.6034 39.6404L34.9007 29.8293L33.1367 29.8314ZM32.9898 35.9788L34.0143 33.2889L35.0294 35.9788H32.9898Z" fill="white"/>
<path d="M48.5222 36.037L44.6223 29.8303H42.6658V40.1698H44.7166V33.8352L48.6165 40.0418H50.5729V29.8147H48.5222V36.037Z" fill="white"/>
<path d="M57.8732 29.8145H54.5656V39.9237H57.9489L57.9578 39.9236C60.3885 39.8811 62.1529 37.7555 62.1529 34.8691C62.1529 31.8458 60.433 29.8145 57.8732 29.8145ZM57.9299 37.8731H56.6163V31.8654H57.8732C58.9507 31.8654 60.1021 32.6545 60.1021 34.8694C60.1021 36.9018 58.9776 37.8501 57.9299 37.8731Z" fill="white"/>
<path d="M13.7435 34.3713C14.0453 33.9096 14.2208 33.3583 14.2208 32.7667C14.2208 31.1477 12.9037 29.8306 11.2845 29.8306H7.84711V40.1854H11.706C13.5038 40.1854 14.9666 38.7184 14.9666 36.9149C14.9666 35.8873 14.4888 34.9693 13.7435 34.3713ZM9.89789 31.8813H11.2846C11.7729 31.8813 12.1702 32.2785 12.1702 32.7667C12.1702 33.2562 11.773 33.6545 11.2848 33.6545H10.2594H9.89789V31.8813ZM11.706 38.1347H9.89789V35.7052H11.706C12.373 35.7052 12.9158 36.248 12.9158 36.9151C12.9158 37.5876 12.373 38.1347 11.706 38.1347Z" fill="white"/>
<path d="M25.4996 33.0143C25.4996 31.2588 24.0167 29.8308 22.194 29.8308H18.9607L18.9589 40.1855L21.0097 40.1858L21.0104 36.7465L24.1015 40.4005L25.6672 39.076L23.1234 36.0689C24.4948 35.6811 25.4996 34.459 25.4996 33.0143ZM21.0111 31.8815H22.1938C22.874 31.8815 23.4486 32.4002 23.4486 33.0142C23.4486 33.6282 22.874 34.1469 22.1882 34.1469L21.0105 34.1533L21.0111 31.8815Z" fill="white"/>
<path d="M56.0752 68.4004C59.9827 68.4004 63.1504 65.2327 63.1504 61.3252C63.1504 57.4177 59.9827 54.25 56.0752 54.25C52.1677 54.25 49 57.4177 49 61.3252C49 65.2327 52.1677 68.4004 56.0752 68.4004Z" fill="#BFBEBE"/>
<path d="M58.536 64.7099C58.4148 64.7101 58.2947 64.6863 58.1828 64.6399C58.0708 64.5935 57.9691 64.5254 57.8835 64.4396L52.9616 59.5177C52.7896 59.3444 52.6933 59.11 52.6937 58.8659C52.6942 58.6217 52.7914 58.3877 52.964 58.2151C53.1366 58.0425 53.3707 57.9453 53.6148 57.9448C53.859 57.9444 54.0933 58.0407 54.2666 58.2127L59.1885 63.1346C59.3175 63.2637 59.4054 63.4281 59.441 63.6071C59.4766 63.7861 59.4583 63.9716 59.3884 64.1402C59.3186 64.3088 59.2004 64.4529 59.0486 64.5544C58.8969 64.6558 58.7185 64.7099 58.536 64.7099Z" fill="white"/>
<path d="M53.6141 64.7099C53.4316 64.7099 53.2532 64.6558 53.1015 64.5544C52.9497 64.4529 52.8315 64.3088 52.7616 64.1402C52.6918 63.9716 52.6735 63.7861 52.7091 63.6071C52.7447 63.4281 52.8326 63.2637 52.9616 63.1346L57.8835 58.2127C58.0568 58.0407 58.2911 57.9444 58.5353 57.9448C58.7794 57.9453 59.0135 58.0425 59.1861 58.2151C59.3587 58.3877 59.4559 58.6217 59.4564 58.8659C59.4568 59.11 59.3605 59.3444 59.1885 59.5177L54.2666 64.4396C54.181 64.5254 54.0793 64.5935 53.9673 64.6399C53.8554 64.6863 53.7353 64.7101 53.6141 64.7099Z" fill="white"/>
</g>
<defs>
<clipPath id="clip0_6311_98">
<rect width="70" height="70" fill="white"/>
</clipPath>
</defs>
</svg>
