<svg width="70" height="70" viewBox="0 0 70 70" fill="none" xmlns="http://www.w3.org/2000/svg">
<g clip-path="url(#clip0_6311_179)">
<path d="M61.7045 35.0096C61.3919 36.5797 59.9995 37.7234 58.33 37.7944C57.8043 37.8158 57.3568 38.1994 57.2572 38.718C57.1507 39.2366 57.4135 39.7623 57.8895 39.9825C59.4027 40.693 60.2481 42.2843 59.9284 43.8543L59.63 45.3462C59.2393 47.3141 57.0653 48.5431 55.1615 48.0742C54.6287 47.9463 54.0817 47.8469 53.5417 47.7403C52.7461 47.584 51.9504 47.4206 51.1547 47.2643C50.1032 47.0512 49.0518 46.8453 48.0005 46.6321C46.7501 46.3835 45.4927 46.1277 44.2423 45.879C42.8429 45.5948 41.4434 45.3179 40.0438 45.0337C38.5519 44.7353 37.0529 44.4369 35.561 44.1315C34.0265 43.826 32.492 43.5134 30.9646 43.2079C29.4443 42.9024 27.9311 42.5969 26.4108 42.2915C24.9616 42.0002 23.5123 41.7089 22.0631 41.4177C20.7346 41.1548 19.4132 40.8848 18.0847 40.622C16.9338 40.3947 15.783 40.1602 14.6392 39.9329C13.7228 39.7482 12.8063 39.5635 11.8828 39.3788C11.2505 39.2509 10.6181 39.123 9.98595 38.9952C9.69461 38.9383 9.40341 38.8744 9.11213 38.8176C9.09793 38.8176 9.08372 38.8104 9.06944 38.8104C9.22573 39.5493 9.15469 40.3378 8.81369 41.0767C8.09609 42.6254 6.42661 43.4352 4.82113 43.1227C4.34515 43.0303 3.82655 43.2079 3.62052 43.6484L2.98115 45.0337C2.7752 45.4741 2.98115 45.9856 3.35774 46.2911C3.42878 46.348 54.6358 69.9552 54.721 69.9764C55.1969 70.0688 55.7155 69.8912 55.9216 69.4507L56.5609 68.0654C56.767 67.625 56.5609 67.1135 56.1844 66.808C54.9057 65.7921 54.4367 63.9947 55.1543 62.4461C55.8718 60.8973 57.5413 60.0875 59.1469 60.4001C59.6228 60.4924 60.1415 60.3148 60.3474 59.8743L60.9868 58.489C61.1928 58.0486 60.9868 57.5371 60.6103 57.2316C59.3315 56.2157 58.8626 54.4183 59.5802 52.8697C60.2977 51.321 61.9672 50.5111 63.5727 50.8237C64.0487 50.916 64.5673 50.7384 64.7733 50.298L65.4127 48.9126C65.6186 48.4722 65.4127 47.9607 65.0361 47.6552C63.7573 46.6393 63.2885 44.8419 64.006 43.2932C64.7236 41.7445 66.3931 40.9347 67.9986 41.2472C68.4745 41.3396 68.9931 41.162 69.1992 40.7216L69.9024 39.187C70.1084 38.7466 69.9166 38.2279 69.4762 38.022L61.825 34.4912L61.7045 35.0096Z" fill="#E0E0E0"/>
<path d="M0.686607 34.5193C0.771857 34.562 56.0496 45.6515 56.1419 45.6515C56.6251 45.6302 57.0939 45.3318 57.1862 44.863L57.4846 43.3711C57.577 42.8951 57.2644 42.4404 56.8239 42.2344C55.3462 41.5382 54.4724 39.9042 54.8063 38.2276C55.1402 36.5511 56.5824 35.3789 58.2163 35.3078C58.6994 35.2865 59.1683 34.9881 59.2607 34.5193L59.4809 33.4252L59.5591 33.0203C59.6515 32.5443 59.3388 32.0896 58.8984 31.8836C57.4207 31.1874 56.5469 29.5534 56.8808 27.8769C57.2147 26.2003 58.6569 25.0281 60.2908 24.957C60.7739 24.9357 61.2428 24.6373 61.3352 24.1685L61.6335 22.6766C61.7259 22.2006 61.4132 21.7459 60.9728 21.5399C59.4951 20.8437 58.6213 19.2097 58.9552 17.5331C59.2891 15.8566 60.7313 14.6844 62.3653 14.6133C62.8483 14.592 63.3172 14.2936 63.4096 13.8248L63.7434 12.1695C63.8358 11.6935 63.5303 11.2317 63.0544 11.1394C63.0544 11.1394 7.5067 0 7.44987 0C7.03782 0 6.67551 0.291272 6.59026 0.703315L6.25636 2.35859C6.16401 2.83457 6.47659 3.28924 6.91705 3.49526C8.39472 4.19147 9.26854 5.82544 8.93464 7.50202C8.60075 9.17861 7.1586 10.3508 5.52463 10.4218C5.04148 10.4432 4.57267 10.7415 4.48032 11.2104L4.18194 12.7023C4.08958 13.1783 4.40217 13.6329 4.84263 13.839C6.3203 14.5352 7.19419 16.1691 6.86022 17.8457C6.52632 19.5223 5.08417 20.6945 3.45021 20.7655C2.96712 20.7869 2.49825 21.0852 2.40589 21.5541L2.10752 23.046C2.01516 23.522 2.32782 23.9766 2.76821 24.1827C4.24595 24.8789 5.11976 26.5128 4.7858 28.1894C4.4519 29.8661 3.00975 31.0383 1.37578 31.1093C0.892699 31.1306 0.423823 31.429 0.331468 31.8979L0.0330921 33.3898C-0.0664377 33.8657 0.246076 34.3133 0.686607 34.5193ZM48.036 16.3113C48.2278 15.3522 49.1656 14.7271 50.1247 14.9189C51.0837 15.1107 51.7089 16.0484 51.5171 17.0075L49.1727 28.6726L47.7306 35.862C47.5601 36.7074 46.8212 37.29 45.99 37.29C45.8763 37.29 45.7556 37.2758 45.6419 37.2545C44.6829 37.0627 44.0577 36.1249 44.2495 35.1659L45.8622 27.1453L48.036 16.3113ZM16.0103 9.882C16.2022 8.92293 17.1399 8.29776 18.099 8.48958C19.058 8.68139 19.6832 9.61914 19.4914 10.5782L18.6815 14.6063L17.7652 19.1743L17.0263 22.8542L15.712 29.4327C15.5416 30.2781 14.8027 30.8607 13.9715 30.8607C13.8578 30.8607 13.7371 30.8465 13.6235 30.8252C13.5737 30.818 13.524 30.8038 13.4814 30.7897C12.6005 30.5339 12.0534 29.6459 12.2382 28.7366L12.5009 27.4081L13.1901 23.9697L16.0103 9.882Z" fill="#EBEBEB"/>
<path d="M62.0752 18.1504C65.9827 18.1504 69.1504 14.9827 69.1504 11.0752C69.1504 7.16767 65.9827 4 62.0752 4C58.1677 4 55 7.16767 55 11.0752C55 14.9827 58.1677 18.1504 62.0752 18.1504Z" fill="#BFBEBE"/>
<path d="M64.536 14.4599C64.4148 14.4601 64.2947 14.4363 64.1828 14.3899C64.0708 14.3435 63.9691 14.2754 63.8835 14.1896L58.9616 9.26768C58.7896 9.09442 58.6933 8.86004 58.6937 8.6159C58.6942 8.37175 58.7914 8.13773 58.964 7.96509C59.1366 7.79245 59.3707 7.69527 59.6148 7.69483C59.8589 7.69438 60.0933 7.79071 60.2666 7.96272L65.1885 12.8846C65.3175 13.0137 65.4054 13.1781 65.441 13.3571C65.4766 13.5361 65.4583 13.7216 65.3884 13.8902C65.3186 14.0588 65.2003 14.2029 65.0486 14.3044C64.8969 14.4058 64.7185 14.4599 64.536 14.4599Z" fill="white"/>
<path d="M59.6141 14.4599C59.4316 14.4599 59.2532 14.4058 59.1015 14.3044C58.9497 14.2029 58.8315 14.0588 58.7616 13.8902C58.6918 13.7216 58.6735 13.5361 58.7091 13.3571C58.7447 13.1781 58.8326 13.0137 58.9616 12.8846L63.8835 7.96272C64.0568 7.79071 64.2911 7.69438 64.5353 7.69483C64.7794 7.69527 65.0135 7.79245 65.1861 7.96509C65.3587 8.13773 65.4559 8.37175 65.4564 8.6159C65.4568 8.86004 65.3605 9.09442 65.1885 9.26768L60.2666 14.1896C60.181 14.2754 60.0793 14.3435 59.9673 14.3899C59.8554 14.4363 59.7353 14.4601 59.6141 14.4599Z" fill="white"/>
</g>
<defs>
<clipPath id="clip0_6311_179">
<rect width="69.9999" height="70" fill="white"/>
</clipPath>
</defs>
</svg>
