<svg width="73" height="70" viewBox="0 0 73 70" fill="none" xmlns="http://www.w3.org/2000/svg">
<path fill-rule="evenodd" clip-rule="evenodd" d="M18.8644 45.8854C18.8644 46.5294 18.3422 47.0521 17.6978 47.0521C17.0529 47.0521 16.5311 46.5294 16.5311 45.8854V41.2191C16.5311 40.575 17.0531 40.0525 17.6978 40.0525C18.3423 40.0525 18.8644 40.575 18.8644 41.2191V45.8854ZM18.8644 57.5514C18.8644 58.1956 18.3422 58.7181 17.6978 58.7181C17.0529 58.7181 16.5311 58.1956 16.5311 57.5514V52.885C16.5311 52.2409 17.0531 51.7185 17.6978 51.7185C18.3423 51.7185 18.8644 52.2409 18.8644 52.885V57.5514ZM29.3067 22.7918C28.9112 23.2997 28.1776 23.3912 27.6697 22.9951C27.1615 22.599 27.0703 21.8657 27.4667 21.3576L30.3338 17.6765C30.7304 17.1687 31.4636 17.0772 31.9718 17.4735C32.4795 17.8696 32.571 18.6029 32.1744 19.1109L29.3067 22.7918ZM61.7641 26.1044L39.9608 9.11714L36.477 13.5889C36.0806 14.0973 35.3477 14.1884 34.8391 13.7923C34.3312 13.3963 34.2398 12.663 34.6362 12.1551L38.1202 7.68287L29.9091 1.28596C27.2531 -0.783478 23.3869 -0.303426 21.3174 2.35298L17.7978 6.87046C21.6895 9.90252 22.386 15.515 19.3538 19.4063C16.3219 23.2977 10.7091 23.9947 6.81798 20.9629L3.29815 25.481C2.94225 25.938 2.66131 26.4313 2.45435 26.9447C3.56522 26.4063 4.80991 26.1044 6.12228 26.1044H61.7641ZM6.12214 28.4372H16.531V34.2196C16.531 34.8638 17.0529 35.3862 17.6976 35.3862C18.3422 35.3862 18.8643 34.8638 18.8643 34.2196V28.4372H63.8781C67.2454 28.4372 70.0003 31.1921 70.0003 34.5595V40.2861C65.0673 40.2861 61.0678 44.2854 61.0678 49.2188C61.0678 54.1517 65.0673 58.151 70.0003 58.151V63.8784C70.0003 67.2454 67.2454 70 63.8781 70H18.8644V64.5516C18.8644 63.9074 18.3422 63.3851 17.6978 63.3851C17.0529 63.3851 16.5311 63.9074 16.5311 64.5516V70H6.12214C2.75463 70 0 67.2454 0 63.8784V58.151C4.93294 58.151 8.93239 54.1517 8.93239 49.2188C8.93239 44.2855 4.93294 40.2861 0 40.2861V34.5595C0 31.1921 2.75463 28.4372 6.12214 28.4372Z" fill="#E0E0E0"/>
<path d="M65.0752 33.1504C68.9827 33.1504 72.1504 29.9827 72.1504 26.0752C72.1504 22.1677 68.9827 19 65.0752 19C61.1677 19 58 22.1677 58 26.0752C58 29.9827 61.1677 33.1504 65.0752 33.1504Z" fill="#BFBEBE"/>
<path d="M67.5361 29.4599C67.4149 29.4601 67.2948 29.4363 67.1829 29.3899C67.0709 29.3435 66.9692 29.2754 66.8836 29.1896L61.9617 24.2677C61.7897 24.0944 61.6934 23.86 61.6938 23.6159C61.6943 23.3717 61.7915 23.1377 61.9641 22.9651C62.1368 22.7925 62.3708 22.6953 62.6149 22.6948C62.8591 22.6944 63.0934 22.7907 63.2667 22.9627L68.1886 27.8846C68.3176 28.0137 68.4055 28.1781 68.4411 28.3571C68.4767 28.5361 68.4584 28.7216 68.3886 28.8902C68.3187 29.0588 68.2005 29.2029 68.0487 29.3044C67.897 29.4058 67.7186 29.4599 67.5361 29.4599Z" fill="white"/>
<path d="M62.6141 29.4599C62.4316 29.4599 62.2532 29.4058 62.1015 29.3044C61.9497 29.2029 61.8315 29.0588 61.7616 28.8902C61.6918 28.7216 61.6735 28.5361 61.7091 28.3571C61.7447 28.1781 61.8326 28.0137 61.9616 27.8846L66.8835 22.9627C67.0568 22.7907 67.2911 22.6944 67.5353 22.6948C67.7794 22.6953 68.0135 22.7925 68.1861 22.9651C68.3587 23.1377 68.4559 23.3717 68.4564 23.6159C68.4568 23.86 68.3605 24.0944 68.1885 24.2677L63.2666 29.1896C63.181 29.2754 63.0793 29.3435 62.9673 29.3899C62.8554 29.4363 62.7353 29.4601 62.6141 29.4599Z" fill="white"/>
</svg>
