<svg width="70" height="70" viewBox="0 0 70 70" fill="none" xmlns="http://www.w3.org/2000/svg">
<path d="M63.4375 15.3126C62.8101 14.4883 62.0742 13.7525 61.25 13.1251C59.3612 11.6967 57.0555 10.9282 54.6875 10.9376H15.3125C12.9444 10.9282 10.6388 11.6967 8.74996 13.1251C7.92569 13.7525 7.18988 14.4883 6.56246 15.3126C5.13408 17.2014 4.36553 19.507 4.37496 21.8751V45.9376C4.37496 48.8384 5.5273 51.6204 7.57848 53.6716C9.62966 55.7227 12.4117 56.8751 15.3125 56.8751H54.6875C57.5883 56.8751 60.3703 55.7227 62.4214 53.6716C64.4726 51.6204 65.625 48.8384 65.625 45.9376V21.8751C65.6344 19.507 64.8659 17.2014 63.4375 15.3126ZM13.2125 15.6626C13.8894 15.4349 14.5983 15.3168 15.3125 15.3126H54.6875C55.8311 15.3166 56.9541 15.617 57.9471 16.1844C58.94 16.7518 59.769 17.5669 60.3531 18.5501L38.5656 33.1407C37.4947 33.8265 36.2497 34.1909 34.9781 34.1907C33.7374 34.1878 32.5232 33.8312 31.4781 33.1626L9.64684 18.5501C10.4559 17.1957 11.7195 16.1725 13.2125 15.6626Z" fill="#E0E0E0"/>
</svg>
