<svg width="70" height="70" viewBox="0 0 70 70" fill="none" xmlns="http://www.w3.org/2000/svg">
<path d="M60.7731 7.84636C60.4735 7.64395 60.0948 7.60016 59.7578 7.73154L35 17.4194V47.0312C35.1346 47.0312 35.2697 47.0067 35.3984 46.9559L59.165 37.6564C60.4318 37.1602 61.25 35.9608 61.25 34.6005V8.74998C61.25 8.38842 61.0716 8.05037 60.7731 7.84636Z" fill="#E0E0E0"/>
<path d="M10.2422 7.73156C9.90624 7.59911 9.52598 7.64291 9.22692 7.84638C8.92838 8.05038 8.75 8.38845 8.75 8.75V34.6005C8.75 35.9608 9.56872 37.1603 10.836 37.6564L34.6016 46.956C34.7303 47.0067 34.8654 47.0313 35 47.0313V17.4194L10.2422 7.73156Z" fill="#E0E0E0"/>
<path d="M60.3886 7.68143L35.6959 2.31309C35.2414 2.21483 34.7597 2.21429 34.3031 2.31362L9.61146 7.68143C9.14043 7.78397 35 17.5001 35 17.5001C35 17.5001 60.8596 7.78397 60.3886 7.68143Z" fill="#F7F7F7"/>
<path d="M66.3252 16.9055L61.0941 8.18706C60.8196 7.7299 60.254 7.53657 59.7579 7.73151L35 17.4194L10.2422 7.73151C9.74602 7.53658 9.18045 7.72991 8.90595 8.18706L3.67485 16.9055C2.61975 18.5709 3.44013 20.976 5.29304 21.649L26.3173 29.8762C27.7825 30.4572 29.4981 29.8982 30.3265 28.509L35 20.7196L39.6735 28.509C40.5019 29.8982 42.2175 30.4572 43.6827 29.8762L64.707 21.649C66.5599 20.976 67.3802 18.5709 66.3252 16.9055Z" fill="#D3D3D3"/>
<path d="M50.0156 54.1263L45.9696 50.0653C44.5969 49.179 40.3975 53.2795 41.2966 54.6871L45.3746 58.7652C46.6092 59.9687 51.2172 55.3673 50.0156 54.1263Z" fill="#E0E0E0"/>
<path d="M35 57.9688C42.8528 57.9688 49.2188 51.6028 49.2188 43.75C49.2188 35.8972 42.8528 29.5312 35 29.5312C27.1472 29.5312 20.7812 35.8972 20.7812 43.75C20.7812 51.6028 27.1472 57.9688 35 57.9688Z" fill="#BFBEBE"/>
<path d="M51.5537 54.1293C51.1414 53.7165 50.5924 53.4895 50.0092 53.4895C49.4249 53.49 48.8748 53.7176 48.4625 54.1304L45.381 57.2119C44.5287 58.0637 44.5276 59.4512 45.3789 60.3046L47.8879 62.8174L54.068 56.6383L51.5537 54.1293Z" fill="#BFBEBE"/>
<path d="M57.4251 59.9917L52.5203 55.0928L46.3423 61.2697L51.2417 66.1761C52.8701 67.8747 55.7993 67.8761 57.4283 66.1782C59.1265 64.5497 59.1244 61.6188 57.4251 59.9917Z" fill="#BFBEBE"/>
<path d="M35 53.5938C40.4366 53.5938 44.8438 49.1866 44.8438 43.75C44.8438 38.3134 40.4366 33.9062 35 33.9062C29.5634 33.9062 25.1562 38.3134 25.1562 43.75C25.1562 49.1866 29.5634 53.5938 35 53.5938Z" fill="white"/>
<path d="M38.1773 48.2222C38.0101 48.2224 37.8445 48.1896 37.69 48.1256C37.5355 48.0616 37.3952 47.9677 37.2771 47.8492L30.4868 41.0589C30.2495 40.8198 30.1166 40.4965 30.1172 40.1597C30.1178 39.8228 30.2519 39.5 30.4901 39.2618C30.7282 39.0236 31.0511 38.8895 31.3879 38.8889C31.7248 38.8883 32.0481 39.0212 32.2871 39.2585L39.0775 46.0489C39.2555 46.2269 39.3768 46.4538 39.4259 46.7007C39.475 46.9477 39.4498 47.2036 39.3534 47.4363C39.2571 47.6689 39.0939 47.8677 38.8846 48.0076C38.6752 48.1475 38.4291 48.2222 38.1773 48.2222Z" fill="#BFBEBE"/>
<path d="M31.3841 48.2222C31.1323 48.2222 30.8862 48.1475 30.6768 48.0076C30.4675 47.8677 30.3043 47.6689 30.208 47.4363C30.1116 47.2036 30.0864 46.9477 30.1355 46.7007C30.1846 46.4538 30.3059 46.2269 30.4839 46.0489L37.2743 39.2585C37.5133 39.0212 37.8366 38.8883 38.1735 38.8889C38.5103 38.8895 38.8332 39.0236 39.0713 39.2618C39.3095 39.5 39.4436 39.8228 39.4442 40.1597C39.4448 40.4965 39.3119 40.8198 39.0746 41.0589L32.2843 47.8492C32.1662 47.9677 32.0259 48.0616 31.8714 48.1256C31.7169 48.1896 31.5513 48.2224 31.3841 48.2222Z" fill="#BFBEBE"/>
</svg>
