<svg width="20" height="21" viewBox="0 0 20 21" fill="none" xmlns="http://www.w3.org/2000/svg">
<g clip-path="url(#clip0_1003_4943)">
<path d="M14.1094 14.6591C14.0818 14.5831 14.0258 14.5208 13.9532 14.4852C13.8806 14.4497 13.797 14.4437 13.7201 14.4684C13.0254 14.6919 11.0601 13.6747 8.97005 11.5856C6.88005 9.49656 5.86412 7.53062 6.08724 6.83562C6.1113 6.75884 6.10481 6.67574 6.06913 6.60362C6.03346 6.5315 5.97133 6.47592 5.89571 6.44846C5.82008 6.42099 5.73677 6.42376 5.66313 6.45618C5.58948 6.48859 5.53118 6.54817 5.50037 6.6225L0.0228671 20.1266C0.00013541 20.1833 -0.00542928 20.2456 0.00686288 20.3055C0.019155 20.3654 0.0487635 20.4204 0.0920175 20.4637C0.135272 20.5069 0.190269 20.5365 0.250192 20.5488C0.310114 20.5611 0.372327 20.5555 0.429117 20.5328L13.9332 15.0566C14.0084 15.0262 14.0689 14.9677 14.1018 14.8935C14.1347 14.8193 14.1374 14.7352 14.1094 14.6591Z" fill="#2B68EF"/>
<path d="M11.4588 8.05665C11.4525 8.05665 11.446 8.05665 11.4394 8.05665C11.3984 8.05414 11.3583 8.04358 11.3214 8.02557C11.2845 8.00756 11.2516 7.98246 11.2244 7.9517C11.1972 7.92094 11.1763 7.88512 11.163 7.84629C11.1496 7.80746 11.1441 7.76638 11.1466 7.7254C11.1516 7.64633 11.2588 6.10446 12.1803 5.5654C12.2794 4.99946 12.6082 4.2504 13.391 3.28977C13.4163 3.25633 13.4481 3.22834 13.4845 3.20746C13.5209 3.18658 13.5611 3.17324 13.6028 3.16824C13.6444 3.16324 13.6867 3.16668 13.727 3.17835C13.7673 3.19002 13.8048 3.20969 13.8373 3.23618C13.8699 3.26267 13.8967 3.29544 13.9163 3.33254C13.9359 3.36963 13.9479 3.41029 13.9514 3.4521C13.955 3.4939 13.9501 3.53599 13.937 3.57586C13.9239 3.61573 13.903 3.65255 13.8753 3.68415C13.4387 4.18346 13.0975 4.75873 12.8688 5.38133H12.9203C13.8378 5.39915 14.0616 5.82633 14.1132 6.07946C14.1377 6.31188 14.0875 6.54607 13.9699 6.74802C13.8523 6.94998 13.6733 7.10921 13.4591 7.20258C13.2738 7.26952 13.0714 7.27227 12.8844 7.21038C12.6974 7.1485 12.5366 7.02557 12.4278 6.86133C12.3223 6.72143 12.2452 6.56217 12.201 6.39258C11.9518 6.81011 11.8043 7.28037 11.7703 7.7654C11.765 7.84438 11.7298 7.91837 11.672 7.97243C11.6141 8.02649 11.5379 8.05659 11.4588 8.05665ZM12.7713 6.01415C12.7733 6.1814 12.8265 6.34401 12.9238 6.48008C13.0369 6.62758 13.1666 6.64821 13.2028 6.63227C13.2871 6.59527 13.3596 6.53572 13.4122 6.46017C13.4648 6.38463 13.4955 6.29604 13.501 6.20415C13.4819 6.1104 13.291 6.01321 12.9072 6.00602C12.8618 6.00457 12.8163 6.00729 12.7713 6.01415Z" fill="#4294FF"/>
<path d="M13.9796 11.0446C13.9212 11.0447 13.8639 11.0283 13.8144 10.9974C13.7648 10.9666 13.7248 10.9224 13.699 10.87C13.6733 10.8176 13.6627 10.759 13.6686 10.7009C13.6744 10.6428 13.6964 10.5874 13.7321 10.5412C13.788 10.469 14.3259 9.83183 15.984 9.75464C16.1145 9.75032 16.2437 9.72748 16.3677 9.68683C16.3459 9.67089 16.3259 9.65558 16.308 9.64027C16.1486 9.52276 16.026 9.36209 15.9549 9.1772C15.8837 8.99232 15.8669 8.79094 15.9065 8.59683C15.9439 8.45862 16.0215 8.33464 16.1295 8.24061C16.2375 8.14659 16.371 8.08676 16.513 8.0687C16.6669 8.03913 16.826 8.05349 16.9721 8.11014C17.1181 8.16679 17.2453 8.26344 17.339 8.38902C17.4403 8.53542 17.5052 8.70394 17.5281 8.88051C17.5511 9.05708 17.5314 9.23658 17.4709 9.40402C18.1602 9.39375 18.8361 9.21112 19.4368 8.87277C19.4737 8.85353 19.5141 8.84186 19.5555 8.83844C19.597 8.83502 19.6388 8.83992 19.6783 8.85285C19.7179 8.86578 19.7544 8.88648 19.7859 8.91374C19.8173 8.94099 19.843 8.97426 19.8614 9.01157C19.8799 9.04889 19.8906 9.08951 19.8932 9.13105C19.8957 9.17259 19.8899 9.21421 19.8761 9.25347C19.8623 9.29274 19.8408 9.32885 19.8128 9.35969C19.7849 9.39053 19.7511 9.41548 19.7134 9.43308C18.4946 10.0359 17.6449 10.0962 17.0834 9.98714C16.7815 10.236 16.4039 10.3748 16.0127 10.3806C14.6559 10.4431 14.2315 10.9193 14.2268 10.9243C14.1975 10.9619 14.16 10.9923 14.1171 11.0131C14.0743 11.034 14.0273 11.0448 13.9796 11.0446ZM16.6677 8.6812C16.6485 8.68135 16.6293 8.68291 16.6102 8.68589C16.5368 8.69745 16.5187 8.72902 16.5099 8.76152C16.5039 8.83905 16.5189 8.91678 16.5533 8.98651C16.5877 9.05625 16.6403 9.11541 16.7055 9.15777C16.753 9.1965 16.8046 9.22993 16.8593 9.25745C16.8972 9.17995 16.9152 9.09424 16.9117 9.00805C16.9082 8.92186 16.8833 8.83789 16.8393 8.7637C16.82 8.73661 16.7941 8.71484 16.7641 8.70042C16.7341 8.686 16.701 8.67939 16.6677 8.6812Z" fill="#4294FF"/>
<path d="M19.8486 2.9166L18.6877 2.22035L18.6052 0.869102C18.6014 0.810988 18.5814 0.755099 18.5475 0.707743C18.5136 0.660386 18.4671 0.623446 18.4133 0.601089C18.3595 0.578733 18.3006 0.57185 18.2431 0.581217C18.1856 0.590584 18.1319 0.615829 18.088 0.654102L17.0677 1.5416L15.758 1.20441C15.7015 1.18983 15.6421 1.19136 15.5864 1.20882C15.5307 1.22627 15.4811 1.25897 15.443 1.3032C15.405 1.34742 15.38 1.40142 15.3711 1.45907C15.3622 1.51673 15.3695 1.57573 15.3924 1.62941L15.9211 2.8741L15.1958 4.01535C15.1645 4.06455 15.1476 4.12153 15.147 4.17984C15.1464 4.23816 15.1621 4.29548 15.1924 4.34532C15.2226 4.39516 15.2663 4.43554 15.3183 4.46189C15.3703 4.48824 15.4287 4.49951 15.4868 4.49441L16.8343 4.37598L17.6955 5.41879C17.7327 5.46371 17.7816 5.49733 17.8369 5.51587C17.8922 5.53441 17.9515 5.53712 18.0083 5.52369C18.065 5.51027 18.1168 5.48124 18.1579 5.4399C18.199 5.39855 18.2277 5.34654 18.2408 5.28973L18.5446 3.97191L19.8024 3.47504C19.8566 3.45362 19.9037 3.41747 19.9385 3.37067C19.9732 3.32387 19.9942 3.26828 19.999 3.21019C20.0038 3.1521 19.9923 3.09382 19.9657 3.04194C19.9391 2.99006 19.8986 2.94665 19.8486 2.9166Z" fill="#4294FF"/>
<path d="M10.0005 5.86914C10.5183 5.86914 10.938 5.44941 10.938 4.93164C10.938 4.41387 10.5183 3.99414 10.0005 3.99414C9.48272 3.99414 9.06299 4.41387 9.06299 4.93164C9.06299 5.44941 9.48272 5.86914 10.0005 5.86914Z" fill="#4294FF"/>
<path d="M16.8376 11.8444L17.592 12.5991C17.6506 12.6577 17.73 12.6906 17.8129 12.6906C17.8958 12.6906 17.9752 12.6577 18.0338 12.5991L18.7882 11.8444C18.8468 11.7858 18.8797 11.7063 18.8797 11.6234C18.8797 11.5406 18.8468 11.4611 18.7882 11.4025L18.0338 10.6481C17.9752 10.5896 17.8958 10.5566 17.8129 10.5566C17.73 10.5566 17.6506 10.5896 17.592 10.6481L16.8376 11.4025C16.779 11.4611 16.7461 11.5406 16.7461 11.6234C16.7461 11.7063 16.779 11.7858 16.8376 11.8444Z" fill="#4294FF"/>
<path d="M6.67244 1.8264C6.63398 1.81204 6.59308 1.80539 6.55206 1.80683C6.51103 1.80828 6.4707 1.81779 6.43335 1.83482C6.39601 1.85186 6.36238 1.87608 6.33439 1.90611C6.30641 1.93614 6.28461 1.97139 6.27025 2.00984C6.25589 2.04829 6.24924 2.0892 6.25068 2.13022C6.25213 2.17124 6.26164 2.21158 6.27867 2.24892C6.29571 2.28627 6.31993 2.3199 6.34996 2.34788C6.37999 2.37587 6.41523 2.39766 6.45369 2.41203C6.70772 2.4837 6.9421 2.61225 7.13907 2.78795C7.33604 2.96364 7.49044 3.18187 7.59056 3.42609C7.89337 4.31453 7.24212 5.38109 7.23556 5.39171C7.19172 5.46216 7.17766 5.54714 7.19647 5.62796C7.21528 5.70877 7.26543 5.77881 7.33587 5.82265C7.40632 5.8665 7.4913 5.88056 7.57212 5.86175C7.65293 5.84293 7.72297 5.79279 7.76681 5.72234C7.80025 5.6689 8.58119 4.3989 8.18431 3.22796C8.05682 2.89396 7.85413 2.59379 7.59194 2.35074C7.32976 2.10769 7.01513 1.92827 6.67244 1.8264Z" fill="#4294FF"/>
<path d="M15.1732 13.0878C15.1364 13.1061 15.1036 13.1314 15.0766 13.1623C15.0496 13.1932 15.029 13.2292 15.0159 13.2681C15.0028 13.307 14.9974 13.3481 15.0002 13.389C15.003 13.43 15.0138 13.47 15.0321 13.5067C15.0503 13.5435 15.0756 13.5763 15.1065 13.6033C15.1375 13.6303 15.1734 13.6509 15.2123 13.664C15.2512 13.6771 15.2923 13.6825 15.3333 13.6797C15.3742 13.6769 15.4142 13.6661 15.451 13.6478C15.5188 13.6166 17.116 12.8666 18.496 14.7991C18.5441 14.8665 18.6171 14.9121 18.6989 14.9258C18.7806 14.9394 18.8645 14.92 18.9319 14.8719C18.9994 14.8237 19.045 14.7508 19.0586 14.669C19.0723 14.5872 19.0529 14.5034 19.0047 14.436C17.3066 12.0603 15.1944 13.0791 15.1732 13.0878Z" fill="#4294FF"/>
<path d="M10.6255 1.80664C10.7084 1.80664 10.7879 1.77372 10.8465 1.71511C10.9051 1.65651 10.938 1.57702 10.938 1.49414V1.18164C10.938 1.09876 10.9051 1.01927 10.8465 0.96067C10.7879 0.902065 10.7084 0.869141 10.6255 0.869141C10.5426 0.869141 10.4631 0.902065 10.4045 0.96067C10.3459 1.01927 10.313 1.09876 10.313 1.18164V1.49414C10.313 1.57702 10.3459 1.65651 10.4045 1.71511C10.4631 1.77372 10.5426 1.80664 10.6255 1.80664Z" fill="#4294FF"/>
<path d="M10.6255 2.43164C10.5426 2.43164 10.4631 2.46456 10.4045 2.52317C10.3459 2.58177 10.313 2.66126 10.313 2.74414V3.05664C10.313 3.13952 10.3459 3.21901 10.4045 3.27761C10.4631 3.33622 10.5426 3.36914 10.6255 3.36914C10.7084 3.36914 10.7879 3.33622 10.8465 3.27761C10.9051 3.21901 10.938 3.13952 10.938 3.05664V2.74414C10.938 2.66126 10.9051 2.58177 10.8465 2.52317C10.7879 2.46456 10.7084 2.43164 10.6255 2.43164Z" fill="#4294FF"/>
<path d="M11.563 1.80664H11.2505C11.1676 1.80664 11.0881 1.83956 11.0295 1.89817C10.9709 1.95677 10.938 2.03626 10.938 2.11914C10.938 2.20202 10.9709 2.28151 11.0295 2.34011C11.0881 2.39872 11.1676 2.43164 11.2505 2.43164H11.563C11.6459 2.43164 11.7254 2.39872 11.784 2.34011C11.8426 2.28151 11.8755 2.20202 11.8755 2.11914C11.8755 2.03626 11.8426 1.95677 11.784 1.89817C11.7254 1.83956 11.6459 1.80664 11.563 1.80664Z" fill="#4294FF"/>
<path d="M9.68799 2.43164H10.0005C10.0834 2.43164 10.1629 2.39872 10.2215 2.34011C10.2801 2.28151 10.313 2.20202 10.313 2.11914C10.313 2.03626 10.2801 1.95677 10.2215 1.89817C10.1629 1.83956 10.0834 1.80664 10.0005 1.80664H9.68799C9.60511 1.80664 9.52562 1.83956 9.46702 1.89817C9.40841 1.95677 9.37549 2.03626 9.37549 2.11914C9.37549 2.20202 9.40841 2.28151 9.46702 2.34011C9.52562 2.39872 9.60511 2.43164 9.68799 2.43164Z" fill="#4294FF"/>
<path d="M16.3798 6.36443C16.4627 6.36441 16.5422 6.33147 16.6008 6.27286L16.8217 6.05193C16.8515 6.0231 16.8753 5.98862 16.8917 5.95049C16.9081 5.91236 16.9167 5.87136 16.9171 5.82986C16.9174 5.78837 16.9095 5.74722 16.8938 5.70882C16.8781 5.67041 16.8549 5.63552 16.8256 5.60618C16.7962 5.57684 16.7613 5.55363 16.7229 5.53792C16.6845 5.52221 16.6434 5.5143 16.6019 5.51466C16.5604 5.51502 16.5194 5.52364 16.4813 5.54002C16.4431 5.5564 16.4086 5.5802 16.3798 5.61005L16.1589 5.83099C16.1152 5.87469 16.0854 5.93037 16.0734 5.99098C16.0613 6.05159 16.0675 6.11441 16.0912 6.17151C16.1148 6.2286 16.1549 6.2774 16.2062 6.31174C16.2576 6.34608 16.318 6.36441 16.3798 6.36443Z" fill="#4294FF"/>
<path d="M15.2748 7.46905C15.3577 7.46903 15.4372 7.4361 15.4958 7.37749L15.7167 7.15655C15.7736 7.09761 15.8051 7.01867 15.8044 6.93674C15.8037 6.8548 15.7708 6.77642 15.7129 6.71848C15.655 6.66054 15.5766 6.62768 15.4946 6.62696C15.4127 6.62625 15.3338 6.65775 15.2748 6.71468L15.0539 6.93561C15.0102 6.97932 14.9805 7.03499 14.9684 7.0956C14.9564 7.15621 14.9625 7.21904 14.9862 7.27613C15.0098 7.33322 15.0499 7.38202 15.1013 7.41636C15.1526 7.4507 15.213 7.46904 15.2748 7.46905Z" fill="#4294FF"/>
<path d="M16.1585 7.15655L16.3795 7.37749C16.4083 7.40733 16.4428 7.43114 16.4809 7.44752C16.519 7.4639 16.56 7.47252 16.6015 7.47288C16.643 7.47324 16.6842 7.46533 16.7226 7.44962C16.761 7.43391 16.7959 7.4107 16.8252 7.38136C16.8546 7.35202 16.8778 7.31713 16.8935 7.27872C16.9092 7.24032 16.9171 7.19917 16.9167 7.15768C16.9164 7.11618 16.9077 7.07518 16.8914 7.03705C16.875 6.99892 16.8512 6.96444 16.8213 6.93561L16.6004 6.71468C16.5415 6.65775 16.4625 6.62625 16.3806 6.62696C16.2986 6.62768 16.2203 6.66054 16.1623 6.71848C16.1044 6.77642 16.0715 6.8548 16.0708 6.93674C16.0701 7.01867 16.1016 7.09761 16.1585 7.15655Z" fill="#4294FF"/>
<path d="M15.2748 6.27286C15.3338 6.32979 15.4127 6.36129 15.4946 6.36057C15.5766 6.35986 15.655 6.327 15.7129 6.26906C15.7708 6.21112 15.8037 6.13274 15.8044 6.0508C15.8051 5.96886 15.7736 5.88993 15.7167 5.83099L15.4958 5.61005C15.4669 5.5802 15.4325 5.5564 15.3943 5.54002C15.3562 5.52364 15.3152 5.51502 15.2737 5.51466C15.2322 5.5143 15.1911 5.52221 15.1527 5.53792C15.1143 5.55363 15.0794 5.57684 15.05 5.60618C15.0207 5.63552 14.9975 5.67041 14.9818 5.70882C14.9661 5.74722 14.9581 5.78837 14.9585 5.82986C14.9589 5.87136 14.9675 5.91236 14.9839 5.95049C15.0002 5.98862 15.0241 6.0231 15.0539 6.05193L15.2748 6.27286Z" fill="#4294FF"/>
<path d="M3.98561 10.3594L3.66748 11.1434C4.35672 12.3284 5.20385 13.4142 6.18561 14.3709C7.14216 15.3527 8.22772 16.2 9.41248 16.8894L10.1972 16.5709C8.86212 15.9055 7.65396 15.0114 6.62748 13.9291C5.54521 12.9025 4.65108 11.6944 3.98561 10.3594Z" fill="#2946ED"/>
<path d="M2.46057 14.1191L2.18213 14.8066C2.6892 15.4819 3.24384 16.1201 3.84182 16.7163C4.43769 17.314 5.07545 17.8685 5.75025 18.3754L6.43775 18.0963C5.66739 17.5533 4.94656 16.9432 4.28369 16.2732C3.61366 15.6103 3.00358 14.8895 2.46057 14.1191Z" fill="#2946ED"/>
<path d="M11.4708 9.08564C9.34232 6.95689 6.68232 5.30689 5.71638 6.27314C4.75045 7.23939 6.40013 9.89814 8.52888 12.0275C10.2292 13.7281 12.2689 15.1228 13.5129 15.1228C13.6538 15.1301 13.7946 15.1088 13.927 15.0602C14.0594 15.0116 14.1806 14.9367 14.2833 14.84C15.2498 13.8744 13.5995 11.2128 11.4708 9.08564Z" fill="#4294FF"/>
</g>
<defs>
<clipPath id="clip0_1003_4943">
<rect width="20" height="20" fill="white" transform="translate(0 0.556641)"/>
</clipPath>
</defs>
</svg>
