<svg width="21" height="21" viewBox="0 0 21 21" fill="none" xmlns="http://www.w3.org/2000/svg">
<g id="products 1" clip-path="url(#clip0_776_19809)">
<g id="Group">
<g id="Group_2">
<g id="Group_3">
<path id="Vector" d="M14.0067 10.1951V17.2145C14.0067 17.4993 13.8106 17.7468 13.5335 17.8121L7.48088 19.24C7.38814 19.2618 7.29182 19.2618 7.19908 19.24L1.14654 17.8121C0.869355 17.7468 0.67334 17.4993 0.67334 17.2145V10.1951C0.67334 10.0239 0.744277 9.86645 0.860762 9.75359H13.8186V9.75293C13.9357 9.86578 14.0067 10.0235 14.0067 10.1951Z" fill="url(#paint0_linear_776_19809)"/>
<path id="Vector_2" d="M7.34003 11.7669V11.1152H8.02714L7.34003 11.7669Z" fill="url(#paint1_linear_776_19809)"/>
<path id="Vector_3" d="M13.8186 9.75359H10.0717V18.6288L13.5335 17.8121C13.8106 17.7468 14.0067 17.4993 14.0067 17.2145V10.1951C14.0067 10.0235 13.9357 9.86578 13.8186 9.75293V9.75359Z" fill="url(#paint2_linear_776_19809)"/>
<path id="Vector_4" d="M7.34002 9.75391V19.2564C7.29283 19.2564 7.24564 19.2512 7.19912 19.2403L1.14654 17.8125C0.869355 17.7471 0.67334 17.4996 0.67334 17.2148V10.1954C0.67334 10.0242 0.744277 9.86676 0.860762 9.75391H7.34002Z" fill="url(#paint3_linear_776_19809)"/>
<path id="Vector_5" d="M7.34002 9.75391V19.2564C7.29283 19.2564 7.24564 19.2512 7.19912 19.2403L1.14654 17.8125C0.869355 17.7471 0.67334 17.4996 0.67334 17.2148V10.1954C0.67334 10.0242 0.744277 9.86676 0.860762 9.75391H7.34002Z" fill="url(#paint4_linear_776_19809)"/>
<path id="Vector_6" d="M7.34002 14.9287V19.2564C7.29283 19.2564 7.24564 19.2512 7.19912 19.2403L1.14654 17.8125C0.869355 17.7471 0.67334 17.4996 0.67334 17.2148V13.4375L6.65959 14.8495C6.8833 14.9023 7.11166 14.9287 7.34002 14.9287Z" fill="url(#paint5_linear_776_19809)"/>
<path id="Vector_7" d="M7.34003 14.9287V19.2565C7.38721 19.2565 7.4344 19.2512 7.48093 19.2403L13.5335 17.8125C13.8107 17.7471 14.0067 17.4996 14.0067 17.2148V13.4375L8.02046 14.8496C7.79671 14.9023 7.56835 14.9287 7.34003 14.9287Z" fill="url(#paint6_linear_776_19809)"/>
<path id="Vector_8" d="M13.8186 9.75361L7.69477 11.1983C7.46149 11.2534 7.2186 11.2534 6.98532 11.1983L0.86145 9.75361C0.938989 9.67904 1.03602 9.62361 1.14622 9.59752L7.19911 8.16967C7.29184 8.14787 7.38821 8.14787 7.4809 8.16967L9.74098 8.70291V8.97514H10.8956L13.5338 9.59748C13.644 9.62361 13.7411 9.67904 13.8186 9.75361Z" fill="url(#paint7_linear_776_19809)"/>
<path id="Vector_9" d="M9.74098 8.70295V8.97518L3.65114 10.4119L0.86145 9.75361C0.938989 9.67904 1.03602 9.62361 1.14622 9.59752L7.19911 8.16967C7.29184 8.14787 7.38821 8.14787 7.4809 8.16967L9.74098 8.70295Z" fill="url(#paint8_linear_776_19809)"/>
</g>
<g id="Group_4">
<path id="Vector_10" d="M9.74093 8.70215L3.20179 10.245C3.12699 10.2626 3.0741 10.3294 3.0741 10.4062L3.07367 12.4573C3.07367 12.502 3.10441 12.5408 3.14789 12.5511L4.11015 12.7779C4.17062 12.7921 4.22859 12.7462 4.22859 12.6841V10.6671C4.22859 10.597 4.27683 10.5361 4.34508 10.52L10.8955 8.97465L9.74093 8.70215Z" fill="url(#paint9_linear_776_19809)"/>
<path id="Vector_11" d="M6.18508 10.086L4.34508 10.52C4.31801 10.5262 4.29426 10.5401 4.27512 10.5582L3.12512 10.287C3.1459 10.2669 3.172 10.252 3.20168 10.2448L5.02981 9.81348L6.18508 10.086Z" fill="url(#paint10_linear_776_19809)"/>
<path id="Vector_12" d="M3.12513 10.2871L4.27478 10.5584C4.24607 10.5861 4.22857 10.625 4.22857 10.6673V12.6841C4.22857 12.7465 4.17048 12.7924 4.11009 12.7779L3.14787 12.5512C3.10431 12.5409 3.07361 12.502 3.07361 12.4575L3.07392 10.4063C3.07396 10.3597 3.09345 10.3171 3.12513 10.2871Z" fill="url(#paint11_linear_776_19809)"/>
<path id="Vector_13" d="M3.07383 11.4698L3.07367 12.4573C3.07367 12.5019 3.10437 12.5408 3.14793 12.5511L4.11015 12.7777C4.17054 12.7923 4.22863 12.7464 4.22863 12.684V11.4697H3.07383V11.4698Z" fill="url(#paint12_linear_776_19809)"/>
</g>
<g id="Group_5">
<path id="Vector_14" d="M1.40341 16.9324L4.05653 17.5583C4.14442 17.5791 4.22864 17.5124 4.22864 17.4221V15.9651C4.22864 15.9001 4.18399 15.8437 4.12083 15.8288L1.4677 15.203C1.37981 15.1823 1.29559 15.249 1.29559 15.3392V16.7962C1.29559 16.8611 1.3402 16.9175 1.40341 16.9324Z" fill="url(#paint13_linear_776_19809)"/>
<path id="Vector_15" d="M1.29559 15.752V16.7959C1.29559 16.8608 1.34024 16.9172 1.40341 16.9321L4.05653 17.558C4.14442 17.5787 4.22864 17.512 4.22864 17.4218V16.4439L1.29559 15.752Z" fill="url(#paint14_linear_776_19809)"/>
<path id="Vector_16" d="M4.1208 15.8286L2.7735 15.5107V17.2554L4.05655 17.5581C4.14444 17.5788 4.22865 17.5121 4.22865 17.4219V15.9648C4.22862 15.8998 4.18397 15.8434 4.1208 15.8286Z" fill="url(#paint15_linear_776_19809)"/>
</g>
<g id="Group_6">
<path id="Vector_17" d="M8.39368 17.2039V17.2069C8.39368 17.2899 8.47114 17.3512 8.552 17.3322L10.456 16.8831C10.5141 16.8694 10.5552 16.8175 10.5552 16.7578V16.7548C10.5552 16.6717 10.4777 16.6104 10.3969 16.6295L8.4929 17.0786C8.43477 17.0923 8.39368 17.1442 8.39368 17.2039Z" fill="url(#paint16_linear_776_19809)"/>
<path id="Vector_18" d="M8.552 17.8354L9.50106 17.6116C9.55918 17.5979 9.60028 17.546 9.60028 17.4863V17.4833C9.60028 17.4003 9.52282 17.3389 9.44196 17.358L8.4929 17.5819C8.43477 17.5956 8.39368 17.6474 8.39368 17.7072V17.7102C8.39368 17.7932 8.47114 17.8545 8.552 17.8354Z" fill="url(#paint17_linear_776_19809)"/>
</g>
</g>
<g id="Group_7">
<g id="Group_8">
<path id="Vector_19" d="M20.6733 11.7674V18.7868C20.6733 19.0716 20.4773 19.3191 20.2001 19.3844L14.1475 20.8122C14.0548 20.834 13.9585 20.834 13.8657 20.8122L7.81317 19.3844C7.53598 19.319 7.33997 19.0716 7.33997 18.7868V11.7674C7.33997 11.5961 7.4109 11.4387 7.52739 11.3259H20.4852V11.3252C20.6024 11.438 20.6733 11.5958 20.6733 11.7674Z" fill="url(#paint18_linear_776_19809)"/>
<path id="Vector_20" d="M20.4853 11.3259H16.7383V20.2011L20.2001 19.3844C20.4773 19.319 20.6733 19.0716 20.6733 18.7868V11.7674C20.6733 11.5958 20.6024 11.438 20.4853 11.3252V11.3259Z" fill="url(#paint19_linear_776_19809)"/>
<path id="Vector_21" d="M14.0066 11.3262V20.8287C13.9595 20.8287 13.9123 20.8234 13.8657 20.8125L7.81317 19.3847C7.53598 19.3193 7.33997 19.0719 7.33997 18.7871V11.7677C7.33997 11.5964 7.4109 11.439 7.52739 11.3262H14.0066Z" fill="url(#paint20_linear_776_19809)"/>
<path id="Vector_22" d="M14.0066 11.3262V20.8287C13.9595 20.8287 13.9123 20.8234 13.8657 20.8125L7.81317 19.3847C7.53598 19.3193 7.33997 19.0719 7.33997 18.7871V11.7677C7.33997 11.5964 7.4109 11.439 7.52739 11.3262H14.0066Z" fill="url(#paint21_linear_776_19809)"/>
<path id="Vector_23" d="M14.0066 16.501V20.8288C13.9595 20.8288 13.9123 20.8235 13.8657 20.8126L7.81317 19.3847C7.53598 19.3194 7.33997 19.0719 7.33997 18.7871V15.0098L13.3262 16.4218C13.55 16.4746 13.7783 16.501 14.0066 16.501Z" fill="url(#paint22_linear_776_19809)"/>
<path id="Vector_24" d="M14.0067 16.501V20.8288C14.0538 20.8288 14.101 20.8235 14.1476 20.8126L20.2001 19.3847C20.4773 19.3194 20.6733 19.0719 20.6733 18.7871V15.0098L14.6871 16.4218C14.4634 16.4746 14.235 16.501 14.0067 16.501Z" fill="url(#paint23_linear_776_19809)"/>
<path id="Vector_25" d="M20.4852 11.3259L14.3614 12.7706C14.1281 12.8257 13.8852 12.8257 13.652 12.7706L7.52814 11.3259C7.60568 11.2513 7.70271 11.1959 7.8129 11.1698L13.8658 9.74193C13.9585 9.72014 14.0549 9.72014 14.1476 9.74193L16.4077 10.2752V10.5474H17.5623L20.2005 11.1697C20.3107 11.1958 20.4077 11.2513 20.4852 11.3259Z" fill="url(#paint24_linear_776_19809)"/>
<path id="Vector_26" d="M20.4852 11.3259L14.3614 12.7706C14.1281 12.8257 13.8852 12.8257 13.652 12.7706L7.52814 11.3259C7.60568 11.2513 7.70271 11.1959 7.8129 11.1698L13.8658 9.74193C13.9585 9.72014 14.0549 9.72014 14.1476 9.74193L16.4077 10.2752V10.5474H17.5623L20.2005 11.1697C20.3107 11.1958 20.4077 11.2513 20.4852 11.3259Z" fill="url(#paint25_linear_776_19809)"/>
<path id="Vector_27" d="M16.4076 10.2752V10.5474L10.3178 11.9842L7.52808 11.3259C7.60562 11.2513 7.70265 11.1959 7.81284 11.1698L13.8657 9.74193C13.9585 9.72014 14.0548 9.72014 14.1475 9.74193L16.4076 10.2752Z" fill="url(#paint26_linear_776_19809)"/>
</g>
<g id="Group_9">
<path id="Vector_28" d="M16.4076 10.2744L9.86842 11.8172C9.79362 11.8349 9.74073 11.9016 9.74073 11.9785L9.7403 14.0296C9.7403 14.0743 9.77104 14.1131 9.81451 14.1234L10.7768 14.3502C10.8372 14.3644 10.8952 14.3185 10.8952 14.2564V12.2394C10.8952 12.1693 10.9435 12.1083 11.0117 12.0922L17.5621 10.5469L16.4076 10.2744Z" fill="url(#paint27_linear_776_19809)"/>
<path id="Vector_29" d="M16.4077 10.2744L9.86864 11.817C9.83895 11.824 9.81239 11.8389 9.79169 11.8592L10.9413 12.1307C10.9604 12.1119 10.9843 12.0986 11.0116 12.092L17.562 10.5467L16.4077 10.2744Z" fill="url(#paint28_linear_776_19809)"/>
<path id="Vector_30" d="M12.8517 11.6583L11.0117 12.0922C10.9846 12.0985 10.9609 12.1123 10.9417 12.1305L9.79175 11.8593C9.81253 11.8391 9.83862 11.8243 9.86831 11.817L11.6964 11.3857L12.8517 11.6583Z" fill="url(#paint29_linear_776_19809)"/>
<path id="Vector_31" d="M9.79176 11.8594L10.9414 12.1306C10.9127 12.1584 10.8952 12.1973 10.8952 12.2395V14.2564C10.8952 14.3188 10.8371 14.3646 10.7767 14.3501L9.81449 14.1234C9.77094 14.1132 9.74023 14.0743 9.74023 14.0297L9.74055 11.9786C9.74062 11.932 9.76008 11.8894 9.79176 11.8594Z" fill="url(#paint30_linear_776_19809)"/>
<path id="Vector_32" d="M9.74045 13.042L9.7403 14.0296C9.7403 14.0742 9.771 14.1131 9.81455 14.1233L10.7768 14.35C10.8372 14.3645 10.8953 14.3187 10.8953 14.2563V13.042H9.74045V13.042Z" fill="url(#paint31_linear_776_19809)"/>
</g>
<g id="Group_10">
<path id="Vector_33" d="M8.07009 18.5047L10.7232 19.1306C10.8111 19.1513 10.8953 19.0847 10.8953 18.9944V17.5373C10.8953 17.4724 10.8507 17.416 10.7875 17.4011L8.13439 16.7753C8.0465 16.7545 7.96228 16.8212 7.96228 16.9115V18.3685C7.96224 18.4334 8.00689 18.4898 8.07009 18.5047Z" fill="url(#paint32_linear_776_19809)"/>
<path id="Vector_34" d="M7.96222 17.3242V18.3681C7.96222 18.433 8.00687 18.4895 8.07003 18.5043L10.7232 19.1302C10.811 19.151 10.8953 19.0843 10.8953 18.994V18.0161L7.96222 17.3242Z" fill="url(#paint33_linear_776_19809)"/>
<path id="Vector_35" d="M10.7874 17.4008L9.44012 17.083V18.8277L10.7232 19.1304C10.8111 19.1511 10.8953 19.0844 10.8953 18.9941V17.537C10.8952 17.4721 10.8506 17.4157 10.7874 17.4008Z" fill="url(#paint34_linear_776_19809)"/>
</g>
<g id="Group_11">
<path id="Vector_36" d="M15.0604 18.7762V18.7791C15.0604 18.8622 15.1378 18.9235 15.2187 18.9044L17.1227 18.4553C17.1808 18.4416 17.2219 18.3897 17.2219 18.33V18.327C17.2219 18.244 17.1444 18.1827 17.0636 18.2017L15.1596 18.6508C15.1014 18.6645 15.0604 18.7164 15.0604 18.7762Z" fill="url(#paint35_linear_776_19809)"/>
<path id="Vector_37" d="M15.2186 19.4077L16.1677 19.1839C16.2258 19.1702 16.2669 19.1183 16.2669 19.0586V19.0556C16.2669 18.9725 16.1894 18.9112 16.1086 18.9303L15.1595 19.1541C15.1014 19.1678 15.0603 19.2197 15.0603 19.2794V19.2824C15.0603 19.3654 15.1378 19.4268 15.2186 19.4077Z" fill="url(#paint36_linear_776_19809)"/>
</g>
</g>
<g id="Group_12">
<g id="Group_13">
<path id="Vector_38" d="M17.1446 2.94512V9.96453C17.1446 10.2493 16.9486 10.4968 16.6714 10.5621L10.6188 11.99C10.5261 12.0118 10.4297 12.0118 10.337 11.99L4.28442 10.5621C4.00723 10.4968 3.81122 10.2493 3.81122 9.96453V2.94512C3.81122 2.77387 3.88216 2.61645 3.99864 2.50359H16.9565V2.50293C17.0736 2.61582 17.1446 2.77355 17.1446 2.94512Z" fill="url(#paint37_linear_776_19809)"/>
<path id="Vector_39" d="M16.9565 2.50363H13.2096V11.3788L16.6714 10.5621C16.9486 10.4968 17.1446 10.2493 17.1446 9.96453V2.94512C17.1446 2.77352 17.0737 2.61578 16.9565 2.50293V2.50363Z" fill="url(#paint38_linear_776_19809)"/>
<path id="Vector_40" d="M10.4779 2.50395V12.0065C10.4307 12.0065 10.3835 12.0012 10.337 11.9903L4.28442 10.5625C4.00723 10.4971 3.81122 10.2496 3.81122 9.96484V2.94543C3.81122 2.77418 3.88216 2.61676 3.99864 2.50391L10.4779 2.50395Z" fill="url(#paint39_linear_776_19809)"/>
<path id="Vector_41" d="M10.4779 7.67875V12.0065C10.4307 12.0065 10.3835 12.0012 10.337 11.9903L4.28442 10.5625C4.00723 10.4971 3.81122 10.2496 3.81122 9.96484V6.1875L9.79747 7.59949C10.0212 7.65234 10.2496 7.67875 10.4779 7.67875Z" fill="url(#paint40_linear_776_19809)"/>
<path id="Vector_42" d="M10.4779 7.67875V12.0065C10.5251 12.0065 10.5723 12.0012 10.6188 11.9903L16.6714 10.5625C16.9486 10.4971 17.1446 10.2496 17.1446 9.96484V6.1875L11.1583 7.59953C10.9346 7.65234 10.7063 7.67875 10.4779 7.67875Z" fill="url(#paint41_linear_776_19809)"/>
<path id="Vector_43" d="M16.9565 2.50361L10.8326 3.9483C10.5994 4.00342 10.3565 4.00342 10.1232 3.9483L3.99933 2.50361C4.07687 2.42904 4.1739 2.37361 4.28409 2.34752L10.337 0.919668C10.4297 0.897871 10.526 0.897871 10.6188 0.919668L12.8789 1.45291V1.72514H14.0335L16.6717 2.34748C16.7819 2.37357 16.8789 2.429 16.9565 2.50361Z" fill="url(#paint42_linear_776_19809)"/>
<path id="Vector_44" d="M12.8789 1.45291V1.72514L6.78902 3.16189L3.99933 2.50361C4.07687 2.42904 4.1739 2.37361 4.28409 2.34752L10.337 0.919668C10.4297 0.897871 10.526 0.897871 10.6188 0.919668L12.8789 1.45291Z" fill="url(#paint43_linear_776_19809)"/>
</g>
<g id="Group_14">
<path id="Vector_45" d="M12.8789 1.45215L6.33967 2.99496C6.26487 3.01262 6.21198 3.07938 6.21198 3.15625L6.21155 5.2073C6.21155 5.25199 6.24229 5.29082 6.28577 5.30109L7.24803 5.52789C7.3085 5.54215 7.36647 5.49625 7.36647 5.43414V3.41711C7.36647 3.34699 7.41471 3.28605 7.48295 3.26996L14.0334 1.72465L12.8789 1.45215Z" fill="url(#paint44_linear_776_19809)"/>
<path id="Vector_46" d="M9.32296 2.83602L7.48296 3.26996C7.45589 3.27621 7.43214 3.29008 7.413 3.30824L6.263 3.03699C6.28378 3.01687 6.30988 3.00203 6.33956 2.99477L8.16769 2.56348L9.32296 2.83602Z" fill="url(#paint45_linear_776_19809)"/>
<path id="Vector_47" d="M6.26301 3.03711L7.41266 3.30836C7.38395 3.33609 7.36645 3.375 7.36645 3.41727V5.43414C7.36645 5.49652 7.30836 5.54238 7.24797 5.52785L6.28574 5.30117C6.24219 5.29094 6.21149 5.25199 6.21149 5.20746L6.2118 3.15629C6.21188 3.10969 6.23133 3.06711 6.26301 3.03711Z" fill="url(#paint46_linear_776_19809)"/>
<path id="Vector_48" d="M6.2117 4.21973L6.21155 5.2073C6.21155 5.25187 6.24225 5.29078 6.28581 5.30102L7.24803 5.5277C7.30842 5.54223 7.36651 5.49637 7.36651 5.43398V4.21973H6.2117Z" fill="url(#paint47_linear_776_19809)"/>
</g>
<g id="Group_15">
<path id="Vector_49" d="M4.54135 9.68244L7.19447 10.3083C7.28236 10.3291 7.36658 10.2624 7.36658 10.1721V8.71506C7.36658 8.65013 7.32193 8.59373 7.25877 8.57884L4.60564 7.95302C4.51775 7.93228 4.43353 7.99896 4.43353 8.08923V9.54623C4.43349 9.61115 4.47814 9.66755 4.54135 9.68244Z" fill="url(#paint48_linear_776_19809)"/>
<path id="Vector_50" d="M4.43347 8.50195V9.54586C4.43347 9.61078 4.47812 9.66719 4.54128 9.68207L7.19441 10.308C7.2823 10.3287 7.36652 10.262 7.36652 10.1718V9.19387L4.43347 8.50195Z" fill="url(#paint49_linear_776_19809)"/>
<path id="Vector_51" d="M7.25868 8.57855L5.91138 8.26074V10.0054L7.19442 10.3081C7.28231 10.3288 7.36653 10.2621 7.36653 10.1719V8.71477C7.36653 8.64984 7.32188 8.59344 7.25868 8.57855Z" fill="url(#paint50_linear_776_19809)"/>
</g>
<g id="Group_16">
<path id="Vector_52" d="M11.5316 9.95389V9.95685C11.5316 10.0399 11.6091 10.1012 11.6899 10.0822L13.5939 9.63307C13.652 9.61935 13.6931 9.56748 13.6931 9.50775V9.50478C13.6931 9.42174 13.6157 9.36041 13.5348 9.37947L11.6308 9.82857C11.5727 9.84228 11.5316 9.89416 11.5316 9.95389Z" fill="url(#paint51_linear_776_19809)"/>
<path id="Vector_53" d="M11.6899 10.5854L12.6389 10.3616C12.6971 10.3479 12.7382 10.296 12.7382 10.2363V10.2333C12.7382 10.1503 12.6607 10.0889 12.5798 10.108L11.6308 10.3319C11.5726 10.3456 11.5316 10.3974 11.5316 10.4572V10.4602C11.5316 10.5432 11.6091 10.6045 11.6899 10.5854Z" fill="url(#paint52_linear_776_19809)"/>
</g>
</g>
</g>
</g>
<defs>
<linearGradient id="paint0_linear_776_19809" x1="1.51119" y1="9.03398" x2="13.1318" y2="18.3493" gradientUnits="userSpaceOnUse">
<stop stop-color="#FEA613"/>
<stop offset="1" stop-color="#C4573A"/>
</linearGradient>
<linearGradient id="paint1_linear_776_19809" x1="6.58956" y1="11.4411" x2="7.40335" y2="11.4411" gradientUnits="userSpaceOnUse">
<stop stop-color="#C4573A" stop-opacity="0"/>
<stop offset="0.235" stop-color="#BE5539" stop-opacity="0.235"/>
<stop offset="0.539" stop-color="#AE4E35" stop-opacity="0.539"/>
<stop offset="0.8794" stop-color="#934330" stop-opacity="0.879"/>
<stop offset="1" stop-color="#883F2E"/>
</linearGradient>
<linearGradient id="paint2_linear_776_19809" x1="11.9301" y1="14.1909" x2="14.1903" y2="14.1909" gradientUnits="userSpaceOnUse">
<stop stop-color="#C4573A" stop-opacity="0"/>
<stop offset="0.235" stop-color="#BE5539" stop-opacity="0.235"/>
<stop offset="0.539" stop-color="#AE4E35" stop-opacity="0.539"/>
<stop offset="0.8794" stop-color="#934330" stop-opacity="0.879"/>
<stop offset="1" stop-color="#883F2E"/>
</linearGradient>
<linearGradient id="paint3_linear_776_19809" x1="3.50412" y1="12.9712" x2="8.26768" y2="18.8639" gradientUnits="userSpaceOnUse">
<stop stop-color="#C4573A" stop-opacity="0"/>
<stop offset="0.235" stop-color="#BE5539" stop-opacity="0.235"/>
<stop offset="0.539" stop-color="#AE4E35" stop-opacity="0.539"/>
<stop offset="0.8794" stop-color="#934330" stop-opacity="0.879"/>
<stop offset="1" stop-color="#883F2E"/>
</linearGradient>
<linearGradient id="paint4_linear_776_19809" x1="5.23346" y1="13.1122" x2="7.44729" y2="10.3971" gradientUnits="userSpaceOnUse">
<stop stop-color="#C4573A" stop-opacity="0"/>
<stop offset="0.235" stop-color="#BE5539" stop-opacity="0.235"/>
<stop offset="0.539" stop-color="#AE4E35" stop-opacity="0.539"/>
<stop offset="0.8794" stop-color="#934330" stop-opacity="0.879"/>
<stop offset="1" stop-color="#883F2E"/>
</linearGradient>
<linearGradient id="paint5_linear_776_19809" x1="3.86182" y1="17.0954" x2="3.57955" y2="18.5539" gradientUnits="userSpaceOnUse">
<stop stop-color="#C4573A" stop-opacity="0"/>
<stop offset="0.235" stop-color="#BE5539" stop-opacity="0.235"/>
<stop offset="0.539" stop-color="#AE4E35" stop-opacity="0.539"/>
<stop offset="0.8794" stop-color="#934330" stop-opacity="0.879"/>
<stop offset="1" stop-color="#883F2E"/>
</linearGradient>
<linearGradient id="paint6_linear_776_19809" x1="10.8182" y1="17.0955" x2="11.1005" y2="18.5539" gradientUnits="userSpaceOnUse">
<stop stop-color="#C4573A" stop-opacity="0"/>
<stop offset="0.235" stop-color="#BE5539" stop-opacity="0.235"/>
<stop offset="0.539" stop-color="#AE4E35" stop-opacity="0.539"/>
<stop offset="0.8794" stop-color="#934330" stop-opacity="0.879"/>
<stop offset="1" stop-color="#883F2E"/>
</linearGradient>
<linearGradient id="paint7_linear_776_19809" x1="7.29567" y1="9.16205" x2="7.47208" y2="11.5144" gradientUnits="userSpaceOnUse">
<stop stop-color="#FEA613"/>
<stop offset="1" stop-color="#C4573A"/>
</linearGradient>
<linearGradient id="paint8_linear_776_19809" x1="5.31446" y1="9.28361" x2="5.44383" y2="9.82467" gradientUnits="userSpaceOnUse">
<stop stop-color="#C4573A" stop-opacity="0"/>
<stop offset="0.235" stop-color="#BE5539" stop-opacity="0.235"/>
<stop offset="0.539" stop-color="#AE4E35" stop-opacity="0.539"/>
<stop offset="0.8794" stop-color="#934330" stop-opacity="0.879"/>
<stop offset="1" stop-color="#883F2E"/>
</linearGradient>
<linearGradient id="paint9_linear_776_19809" x1="6.1714" y1="8.74473" x2="7.08883" y2="10.9795" gradientUnits="userSpaceOnUse">
<stop stop-color="#FEF0AE"/>
<stop offset="1" stop-color="#FAC600"/>
</linearGradient>
<linearGradient id="paint10_linear_776_19809" x1="4.65512" y1="10.1053" x2="4.65512" y2="10.6204" gradientUnits="userSpaceOnUse">
<stop stop-color="#FE9738" stop-opacity="0"/>
<stop offset="1" stop-color="#FE9738"/>
</linearGradient>
<linearGradient id="paint11_linear_776_19809" x1="3.94376" y1="11.5338" x2="4.29974" y2="11.5338" gradientUnits="userSpaceOnUse">
<stop stop-color="#FE9738" stop-opacity="0"/>
<stop offset="1" stop-color="#FE9738"/>
</linearGradient>
<linearGradient id="paint12_linear_776_19809" x1="3.61324" y1="12.2964" x2="3.54269" y2="12.6963" gradientUnits="userSpaceOnUse">
<stop stop-color="#FE9738" stop-opacity="0"/>
<stop offset="1" stop-color="#FE9738"/>
</linearGradient>
<linearGradient id="paint13_linear_776_19809" x1="1.91903" y1="14.9287" x2="3.5561" y2="17.748" gradientUnits="userSpaceOnUse">
<stop stop-color="#F5FBFF"/>
<stop offset="1" stop-color="#DBD5EF"/>
</linearGradient>
<linearGradient id="paint14_linear_776_19809" x1="2.74524" y1="16.6686" x2="2.62016" y2="17.2142" gradientUnits="userSpaceOnUse">
<stop stop-color="#DBD5EF" stop-opacity="0"/>
<stop offset="0.2853" stop-color="#D9D2EE" stop-opacity="0.285"/>
<stop offset="0.4739" stop-color="#D4C9E9" stop-opacity="0.474"/>
<stop offset="0.6346" stop-color="#CBBAE2" stop-opacity="0.635"/>
<stop offset="0.7795" stop-color="#BFA5D7" stop-opacity="0.78"/>
<stop offset="0.9126" stop-color="#AF8ACA" stop-opacity="0.913"/>
<stop offset="1" stop-color="#A274BF"/>
</linearGradient>
<linearGradient id="paint15_linear_776_19809" x1="3.80799" y1="16.5363" x2="4.23412" y2="16.5363" gradientUnits="userSpaceOnUse">
<stop stop-color="#DBD5EF" stop-opacity="0"/>
<stop offset="0.2853" stop-color="#D9D2EE" stop-opacity="0.285"/>
<stop offset="0.4739" stop-color="#D4C9E9" stop-opacity="0.474"/>
<stop offset="0.6346" stop-color="#CBBAE2" stop-opacity="0.635"/>
<stop offset="0.7795" stop-color="#BFA5D7" stop-opacity="0.78"/>
<stop offset="0.9126" stop-color="#AF8ACA" stop-opacity="0.913"/>
<stop offset="1" stop-color="#A274BF"/>
</linearGradient>
<linearGradient id="paint16_linear_776_19809" x1="8.9636" y1="15.9498" x2="9.8261" y2="17.6906" gradientUnits="userSpaceOnUse">
<stop stop-color="#5A5A5A"/>
<stop offset="1" stop-color="#444444"/>
</linearGradient>
<linearGradient id="paint17_linear_776_19809" x1="8.33508" y1="16.261" x2="9.19762" y2="18.0017" gradientUnits="userSpaceOnUse">
<stop stop-color="#5A5A5A"/>
<stop offset="1" stop-color="#444444"/>
</linearGradient>
<linearGradient id="paint18_linear_776_19809" x1="8.17782" y1="10.6062" x2="19.7985" y2="19.9216" gradientUnits="userSpaceOnUse">
<stop stop-color="#FEA613"/>
<stop offset="1" stop-color="#C4573A"/>
</linearGradient>
<linearGradient id="paint19_linear_776_19809" x1="18.5967" y1="15.7631" x2="20.8569" y2="15.7631" gradientUnits="userSpaceOnUse">
<stop stop-color="#C4573A" stop-opacity="0"/>
<stop offset="0.235" stop-color="#BE5539" stop-opacity="0.235"/>
<stop offset="0.539" stop-color="#AE4E35" stop-opacity="0.539"/>
<stop offset="0.8794" stop-color="#934330" stop-opacity="0.879"/>
<stop offset="1" stop-color="#883F2E"/>
</linearGradient>
<linearGradient id="paint20_linear_776_19809" x1="10.1708" y1="14.5435" x2="14.9343" y2="20.4361" gradientUnits="userSpaceOnUse">
<stop stop-color="#C4573A" stop-opacity="0"/>
<stop offset="0.235" stop-color="#BE5539" stop-opacity="0.235"/>
<stop offset="0.539" stop-color="#AE4E35" stop-opacity="0.539"/>
<stop offset="0.8794" stop-color="#934330" stop-opacity="0.879"/>
<stop offset="1" stop-color="#883F2E"/>
</linearGradient>
<linearGradient id="paint21_linear_776_19809" x1="10.8971" y1="16.5583" x2="9.72754" y2="8.8309" gradientUnits="userSpaceOnUse">
<stop stop-color="#C4573A" stop-opacity="0"/>
<stop offset="0.235" stop-color="#BE5539" stop-opacity="0.235"/>
<stop offset="0.539" stop-color="#AE4E35" stop-opacity="0.539"/>
<stop offset="0.8794" stop-color="#934330" stop-opacity="0.879"/>
<stop offset="1" stop-color="#883F2E"/>
</linearGradient>
<linearGradient id="paint22_linear_776_19809" x1="10.5285" y1="18.6677" x2="10.2462" y2="20.1262" gradientUnits="userSpaceOnUse">
<stop stop-color="#C4573A" stop-opacity="0"/>
<stop offset="0.235" stop-color="#BE5539" stop-opacity="0.235"/>
<stop offset="0.539" stop-color="#AE4E35" stop-opacity="0.539"/>
<stop offset="0.8794" stop-color="#934330" stop-opacity="0.879"/>
<stop offset="1" stop-color="#883F2E"/>
</linearGradient>
<linearGradient id="paint23_linear_776_19809" x1="17.4849" y1="18.6677" x2="17.7672" y2="20.1262" gradientUnits="userSpaceOnUse">
<stop stop-color="#C4573A" stop-opacity="0"/>
<stop offset="0.235" stop-color="#BE5539" stop-opacity="0.235"/>
<stop offset="0.539" stop-color="#AE4E35" stop-opacity="0.539"/>
<stop offset="0.8794" stop-color="#934330" stop-opacity="0.879"/>
<stop offset="1" stop-color="#883F2E"/>
</linearGradient>
<linearGradient id="paint24_linear_776_19809" x1="13.9623" y1="10.7343" x2="14.1387" y2="13.0866" gradientUnits="userSpaceOnUse">
<stop stop-color="#FEA613"/>
<stop offset="1" stop-color="#C4573A"/>
</linearGradient>
<linearGradient id="paint25_linear_776_19809" x1="14.5016" y1="12.8256" x2="13.889" y2="10.9691" gradientUnits="userSpaceOnUse">
<stop stop-color="#C4573A" stop-opacity="0"/>
<stop offset="0.235" stop-color="#BE5539" stop-opacity="0.235"/>
<stop offset="0.539" stop-color="#AE4E35" stop-opacity="0.539"/>
<stop offset="0.8794" stop-color="#934330" stop-opacity="0.879"/>
<stop offset="1" stop-color="#883F2E"/>
</linearGradient>
<linearGradient id="paint26_linear_776_19809" x1="11.9811" y1="10.8559" x2="12.1105" y2="11.3969" gradientUnits="userSpaceOnUse">
<stop stop-color="#C4573A" stop-opacity="0"/>
<stop offset="0.235" stop-color="#BE5539" stop-opacity="0.235"/>
<stop offset="0.539" stop-color="#AE4E35" stop-opacity="0.539"/>
<stop offset="0.8794" stop-color="#934330" stop-opacity="0.879"/>
<stop offset="1" stop-color="#883F2E"/>
</linearGradient>
<linearGradient id="paint27_linear_776_19809" x1="12.838" y1="10.317" x2="13.7555" y2="12.5517" gradientUnits="userSpaceOnUse">
<stop stop-color="#FEF0AE"/>
<stop offset="1" stop-color="#FAC600"/>
</linearGradient>
<linearGradient id="paint28_linear_776_19809" x1="13.843" y1="11.909" x2="13.6573" y2="11.12" gradientUnits="userSpaceOnUse">
<stop stop-color="#FE9738" stop-opacity="0"/>
<stop offset="1" stop-color="#FE9738"/>
</linearGradient>
<linearGradient id="paint29_linear_776_19809" x1="11.3217" y1="11.6776" x2="11.3217" y2="12.1926" gradientUnits="userSpaceOnUse">
<stop stop-color="#FE9738" stop-opacity="0"/>
<stop offset="1" stop-color="#FE9738"/>
</linearGradient>
<linearGradient id="paint30_linear_776_19809" x1="10.6104" y1="13.1061" x2="10.9664" y2="13.1061" gradientUnits="userSpaceOnUse">
<stop stop-color="#FE9738" stop-opacity="0"/>
<stop offset="1" stop-color="#FE9738"/>
</linearGradient>
<linearGradient id="paint31_linear_776_19809" x1="10.2799" y1="13.8686" x2="10.2093" y2="14.2685" gradientUnits="userSpaceOnUse">
<stop stop-color="#FE9738" stop-opacity="0"/>
<stop offset="1" stop-color="#FE9738"/>
</linearGradient>
<linearGradient id="paint32_linear_776_19809" x1="8.58572" y1="16.5009" x2="10.2227" y2="19.3203" gradientUnits="userSpaceOnUse">
<stop stop-color="#F5FBFF"/>
<stop offset="1" stop-color="#DBD5EF"/>
</linearGradient>
<linearGradient id="paint33_linear_776_19809" x1="9.41187" y1="18.2408" x2="9.28683" y2="18.7865" gradientUnits="userSpaceOnUse">
<stop stop-color="#DBD5EF" stop-opacity="0"/>
<stop offset="0.2853" stop-color="#D9D2EE" stop-opacity="0.285"/>
<stop offset="0.4739" stop-color="#D4C9E9" stop-opacity="0.474"/>
<stop offset="0.6346" stop-color="#CBBAE2" stop-opacity="0.635"/>
<stop offset="0.7795" stop-color="#BFA5D7" stop-opacity="0.78"/>
<stop offset="0.9126" stop-color="#AF8ACA" stop-opacity="0.913"/>
<stop offset="1" stop-color="#A274BF"/>
</linearGradient>
<linearGradient id="paint34_linear_776_19809" x1="10.4746" y1="18.1086" x2="10.9008" y2="18.1086" gradientUnits="userSpaceOnUse">
<stop stop-color="#DBD5EF" stop-opacity="0"/>
<stop offset="0.2853" stop-color="#D9D2EE" stop-opacity="0.285"/>
<stop offset="0.4739" stop-color="#D4C9E9" stop-opacity="0.474"/>
<stop offset="0.6346" stop-color="#CBBAE2" stop-opacity="0.635"/>
<stop offset="0.7795" stop-color="#BFA5D7" stop-opacity="0.78"/>
<stop offset="0.9126" stop-color="#AF8ACA" stop-opacity="0.913"/>
<stop offset="1" stop-color="#A274BF"/>
</linearGradient>
<linearGradient id="paint35_linear_776_19809" x1="15.6302" y1="17.5221" x2="16.4928" y2="19.2628" gradientUnits="userSpaceOnUse">
<stop stop-color="#5A5A5A"/>
<stop offset="1" stop-color="#444444"/>
</linearGradient>
<linearGradient id="paint36_linear_776_19809" x1="15.0017" y1="17.8332" x2="15.8643" y2="19.5739" gradientUnits="userSpaceOnUse">
<stop stop-color="#5A5A5A"/>
<stop offset="1" stop-color="#444444"/>
</linearGradient>
<linearGradient id="paint37_linear_776_19809" x1="4.64907" y1="1.78398" x2="16.2697" y2="11.0993" gradientUnits="userSpaceOnUse">
<stop stop-color="#FEA613"/>
<stop offset="1" stop-color="#C4573A"/>
</linearGradient>
<linearGradient id="paint38_linear_776_19809" x1="15.068" y1="6.9409" x2="17.3282" y2="6.9409" gradientUnits="userSpaceOnUse">
<stop stop-color="#C4573A" stop-opacity="0"/>
<stop offset="0.235" stop-color="#BE5539" stop-opacity="0.235"/>
<stop offset="0.539" stop-color="#AE4E35" stop-opacity="0.539"/>
<stop offset="0.8794" stop-color="#934330" stop-opacity="0.879"/>
<stop offset="1" stop-color="#883F2E"/>
</linearGradient>
<linearGradient id="paint39_linear_776_19809" x1="6.64204" y1="5.72125" x2="11.4056" y2="11.6139" gradientUnits="userSpaceOnUse">
<stop stop-color="#C4573A" stop-opacity="0"/>
<stop offset="0.235" stop-color="#BE5539" stop-opacity="0.235"/>
<stop offset="0.539" stop-color="#AE4E35" stop-opacity="0.539"/>
<stop offset="0.8794" stop-color="#934330" stop-opacity="0.879"/>
<stop offset="1" stop-color="#883F2E"/>
</linearGradient>
<linearGradient id="paint40_linear_776_19809" x1="6.99973" y1="9.84543" x2="6.71743" y2="11.3039" gradientUnits="userSpaceOnUse">
<stop stop-color="#C4573A" stop-opacity="0"/>
<stop offset="0.235" stop-color="#BE5539" stop-opacity="0.235"/>
<stop offset="0.539" stop-color="#AE4E35" stop-opacity="0.539"/>
<stop offset="0.8794" stop-color="#934330" stop-opacity="0.879"/>
<stop offset="1" stop-color="#883F2E"/>
</linearGradient>
<linearGradient id="paint41_linear_776_19809" x1="13.9561" y1="9.84543" x2="14.2384" y2="11.3039" gradientUnits="userSpaceOnUse">
<stop stop-color="#C4573A" stop-opacity="0"/>
<stop offset="0.235" stop-color="#BE5539" stop-opacity="0.235"/>
<stop offset="0.539" stop-color="#AE4E35" stop-opacity="0.539"/>
<stop offset="0.8794" stop-color="#934330" stop-opacity="0.879"/>
<stop offset="1" stop-color="#883F2E"/>
</linearGradient>
<linearGradient id="paint42_linear_776_19809" x1="10.4335" y1="1.91201" x2="10.61" y2="4.26436" gradientUnits="userSpaceOnUse">
<stop stop-color="#FEA613"/>
<stop offset="1" stop-color="#C4573A"/>
</linearGradient>
<linearGradient id="paint43_linear_776_19809" x1="8.45234" y1="2.03361" x2="8.58171" y2="2.57463" gradientUnits="userSpaceOnUse">
<stop stop-color="#C4573A" stop-opacity="0"/>
<stop offset="0.235" stop-color="#BE5539" stop-opacity="0.235"/>
<stop offset="0.539" stop-color="#AE4E35" stop-opacity="0.539"/>
<stop offset="0.8794" stop-color="#934330" stop-opacity="0.879"/>
<stop offset="1" stop-color="#883F2E"/>
</linearGradient>
<linearGradient id="paint44_linear_776_19809" x1="9.30928" y1="1.49473" x2="10.2267" y2="3.72945" gradientUnits="userSpaceOnUse">
<stop stop-color="#FEF0AE"/>
<stop offset="1" stop-color="#FAC600"/>
</linearGradient>
<linearGradient id="paint45_linear_776_19809" x1="7.793" y1="2.85535" x2="7.793" y2="3.37035" gradientUnits="userSpaceOnUse">
<stop stop-color="#FE9738" stop-opacity="0"/>
<stop offset="1" stop-color="#FE9738"/>
</linearGradient>
<linearGradient id="paint46_linear_776_19809" x1="7.08168" y1="4.28379" x2="7.43766" y2="4.28379" gradientUnits="userSpaceOnUse">
<stop stop-color="#FE9738" stop-opacity="0"/>
<stop offset="1" stop-color="#FE9738"/>
</linearGradient>
<linearGradient id="paint47_linear_776_19809" x1="6.75116" y1="5.04629" x2="6.68057" y2="5.44617" gradientUnits="userSpaceOnUse">
<stop stop-color="#FE9738" stop-opacity="0"/>
<stop offset="1" stop-color="#FE9738"/>
</linearGradient>
<linearGradient id="paint48_linear_776_19809" x1="5.05697" y1="7.67869" x2="6.694" y2="10.4981" gradientUnits="userSpaceOnUse">
<stop stop-color="#F5FBFF"/>
<stop offset="1" stop-color="#DBD5EF"/>
</linearGradient>
<linearGradient id="paint49_linear_776_19809" x1="5.88312" y1="9.41855" x2="5.75808" y2="9.96426" gradientUnits="userSpaceOnUse">
<stop stop-color="#DBD5EF" stop-opacity="0"/>
<stop offset="0.2853" stop-color="#D9D2EE" stop-opacity="0.285"/>
<stop offset="0.4739" stop-color="#D4C9E9" stop-opacity="0.474"/>
<stop offset="0.6346" stop-color="#CBBAE2" stop-opacity="0.635"/>
<stop offset="0.7795" stop-color="#BFA5D7" stop-opacity="0.78"/>
<stop offset="0.9126" stop-color="#AF8ACA" stop-opacity="0.913"/>
<stop offset="1" stop-color="#A274BF"/>
</linearGradient>
<linearGradient id="paint50_linear_776_19809" x1="6.94591" y1="9.28633" x2="7.37204" y2="9.28633" gradientUnits="userSpaceOnUse">
<stop stop-color="#DBD5EF" stop-opacity="0"/>
<stop offset="0.2853" stop-color="#D9D2EE" stop-opacity="0.285"/>
<stop offset="0.4739" stop-color="#D4C9E9" stop-opacity="0.474"/>
<stop offset="0.6346" stop-color="#CBBAE2" stop-opacity="0.635"/>
<stop offset="0.7795" stop-color="#BFA5D7" stop-opacity="0.78"/>
<stop offset="0.9126" stop-color="#AF8ACA" stop-opacity="0.913"/>
<stop offset="1" stop-color="#A274BF"/>
</linearGradient>
<linearGradient id="paint51_linear_776_19809" x1="12.1015" y1="8.69986" x2="12.964" y2="10.4406" gradientUnits="userSpaceOnUse">
<stop stop-color="#5A5A5A"/>
<stop offset="1" stop-color="#444444"/>
</linearGradient>
<linearGradient id="paint52_linear_776_19809" x1="11.473" y1="9.01092" x2="12.3355" y2="10.7517" gradientUnits="userSpaceOnUse">
<stop stop-color="#5A5A5A"/>
<stop offset="1" stop-color="#444444"/>
</linearGradient>
<clipPath id="clip0_776_19809">
<rect width="20" height="20" fill="white" transform="translate(0.67334 0.866211)"/>
</clipPath>
</defs>
</svg>
