<svg width="21" height="21" viewBox="0 0 21 21" fill="none" xmlns="http://www.w3.org/2000/svg">
<g id="rating 1" clip-path="url(#clip0_776_19790)">
<path id="Vector" d="M15.0113 16.0475C15.0273 15.5541 14.6281 15.1442 14.1371 15.1442H14.1353V15.1439H14.2084C14.6851 15.1435 15.0711 14.7567 15.0708 14.28C15.0705 13.8033 14.6837 13.4197 14.207 13.42C13.8095 13.42 11.0381 13.42 10.6157 13.42C10.5156 13.42 10.4446 13.3222 10.4758 13.2271L10.7906 12.2663C11.0585 11.4485 11.0109 10.8918 11.0109 9.93396C11.0109 9.37061 10.5542 8.91406 9.99084 8.91406C9.47906 8.91406 9.04648 9.29309 8.97949 9.80045C8.90549 10.3618 8.85544 11.36 7.92755 12.2536L7.27249 12.8841C6.90765 13.2355 6.4209 13.4317 5.91446 13.4317H5.05402V19.0937C5.28809 19.0935 5.75836 19.0935 5.75867 19.0935C7.00912 19.0927 6.89484 20.331 8.45001 20.3296H13.7428C14.2189 20.3296 14.6048 19.9436 14.6048 19.4675C14.6048 18.9913 14.2189 18.6054 13.7428 18.6054H13.8947C14.3631 18.6054 14.7632 18.241 14.7787 17.7727C14.7951 17.2832 14.4031 16.8811 13.9172 16.8811H14.1269C14.5958 16.8811 14.9962 16.5163 15.0113 16.0475Z" fill="#FFCDBF"/>
<path id="Vector_2" d="M13.7429 19.324H8.45004C6.89487 19.3255 7.00916 18.0871 5.7587 18.0879C5.75839 18.0879 5.28812 18.088 5.0542 18.0882V19.0942C5.28812 19.0941 5.75839 19.0941 5.7587 19.0941C7.00916 19.0933 6.89487 20.3315 8.45004 20.3302H13.7429C14.2189 20.3302 14.6048 19.9441 14.6048 19.468C14.6048 19.2801 14.5441 19.1066 14.4419 18.965C14.2855 19.1821 14.0309 19.324 13.7429 19.324Z" fill="#FFBEAB"/>
<path id="Vector_3" d="M4.80926 12.9238H1.54404C1.29776 12.9238 1.09802 13.1236 1.09802 13.3698V19.268C1.09802 19.5144 1.29761 19.7141 1.54404 19.7141H4.80926C5.05554 19.7141 5.25528 19.5144 5.25528 19.268V13.3698C5.25528 13.1236 5.05554 12.9238 4.80926 12.9238Z" fill="#54A0FF"/>
<path id="Vector_4" d="M2.3053 19.2681V13.3698C2.3053 13.1236 2.50504 12.9238 2.75146 12.9238H1.54404C1.29776 12.9238 1.09802 13.1236 1.09802 13.3698V19.268C1.09802 19.5144 1.29761 19.7141 1.54404 19.7141H2.75131C2.50504 19.7141 2.3053 19.5144 2.3053 19.2681Z" fill="#338DEF"/>
<path id="Vector_5" d="M5.80155 5.00071C5.92331 4.88428 5.85618 4.6818 5.68787 4.65769L4.38767 4.47276C4.32084 4.46314 4.26316 4.4221 4.23325 4.36274L3.65174 3.20872C3.57651 3.05933 3.35907 3.05933 3.2837 3.20872L2.70234 4.36274C2.67243 4.4221 2.6146 4.46329 2.54777 4.47276L1.24772 4.65769C1.07941 4.68165 1.01212 4.88428 1.13404 5.00071L2.07474 5.89899C2.12311 5.94508 2.14509 6.0116 2.13379 6.07691L1.91163 7.34522C1.88294 7.50941 2.05887 7.63468 2.20948 7.55717L3.37235 6.95826C3.43201 6.92759 3.50358 6.92759 3.56324 6.95826L4.72611 7.55717C4.87671 7.63468 5.05265 7.50941 5.02396 7.34522L4.80179 6.07691C4.79035 6.0116 4.81247 5.94508 4.86084 5.89899L5.80155 5.00071Z" fill="#FECA57"/>
<path id="Vector_6" d="M3.55347 5.84463C3.56491 5.77948 3.54294 5.71295 3.49457 5.66672L2.55371 4.76843C2.46048 4.67947 2.47833 4.54001 2.56729 4.46875C2.56088 4.47028 2.55447 4.47165 2.54776 4.47256L1.24771 4.65765C1.07941 4.68161 1.01227 4.88425 1.13403 5.00052L2.07474 5.8988C2.12311 5.94504 2.14523 6.01157 2.13379 6.07672L1.91177 7.34518C1.88293 7.50937 2.05887 7.63464 2.20947 7.55713L3.35724 6.966L3.55347 5.84463Z" fill="#F4B537"/>
<path id="Vector_7" d="M2.66754 4.42561L3.96759 4.24052C4.03229 4.23136 4.08829 4.1923 4.11896 4.13599L3.65189 3.20872C3.57651 3.05933 3.35907 3.05933 3.28384 3.20872L2.70233 4.36274C2.6889 4.38929 2.66968 4.41203 2.64679 4.43003C2.6535 4.42835 2.66037 4.42667 2.66754 4.42561Z" fill="#F4B537"/>
<path id="Vector_8" d="M19.1922 5.00071C19.314 4.88428 19.2467 4.6818 19.0784 4.65769L17.7783 4.47276C17.7115 4.46314 17.6536 4.4221 17.6237 4.36274L17.0424 3.20872C16.9672 3.05933 16.7496 3.05933 16.6743 3.20872L16.0928 4.36274C16.0629 4.4221 16.0052 4.46329 15.9384 4.47276L14.6384 4.65769C14.4699 4.68165 14.4028 4.88428 14.5245 5.00071L15.4652 5.89899C15.5136 5.94508 15.5357 6.0116 15.5243 6.07691L15.3023 7.34522C15.2734 7.50941 15.4495 7.63468 15.6 7.55717L16.7628 6.95826C16.8227 6.92759 16.8941 6.92759 16.9539 6.95826L18.1166 7.55717C18.2672 7.63468 18.4431 7.50941 18.4145 7.34522L18.1923 6.07691C18.1808 6.0116 18.203 5.94508 18.2513 5.89899L19.1922 5.00071Z" fill="#FECA57"/>
<path id="Vector_9" d="M16.9441 5.84463C16.9556 5.77948 16.9335 5.71295 16.8851 5.66672L15.9444 4.76843C15.8512 4.67947 15.869 4.54001 15.9578 4.46875C15.9514 4.47028 15.945 4.47165 15.9384 4.47256L14.6384 4.65765C14.4701 4.68161 14.4028 4.88425 14.5246 5.00052L15.4654 5.8988C15.5138 5.94504 15.5358 6.01157 15.5243 6.07672L15.3023 7.34518C15.2736 7.50937 15.4495 7.63464 15.6001 7.55713L16.7479 6.966L16.9441 5.84463Z" fill="#F4B537"/>
<path id="Vector_10" d="M16.058 4.42561L17.3581 4.24052C17.4229 4.23136 17.4789 4.1923 17.5095 4.13599L17.0424 3.20872C16.9672 3.05933 16.7496 3.05933 16.6743 3.20872L16.093 4.36274C16.0796 4.38929 16.0603 4.41203 16.0373 4.43003C16.0442 4.42835 16.0509 4.42667 16.058 4.42561Z" fill="#F4B537"/>
<path id="Vector_11" d="M13.9366 3.40873C14.1336 3.22059 14.0248 2.89298 13.7527 2.85422L11.6505 2.555C11.5425 2.53959 11.4489 2.47321 11.4007 2.37724L10.4606 0.511238C10.3389 0.269691 9.98716 0.269691 9.86555 0.511238L8.92545 2.37724C8.87708 2.47321 8.7837 2.53959 8.67551 2.555L6.57346 2.85422C6.30125 2.89298 6.1926 3.22059 6.38944 3.40873L7.91059 4.86106C7.98887 4.93583 8.02457 5.0434 8.00611 5.14884L7.64692 7.19962C7.60053 7.46513 7.88511 7.66761 8.12849 7.54234L10.0087 6.57401C10.1054 6.52427 10.2208 6.52427 10.3175 6.57401L12.1977 7.54234C12.4411 7.66761 12.7257 7.46513 12.6791 7.19962L12.3201 5.14884C12.3016 5.0434 12.3373 4.93583 12.4154 4.86106L13.9366 3.40873Z" fill="#FECA57"/>
<path id="Vector_12" d="M10.0954 2.32291C10.2034 2.3075 10.2968 2.24097 10.3452 2.14515L10.8145 1.2136L10.4607 0.511238C10.3389 0.269691 9.98718 0.269691 9.86557 0.511238L8.92548 2.37724C8.89832 2.43079 8.85696 2.47489 8.80707 2.50632L10.0954 2.32291Z" fill="#F4B537"/>
<path id="Vector_13" d="M9.06675 6.96716L9.42579 4.91623C9.44425 4.81079 9.40854 4.70322 9.33042 4.6286L7.80927 3.17612C7.64905 3.02322 7.69117 2.77802 7.85871 2.6709L6.57346 2.85385C6.30125 2.89261 6.1926 3.22021 6.38944 3.40836L7.91059 4.86069C7.98887 4.93546 8.02457 5.04303 8.00611 5.14847L7.64692 7.19925C7.60053 7.46475 7.88495 7.66724 8.12849 7.54196L9.064 7.06009C9.06049 7.03033 9.0611 6.99921 9.06675 6.96716Z" fill="#F4B537"/>
<g id="Group">
<path id="Vector_14" d="M12.3616 16.4795C12.3616 16.7018 12.5418 16.882 12.7639 16.882H14.1269C14.5862 16.882 14.9786 16.5319 15.009 16.0771H12.7641C12.5418 16.0771 12.3616 16.2574 12.3616 16.4795Z" fill="#FFBEAB"/>
<path id="Vector_15" d="M12.3616 14.7422C12.3616 14.9645 12.5418 15.1447 12.7639 15.1447H14.2082C14.665 15.1443 15.0377 14.7889 15.0679 14.3398H12.7639C12.5418 14.3398 12.3616 14.5201 12.3616 14.7422Z" fill="#FFBEAB"/>
<path id="Vector_16" d="M14.7764 17.8018H12.7639C12.5418 17.8018 12.3616 17.982 12.3616 18.2041C12.3616 18.4265 12.5418 18.6067 12.7639 18.6067H13.8946C14.3538 18.6067 14.7461 18.2565 14.7764 17.8018Z" fill="#FFBEAB"/>
</g>
</g>
<defs>
<clipPath id="clip0_776_19790">
<rect width="20" height="20" fill="white" transform="translate(0.17334 0.330078)"/>
</clipPath>
</defs>
</svg>
