<svg width="60" height="60" viewBox="0 0 60 60" fill="none" xmlns="http://www.w3.org/2000/svg">
<g id="delivery-truck (1) 1" opacity="0.8">
<g id="Group">
<path id="Vector" d="M51.1407 19.3108H38.7517V41.7652H59.05V31.6585L56.6827 23.4767C55.9691 21.0094 53.7092 19.3108 51.1407 19.3108Z" fill="#C1C1C1"/>
<path id="Vector_2" d="M56.0865 31.5549L53.9767 24.2617C53.613 23.008 52.4468 22.1306 51.1407 22.1306H41.5715V31.5549H56.0865Z" fill="#84DBFF"/>
<path id="Vector_3" d="M56.0891 31.5512H41.5665V22.127L56.0891 31.5512Z" fill="#E1E1E1"/>
<path id="Vector_4" d="M56.0865 31.5549L53.9767 24.2617C53.613 23.008 52.4468 22.1306 51.1407 22.1306H41.5715L56.0865 31.5549Z" fill="white"/>
<path id="Vector_5" d="M3.74968 8.03809H35.002C37.0718 8.03809 38.7517 9.71666 38.7517 11.7878V41.764H0V11.7878C0 9.71677 1.67857 8.03809 3.74968 8.03809Z" fill="#E1E1E1"/>
<path id="Vector_6" d="M25.3979 8.04443V17.9523L23.9479 16.5024L22.4281 18.0223L20.9095 16.5024L19.3909 18.0223L17.8697 16.5024L16.3312 18.0223L14.8137 16.5024L13.3464 17.9698V8.04443H25.3979Z" fill="white"/>
<path id="Vector_7" d="M60 41.7627V45.9999H0.0050354V41.7627H6.26701C7.72939 39.1379 10.5417 37.363 13.7664 37.363C16.9786 37.363 19.7908 39.1379 21.2657 41.7627H41.4141C42.8765 39.1379 45.675 37.363 48.8998 37.363C52.1245 37.363 54.9242 39.1379 56.3991 41.7627H60Z" fill="#454545"/>
<path id="Vector_8" d="M54.8879 45.9736C54.8879 49.2808 52.2069 51.9618 48.8996 51.9618C45.5924 51.9618 42.9138 49.2808 42.9138 45.9736C42.9138 42.6664 45.5936 39.9854 48.8996 39.9854C52.2081 39.9854 54.8879 42.6664 54.8879 45.9736Z" fill="#535353"/>
<path id="Vector_9" d="M51.3069 45.9737C51.3069 47.3024 50.2295 48.3785 48.9021 48.3785C47.5734 48.3785 46.4948 47.3024 46.4948 45.9737C46.4948 44.645 47.5723 43.5688 48.9021 43.5688C50.2295 43.5677 51.3069 44.6451 51.3069 45.9737Z" fill="#ACB3BA"/>
<path id="Vector_10" d="M19.7496 45.9736C19.7496 49.2808 17.0673 51.9618 13.7613 51.9618C10.4541 51.9618 7.7731 49.2808 7.7731 45.9736C7.7731 42.6664 10.4541 39.9854 13.7613 39.9854C17.0673 39.9854 19.7496 42.6664 19.7496 45.9736Z" fill="#535353"/>
<path id="Vector_11" d="M16.1662 45.9737C16.1662 47.3024 15.09 48.3785 13.7613 48.3785C12.4326 48.3785 11.3553 47.3024 11.3553 45.9737C11.3553 44.645 12.4328 43.5688 13.7613 43.5688C15.0899 43.5688 16.1662 44.6451 16.1662 45.9737Z" fill="#ACB3BA"/>
</g>
</g>
</svg>
