<svg width="21" height="20" viewBox="0 0 21 20" fill="none" xmlns="http://www.w3.org/2000/svg">
<g id="free-shipping 1" clip-path="url(#clip0_1003_4935)">
<path id="Vector" d="M8.60491 15.0868C9.24149 14.4915 9.33953 13.5592 8.82389 13.0044C8.30824 12.4496 7.37418 12.4823 6.7376 13.0775C6.10101 13.6728 6.00297 14.6051 6.51861 15.1599C7.03426 15.7147 7.96832 15.682 8.60491 15.0868Z" fill="#1455AC"/>
<path id="Vector_2" d="M17.0253 15.0877C17.6619 14.4925 17.7599 13.5602 17.2443 13.0054C16.7287 12.4506 15.7946 12.4833 15.158 13.0785C14.5214 13.6737 14.4234 14.606 14.939 15.1609C15.4547 15.7157 16.3887 15.6829 17.0253 15.0877Z" fill="#1455AC"/>
<path id="Vector_3" d="M1.92738 7.80371C1.92738 7.43534 1.62949 7.13672 1.26203 7.13672C0.894567 7.13672 0.59668 7.43534 0.59668 7.80371C0.59668 8.17208 0.894567 8.4707 1.26203 8.4707C1.62949 8.4707 1.92738 8.17208 1.92738 7.80371Z" fill="#1455AC"/>
<path id="Vector_4" d="M13.8793 13.9426C14.1157 12.7707 15.2194 11.8395 16.4056 11.8395C17.5479 11.8395 18.3711 12.7031 18.3486 13.8137C19.5839 13.8461 19.9278 12.2145 19.9278 12.2145C20.0317 11.7582 20.1871 10.8687 20.3172 9.9957C20.3598 9.72616 20.3271 9.45003 20.2226 9.19805C19.8997 8.44196 19.5094 7.71662 19.0566 7.03086C18.6282 6.38984 17.9097 6.01016 17.0895 5.99648C16.6003 5.98867 16.1202 5.98398 15.7576 5.98398L15.7545 5.98086C15.7077 5.19648 15.1376 4.5957 14.3373 4.52383C13.8166 4.47734 11.7541 4.44336 10.7641 4.44336C10.3708 4.44336 9.80648 4.44883 9.23555 4.4582V4.45586H9.23088H2.36653C2.27916 4.45581 2.19264 4.47303 2.11192 4.50654C2.03119 4.54005 1.95784 4.5892 1.89607 4.65116C1.83429 4.71312 1.78529 4.78669 1.75188 4.86766C1.71847 4.94863 1.7013 5.03542 1.70136 5.12305V5.12617C1.70136 5.30229 1.77111 5.4712 1.89527 5.59573C2.01943 5.72027 2.18782 5.79023 2.36341 5.79023H3.74711C3.91372 5.80256 4.06953 5.8776 4.18329 6.00033C4.29705 6.12305 4.36035 6.28438 4.36048 6.45195V6.45547C4.36074 6.54318 4.34375 6.63009 4.31048 6.71121C4.27722 6.79233 4.22833 6.86608 4.16662 6.92823C4.10491 6.99038 4.03159 7.03971 3.95085 7.07341C3.87011 7.10711 3.78354 7.12451 3.69609 7.12461H2.98652C2.81021 7.12461 2.64112 7.19486 2.51645 7.31991C2.39178 7.44496 2.32174 7.61456 2.32174 7.79141C2.32169 7.879 2.33885 7.96575 2.37223 8.0467C2.40562 8.12764 2.45458 8.2012 2.51631 8.26316C2.57805 8.32511 2.65135 8.37426 2.73203 8.4078C2.81271 8.44133 2.89919 8.45859 2.98652 8.45859H3.69609C3.87251 8.45859 4.04169 8.52889 4.16644 8.65401C4.29118 8.77913 4.36126 8.94883 4.36126 9.12578C4.36126 9.30273 4.29118 9.47243 4.16644 9.59755C4.04169 9.72268 3.87251 9.79297 3.69609 9.79297H1.04164C0.865289 9.79297 0.696159 9.86321 0.571427 9.98824C0.446694 10.1133 0.376568 10.2829 0.376465 10.4598C0.376465 10.6367 0.446545 10.8064 0.571289 10.9315C0.696033 11.0567 0.865222 11.127 1.04164 11.127H3.69609C3.87251 11.127 4.04169 11.1972 4.16644 11.3224C4.29118 11.4475 4.36126 11.6172 4.36126 11.7941C4.36106 11.971 4.29088 12.1405 4.16616 12.2654C4.04144 12.3904 3.87237 12.4605 3.69609 12.4605H2.87514C2.69883 12.4605 2.52974 12.5308 2.40507 12.6558C2.2804 12.7809 2.21036 12.9505 2.21036 13.1273C2.21036 13.3042 2.28039 13.4739 2.40505 13.599C2.52971 13.7241 2.69879 13.7944 2.87514 13.7945L5.49455 13.7926L5.71225 13.2484C6.15816 12.4234 7.04531 11.8391 7.98466 11.8391C9.17129 11.8391 10.0141 12.7711 9.92136 13.9437H13.8789M7.28171 7.43516H6.3891C6.38826 7.43522 6.38746 7.43557 6.38683 7.43613C6.38619 7.43669 6.38576 7.43745 6.3856 7.43828L6.30342 8.02422C6.3033 8.02469 6.30329 8.02518 6.30339 8.02566C6.30349 8.02613 6.3037 8.02657 6.30401 8.02695C6.30431 8.02733 6.30469 8.02764 6.30513 8.02784C6.30557 8.02804 6.30605 8.02814 6.30654 8.02812H6.97093C7.00354 8.02719 7.03595 8.03358 7.06579 8.0468C7.09563 8.06003 7.12215 8.07977 7.14342 8.10459C7.16469 8.1294 7.18017 8.15866 7.18873 8.19024C7.19729 8.22181 7.19872 8.25491 7.19291 8.28711C7.18153 8.35789 7.1459 8.42247 7.09216 8.46974C7.03843 8.51701 6.96994 8.54401 6.89849 8.54609H6.23332C6.23251 8.54607 6.23172 8.54633 6.23108 8.54683C6.23044 8.54733 6.23 8.54804 6.22982 8.54883L6.11065 9.4C6.09926 9.47078 6.06364 9.53536 6.0099 9.58263C5.95616 9.6299 5.88767 9.6569 5.81623 9.65898C5.78363 9.65993 5.75123 9.65355 5.7214 9.64032C5.69158 9.62709 5.66507 9.60734 5.64383 9.58252C5.62259 9.55769 5.60715 9.52842 5.59864 9.49684C5.59013 9.46526 5.58876 9.43218 5.59463 9.4L5.90385 7.19219C5.91611 7.11744 5.95388 7.04929 6.01072 6.9994C6.06756 6.94952 6.13992 6.92101 6.21541 6.91875H7.35375C7.38636 6.91781 7.41875 6.92418 7.44858 6.93741C7.47841 6.95064 7.50491 6.97039 7.52615 6.99522C7.54739 7.02004 7.56283 7.04931 7.57134 7.08089C7.57985 7.11247 7.58122 7.14556 7.57535 7.17773C7.56381 7.24816 7.52819 7.31236 7.47461 7.35933C7.42104 7.4063 7.35284 7.43311 7.28171 7.43516ZM9.66745 7.09453C9.76018 7.17705 9.82543 7.28613 9.85438 7.40703C9.88675 7.54399 9.89205 7.68599 9.86996 7.825C9.84288 8.0413 9.75463 8.24529 9.61565 8.41289C9.53078 8.51354 9.42297 8.59219 9.30137 8.64219C9.30082 8.64277 9.30052 8.64354 9.30052 8.64434C9.30052 8.64513 9.30082 8.6459 9.30137 8.64648L9.52257 9.28672C9.58216 9.45859 9.42911 9.65898 9.23867 9.65898H9.2262C9.18 9.66035 9.13457 9.64692 9.09648 9.62066C9.05839 9.59439 9.02962 9.55665 9.01435 9.51289L8.7468 8.73164C8.74642 8.73105 8.7459 8.73057 8.74529 8.73023C8.74468 8.72989 8.74399 8.7297 8.74329 8.72969H8.1747C8.17391 8.72973 8.17315 8.73002 8.17253 8.7305C8.1719 8.73099 8.17144 8.73166 8.1712 8.73242L8.07773 9.39961C8.06635 9.47039 8.03072 9.53497 7.97698 9.58224C7.92324 9.62951 7.85476 9.65651 7.78331 9.65859C7.75071 9.65954 7.71831 9.65316 7.68849 9.63993C7.65866 9.6267 7.63216 9.60695 7.61092 9.58213C7.58968 9.5573 7.57424 9.52803 7.56572 9.49645C7.55721 9.46487 7.55584 9.43179 7.56172 9.39961L7.87094 7.1918C7.88319 7.11705 7.92097 7.0489 7.97781 6.99901C8.03464 6.94913 8.107 6.92062 8.18249 6.91836H9.06264C9.06264 6.91836 9.44897 6.90625 9.66745 7.09453ZM12.0898 7.15937C12.0792 7.22549 12.0459 7.28582 11.9958 7.32996C11.9456 7.3741 11.8816 7.39929 11.8148 7.40117H10.791C10.7902 7.40121 10.7894 7.4015 10.7888 7.40199C10.7882 7.40248 10.7877 7.40315 10.7875 7.40391L10.7061 7.98359C10.706 7.98406 10.706 7.98456 10.7061 7.98503C10.7062 7.9855 10.7064 7.98595 10.7067 7.98633C10.707 7.98671 10.7074 7.98701 10.7078 7.98721C10.7082 7.98742 10.7087 7.98752 10.7092 7.9875H11.5045C11.5349 7.9866 11.5652 7.99253 11.5931 8.00487C11.6209 8.01721 11.6457 8.03564 11.6656 8.05882C11.6854 8.08199 11.6999 8.10933 11.7078 8.13883C11.7158 8.16832 11.7171 8.19923 11.7116 8.2293C11.7011 8.29541 11.6678 8.35574 11.6176 8.39988C11.5674 8.44403 11.5034 8.46921 11.4367 8.47109H10.6411C10.6403 8.47114 10.6395 8.47142 10.6389 8.47191C10.6383 8.4724 10.6378 8.47307 10.6376 8.47383L10.5398 9.17148C10.5398 9.17246 10.5402 9.17339 10.5408 9.17412C10.5414 9.17484 10.5423 9.17529 10.5433 9.17539H11.5664C11.5968 9.17449 11.6271 9.18042 11.655 9.19276C11.6829 9.2051 11.7076 9.22353 11.7275 9.24671C11.7473 9.26989 11.7618 9.29722 11.7698 9.32672C11.7777 9.35621 11.779 9.38712 11.7736 9.41719C11.763 9.4833 11.7297 9.54363 11.6795 9.58777C11.6293 9.63192 11.5653 9.6571 11.4986 9.65898H10.229C10.1948 9.65946 10.1608 9.65238 10.1296 9.63824C10.0984 9.6241 10.0706 9.60325 10.0483 9.57716C10.026 9.55107 10.0097 9.52038 10.0006 9.48727C9.99143 9.45416 9.98965 9.41943 9.99536 9.38555L10.3026 7.19336C10.3149 7.11861 10.3527 7.05046 10.4095 7.00058C10.4663 6.95069 10.5387 6.92218 10.6142 6.91992H11.8834C11.9135 6.9192 11.9435 6.92519 11.9711 6.93744C11.9986 6.9497 12.0232 6.96793 12.0429 6.99081C12.0626 7.0137 12.0771 7.04068 12.0852 7.06982C12.0933 7.09897 12.0949 7.12955 12.0898 7.15937ZM14.2165 7.15937C14.206 7.22549 14.1727 7.28582 14.1225 7.32996C14.0723 7.3741 14.0083 7.39929 13.9416 7.40117H12.9178C12.917 7.40121 12.9162 7.4015 12.9156 7.40199C12.9149 7.40248 12.9145 7.40315 12.9142 7.40391L12.8332 7.98359C12.8331 7.98406 12.8331 7.98456 12.8332 7.98503C12.8333 7.9855 12.8335 7.98595 12.8338 7.98633C12.8341 7.98671 12.8345 7.98701 12.835 7.98721C12.8354 7.98742 12.8359 7.98752 12.8364 7.9875H13.6316C13.6621 7.9866 13.6923 7.99253 13.7202 8.00487C13.7481 8.01721 13.7728 8.03564 13.7927 8.05882C13.8126 8.08199 13.827 8.10933 13.835 8.13883C13.843 8.16832 13.8443 8.19923 13.8388 8.2293C13.8282 8.29541 13.7949 8.35574 13.7447 8.39988C13.6946 8.44403 13.6306 8.46921 13.5638 8.47109H12.7678C12.767 8.47114 12.7663 8.47142 12.7656 8.47191C12.765 8.4724 12.7645 8.47307 12.7643 8.47383L12.6666 9.17148C12.6666 9.17246 12.6669 9.17339 12.6676 9.17412C12.6682 9.17484 12.6691 9.17529 12.6701 9.17539H13.6931C13.7236 9.17449 13.7539 9.18042 13.7817 9.19276C13.8096 9.2051 13.8344 9.22353 13.8542 9.24671C13.8741 9.26989 13.8885 9.29722 13.8965 9.32672C13.9045 9.35621 13.9058 9.38712 13.9003 9.41719C13.8897 9.4833 13.8565 9.54363 13.8063 9.58777C13.7561 9.63192 13.6921 9.6571 13.6254 9.65898H12.3558C12.3215 9.65946 12.2876 9.65238 12.2564 9.63824C12.2251 9.6241 12.1974 9.60325 12.1751 9.57716C12.1528 9.55107 12.1365 9.52038 12.1273 9.48727C12.1182 9.45416 12.1164 9.41943 12.1221 9.38555L12.4294 7.19336C12.4416 7.11861 12.4794 7.05046 12.5363 7.00058C12.5931 6.95069 12.6655 6.92218 12.7409 6.91992H14.0101C14.0403 6.9192 14.0702 6.92519 14.0978 6.93744C14.1254 6.9497 14.1499 6.96793 14.1697 6.99081C14.1894 7.0137 14.2038 7.04068 14.2119 7.06982C14.22 7.09897 14.2216 7.12955 14.2165 7.15937ZM15.6964 6.90898C16.0442 6.90898 16.4944 6.91367 16.9462 6.92109C17.4937 6.93008 17.9727 7.18242 18.2602 7.61289C18.5671 8.07711 18.8431 8.56124 19.0862 9.06211C19.2147 9.32461 18.9783 9.66641 18.6687 9.66641H15.3487L15.6964 6.90898Z" fill="#1455AC"/>
<path id="Vector_5" d="M8.85444 8.24707H8.23877L8.35567 7.40175H8.97095C8.97095 7.40175 9.42257 7.37246 9.34853 7.82441C9.35048 7.82441 9.29865 8.24707 8.85444 8.24707Z" fill="#1455AC"/>
</g>
<defs>
<clipPath id="clip0_1003_4935">
<rect width="19.9396" height="20" fill="white" transform="translate(0.385742)"/>
</clipPath>
</defs>
</svg>
