<svg width="20" height="17" viewBox="0 0 20 17" fill="none" xmlns="http://www.w3.org/2000/svg">
<path d="M17.6087 2.78304H15.5217L14.3696 1.04381C13.9348 0.391602 13.1739 0.000274658 12.3913 0.000274658H7.6087C6.82609 0.000274658 6.06522 0.391602 5.63043 1.04381L4.47826 2.78304H2.3913C1.06522 2.78304 0 3.84832 0 5.17449V13.6098C0 14.9359 1.06522 16.0012 2.3913 16.0012H17.6087C18.9348 16.0012 20 14.9359 20 13.6098V5.17449C20 3.84832 18.9348 2.78304 17.6087 2.78304ZM10 14.0446C7.02174 14.0446 4.6087 11.6314 4.6087 8.65295C4.6087 5.67452 7.02174 3.28307 10 3.28307C12.9783 3.28307 15.3913 5.69626 15.3913 8.67469C15.3913 11.6314 12.9783 14.0446 10 14.0446ZM17.3043 6.1528C17.2826 6.1528 17.2609 6.1528 17.2174 6.1528H16.3478C15.9565 6.13106 15.6522 5.80496 15.6739 5.41363C15.6957 5.04404 15.9783 4.76142 16.3478 4.73968H17.2174C17.6087 4.71794 17.9348 5.0223 17.9565 5.41363C17.9783 5.80496 17.6957 6.13106 17.3043 6.1528Z" fill="#1B7FED"/>
</svg>
