<svg width="25" height="25" viewBox="0 0 25 25" fill="none" xmlns="http://www.w3.org/2000/svg">
<path d="M14.8547 8.82617L16.0547 10.0262L9.25469 16.8262L8.05469 15.6262L14.8547 8.82617ZM4.05469 4.82617H20.0547C21.1647 4.82617 22.0547 5.71617 22.0547 6.82617V10.8262C21.5243 10.8262 21.0155 11.0369 20.6405 11.412C20.2654 11.787 20.0547 12.2957 20.0547 12.8262C20.0547 13.3566 20.2654 13.8653 20.6405 14.2404C21.0155 14.6155 21.5243 14.8262 22.0547 14.8262V18.8262C22.0547 19.9362 21.1647 20.8262 20.0547 20.8262H4.05469C3.52425 20.8262 3.01555 20.6155 2.64047 20.2404C2.2654 19.8653 2.05469 19.3566 2.05469 18.8262V14.8262C3.16469 14.8262 4.05469 13.9362 4.05469 12.8262C4.05469 12.2957 3.84397 11.787 3.4689 11.412C3.09383 11.0369 2.58512 10.8262 2.05469 10.8262V6.82617C2.05469 6.29574 2.2654 5.78703 2.64047 5.41196C3.01555 5.03689 3.52425 4.82617 4.05469 4.82617ZM4.05469 6.82617V9.36617C4.66237 9.71657 5.16704 10.2208 5.51794 10.8282C5.86884 11.4356 6.05358 12.1247 6.05358 12.8262C6.05358 13.5276 5.86884 14.2167 5.51794 14.8241C5.16704 15.4315 4.66237 15.9358 4.05469 16.2862V18.8262H20.0547V16.2862C19.447 15.9358 18.9423 15.4315 18.5914 14.8241C18.2405 14.2167 18.0558 13.5276 18.0558 12.8262C18.0558 12.1247 18.2405 11.4356 18.5914 10.8282C18.9423 10.2208 19.447 9.71657 20.0547 9.36617V6.82617H4.05469ZM9.55469 8.82617C10.3847 8.82617 11.0547 9.49617 11.0547 10.3262C11.0547 11.1562 10.3847 11.8262 9.55469 11.8262C8.72469 11.8262 8.05469 11.1562 8.05469 10.3262C8.05469 9.49617 8.72469 8.82617 9.55469 8.82617ZM14.5547 13.8262C15.3847 13.8262 16.0547 14.4962 16.0547 15.3262C16.0547 16.1562 15.3847 16.8262 14.5547 16.8262C13.7247 16.8262 13.0547 16.1562 13.0547 15.3262C13.0547 14.4962 13.7247 13.8262 14.5547 13.8262Z" fill="#1455AC"/>
</svg>
