<svg width="70" height="70" viewBox="0 0 70 70" fill="none" xmlns="http://www.w3.org/2000/svg">
<g opacity="0.5">
<path d="M28.4355 30.623V43.7503H41.5648V30.623H28.4355Z" fill="#B6CDE9"/>
<path d="M43.752 18.1168C44.3056 17.7261 44.9504 17.5118 45.5934 17.4823C45.9488 17.4658 46.3024 17.503 46.6359 17.5911C47.9696 17.9416 49.1649 19.1239 49.2186 20.7398C49.2188 20.7522 49.2188 20.7688 49.2186 20.7812C49.2186 24.147 46.4682 26.2457 43.753 26.2457L43.752 18.1168Z" fill="#B6CDE9"/>
<path d="M32.8123 2.18555C27.3778 2.18555 22.9707 6.59264 22.9707 12.0272V17.4937H47.0311V12.0272C47.0311 6.59264 42.624 2.18555 37.1895 2.18555H32.8123Z" fill="#7A8EA7"/>
<path d="M25.1582 37.1875C17.2999 37.1875 10.9394 43.5458 10.9395 51.4041V66.7123C10.9372 67.3163 11.4249 67.8079 12.0289 67.8103H57.9707C58.5747 67.8079 59.0625 67.3163 59.0602 66.7123V51.4041C59.0602 43.5458 52.6997 37.1875 44.8414 37.1875H39.3748L34.9998 40.4665L30.6248 37.1875H25.1582Z" fill="#7A8EA7"/>
<path d="M26.25 18.1168C25.6964 17.7261 25.0516 17.5118 24.4086 17.4823C24.0531 17.4658 23.6995 17.503 23.3661 17.5911C22.0323 17.9416 20.8371 19.1239 20.7834 20.7398C20.7831 20.7522 20.7831 20.7688 20.7834 20.7812C20.7834 24.147 23.5338 26.2456 26.2489 26.2456L26.25 18.1168Z" fill="#B6CDE9"/>
<path d="M25.1582 17.4941V25.1568C25.1582 30.5914 29.5653 34.9984 34.9998 34.9984C40.4344 34.9984 44.8414 30.5914 44.8414 25.1568V17.4941H25.1582Z" fill="#DFE9F5"/>
<path d="M10.9395 61.248V66.7125C10.9372 67.3165 11.4249 67.8081 12.0289 67.8105H57.9707C58.5747 67.8081 59.0625 67.3165 59.0602 66.7125V61.248H10.9395Z" fill="#DFE9F5"/>
<path d="M21.8729 48.127C20.074 48.127 18.5938 49.6051 18.5938 51.404V66.7122C18.5926 67.0022 18.7068 67.281 18.9111 67.4869C19.1154 67.6928 19.3932 67.8091 19.6832 67.8102H50.3082C50.4526 67.8108 50.5956 67.7828 50.7291 67.7278C50.8626 67.6728 50.9838 67.592 51.0859 67.4899C51.188 67.3878 51.2688 67.2665 51.3238 67.133C51.3788 66.9995 51.4068 66.8565 51.4063 66.7122V51.404C51.4063 49.6051 49.9282 48.127 48.1293 48.127H21.8729Z" fill="#A3B9D2"/>
<path d="M27.3457 48.127V57.9686C27.3441 58.2588 27.4578 58.5377 27.6619 58.7441L29.8494 60.923C30.277 61.3528 30.9727 61.3528 31.4003 60.923L32.8123 59.5195L34.2244 60.923C34.652 61.3528 35.3477 61.3528 35.7753 60.923L37.1895 59.5195L38.6015 60.923C39.0291 61.3528 39.7248 61.3528 40.1524 60.923L42.3399 58.7441C42.5432 58.5374 42.6562 58.2585 42.6539 57.9686V48.127H27.3457Z" fill="#B6CDE9"/>
<path d="M28.4287 34.998C28.1404 35.0004 27.8648 35.1164 27.6616 35.321L25.4736 37.509C25.1431 37.8422 25.0619 38.3489 25.2717 38.7686L28.5498 45.3327C28.8365 45.9015 29.5466 46.1059 30.0919 45.7768L35.566 42.4987C36.2098 42.111 36.2799 41.2045 35.7033 40.7225L29.1392 35.2483C28.9394 35.0834 28.6877 34.9943 28.4287 34.998Z" fill="#A3B9D2"/>
<path d="M41.549 34.9982C41.2983 35.0004 41.056 35.0888 40.8627 35.2483L34.2986 40.7225C33.722 41.2045 33.792 42.111 34.4358 42.4987L39.9099 45.7767C40.4535 46.1 41.1572 45.8962 41.444 45.3327L44.7301 38.7686C44.9379 38.3472 44.8534 37.8402 44.5202 37.509L42.3402 35.321C42.1312 35.1106 41.8456 34.994 41.549 34.9982Z" fill="#A3B9D2"/>
<path d="M35.0005 14.2168C28.195 14.2168 23.5759 16.5176 23.5759 16.5176C23.3402 16.6352 23.1549 16.8339 23.0541 17.0772C22.9532 17.3206 22.9435 17.5921 23.0269 17.842C23.0269 17.842 23.3309 18.7873 23.9711 19.7476C24.6113 20.7078 25.7059 21.871 27.3464 21.871H42.6546C44.295 21.871 45.3896 20.7078 46.0298 19.7476C46.67 18.7873 46.974 17.842 46.974 17.842C47.0574 17.5921 47.0477 17.3206 46.9469 17.0772C46.846 16.8339 46.6607 16.6352 46.425 16.5176C46.425 16.5176 41.8059 14.2168 35.0005 14.2168Z" fill="#A3B9D2"/>
</g>
</svg>
