<svg width="109" height="116" viewBox="0 0 109 116" fill="none" xmlns="http://www.w3.org/2000/svg">
<g opacity="0.5" clip-path="url(#clip0_3902_7336)">
<path d="M54.499 102.367C80.7935 102.367 102.109 80.9972 102.109 54.6365C102.109 28.2758 80.7935 6.90625 54.499 6.90625C28.2046 6.90625 6.88867 28.2758 6.88867 54.6365C6.88867 80.9972 28.2046 102.367 54.499 102.367Z" fill="#CECECE"/>
<path d="M54.5 107.794C83.784 107.794 107.523 83.9952 107.523 54.6374C107.523 25.2796 83.784 1.48047 54.5 1.48047C25.216 1.48047 1.47656 25.2796 1.47656 54.6374C1.47656 83.9952 25.216 107.794 54.5 107.794Z" fill="#F3F3F3" stroke="white" stroke-width="3.7235"/>
<path d="M69.4843 67.4024C69.2011 67.403 68.9205 67.3474 68.6586 67.239C68.3967 67.1306 68.1587 66.9714 67.9583 66.7706C67.7579 66.5698 67.599 66.3313 67.4907 66.0689C67.3824 65.8064 67.3269 65.5252 67.3274 65.2414L67.3193 52.2912C67.3179 50.0473 66.8755 47.8251 66.0173 45.7514C65.1592 43.6778 63.9021 41.7933 62.3179 40.2056C60.7336 38.618 58.8533 37.3582 56.7841 36.4981C54.715 35.6381 52.4976 35.1948 50.2586 35.1934C48.0195 35.192 45.8027 35.6326 43.7347 36.49C41.6666 37.3474 39.7878 38.6048 38.2056 40.1905C36.6234 41.7762 35.3687 43.6591 34.5131 45.7317C33.6576 47.8042 33.218 50.0259 33.2194 52.2698L33.2275 65.211C33.2269 65.7832 32.9997 66.3315 32.5959 66.7355C32.1921 67.1395 31.6446 67.3662 31.0736 67.3658C30.5027 67.3654 29.9549 67.1379 29.5506 66.7334C29.1464 66.3288 28.9186 65.7802 28.9174 65.208L28.9093 52.2671C28.9156 46.5962 31.167 41.1623 35.1692 37.1584C39.1714 33.1545 44.5974 30.9077 50.256 30.9113C55.9146 30.9149 61.3434 33.1686 65.3505 37.1776C69.3577 41.1867 71.6159 46.6234 71.6292 52.2943L71.6374 65.2355C71.638 65.809 71.4117 66.3591 71.0081 66.7653C70.6045 67.1715 70.0566 67.4006 69.4843 67.4024Z" fill="white"/>
<path d="M18.0845 43.0298L27.3536 43.0356L27.3608 54.5714L18.0915 54.5658L18.0845 43.0298ZM73.3109 43.0648L82.58 43.0707L82.5876 54.6064L73.3185 54.6004L73.3109 43.0648Z" fill="#C4C4C4"/>
<path d="M81.4085 108.618L19.492 108.579C18.2144 108.575 16.9898 108.064 16.0859 107.158C15.182 106.252 14.6723 105.024 14.6682 103.744L14.6373 54.5473L86.1866 54.5923L86.2176 103.79C86.2171 105.069 85.7107 106.295 84.8094 107.2C83.908 108.105 82.6852 108.615 81.4085 108.618Z" fill="url(#paint0_linear_3902_7336)"/>
<path d="M86.1864 54.593C81.5811 53.4017 78.0056 51.4916 77.9872 48.681C77.9767 46.9201 79.6895 44.8135 82.5699 43.0632L50.0627 43.0603L18.0747 43.0229C20.906 44.7681 22.6815 46.8856 22.6739 48.6462C22.6583 51.4477 19.1543 53.3537 14.6373 54.5478L86.1864 54.593Z" fill="#6B6B6B"/>
<path d="M29.3106 73.3358C29.311 74.7083 29.8208 76.0322 30.7408 77.0501C31.6608 78.0679 32.9253 78.7069 34.2883 78.8427C35.6513 78.9785 37.0153 78.6014 38.115 77.7848C39.2147 76.9681 39.9715 75.7704 40.2381 74.4244C40.5048 73.0785 40.2622 71.6807 39.5576 70.5029C38.853 69.3251 37.7367 68.4515 36.426 68.052C35.1152 67.6526 33.7037 67.7559 32.466 68.3418C31.2282 68.9277 30.2528 69.9543 29.7294 71.222C29.4528 71.8921 29.3105 72.6103 29.3106 73.3358Z" fill="#8B8B8B"/>
<path d="M67.4184 73.3688C67.4191 74.6472 67.8622 75.8864 68.672 76.8752C69.4819 77.8639 70.6084 78.5412 71.8597 78.7914C73.111 79.0416 74.4096 78.8494 75.5343 78.2475C76.6589 77.6456 77.54 76.6712 78.0275 75.4904C78.5149 74.3096 78.5785 72.9954 78.2075 71.7718C77.8364 70.5482 77.0537 69.4909 75.9925 68.7799C74.9314 68.069 73.6576 67.7485 72.3882 67.873C71.1188 67.9975 69.9323 68.5594 69.0308 69.4628C68.5191 69.9755 68.1133 70.5843 67.8366 71.2545C67.56 71.9247 67.4179 72.6431 67.4184 73.3688Z" fill="#8B8B8B"/>
<path d="M75.0851 72.1587L70.7754 72.1563L70.7673 59.2061C70.7401 58.5812 70.6555 57.96 70.5147 57.3505C70.2992 56.4439 70.1911 55.5151 70.1927 54.5834L74.5032 54.5855C74.8869 56.0969 75.0798 57.6503 75.0772 59.2093L75.0851 72.1587ZM36.6755 72.135L32.3653 72.132L32.3573 59.1826C32.3794 58.2433 32.4889 57.3083 32.6844 56.3897C32.8147 55.7875 32.8954 55.1754 32.9256 54.5598L37.2355 54.5621C36.911 56.0829 36.7239 57.6301 36.6764 59.1849L36.6846 72.1351L36.6755 72.135Z" fill="#8B8B8B"/>
<path d="M25.8586 73.3333C25.8594 74.6114 26.3025 75.8502 27.1122 76.8387C27.9219 77.8272 29.0482 78.5042 30.2992 78.7543C31.5502 79.0044 32.8485 78.8122 33.9728 78.2104C35.0972 77.6086 35.9781 76.6344 36.4654 75.4539C36.9527 74.2734 37.0163 72.9595 36.6453 71.7362C36.2744 70.5129 35.4918 69.4558 34.431 68.745C33.3701 68.0342 32.0967 67.7137 30.8276 67.8382C29.5584 67.9626 28.3722 68.5242 27.4709 69.4274C26.438 70.4632 25.8581 71.868 25.8586 73.3333Z" fill="white"/>
<path d="M63.9724 73.3662C63.9728 74.7382 64.4825 76.0617 65.4023 77.0792C66.322 78.0967 67.5861 78.7354 68.9487 78.8711C70.3112 79.0068 71.6748 78.6298 72.7741 77.8134C73.8735 76.9971 74.63 75.7997 74.8966 74.4542C75.1631 73.1087 74.9206 71.7113 74.2163 70.5339C73.5119 69.3564 72.396 68.4831 71.0857 68.0837C69.7754 67.6844 68.3643 67.7876 67.127 68.3733C65.8896 68.9589 64.9144 69.9852 64.3911 71.2524C64.1146 71.9225 63.9723 72.6407 63.9724 73.3662Z" fill="white"/>
<path d="M69.4877 74.3144C69.2045 74.315 68.9238 74.2596 68.6619 74.1512C68.4 74.0428 68.1619 73.8836 67.9615 73.6828C67.7611 73.4819 67.6021 73.2434 67.4939 72.981C67.3857 72.7185 67.3303 72.4373 67.3308 72.1534L67.3229 59.204C67.3215 56.96 66.8791 54.7378 66.0209 52.6642C65.1628 50.5905 63.9057 48.7061 62.3215 47.1184C60.7372 45.5307 58.8569 44.2709 56.7877 43.4109C54.7186 42.5509 52.5012 42.1076 50.2622 42.1062C48.0231 42.1048 45.8063 42.5454 43.7383 43.4028C41.6702 44.2602 39.7914 45.5176 38.2092 47.1033C35.0138 50.3058 33.2202 54.6509 33.223 59.1826L33.231 72.1321C33.2326 72.4166 33.1781 72.6985 33.0707 72.9617C32.9632 73.2249 32.8048 73.4642 32.6047 73.6657C32.4046 73.8673 32.1667 74.0272 31.9046 74.1363C31.6426 74.2453 31.3615 74.3014 31.0776 74.3012C30.7937 74.3011 30.5126 74.2447 30.2504 74.1354C29.9882 74.026 29.75 73.8659 29.5496 73.6641C29.3492 73.4623 29.1905 73.2229 29.0827 72.9596C28.9748 72.6963 28.9199 72.4143 28.9211 72.1298L28.9131 59.1795C28.9206 53.5093 31.1725 48.0765 35.1746 44.0735C39.1767 40.0705 44.6021 37.8243 50.26 37.828C55.9179 37.8316 61.346 40.0848 65.353 44.0929C69.3601 48.1011 71.6187 53.5368 71.6331 59.207L71.6417 72.1562C71.6405 72.7285 71.4133 73.2768 71.0097 73.6812C70.6061 74.0856 70.0588 74.3133 69.4877 74.3144Z" fill="white"/>
<path d="M94.6872 35.8487C101.278 35.8487 106.621 30.4925 106.621 23.8853C106.621 17.2781 101.278 11.9219 94.6872 11.9219C88.0966 11.9219 82.7539 17.2781 82.7539 23.8853C82.7539 30.4925 88.0966 35.8487 94.6872 35.8487Z" fill="#9B9B9B" fill-opacity="0.7"/>
<path d="M94.3591 35.5205C100.95 35.5205 106.292 30.1643 106.292 23.5571C106.292 16.9499 100.95 11.5938 94.3591 11.5938C87.7685 11.5938 82.4258 16.9499 82.4258 23.5571C82.4258 30.1643 87.7685 35.5205 94.3591 35.5205Z" fill="url(#paint1_linear_3902_7336)"/>
<path d="M94.8517 27.7507L94.8515 24.2972L98.2964 24.2973C98.3773 24.2976 98.4575 24.2818 98.5324 24.2509C98.6072 24.22 98.6753 24.1747 98.7326 24.1174C98.7899 24.0601 98.8354 23.992 98.8664 23.9171C98.8975 23.8421 98.9135 23.7618 98.9135 23.6807C98.9135 23.5995 98.8975 23.5192 98.8664 23.4442C98.8354 23.3693 98.7899 23.3012 98.7326 23.2439C98.6753 23.1866 98.6072 23.1413 98.5324 23.1104C98.4575 23.0795 98.3773 23.0638 98.2964 23.064L94.8513 23.0641L94.8511 19.6106C94.8506 19.4474 94.7856 19.2911 94.6703 19.1759C94.555 19.0606 94.3988 18.9959 94.236 18.9959C94.0732 18.9959 93.9171 19.0606 93.8018 19.1758C93.6865 19.2911 93.6215 19.4474 93.6209 19.6106L93.6211 23.0642L90.1762 23.064C90.0953 23.0638 90.0151 23.0795 89.9403 23.1104C89.8654 23.1413 89.7974 23.1866 89.74 23.2439C89.6827 23.3012 89.6372 23.3693 89.6062 23.4442C89.5752 23.5192 89.5592 23.5995 89.5592 23.6807C89.5592 23.7618 89.5752 23.8421 89.6062 23.9171C89.6372 23.992 89.6827 24.0601 89.74 24.1174C89.7974 24.1747 89.8654 24.22 89.9403 24.2509C90.0151 24.2818 90.0953 24.2976 90.1762 24.2973L93.6211 24.2975L93.6212 27.751C93.6217 27.9142 93.6868 28.0705 93.8021 28.1857C93.9174 28.301 94.0735 28.3657 94.2363 28.3657C94.3991 28.3657 94.5553 28.301 94.6706 28.1857C94.7859 28.0705 94.8512 27.9139 94.8517 27.7507Z" fill="white" stroke="white" stroke-width="0.6206"/>
</g>
<defs>
<linearGradient id="paint0_linear_3902_7336" x1="50.4118" y1="54.5697" x2="50.378" y2="108.598" gradientUnits="userSpaceOnUse">
<stop stop-color="#C4C4C4"/>
<stop offset="1" stop-color="#6D6D6D" stop-opacity="0.69"/>
</linearGradient>
<linearGradient id="paint1_linear_3902_7336" x1="94.3591" y1="11.5937" x2="94.3591" y2="35.5205" gradientUnits="userSpaceOnUse">
<stop stop-color="#B7B7B7"/>
<stop offset="1" stop-color="#848484"/>
</linearGradient>
<clipPath id="clip0_3902_7336">
<rect width="109" height="116" fill="white"/>
</clipPath>
</defs>
</svg>
