<svg width="97" height="97" viewBox="0 0 97 97" fill="none" xmlns="http://www.w3.org/2000/svg">
<g opacity="0.2">
<path d="M87.0087 41.6133L79.1517 50.1978L80.4451 61.7731C80.5097 62.3551 80.2672 62.921 79.7984 63.2605C79.5074 63.4706 79.1841 63.5676 78.8446 63.5676C78.6182 63.5676 78.3919 63.5191 78.1817 63.4221L67.5602 58.6045L65.8789 59.3643L65.5556 56.519L74.3017 46.9645C75.4334 45.7035 75.7891 43.9898 75.2717 42.357C74.7544 40.7403 73.3964 39.5278 71.7312 39.2045L59.6709 36.731L60.4146 36.5855L66.1537 26.4651C66.4447 25.9478 66.9782 25.6406 67.5602 25.6406C68.1422 25.6406 68.6757 25.9478 68.9667 26.4651L74.4472 36.5855L85.8609 38.9296C86.7016 39.0428 87.1704 39.4631 87.3482 40.0128C87.5261 40.5625 87.3967 41.1768 87.0087 41.6133Z" fill="#334257"/>
<path d="M22.7305 46.9968L31.4443 56.519L31.121 59.3643L29.4397 58.6045L18.8182 63.4221C18.608 63.5191 18.3817 63.5676 18.1553 63.5676C17.8158 63.5676 17.4925 63.4706 17.2015 63.2605C16.7327 62.921 16.4902 62.3551 16.5548 61.7731L17.8482 50.1978L9.99118 41.6133C9.60318 41.1768 9.47384 40.5625 9.65168 40.0128C9.82951 39.4631 10.2983 39.0428 10.8642 38.9296L22.2778 36.5855L28.0332 26.4651C28.3242 25.9478 28.8577 25.6406 29.4397 25.6406C30.0217 25.6406 30.5552 25.9478 30.8462 26.4651L36.5853 36.5855L37.329 36.731L25.2687 39.1883C23.6035 39.5278 22.2455 40.7403 21.712 42.3893C21.2108 43.9898 21.5665 45.7035 22.7305 46.9968Z" fill="#334257"/>
<path d="M71.8933 44.8134L62.1772 55.4026L63.7938 69.6939C63.8585 70.2274 63.6322 70.7448 63.1957 71.0519C62.937 71.2459 62.6298 71.3429 62.3227 71.3429C62.1125 71.3429 61.9023 71.2944 61.7245 71.2136L48.6295 65.2643L35.5345 71.2136C35.0657 71.4399 34.4837 71.3753 34.0633 71.0519C33.6268 70.7448 33.4167 70.2274 33.4652 69.6939L35.0818 55.4026L25.3657 44.8134C25.01 44.4093 24.8968 43.8596 25.0585 43.3584C25.2202 42.8573 25.6567 42.4693 26.174 42.3723L40.2552 39.5108L47.3523 26.9978C47.8858 26.0763 49.3893 26.0763 49.9228 26.9978L57.02 39.5108L71.1012 42.3723C71.6185 42.4693 72.055 42.8573 72.2167 43.3584C72.3622 43.8758 72.249 44.4254 71.8933 44.8134Z" fill="#334257"/>
</g>
</svg>
