<svg width="20" height="21" viewBox="0 0 20 21" fill="none" xmlns="http://www.w3.org/2000/svg">
<g clip-path="url(#clip0_1312_1731)">
<path d="M8.19471 15.744C8.82941 15.1488 8.92716 14.2165 8.41305 13.6616C7.89893 13.1068 6.96763 13.1396 6.33294 13.7348C5.69824 14.33 5.60049 15.2623 6.1146 15.8171C6.62872 16.3719 7.56002 16.3392 8.19471 15.744Z" fill="#1455AC"/>
<path d="M16.5903 15.744C17.225 15.1488 17.3228 14.2165 16.8087 13.6616C16.2946 13.1068 15.3633 13.1396 14.7286 13.7348C14.0939 14.33 13.9961 15.2623 14.5102 15.8171C15.0243 16.3719 15.9556 16.3392 16.5903 15.744Z" fill="#1455AC"/>
<path d="M1.53696 8.45996C1.53696 8.09159 1.23996 7.79297 0.873583 7.79297C0.50721 7.79297 0.210205 8.09159 0.210205 8.45996C0.210205 8.82833 0.50721 9.12695 0.873583 9.12695C1.23996 9.12695 1.53696 8.82833 1.53696 8.45996Z" fill="#1455AC"/>
<path d="M13.4534 14.6008C13.6891 13.4289 14.7895 12.4977 15.9723 12.4977C17.1111 12.4977 17.932 13.3613 17.9094 14.4719C19.1411 14.5043 19.484 12.8727 19.484 12.8727C19.5876 12.4164 19.7426 11.527 19.8723 10.6539C19.9148 10.3844 19.8821 10.1082 19.7779 9.85625C19.4559 9.10016 19.0669 8.37483 18.6154 7.68906C18.1882 7.04805 17.4718 6.66836 16.6541 6.65469C16.1664 6.64687 15.6876 6.64219 15.3261 6.64219L15.323 6.63906C15.2764 5.85469 14.708 5.25391 13.9101 5.18203C13.3909 5.13555 11.3345 5.10156 10.3475 5.10156C9.95531 5.10156 9.39268 5.10703 8.82344 5.11641V5.11406H8.81878H1.97477C1.88766 5.11401 1.8014 5.13123 1.72091 5.16474C1.64042 5.19826 1.56729 5.2474 1.5057 5.30936C1.44411 5.37133 1.39526 5.4449 1.36195 5.52587C1.32863 5.60684 1.31152 5.69362 1.31157 5.78125V5.78438C1.31157 5.9605 1.38111 6.1294 1.5049 6.25394C1.6287 6.37847 1.79659 6.44844 1.97166 6.44844H3.35126C3.51738 6.46076 3.67273 6.53581 3.78615 6.65853C3.89957 6.78126 3.96268 6.94258 3.96282 7.11016V7.11367C3.96307 7.20139 3.94613 7.28829 3.91297 7.36941C3.8798 7.45053 3.83106 7.52428 3.76953 7.58643C3.708 7.64858 3.6349 7.69792 3.5544 7.73162C3.4739 7.76531 3.38758 7.78271 3.30039 7.78281H2.59293C2.41714 7.78281 2.24855 7.85306 2.12425 7.97811C1.99995 8.10316 1.93011 8.27276 1.93011 8.44961C1.93006 8.53721 1.94717 8.62396 1.98046 8.7049C2.01374 8.78585 2.06256 8.8594 2.12411 8.92136C2.18566 8.98332 2.25875 9.03247 2.33919 9.066C2.41963 9.09954 2.50585 9.1168 2.59293 9.1168H3.30039C3.47628 9.1168 3.64497 9.18709 3.76935 9.31221C3.89372 9.43733 3.96359 9.60704 3.96359 9.78398C3.96359 9.96093 3.89372 10.1306 3.76935 10.2558C3.64497 10.3809 3.47628 10.4512 3.30039 10.4512H0.653801C0.477977 10.4512 0.309348 10.5214 0.184985 10.6464C0.0606217 10.7715 -0.00929647 10.9411 -0.00939941 11.118C-0.00939941 11.2949 0.0604733 11.4646 0.184848 11.5897C0.309222 11.7149 0.47791 11.7852 0.653801 11.7852H3.30039C3.47628 11.7852 3.64497 11.8554 3.76935 11.9806C3.89372 12.1057 3.96359 12.2754 3.96359 12.4523C3.96339 12.6292 3.89342 12.7987 3.76907 12.9236C3.64472 13.0486 3.47615 13.1187 3.30039 13.1187H2.48187C2.30609 13.1187 2.1375 13.189 2.0132 13.314C1.88889 13.4391 1.81906 13.6087 1.81906 13.7855C1.81906 13.9624 1.88888 14.1321 2.01317 14.2572C2.13746 14.3823 2.30605 14.4526 2.48187 14.4527L5.09352 14.4508L5.31057 13.9066C5.75517 13.0816 6.63969 12.4973 7.57625 12.4973C8.75937 12.4973 9.59964 13.4293 9.50722 14.602H13.453M6.87539 8.09336H5.98542C5.98458 8.09343 5.98379 8.09377 5.98316 8.09433C5.98253 8.0949 5.98209 8.09565 5.98193 8.09648L5.9 8.68242C5.89988 8.68289 5.89987 8.68338 5.89997 8.68386C5.90007 8.68433 5.90028 8.68478 5.90058 8.68516C5.90088 8.68554 5.90127 8.68584 5.90171 8.68604C5.90214 8.68625 5.90262 8.68634 5.90311 8.68633H6.56553C6.59804 8.6854 6.63036 8.69178 6.66011 8.70501C6.68986 8.71824 6.7163 8.73798 6.73751 8.76279C6.75871 8.7876 6.77415 8.81686 6.78268 8.84844C6.79122 8.88002 6.79265 8.91311 6.78686 8.94531C6.77551 9.01609 6.73998 9.08067 6.6864 9.12794C6.63283 9.17521 6.56454 9.20221 6.49331 9.2043H5.83011C5.8293 9.20428 5.82851 9.20454 5.82787 9.20504C5.82724 9.20553 5.82679 9.20624 5.82661 9.20703L5.7078 10.0582C5.69645 10.129 5.66092 10.1936 5.60734 10.2408C5.55377 10.2881 5.48548 10.3151 5.41425 10.3172C5.38174 10.3181 5.34944 10.3118 5.3197 10.2985C5.28997 10.2853 5.26354 10.2655 5.24236 10.2407C5.22119 10.2159 5.20579 10.1866 5.1973 10.155C5.18882 10.1235 5.18745 10.0904 5.19331 10.0582L5.50161 7.85039C5.51383 7.77564 5.5515 7.70749 5.60817 7.65761C5.66483 7.60772 5.73698 7.57921 5.81225 7.57695H6.94722C6.97972 7.57601 7.01203 7.58239 7.04176 7.59562C7.0715 7.60885 7.09793 7.6286 7.1191 7.65342C7.14028 7.67824 7.15568 7.70752 7.16416 7.73909C7.17265 7.77067 7.17402 7.80376 7.16816 7.83594C7.15665 7.90636 7.12114 7.97057 7.06772 8.01754C7.0143 8.0645 6.9463 8.09131 6.87539 8.09336ZM9.25406 7.75273C9.34651 7.83525 9.41157 7.94433 9.44044 8.06523C9.47272 8.2022 9.47799 8.3442 9.45597 8.4832C9.42897 8.6995 9.34098 8.9035 9.20241 9.07109C9.11779 9.17174 9.01031 9.2504 8.88906 9.30039C8.88852 9.30097 8.88821 9.30174 8.88821 9.30254C8.88821 9.30334 8.88852 9.30411 8.88906 9.30469L9.10961 9.94492C9.16902 10.1168 9.01642 10.3172 8.82655 10.3172H8.81412C8.76806 10.3185 8.72276 10.3051 8.68478 10.2789C8.6468 10.2526 8.61812 10.2148 8.60289 10.1711L8.33614 9.38984C8.33576 9.38926 8.33524 9.38877 8.33463 9.38843C8.33402 9.38809 8.33334 9.3879 8.33264 9.38789H7.76574C7.76495 9.38793 7.76419 9.38822 7.76356 9.38871C7.76294 9.3892 7.76248 9.38986 7.76224 9.39062L7.66905 10.0578C7.6577 10.1286 7.62218 10.1932 7.5686 10.2404C7.51502 10.2877 7.44674 10.3147 7.3755 10.3168C7.343 10.3177 7.3107 10.3114 7.28096 10.2981C7.25122 10.2849 7.2248 10.2652 7.20362 10.2403C7.18244 10.2155 7.16705 10.1862 7.15856 10.1547C7.15007 10.1231 7.14871 10.09 7.15457 10.0578L7.46287 7.85C7.47509 7.77525 7.51275 7.7071 7.56942 7.65722C7.62609 7.60733 7.69824 7.57882 7.7735 7.57656H8.65104C8.65104 7.57656 9.03623 7.56445 9.25406 7.75273ZM11.6692 7.81758C11.6587 7.88369 11.6255 7.94402 11.5755 7.98816C11.5254 8.03231 11.4616 8.05749 11.3951 8.05937H10.3743C10.3735 8.05942 10.3727 8.0597 10.3721 8.06019C10.3715 8.06068 10.371 8.06135 10.3708 8.06211L10.2896 8.6418C10.2895 8.64227 10.2895 8.64276 10.2896 8.64323C10.2897 8.64371 10.2899 8.64415 10.2902 8.64453C10.2905 8.64491 10.2909 8.64521 10.2913 8.64542C10.2918 8.64562 10.2923 8.64572 10.2927 8.6457H11.0856C11.116 8.6448 11.1462 8.65073 11.174 8.66307C11.2018 8.67541 11.2265 8.69384 11.2463 8.71702C11.2661 8.7402 11.2805 8.76753 11.2884 8.79703C11.2964 8.82653 11.2976 8.85743 11.2922 8.8875C11.2816 8.95361 11.2485 9.01394 11.1984 9.05809C11.1484 9.10223 11.0846 9.12741 11.0181 9.1293H10.2248C10.224 9.12934 10.2232 9.12962 10.2226 9.13011C10.222 9.1306 10.2215 9.13127 10.2213 9.13203L10.1238 9.82969C10.1238 9.83066 10.1242 9.8316 10.1248 9.83232C10.1255 9.83304 10.1264 9.8335 10.1273 9.83359H11.1474C11.1777 9.83269 11.2079 9.83862 11.2357 9.85096C11.2635 9.8633 11.2882 9.88173 11.308 9.90491C11.3278 9.92809 11.3422 9.95542 11.3501 9.98492C11.3581 10.0144 11.3594 10.0453 11.3539 10.0754C11.3434 10.1415 11.3102 10.2018 11.2602 10.246C11.2101 10.2901 11.1463 10.3153 11.0798 10.3172H9.81397C9.77982 10.3177 9.74598 10.3106 9.71484 10.2964C9.68371 10.2823 9.65605 10.2615 9.63382 10.2354C9.61159 10.2093 9.59534 10.1786 9.58621 10.1455C9.57708 10.1124 9.5753 10.0776 9.581 10.0437L9.88736 7.85156C9.89958 7.77681 9.93724 7.70866 9.99391 7.65878C10.0506 7.6089 10.1227 7.58038 10.198 7.57812H11.4634C11.4935 7.57741 11.5233 7.58339 11.5508 7.59565C11.5783 7.6079 11.6028 7.62613 11.6225 7.64902C11.6421 7.6719 11.6565 7.69889 11.6646 7.72803C11.6727 7.75717 11.6743 7.78775 11.6692 7.81758ZM13.7897 7.81758C13.7791 7.88369 13.746 7.94402 13.6959 7.98816C13.6459 8.03231 13.5821 8.05749 13.5155 8.05937H12.4947C12.4939 8.05942 12.4932 8.0597 12.4926 8.06019C12.4919 8.06068 12.4915 8.06135 12.4912 8.06211L12.4105 8.6418C12.4104 8.64227 12.4103 8.64276 12.4104 8.64323C12.4105 8.64371 12.4108 8.64415 12.4111 8.64453C12.4114 8.64491 12.4117 8.64521 12.4122 8.64542C12.4126 8.64562 12.4131 8.64572 12.4136 8.6457H13.2065C13.2368 8.6448 13.267 8.65073 13.2948 8.66307C13.3226 8.67541 13.3473 8.69384 13.3671 8.71702C13.3869 8.7402 13.4013 8.76753 13.4092 8.79703C13.4172 8.82653 13.4185 8.85743 13.413 8.8875C13.4025 8.95361 13.3693 9.01394 13.3193 9.05809C13.2692 9.10223 13.2054 9.12741 13.1389 9.1293H12.3452C12.3444 9.12934 12.3437 9.12962 12.3431 9.13011C12.3424 9.1306 12.342 9.13127 12.3417 9.13203L12.2443 9.82969C12.2443 9.83066 12.2446 9.8316 12.2453 9.83232C12.2459 9.83304 12.2468 9.8335 12.2478 9.83359H13.2678C13.2982 9.83269 13.3284 9.83862 13.3562 9.85096C13.3839 9.8633 13.4086 9.88173 13.4284 9.90491C13.4482 9.92809 13.4626 9.95542 13.4706 9.98492C13.4785 10.0144 13.4798 10.0453 13.4744 10.0754C13.4638 10.1415 13.4307 10.2018 13.3806 10.246C13.3306 10.2901 13.2668 10.3153 13.2003 10.3172H11.9344C11.9003 10.3177 11.8664 10.3106 11.8353 10.2964C11.8042 10.2823 11.7765 10.2615 11.7543 10.2354C11.732 10.2093 11.7158 10.1786 11.7067 10.1455C11.6975 10.1124 11.6958 10.0776 11.7015 10.0437L12.0078 7.85156C12.02 7.77681 12.0577 7.70866 12.1144 7.65878C12.171 7.6089 12.2432 7.58038 12.3184 7.57812H13.5839C13.614 7.57741 13.6438 7.58339 13.6713 7.59565C13.6988 7.6079 13.7233 7.62613 13.7429 7.64902C13.7626 7.6719 13.777 7.69889 13.7851 7.72803C13.7932 7.75717 13.7947 7.78775 13.7897 7.81758ZM15.2652 7.56719C15.6119 7.56719 16.0608 7.57187 16.5112 7.5793C17.0571 7.58828 17.5347 7.84062 17.8213 8.27109C18.1274 8.73531 18.4025 9.21945 18.6449 9.72031C18.773 9.98281 18.5373 10.3246 18.2286 10.3246H14.9184L15.2652 7.56719Z" fill="#1455AC"/>
<path d="M8.44368 8.90039H7.82983L7.94639 8.05507H8.55984C8.55984 8.05507 9.01012 8.02578 8.93631 8.47773C8.93825 8.47773 8.88658 8.90039 8.44368 8.90039Z" fill="#1455AC"/>
</g>
<defs>
<clipPath id="clip0_1312_1731">
<rect width="19.8805" height="20" fill="white" transform="translate(0 0.65625)"/>
</clipPath>
</defs>
</svg>
