<svg width="64" height="64" viewBox="0 0 64 64" fill="none" xmlns="http://www.w3.org/2000/svg">
<g clip-path="url(#clip0_4053_3499)">
<path fill-rule="evenodd" clip-rule="evenodd" d="M31.9999 0C49.673 0 63.9999 14.3269 63.9999 32C63.9999 49.6731 49.673 64 31.9999 64C14.3267 64 0 49.6731 0 32C0 14.3269 14.3267 0 31.9999 0ZM18.8867 25.9433C18.1524 25.9433 17.5534 26.5421 17.5534 27.2765V47.3444C17.5534 48.0788 18.1524 48.6776 18.8867 48.6776H45.1131C45.8475 48.6776 46.4464 48.0786 46.4464 47.3444V27.2766C46.4464 26.5422 45.8475 25.9434 45.1131 25.9434H43.2166V21.739C43.2166 18.6521 41.9554 15.8475 39.9234 13.8155C37.8914 11.7834 35.0866 10.5223 31.9999 10.5223C28.9131 10.5223 26.1084 11.7835 24.0764 13.8154C22.0444 15.8474 20.7831 18.6521 20.7831 21.7389V25.9433H18.8867ZM25.0497 25.9433H38.95V21.7389C38.95 19.8299 38.1674 18.0928 36.9066 16.8321C35.646 15.5714 33.9089 14.7887 31.9999 14.7887C30.0909 14.7887 28.3538 15.5714 27.0931 16.832C25.8325 18.0928 25.0499 19.8299 25.0499 21.7389L25.0497 25.9433ZM34.1332 41.0856V35.3355C34.1332 34.1574 33.1781 33.2023 31.9999 33.2023C30.8217 33.2023 29.8666 34.1574 29.8666 35.3355V41.0856C29.8666 42.2639 30.8217 43.2189 31.9999 43.2189C33.1781 43.2189 34.1332 42.2637 34.1332 41.0856Z" fill="url(#paint0_linear_4053_3499)"/>
</g>
<defs>
<linearGradient id="paint0_linear_4053_3499" x1="31.9999" y1="64" x2="31.9999" y2="0" gradientUnits="userSpaceOnUse">
<stop stop-color="#0D609C"/>
<stop offset="1" stop-color="#0A98EC"/>
</linearGradient>
<clipPath id="clip0_4053_3499">
<rect width="64" height="64" fill="white"/>
</clipPath>
</defs>
</svg>
