<svg width="20" height="21" viewBox="0 0 20 21" fill="none" xmlns="http://www.w3.org/2000/svg">
<g clip-path="url(#clip0_1312_1703)">
<path d="M14.1094 14.7606C14.0817 14.6847 14.0257 14.6224 13.9531 14.5868C13.8805 14.5513 13.7969 14.5452 13.72 14.57C13.0253 14.7934 11.06 13.7762 8.96999 11.6872C6.87999 9.59812 5.86406 7.63218 6.08718 6.93718C6.11124 6.8604 6.10475 6.7773 6.06907 6.70518C6.0334 6.63306 5.97127 6.57748 5.89564 6.55002C5.82001 6.52255 5.73671 6.52532 5.66306 6.55774C5.58942 6.59016 5.53112 6.64973 5.50031 6.72406L0.022806 20.2281C7.4375e-05 20.2849 -0.00549031 20.3471 0.00680184 20.407C0.019094 20.467 0.0487024 20.522 0.0919565 20.5652C0.135211 20.6085 0.190208 20.6381 0.250131 20.6504C0.310053 20.6627 0.372266 20.6571 0.429056 20.6344L13.9331 15.1581C14.0084 15.1277 14.0688 15.0692 14.1017 14.9951C14.1346 14.9209 14.1374 14.8368 14.1094 14.7606Z" fill="#2B68EF"/>
<path d="M11.4584 8.15626C11.4522 8.15626 11.4456 8.15626 11.439 8.15626C11.3981 8.15375 11.358 8.14319 11.3211 8.12518C11.2842 8.10717 11.2512 8.08207 11.224 8.05131C11.1968 8.02055 11.1759 7.98473 11.1626 7.9459C11.1492 7.90706 11.1437 7.86599 11.1462 7.82501C11.1512 7.74594 11.2584 6.20407 12.18 5.66501C12.279 5.09907 12.6078 4.35001 13.3906 3.38938C13.4159 3.35594 13.4478 3.32795 13.4841 3.30707C13.5205 3.28619 13.5608 3.27285 13.6024 3.26785C13.6441 3.26285 13.6863 3.26629 13.7266 3.27796C13.7669 3.28963 13.8044 3.3093 13.837 3.33579C13.8695 3.36228 13.8964 3.39505 13.916 3.43215C13.9356 3.46924 13.9475 3.5099 13.951 3.55171C13.9546 3.59351 13.9497 3.6356 13.9366 3.67547C13.9235 3.71534 13.9026 3.75216 13.875 3.78376C13.4384 4.28307 13.0972 4.85834 12.8684 5.48094H12.92C13.8375 5.49876 14.0612 5.92594 14.1128 6.17907C14.1373 6.41149 14.0871 6.64567 13.9695 6.84763C13.8519 7.04959 13.673 7.20882 13.4587 7.30219C13.2735 7.36913 13.0711 7.37188 12.8841 7.30999C12.697 7.24811 12.5362 7.12518 12.4275 6.96094C12.3219 6.82104 12.2448 6.66178 12.2006 6.49219C11.9515 6.90972 11.8039 7.37998 11.77 7.86501C11.7646 7.94399 11.7294 8.01798 11.6716 8.07204C11.6138 8.1261 11.5376 8.1562 11.4584 8.15626ZM12.7709 6.11376C12.7729 6.28101 12.8261 6.44362 12.9234 6.57969C13.0365 6.72719 13.1662 6.74782 13.2025 6.73188C13.2868 6.69488 13.3592 6.63532 13.4118 6.55978C13.4644 6.48424 13.4951 6.39565 13.5006 6.30376C13.4815 6.21001 13.2906 6.11282 12.9069 6.10563C12.8614 6.10418 12.8159 6.1069 12.7709 6.11376Z" fill="#4294FF"/>
<path d="M13.9794 11.1472C13.921 11.1472 13.8637 11.1309 13.8141 11.1C13.7645 11.0691 13.7246 11.025 13.6988 10.9726C13.673 10.9201 13.6625 10.8615 13.6683 10.8034C13.6742 10.7453 13.6962 10.69 13.7319 10.6437C13.7878 10.5716 14.3256 9.93437 15.9837 9.85718C16.1142 9.85285 16.2434 9.83002 16.3675 9.78937C16.3456 9.77343 16.3256 9.75812 16.3078 9.74281C16.1483 9.6253 16.0258 9.46463 15.9546 9.27974C15.8835 9.09486 15.8667 8.89348 15.9062 8.69937C15.9437 8.56116 16.0213 8.43718 16.1293 8.34315C16.2373 8.24913 16.3708 8.18929 16.5128 8.17124C16.6667 8.14167 16.8257 8.15603 16.9718 8.21268C17.1179 8.26933 17.245 8.36598 17.3387 8.49156C17.4401 8.63796 17.5049 8.80648 17.5279 8.98305C17.5508 9.15962 17.5312 9.33912 17.4706 9.50655C18.16 9.49629 18.8358 9.31366 19.4366 8.97531C19.4735 8.95607 19.5138 8.9444 19.5553 8.94098C19.5968 8.93756 19.6385 8.94246 19.6781 8.95539C19.7176 8.96832 19.7542 8.98902 19.7857 9.01628C19.8171 9.04353 19.8428 9.07679 19.8612 9.11411C19.8796 9.15143 19.8904 9.19205 19.8929 9.23359C19.8954 9.27513 19.8896 9.31675 19.8758 9.35601C19.862 9.39527 19.8405 9.43139 19.8126 9.46223C19.7846 9.49307 19.7508 9.51802 19.7131 9.53562C18.4944 10.1384 17.6447 10.1987 17.0831 10.0897C16.7813 10.3386 16.4037 10.4773 16.0125 10.4831C14.6556 10.5456 14.2312 11.0219 14.2266 11.0269C14.1972 11.0644 14.1597 11.0948 14.1169 11.1157C14.0741 11.1365 14.027 11.1473 13.9794 11.1472ZM16.6675 8.78374C16.6482 8.78389 16.629 8.78545 16.61 8.78843C16.5366 8.79999 16.5184 8.83156 16.5097 8.86406C16.5036 8.94159 16.5186 9.01932 16.5531 9.08905C16.5875 9.15878 16.6401 9.21795 16.7053 9.2603C16.7528 9.29904 16.8043 9.33247 16.8591 9.35999C16.8969 9.28249 16.9149 9.19678 16.9114 9.11059C16.908 9.0244 16.8831 8.94043 16.8391 8.86624C16.8197 8.83915 16.7939 8.81738 16.7639 8.80296C16.7339 8.78853 16.7007 8.78192 16.6675 8.78374Z" fill="#4294FF"/>
<path d="M19.8484 3.01914L18.6875 2.32289L18.605 0.971641C18.6012 0.913527 18.5812 0.857638 18.5473 0.810282C18.5134 0.762925 18.4669 0.725985 18.4131 0.703628C18.3594 0.681272 18.3004 0.674389 18.2429 0.683756C18.1854 0.693123 18.1317 0.718368 18.0878 0.756641L17.0675 1.64414L15.7578 1.30695C15.7013 1.29237 15.6419 1.2939 15.5862 1.31135C15.5305 1.32881 15.4809 1.36151 15.4428 1.40573C15.4048 1.44996 15.3799 1.50396 15.3709 1.56161C15.362 1.61927 15.3693 1.67827 15.3922 1.73195L15.9209 2.97664L15.1956 4.11789C15.1643 4.16709 15.1474 4.22407 15.1468 4.28238C15.1462 4.3407 15.1619 4.39802 15.1922 4.44786C15.2225 4.4977 15.2661 4.53808 15.3181 4.56443C15.3701 4.59078 15.4285 4.60205 15.4866 4.59695L16.8341 4.47852L17.6953 5.52133C17.7325 5.56625 17.7815 5.59987 17.8367 5.61841C17.892 5.63695 17.9514 5.63966 18.0081 5.62623C18.0648 5.61281 18.1166 5.58378 18.1577 5.54243C18.1988 5.50109 18.2276 5.44907 18.2406 5.39227L18.5444 4.07445L19.8022 3.57758C19.8564 3.55616 19.9036 3.52001 19.9383 3.47321C19.973 3.42641 19.994 3.37082 19.9988 3.31273C20.0036 3.25464 19.9921 3.19636 19.9655 3.14448C19.939 3.0926 19.8984 3.04918 19.8484 3.01914Z" fill="#4294FF"/>
<path d="M10 5.96875C10.5178 5.96875 10.9375 5.54902 10.9375 5.03125C10.9375 4.51348 10.5178 4.09375 10 4.09375C9.48223 4.09375 9.0625 4.51348 9.0625 5.03125C9.0625 5.54902 9.48223 5.96875 10 5.96875Z" fill="#4294FF"/>
<path d="M16.8372 11.9479L17.5916 12.7026C17.6502 12.7612 17.7297 12.7941 17.8125 12.7941C17.8954 12.7941 17.9749 12.7612 18.0335 12.7026L18.7878 11.9479C18.8464 11.8893 18.8793 11.8098 18.8793 11.727C18.8793 11.6441 18.8464 11.5646 18.7878 11.506L18.0335 10.7517C17.9749 10.6931 17.8954 10.6602 17.8125 10.6602C17.7297 10.6602 17.6502 10.6931 17.5916 10.7517L16.8372 11.506C16.7786 11.5646 16.7457 11.6441 16.7457 11.727C16.7457 11.8098 16.7786 11.8893 16.8372 11.9479Z" fill="#4294FF"/>
<path d="M6.67219 1.92601C6.63374 1.91165 6.59283 1.905 6.55181 1.90644C6.51079 1.90789 6.47045 1.9174 6.43311 1.93443C6.39576 1.95147 6.36214 1.97569 6.33415 2.00572C6.30617 2.03575 6.28437 2.071 6.27 2.10945C6.25564 2.1479 6.24899 2.18881 6.25044 2.22983C6.25188 2.27085 6.26139 2.31119 6.27843 2.34853C6.29546 2.38588 6.31968 2.41951 6.34971 2.44749C6.37974 2.47548 6.41499 2.49727 6.45344 2.51164C6.70747 2.58331 6.94185 2.71186 7.13883 2.88756C7.3358 3.06325 7.4902 3.28148 7.59032 3.5257C7.89313 4.41414 7.24188 5.4807 7.23532 5.49132C7.19147 5.56177 7.17741 5.64675 7.19622 5.72757C7.21504 5.80838 7.26518 5.87842 7.33563 5.92226C7.40608 5.9661 7.49106 5.98017 7.57187 5.96135C7.65269 5.94254 7.72272 5.8924 7.76657 5.82195C7.80001 5.76851 8.58094 4.49851 8.18407 3.32757C8.05657 2.99357 7.85388 2.6934 7.5917 2.45035C7.32951 2.2073 7.01488 2.02788 6.67219 1.92601Z" fill="#4294FF"/>
<path d="M15.1728 13.1933C15.136 13.2115 15.1032 13.2368 15.0762 13.2678C15.0492 13.2987 15.0286 13.3346 15.0155 13.3735C15.0024 13.4124 14.9971 13.4535 14.9999 13.4945C15.0026 13.5354 15.0135 13.5754 15.0317 13.6122C15.0499 13.649 15.0753 13.6818 15.1062 13.7088C15.1371 13.7358 15.173 13.7564 15.2119 13.7695C15.2508 13.7826 15.2919 13.7879 15.3329 13.7851C15.3738 13.7824 15.4138 13.7715 15.4506 13.7533C15.5184 13.722 17.1156 12.972 18.4956 14.9045C18.5438 14.972 18.6167 15.0176 18.6985 15.0312C18.7803 15.0449 18.8641 15.0255 18.9316 14.9774C18.999 14.9292 19.0446 14.8562 19.0582 14.7745C19.0719 14.6927 19.0525 14.6089 19.0044 14.5414C17.3062 12.1658 15.1941 13.1845 15.1728 13.1933Z" fill="#4294FF"/>
<path d="M10.625 1.90625C10.7079 1.90625 10.7874 1.87333 10.846 1.81472C10.9046 1.75612 10.9375 1.67663 10.9375 1.59375V1.28125C10.9375 1.19837 10.9046 1.11888 10.846 1.06028C10.7874 1.00167 10.7079 0.96875 10.625 0.96875C10.5421 0.96875 10.4626 1.00167 10.404 1.06028C10.3454 1.11888 10.3125 1.19837 10.3125 1.28125V1.59375C10.3125 1.67663 10.3454 1.75612 10.404 1.81472C10.4626 1.87333 10.5421 1.90625 10.625 1.90625Z" fill="#4294FF"/>
<path d="M10.625 2.53125C10.5421 2.53125 10.4626 2.56417 10.404 2.62278C10.3454 2.68138 10.3125 2.76087 10.3125 2.84375V3.15625C10.3125 3.23913 10.3454 3.31862 10.404 3.37722C10.4626 3.43583 10.5421 3.46875 10.625 3.46875C10.7079 3.46875 10.7874 3.43583 10.846 3.37722C10.9046 3.31862 10.9375 3.23913 10.9375 3.15625V2.84375C10.9375 2.76087 10.9046 2.68138 10.846 2.62278C10.7874 2.56417 10.7079 2.53125 10.625 2.53125Z" fill="#4294FF"/>
<path d="M11.5625 1.90625H11.25C11.1671 1.90625 11.0876 1.93917 11.029 1.99778C10.9704 2.05638 10.9375 2.13587 10.9375 2.21875C10.9375 2.30163 10.9704 2.38112 11.029 2.43972C11.0876 2.49833 11.1671 2.53125 11.25 2.53125H11.5625C11.6454 2.53125 11.7249 2.49833 11.7835 2.43972C11.8421 2.38112 11.875 2.30163 11.875 2.21875C11.875 2.13587 11.8421 2.05638 11.7835 1.99778C11.7249 1.93917 11.6454 1.90625 11.5625 1.90625Z" fill="#4294FF"/>
<path d="M9.6875 2.53125H10C10.0829 2.53125 10.1624 2.49833 10.221 2.43972C10.2796 2.38112 10.3125 2.30163 10.3125 2.21875C10.3125 2.13587 10.2796 2.05638 10.221 1.99778C10.1624 1.93917 10.0829 1.90625 10 1.90625H9.6875C9.60462 1.90625 9.52513 1.93917 9.46653 1.99778C9.40792 2.05638 9.375 2.13587 9.375 2.21875C9.375 2.30163 9.40792 2.38112 9.46653 2.43972C9.52513 2.49833 9.60462 2.53125 9.6875 2.53125Z" fill="#4294FF"/>
<path d="M16.3794 6.46697C16.4623 6.46695 16.5417 6.43401 16.6003 6.3754L16.8213 6.15447C16.8511 6.12564 16.8749 6.09116 16.8913 6.05303C16.9077 6.0149 16.9163 5.9739 16.9167 5.9324C16.917 5.89091 16.9091 5.84976 16.8934 5.81135C16.8777 5.77295 16.8545 5.73806 16.8251 5.70872C16.7958 5.67938 16.7609 5.65617 16.7225 5.64046C16.6841 5.62475 16.6429 5.61684 16.6015 5.6172C16.56 5.61756 16.519 5.62618 16.4808 5.64256C16.4427 5.65894 16.4082 5.68274 16.3794 5.71259L16.1585 5.93353C16.1148 5.97723 16.085 6.03291 16.073 6.09352C16.0609 6.15413 16.0671 6.21695 16.0907 6.27404C16.1144 6.33114 16.1544 6.37994 16.2058 6.41428C16.2572 6.44862 16.3176 6.46695 16.3794 6.46697Z" fill="#4294FF"/>
<path d="M15.2747 7.57257C15.3576 7.57255 15.4371 7.53961 15.4957 7.481L15.7166 7.26007C15.7735 7.20113 15.805 7.12219 15.8043 7.04025C15.8036 6.95832 15.7707 6.87994 15.7128 6.822C15.6548 6.76406 15.5765 6.73119 15.4945 6.73048C15.4126 6.72977 15.3337 6.76127 15.2747 6.81819L15.0538 7.03913C15.0101 7.08283 14.9803 7.13851 14.9683 7.19912C14.9562 7.25973 14.9624 7.32255 14.9861 7.37965C15.0097 7.43674 15.0498 7.48554 15.1011 7.51988C15.1525 7.55422 15.2129 7.57255 15.2747 7.57257Z" fill="#4294FF"/>
<path d="M16.1585 7.26007L16.3794 7.481C16.4082 7.51085 16.4427 7.53466 16.4808 7.55104C16.519 7.56741 16.56 7.57603 16.6015 7.57639C16.643 7.57676 16.6841 7.56885 16.7225 7.55314C16.7609 7.53742 16.7958 7.51422 16.8251 7.48488C16.8545 7.45554 16.8777 7.42064 16.8934 7.38224C16.9091 7.34383 16.917 7.30268 16.9167 7.26119C16.9163 7.2197 16.9077 7.17869 16.8913 7.14056C16.8749 7.10244 16.8511 7.06796 16.8213 7.03913L16.6003 6.81819C16.5414 6.76127 16.4625 6.72977 16.3805 6.73048C16.2986 6.73119 16.2202 6.76406 16.1623 6.822C16.1043 6.87994 16.0715 6.95832 16.0708 7.04025C16.07 7.12219 16.1015 7.20113 16.1585 7.26007Z" fill="#4294FF"/>
<path d="M15.2747 6.3754C15.3337 6.43233 15.4126 6.46382 15.4945 6.46311C15.5765 6.4624 15.6548 6.42954 15.7128 6.3716C15.7707 6.31366 15.8036 6.23528 15.8043 6.15334C15.805 6.0714 15.7735 5.99247 15.7166 5.93353L15.4957 5.71259C15.4668 5.68274 15.4323 5.65894 15.3942 5.64256C15.3561 5.62618 15.3151 5.61756 15.2736 5.6172C15.2321 5.61684 15.1909 5.62475 15.1525 5.64046C15.1141 5.65617 15.0792 5.67938 15.0499 5.70872C15.0206 5.73806 14.9974 5.77295 14.9816 5.81135C14.9659 5.84976 14.958 5.89091 14.9584 5.9324C14.9587 5.9739 14.9674 6.0149 14.9837 6.05303C15.0001 6.09116 15.0239 6.12564 15.0538 6.15447L15.2747 6.3754Z" fill="#4294FF"/>
<path d="M3.9853 10.4609L3.66718 11.245C4.35641 12.43 5.20354 13.5158 6.1853 14.4725C7.14185 15.4543 8.22741 16.3015 9.41218 16.9909L10.1969 16.6725C8.86181 16.0071 7.65366 15.113 6.62718 14.0306C5.54491 13.0041 4.65078 11.7959 3.9853 10.4609Z" fill="#2946ED"/>
<path d="M2.46032 14.2188L2.18188 14.9062C2.68896 15.5815 3.24359 16.2197 3.84157 16.8159C4.43744 17.4136 5.07521 17.9681 5.75001 18.475L6.43751 18.1959C5.66714 17.6529 4.94631 17.0428 4.28345 16.3728C3.61342 15.7099 3.00333 14.9891 2.46032 14.2188Z" fill="#2946ED"/>
<path d="M11.4709 9.18916C9.3425 7.06041 6.6825 5.41041 5.71657 6.37666C4.75063 7.34291 6.40032 10.0017 8.52907 12.131C10.2294 13.8317 12.2691 15.2263 13.5131 15.2263C13.654 15.2336 13.7948 15.2123 13.9272 15.1637C14.0596 15.1151 14.1808 15.0402 14.2834 14.9435C15.25 13.9779 13.5997 11.3163 11.4709 9.18916Z" fill="#4294FF"/>
</g>
<defs>
<clipPath id="clip0_1312_1703">
<rect width="20" height="20" fill="white" transform="translate(0 0.65625)"/>
</clipPath>
</defs>
</svg>
