<svg width="21" height="21" viewBox="0 0 21 21" fill="none" xmlns="http://www.w3.org/2000/svg">
<path d="M14.8105 2.11426H6.47721C3.97721 2.11426 2.31055 3.78092 2.31055 6.28092V11.2809C2.31055 13.7809 3.97721 15.4476 6.47721 15.4476H9.81055L13.5189 17.9143C14.0689 18.2809 14.8105 17.8893 14.8105 17.2226V15.4476C17.3105 15.4476 18.9772 13.7809 18.9772 11.2809V6.28092C18.9772 3.78092 17.3105 2.11426 14.8105 2.11426ZM13.5605 9.46426H7.72721C7.38555 9.46426 7.10221 9.18092 7.10221 8.83926C7.10221 8.49759 7.38555 8.21426 7.72721 8.21426H13.5605C13.9022 8.21426 14.1855 8.49759 14.1855 8.83926C14.1855 9.18092 13.9022 9.46426 13.5605 9.46426Z" fill="#1455AC"/>
</svg>
