<svg width="212" height="211" viewBox="0 0 212 211" fill="none" xmlns="http://www.w3.org/2000/svg">
<g filter="url(#filter0_f_5364_39857)">
<ellipse cx="102.055" cy="184.519" rx="59.0548" ry="3.36255" fill="#A0A0A0" fill-opacity="0.3"/>
</g>
<g clip-path="url(#clip0_5364_39857)">
<path d="M152.965 97.418C151.988 95.8848 151.057 94.4375 150.68 93.0273C150.279 91.5293 150.355 89.7578 150.436 87.8828C150.551 85.1641 150.672 82.3535 149.307 79.9941C147.92 77.5977 145.4 76.2832 142.971 75.0312C141.324 74.1758 139.768 73.3691 138.699 72.2969C137.631 71.2246 136.824 69.6719 135.965 68.0254C134.711 65.5957 133.402 63.0801 131 61.6934C128.643 60.3262 125.83 60.4492 123.111 60.5645C121.236 60.6445 119.465 60.7207 117.967 60.3203C116.557 59.9434 115.109 59.0156 113.576 58.0352C111.25 56.543 108.84 55 106 55C103.16 55 100.75 56.543 98.418 58.0352C96.8848 59.0117 95.4375 59.9434 94.0273 60.3203C92.5234 60.7207 90.7656 60.6445 88.8828 60.5645C86.1641 60.4492 83.3535 60.3281 80.9941 61.6934C78.5977 63.0801 77.2832 65.5996 76.0312 68.0293C75.1758 69.6758 74.3691 71.2324 73.2969 72.3008C72.2246 73.3691 70.6719 74.1758 69.0254 75.0352C66.5957 76.2891 64.0801 77.5977 62.6934 80C61.3262 82.3574 61.4492 85.1699 61.5645 87.8887C61.6445 89.7637 61.7207 91.5352 61.3203 93.0332C60.9434 94.4434 60.0156 95.8906 59.0352 97.4238C57.543 99.75 56 102.16 56 105C56 107.84 57.543 110.25 59.0352 112.582C60.0117 114.115 60.9434 115.562 61.3203 116.973C61.7207 118.477 61.6445 120.234 61.5645 122.117C61.4492 124.836 61.3281 127.656 62.6934 130C64.0801 132.396 66.5996 133.711 69.0293 134.963C70.6758 135.818 72.2324 136.625 73.3008 137.697C74.3691 138.77 75.1758 140.322 76.0352 141.969C77.2891 144.404 78.5977 146.92 81 148.307C83.3574 149.674 86.1699 149.551 88.8887 149.436C90.7637 149.355 92.5352 149.279 94.0332 149.68C95.4434 150.057 96.8906 150.984 98.4238 151.965C100.75 153.457 103.16 155 106 155C108.84 155 111.25 153.457 113.582 151.965C115.115 150.988 116.562 150.057 117.973 149.68C119.471 149.279 121.242 149.355 123.117 149.436C125.836 149.551 128.646 149.672 131.006 148.307C133.402 146.92 134.717 144.4 135.969 141.971C136.824 140.324 137.631 138.768 138.703 137.699C139.775 136.631 141.328 135.824 142.975 134.965C145.404 133.711 147.92 132.402 149.307 130C150.674 127.643 150.551 124.83 150.436 122.111C150.355 120.236 150.279 118.465 150.68 116.967C151.057 115.557 151.984 114.109 152.965 112.576C154.457 110.25 156 107.84 156 105C156 102.16 154.457 99.75 152.965 97.418ZM150.496 111.004C149.438 112.656 148.348 114.367 147.85 116.217C147.334 118.148 147.422 120.23 147.508 122.242C147.611 124.648 147.703 126.93 146.771 128.539C145.812 130.195 143.777 131.252 141.623 132.369C139.85 133.289 138.018 134.24 136.629 135.629C135.24 137.018 134.285 138.85 133.369 140.623C132.252 142.771 131.195 144.812 129.539 145.771C127.92 146.709 125.648 146.611 123.242 146.508C121.23 146.422 119.141 146.334 117.217 146.85C115.367 147.344 113.656 148.438 112.004 149.496C109.936 150.82 107.982 152.07 106 152.07C104.018 152.07 102.064 150.82 99.9961 149.496C98.3438 148.438 96.6328 147.348 94.7832 146.85C93.5693 146.553 92.3217 146.416 91.0723 146.443C90.291 146.443 89.5215 146.475 88.7559 146.508C86.3496 146.611 84.0781 146.703 82.459 145.771C80.8027 144.812 79.7461 142.777 78.6289 140.623C77.709 138.85 76.7578 137.018 75.3691 135.629C73.9805 134.24 72.1484 133.285 70.375 132.369C68.2266 131.252 66.1855 130.195 65.2266 128.539C64.291 126.92 64.3867 124.648 64.4902 122.242C64.5762 120.229 64.6641 118.141 64.1484 116.217C63.6563 114.375 62.5625 112.656 61.5039 111.004C60.1797 108.936 58.9297 106.982 58.9297 105C58.9297 103.018 60.1797 101.064 61.5039 98.9961C62.5625 97.3438 63.6523 95.6328 64.1504 93.7832C64.666 91.8516 64.5781 89.7695 64.4922 87.7578C64.3887 85.3516 64.2969 83.0801 65.2285 81.4609C66.1875 79.8047 68.2227 78.748 70.377 77.6309C72.1504 76.7109 73.9824 75.7598 75.3711 74.3711C76.7598 72.9824 77.7148 71.1504 78.6309 69.377C79.748 67.2285 80.8047 65.1875 82.4609 64.2285C84.0801 63.293 86.3516 63.3887 88.7578 63.4922C90.7695 63.5781 92.8594 63.666 94.7832 63.1504C96.625 62.6562 98.3438 61.5625 99.9961 60.5039C102.064 59.1797 104.018 57.9297 106 57.9297C107.982 57.9297 109.936 59.1797 112.004 60.5039C113.656 61.5625 115.367 62.6523 117.217 63.1504C119.148 63.666 121.23 63.5781 123.242 63.4922C125.648 63.3887 127.93 63.2969 129.539 64.2285C131.195 65.1875 132.252 67.2227 133.369 69.377C134.289 71.1504 135.24 72.9824 136.629 74.3711C138.018 75.7598 139.85 76.7148 141.623 77.6309C143.771 78.748 145.812 79.8047 146.771 81.4609C147.707 83.0801 147.611 85.3516 147.508 87.7578C147.422 89.7715 147.334 91.8594 147.85 93.7832C148.344 95.6328 149.438 97.3438 150.496 98.9961C151.82 101.064 153.07 103.018 153.07 105C153.07 106.982 151.82 108.936 150.496 111.004Z" fill="#D2D2D2"/>
<path d="M106 68.375C85.8066 68.375 69.3789 84.8027 69.3789 104.996C69.3789 125.189 85.8066 141.617 106 141.617C126.193 141.617 142.621 125.189 142.621 104.996C142.621 84.8027 126.193 68.375 106 68.375ZM106 138.688C87.4219 138.688 72.3086 123.574 72.3086 104.996C72.3086 86.418 87.4219 71.3047 106 71.3047C124.578 71.3047 139.691 86.418 139.691 104.996C139.691 123.574 124.578 138.688 106 138.688Z" fill="#D2D2D2"/>
<path d="M126.486 91.1972C126.274 91.0147 126.015 90.8966 125.738 90.8568C125.461 90.817 125.178 90.8572 124.924 90.9726L113.867 95.9296L107.254 84.7285C107.124 84.509 106.94 84.3271 106.719 84.2007C106.497 84.0743 106.247 84.0078 105.992 84.0078C105.737 84.0078 105.487 84.0743 105.265 84.2007C105.044 84.3271 104.86 84.509 104.73 84.7285L98.117 95.9296L87.0604 90.9726C86.8065 90.8585 86.5255 90.8191 86.2501 90.859C85.9747 90.8989 85.7164 91.0163 85.5053 91.1977C85.2943 91.379 85.1392 91.6167 85.0584 91.883C84.9775 92.1492 84.9741 92.433 85.0486 92.7011L89.9315 110.279C90.0182 110.589 90.2041 110.861 90.4606 111.055C90.7171 111.249 91.03 111.353 91.3514 111.351H120.648C120.968 111.351 121.279 111.246 121.534 111.052C121.789 110.859 121.974 110.587 122.06 110.279L126.943 92.7011C127.017 92.4329 127.013 92.1492 126.932 91.8831C126.851 91.6169 126.697 91.3791 126.486 91.1972ZM119.535 108.422H92.4647L88.7147 94.9199L98.1209 99.1445C98.449 99.2925 98.82 99.3146 99.1633 99.2066C99.5067 99.0985 99.7982 98.8678 99.9822 98.5585L106 88.3535L112.017 98.5468C112.201 98.8561 112.493 99.0868 112.836 99.1948C113.18 99.3029 113.551 99.2808 113.879 99.1328L123.285 94.914L119.535 108.422Z" fill="#D2D2D2"/>
<path d="M120.648 115.742H91.3516C90.9631 115.742 90.5905 115.897 90.3158 116.171C90.0411 116.446 89.8867 116.819 89.8867 117.207V122.09C89.8867 123.126 90.2983 124.119 91.0308 124.852C91.7634 125.585 92.757 125.996 93.793 125.996H118.207C119.243 125.996 120.237 125.585 120.969 124.852C121.702 124.119 122.113 123.126 122.113 122.09V117.207C122.113 116.819 121.959 116.446 121.684 116.171C121.41 115.897 121.037 115.742 120.648 115.742ZM119.184 122.09C119.184 122.349 119.081 122.597 118.898 122.78C118.714 122.964 118.466 123.066 118.207 123.066H93.793C93.534 123.066 93.2856 122.964 93.1024 122.78C92.9193 122.597 92.8164 122.349 92.8164 122.09V118.672H119.184V122.09Z" fill="#D2D2D2"/>
</g>
<path fill-rule="evenodd" clip-rule="evenodd" d="M172.003 146.009C175.714 146.009 179.162 144.885 182.029 142.964L193.754 154.156L198.006 149.224L186.693 138.423C188.782 135.482 190.012 131.886 190.012 128.006C190.012 118.061 181.951 110 172.006 110C162.061 110 154 118.061 154 128.006C154 137.951 162.061 146.012 172.006 146.012L172.003 146.009ZM187.361 128.003C187.361 136.421 180.536 143.246 172.118 143.246C163.7 143.246 156.875 136.421 156.875 128.003C156.875 119.585 163.7 112.76 172.118 112.76C180.536 112.76 187.361 119.585 187.361 128.003Z" fill="#C6C6C6"/>
<path d="M174.496 127.927L177.911 124.524C178.232 124.188 178.406 123.74 178.4 123.276C178.395 122.813 178.206 122.372 177.877 122.044C177.549 121.717 177.103 121.528 176.637 121.523C176.171 121.518 175.721 121.691 175.382 122.01L171.959 125.412L168.544 122.01C168.381 121.836 168.182 121.699 167.964 121.603C167.744 121.508 167.509 121.456 167.271 121.453C167.032 121.451 166.794 121.495 166.572 121.583C166.349 121.673 166.15 121.805 165.979 121.974C165.811 122.142 165.676 122.341 165.585 122.561C165.495 122.782 165.451 123.017 165.453 123.255C165.456 123.494 165.508 123.727 165.603 123.947C165.699 124.164 165.839 124.361 166.012 124.524L169.432 127.927L166.012 131.329C165.839 131.492 165.699 131.689 165.603 131.907C165.508 132.124 165.456 132.36 165.453 132.598C165.451 132.836 165.495 133.072 165.585 133.292C165.676 133.512 165.808 133.711 165.979 133.88C166.147 134.048 166.349 134.18 166.572 134.271C166.794 134.361 167.03 134.405 167.271 134.4C167.511 134.395 167.747 134.346 167.964 134.25C168.185 134.154 168.381 134.017 168.544 133.843L171.967 130.441L175.39 133.843C175.731 134.141 176.174 134.302 176.63 134.286C177.085 134.271 177.518 134.084 177.839 133.766C178.16 133.445 178.346 133.015 178.359 132.562C178.372 132.109 178.211 131.668 177.909 131.329L174.494 127.927H174.496Z" fill="#C6C6C6"/>
<path d="M193.752 154.154L198.004 149.219L198.644 149.83C199.266 150.423 199.638 151.25 199.678 152.134C199.718 153.016 199.425 153.88 198.863 154.534C198.298 155.188 197.512 155.58 196.673 155.623C195.835 155.666 195.014 155.358 194.394 154.765L193.755 154.154H193.752Z" fill="#DBDBDB"/>
<defs>
<filter id="filter0_f_5364_39857" x="34.5936" y="172.75" width="134.922" height="23.5393" filterUnits="userSpaceOnUse" color-interpolation-filters="sRGB">
<feFlood flood-opacity="0" result="BackgroundImageFix"/>
<feBlend mode="normal" in="SourceGraphic" in2="BackgroundImageFix" result="shape"/>
<feGaussianBlur stdDeviation="4.20319" result="effect1_foregroundBlur_5364_39857"/>
</filter>
<clipPath id="clip0_5364_39857">
<rect width="100" height="100" fill="white" transform="translate(56 55)"/>
</clipPath>
</defs>
</svg>
