<svg width="90" height="104" viewBox="0 0 90 104" fill="none" xmlns="http://www.w3.org/2000/svg">
<path d="M77.5853 62.3961V37.7356C77.5853 37.2291 77.3159 36.7616 76.8775 36.5088L40.0465 15.2445C39.6085 14.9914 39.0681 14.9914 38.6301 15.2445L1.79953 36.509C1.36131 36.7617 1.09131 37.2293 1.09131 37.7357V80.2643C1.09131 80.7703 1.36131 81.2377 1.79953 81.4909L38.6301 102.756C38.8489 102.882 39.0936 102.945 39.3383 102.945C39.5828 102.945 39.8275 102.882 40.0465 102.756L51.6314 96.0672C55.5664 100.273 61.16 102.909 67.3605 102.909C79.2424 102.909 88.9092 93.242 88.9092 81.3603C88.9092 73.1757 84.3229 66.0434 77.5853 62.3961ZM60.9758 30.599L26.2697 50.6365C25.8315 50.8895 25.5615 51.3572 25.5615 51.8633V59.5339L16.2219 54.1416V45.6531L51.6356 25.2064L60.9758 30.599ZM39.3383 99.8934L3.92402 79.4465V38.5531L39.3383 18.1063L48.8033 23.5708L14.0972 43.6089C13.6591 43.8617 13.3891 44.3289 13.3891 44.8352V54.9591C13.3891 55.4652 13.6591 55.9328 14.0972 56.1857L26.2697 63.2135C26.4889 63.34 26.7332 63.4033 26.9779 63.4033C27.2224 63.4033 27.4669 63.34 27.6863 63.2135C28.1247 62.9607 28.3944 62.493 28.3944 61.9867V52.681L63.8087 32.2343L74.753 38.5531V61.1171C72.4462 60.2721 69.9563 59.8109 67.3605 59.8109C55.4782 59.8109 45.8115 69.4774 45.8115 81.3601C45.8115 86.012 47.298 90.3202 49.8135 93.8453L39.3383 99.8934ZM67.3605 100.076C57.0404 100.076 48.6442 91.6798 48.6442 81.3601C48.6442 71.0398 57.0402 62.6436 67.3605 62.6436C77.6808 62.6436 86.0764 71.0398 86.0764 81.3601C86.0764 91.6798 77.6806 100.076 67.3605 100.076Z" fill="#DBDBDB"/>
<path d="M69.5653 82.3943L72.0445 79.9245C72.2775 79.6802 72.4035 79.355 72.3997 79.0186C72.3959 78.6822 72.2587 78.3626 72.02 78.1239C71.7813 77.8871 71.458 77.7499 71.1197 77.7461C70.7814 77.7424 70.4544 77.8683 70.2081 78.0995L67.7234 80.5692L65.2443 78.0995C65.1258 77.9736 64.9811 77.8739 64.8232 77.8044C64.6635 77.7349 64.4924 77.6973 64.3195 77.6954C64.1466 77.6935 63.9737 77.7255 63.812 77.7894C63.6504 77.8552 63.5057 77.951 63.3816 78.0732C63.2595 78.1953 63.1617 78.3401 63.0959 78.4998C63.0302 78.6596 62.9982 78.8306 63.0001 79.0036C63.002 79.1765 63.0395 79.3456 63.1091 79.5054C63.1786 79.6633 63.2801 79.8061 63.4061 79.9245L65.8889 82.3943L63.4061 84.864C63.2801 84.9824 63.1786 85.1252 63.1091 85.2831C63.0395 85.441 63.002 85.6121 63.0001 85.785C62.9982 85.9579 63.0302 86.1289 63.0959 86.2887C63.1617 86.4485 63.2576 86.5932 63.3816 86.7153C63.5038 86.8375 63.6504 86.9334 63.812 86.9992C63.9737 87.0649 64.1447 87.0969 64.3195 87.0931C64.4943 87.0894 64.6654 87.0537 64.8232 86.9841C64.983 86.9146 65.1258 86.815 65.2443 86.689L67.729 84.2193L70.2138 86.689C70.4619 86.9052 70.7833 87.0217 71.1141 87.0104C71.4449 86.9992 71.7588 86.8638 71.9918 86.6326C72.2249 86.3996 72.3602 86.0876 72.3696 85.7587C72.379 85.4297 72.2625 85.1102 72.0426 84.864L69.5635 82.3943H69.5653Z" fill="#C7C7C7"/>
<path d="M81.3038 33.0076C81.2906 33.0496 81.2861 33.0939 81.2907 33.1377C81.2952 33.1815 81.3087 33.2239 81.3302 33.2623C81.3518 33.3007 81.381 33.3343 81.416 33.361C81.451 33.3877 81.4911 33.4069 81.5338 33.4176L82.6192 33.7084C82.8007 33.757 82.9853 33.6472 83.0573 33.4733C83.4069 32.6419 84.1675 32.1717 85.2226 32.4544C86.1252 32.6962 86.8305 33.3689 86.5396 34.4543C86.3158 35.2897 85.7208 35.5421 84.7867 35.9179C83.7289 36.324 82.8264 36.8873 82.5496 38.1203L82.477 38.4069C82.4553 38.4935 82.4685 38.5853 82.5138 38.6623C82.5591 38.7394 82.6329 38.7955 82.7192 38.8186L83.7862 39.1045C83.8735 39.1279 83.9664 39.1157 84.0446 39.0705C84.1228 39.0254 84.1799 38.951 84.2033 38.8637L84.2403 38.7256C84.4934 37.781 84.9262 37.6022 86.0929 37.1266C87.0574 36.7322 88.074 36.2798 88.4544 34.8602C88.9871 32.8722 87.5656 31.462 85.7277 30.9695C84.0608 30.5229 82.0267 30.8098 81.3038 33.0076ZM81.3206 41.1386C81.1327 41.8398 81.553 42.508 82.3226 42.7142C83.1239 42.9289 83.814 42.5583 84.0019 41.857C84.1965 41.1308 83.7807 40.4723 82.9795 40.2576C82.2112 40.0517 81.5152 40.4123 81.3206 41.1386Z" fill="#DBDBDB"/>
<path d="M40.2952 3.11366C40.2933 3.15765 40.3005 3.20155 40.3162 3.24267C40.332 3.28379 40.3559 3.32126 40.3867 3.35277C40.4174 3.38428 40.4543 3.40917 40.495 3.4259C40.5357 3.44264 40.5794 3.45087 40.6235 3.45009H41.7472C41.9351 3.45009 42.085 3.29618 42.1095 3.10957C42.2321 2.21607 42.845 1.565 43.9373 1.565C44.8717 1.565 45.7271 2.03219 45.7271 3.15588C45.7271 4.02079 45.2177 4.41851 44.4127 5.02326C43.496 5.68931 42.7701 6.46704 42.8218 7.72967L42.8259 8.02524C42.8273 8.1146 42.8638 8.19981 42.9276 8.2625C42.9913 8.32518 43.0771 8.36031 43.1664 8.3603H44.2711C44.3614 8.3603 44.448 8.32442 44.5118 8.26057C44.5757 8.19671 44.6116 8.1101 44.6116 8.01979V7.87677C44.6116 6.89881 44.9834 6.61414 45.9872 5.85276C46.8167 5.22212 47.6816 4.52203 47.6816 3.05237C47.6816 0.994301 45.9437 0 44.0409 0C42.3151 0 40.4246 0.803613 40.2952 3.11366ZM42.4159 10.9632C42.4159 11.6892 42.9948 12.2258 43.7916 12.2258C44.6211 12.2258 45.1918 11.6892 45.1918 10.9632C45.1918 10.2113 44.6197 9.68286 43.7902 9.68286C42.9948 9.68286 42.4159 10.2113 42.4159 10.9632Z" fill="#DBDBDB"/>
<path d="M1.55708 19.5401C1.57746 19.5791 1.60561 19.6136 1.63979 19.6413C1.67397 19.6691 1.71347 19.6895 1.75585 19.7015C1.79823 19.7134 1.8426 19.7165 1.88624 19.7106C1.92987 19.7048 1.97184 19.69 2.00957 19.6673L2.98272 19.1055C3.1455 19.0115 3.1983 18.8033 3.12623 18.6294C2.78564 17.7944 2.99092 16.9241 3.93694 16.3779C4.74612 15.9107 5.72049 15.8876 6.28234 16.8607C6.71479 17.6098 6.47249 18.2089 6.07774 19.1351C5.61691 20.1703 5.37706 21.2068 6.0532 22.2744L6.20452 22.5283C6.25044 22.605 6.32466 22.6605 6.41117 22.683C6.49769 22.7054 6.58955 22.6929 6.66695 22.6482L7.62358 22.0959C7.70179 22.0508 7.75886 21.9764 7.78223 21.8892C7.80561 21.8019 7.79337 21.709 7.74822 21.6308L7.67671 21.5069C7.18773 20.66 7.36742 20.2275 7.85607 19.0662C8.25912 18.1053 8.6581 17.0666 7.92327 15.7938C6.89424 14.0115 4.89195 14.0194 3.24408 14.9708C1.74956 15.8336 0.514117 17.4749 1.55708 19.5401ZM7.31844 25.2776C7.68143 25.9064 8.45108 26.0817 9.14113 25.6833C9.85949 25.2685 10.0854 24.5184 9.72242 23.8897C9.34649 23.2386 8.58683 23.0669 7.86847 23.4817C7.1796 23.8794 6.94252 24.6265 7.31844 25.2776Z" fill="#DBDBDB"/>
</svg>
