<svg width="212" height="211" viewBox="0 0 212 211" fill="none" xmlns="http://www.w3.org/2000/svg">
<g clip-path="url(#clip0_153_23018)">
<circle cx="95.9888" cy="108.732" r="60.7768" fill="#F0F0F0" fill-opacity="0.83"/>
<circle cx="95.9886" cy="108.732" r="47.2709" fill="white"/>
<path d="M124.241 149.403H67.8671C66.4007 149.403 65.2119 148.215 65.2119 146.748V70.6103C65.2119 69.1438 66.4007 67.9551 67.8671 67.9551H111.884L126.896 81.812V146.748C126.896 148.215 125.707 149.403 124.241 149.403Z" fill="white" stroke="#D2D2D2" stroke-width="2"/>
<path fill-rule="evenodd" clip-rule="evenodd" d="M71.9971 84.978C71.9971 83.9686 72.8153 83.1504 73.8247 83.1504H109.211C110.221 83.1504 111.039 83.9686 111.039 84.978C111.039 85.9873 110.221 86.8056 109.211 86.8056H73.8247C72.8153 86.8056 71.9971 85.9873 71.9971 84.978ZM71.9971 96.2429C71.9971 95.2335 72.8153 94.4153 73.8247 94.4153H119.485C120.494 94.4153 121.313 95.2335 121.313 96.2429C121.313 97.2522 120.494 98.0705 119.485 98.0705H73.8247C72.8153 98.0705 71.9971 97.2522 71.9971 96.2429ZM71.9971 107.508C71.9971 106.498 72.8153 105.68 73.8247 105.68H86.3813C87.3906 105.68 88.2088 106.498 88.2088 107.508C88.2088 108.517 87.3906 109.335 86.3813 109.335H73.8247C72.8153 109.335 71.9971 108.517 71.9971 107.508ZM92.5442 107.508C92.5442 106.498 93.3625 105.68 94.3718 105.68H119.485C120.494 105.68 121.313 106.498 121.313 107.508C121.313 108.517 120.494 109.335 119.485 109.335H94.3718C93.3625 109.335 92.5442 108.517 92.5442 107.508ZM71.9971 118.773C71.9971 117.763 72.8153 116.945 73.8247 116.945H106.928C107.938 116.945 108.756 117.763 108.756 118.773C108.756 119.782 107.938 120.6 106.928 120.6H73.8247C72.8153 120.6 71.9971 119.782 71.9971 118.773ZM113.091 118.773C113.091 117.763 113.91 116.945 114.919 116.945H119.485C120.494 116.945 121.313 117.763 121.313 118.773C121.313 119.782 120.494 120.6 119.485 120.6H114.919C113.91 120.6 113.091 119.782 113.091 118.773ZM71.9971 128.911C71.9971 127.902 72.8153 127.083 73.8247 127.083H116.061C117.07 127.083 117.888 127.902 117.888 128.911C117.888 129.92 117.07 130.739 116.061 130.739H73.8247C72.8153 130.739 71.9971 129.92 71.9971 128.911ZM71.9971 139.049C71.9971 138.04 72.8153 137.222 73.8247 137.222H104.645C105.655 137.222 106.473 138.04 106.473 139.049C106.473 140.059 105.655 140.877 104.645 140.877H73.8247C72.8153 140.877 71.9971 140.059 71.9971 139.049Z" fill="#D2D2D2"/>
<path d="M71.9971 84.978C71.9971 83.9686 72.8153 83.1504 73.8247 83.1504H109.211C110.221 83.1504 111.039 83.9686 111.039 84.978C111.039 85.9873 110.221 86.8056 109.211 86.8056H73.8247C72.8153 86.8056 71.9971 85.9873 71.9971 84.978Z" fill="#D2D2D2"/>
<path d="M112.275 66.9551L127.896 81.3741H116.275C114.066 81.3741 112.275 79.5833 112.275 77.3741V66.9551Z" fill="#D2D2D2"/>
<rect width="14.7292" height="2.53951" rx="1.26976" transform="matrix(-0.707107 0.707107 0.707107 0.707107 55.627 68.9551)" fill="#D2D2D2"/>
<rect width="14.7292" height="2.53951" rx="1.26976" transform="matrix(0.707107 0.707107 0.707107 -0.707107 45.2119 70.75)" fill="#D2D2D2"/>
<circle cx="61.5531" cy="104.296" r="4.3412" stroke="#D2D2D2" stroke-width="4"/>
<circle cx="151.82" cy="117.563" r="3.60776" stroke="#D2D2D2" stroke-width="4"/>
<circle cx="45.322" cy="125.065" r="1.11008" stroke="#D2D2D2" stroke-width="3"/>
<path d="M98.1264 171.913C119.998 171.913 137.729 170.878 137.729 169.601C137.729 168.324 119.998 167.289 98.1264 167.289C76.2543 167.289 58.5234 168.324 58.5234 169.601C58.5234 170.878 76.2543 171.913 98.1264 171.913Z" fill="#D2D2D2"/>
<rect width="12.8004" height="2.20696" rx="1.10348" transform="matrix(-0.707107 0.707107 0.707107 0.707107 146.263 84.9551)" fill="#D2D2D2"/>
<rect width="12.8004" height="2.20696" rx="1.10348" transform="matrix(0.707107 0.707107 0.707107 -0.707107 137.212 86.5156)" fill="#D2D2D2"/>
<rect width="10.8561" height="1.87174" rx="0.935869" transform="matrix(-0.707107 0.707107 0.707107 0.707107 79.8882 154.955)" fill="#D2D2D2"/>
<rect width="10.8561" height="1.87174" rx="0.935869" transform="matrix(0.707107 0.707107 0.707107 -0.707107 72.2119 156.279)" fill="#D2D2D2"/>
</g>
<path fill-rule="evenodd" clip-rule="evenodd" d="M143.003 79.9424C147.423 79.9424 151.531 78.6039 154.946 76.3147L168.915 89.6483L173.981 83.7726L160.503 70.9058C162.991 67.4016 164.457 63.1184 164.457 58.4954C164.457 46.6479 154.854 37.0449 143.006 37.0449C131.159 37.0449 121.556 46.6479 121.556 58.4954C121.556 70.3429 131.159 79.9458 143.006 79.9458L143.003 79.9424ZM161.299 58.4919C161.299 68.5205 153.168 76.651 143.14 76.651C133.111 76.651 124.981 68.5205 124.981 58.4919C124.981 48.4634 133.111 40.3328 143.14 40.3328C153.168 40.3328 161.299 48.4634 161.299 58.4919Z" fill="#C6C6C6"/>
<path d="M146.37 58.471L150.897 53.9612C151.323 53.515 151.553 52.9213 151.546 52.3069C151.539 51.6926 151.288 51.1092 150.852 50.6733C150.417 50.2408 149.826 49.9903 149.209 49.9834C148.591 49.9766 147.994 50.2065 147.544 50.6287L143.007 55.1384L138.48 50.6287C138.264 50.3987 137.999 50.2168 137.711 50.0898C137.419 49.9628 137.107 49.8942 136.791 49.8908C136.476 49.8873 136.16 49.9457 135.865 50.0624C135.569 50.1825 135.305 50.3575 135.079 50.5806C134.856 50.8037 134.677 51.068 134.557 51.3597C134.437 51.6514 134.379 51.9637 134.382 52.2795C134.385 52.5952 134.454 52.9041 134.581 53.1959C134.708 53.4841 134.893 53.745 135.123 53.9612L139.657 58.471L135.123 62.9807C134.893 63.1969 134.708 63.4577 134.581 63.746C134.454 64.0343 134.385 64.3467 134.382 64.6624C134.379 64.9782 134.437 65.2905 134.557 65.5822C134.677 65.8739 134.852 66.1382 135.079 66.3613C135.302 66.5844 135.569 66.7594 135.865 66.8795C136.16 66.9997 136.472 67.058 136.791 67.0511C137.11 67.0443 137.423 66.9791 137.711 66.8521C138.003 66.7251 138.264 66.5432 138.48 66.3132L143.017 61.8035L147.554 66.3132C148.007 66.7079 148.594 66.9207 149.198 66.9001C149.802 66.8795 150.375 66.6324 150.801 66.2103C151.227 65.7847 151.474 65.215 151.491 64.6144C151.508 64.0137 151.295 63.4303 150.894 62.9807L146.367 58.471H146.37Z" fill="#C6C6C6"/>
<path d="M168.911 89.6487L173.977 83.7695L174.739 84.4971C175.48 85.2041 175.923 86.1891 175.971 87.2428C176.019 88.293 175.669 89.3226 175 90.1017C174.327 90.8808 173.39 91.3475 172.391 91.399C171.393 91.4505 170.414 91.0833 169.676 90.3763L168.915 89.6487H168.911Z" fill="#DBDBDB"/>
<defs>
<clipPath id="clip0_153_23018">
<rect width="128" height="128" fill="white" transform="translate(35.2119 45.9551)"/>
</clipPath>
</defs>
</svg>
