<svg width="190" height="160" viewBox="0 0 190 160" fill="none" xmlns="http://www.w3.org/2000/svg">
<mask id="mask0_5364_39758" style="mask-type:alpha" maskUnits="userSpaceOnUse" x="3" y="0" width="174" height="146">
<path fill-rule="evenodd" clip-rule="evenodd" d="M90 0C111.195 0 107.699 11.3543 123 24C119 54 177 48.0816 177 76.805C177 127.231 131.81 145.5 82.5631 145.5C33.3165 145.5 -8.70014 117.533 5.9619 67.2394C20.6239 16.9475 40.7552 0 90 0Z" fill="#F8F8F8"/>
</mask>
<g mask="url(#mask0_5364_39758)">
<path fill-rule="evenodd" clip-rule="evenodd" d="M87.691 -0.5C108.85 -0.5 106.435 37.2585 121.71 48.7682C141.928 64.0016 176.709 56.4599 176.709 82.6031C176.709 128.499 131.594 145.127 82.4301 145.127C33.2658 145.127 -8.68057 119.673 5.95694 73.8967C20.5945 28.1225 38.5285 -0.5 87.691 -0.5Z" fill="#F8F8F8"/>
<path d="M109.043 30.3909C109.043 30.3909 110.741 37.0978 109.848 37.943C107.617 40.0506 84.9731 35.3341 84.8334 33.5815C84.6901 31.8289 89.1857 26.9844 89.1857 26.9844L109.047 30.3909H109.043Z" fill="#4F4F4F"/>
<path d="M129.176 78.8984C131.452 90.1827 131.569 94.9577 130.595 96.3664C128.518 99.374 118.148 99.5021 116.571 100.069C114.994 100.636 111.844 80.4242 113.947 79.729C116.046 79.0338 129.176 78.9021 129.176 78.9021V78.8984Z" fill="#D6D6D6"/>
<path d="M59.6341 236.914C59.7039 238.4 70.9008 240.423 76.7418 241.027C78.4401 241.202 79.9178 241.078 80.1127 239.457C81.2412 230.302 84.7664 209.406 88.0085 188.466C90.2325 174.108 91.6624 162.922 93.3497 152.191C99.2422 187.95 100.389 239.08 101.286 240.8C102.304 242.743 121.54 233.464 121.54 233.464C121.54 233.464 122.367 189.314 121.099 169.644C119.831 149.97 112.645 105.564 112.645 105.564L69.3863 103.914C69.3863 103.914 59.5716 235.436 59.6341 236.914Z" fill="#8C8C8C"/>
<path d="M93.6701 153.614C93.6481 153.614 93.6223 153.614 93.5966 153.611C93.3172 153.574 93.1261 153.329 93.1665 153.062L97.4857 123.918C97.5262 123.651 97.7798 123.468 98.0592 123.505C98.3386 123.541 98.5297 123.786 98.4893 124.054L94.1701 153.197C94.1333 153.439 93.9164 153.614 93.6665 153.614H93.6701Z" fill="#595959"/>
<path d="M96.6404 131.63C97.427 130.708 98.4379 129.965 99.2503 129.051C100.129 128.063 100.886 126.991 101.559 125.864C101.831 125.406 102.566 125.816 102.298 126.277C101.085 128.374 99.3348 130.986 97.1109 132.208C96.7102 132.428 96.3757 131.941 96.6404 131.627V131.63Z" fill="#595959"/>
<path d="M73.4851 126.15C76.356 124.159 78.3337 121.452 80.2635 118.652C80.5833 118.188 81.37 118.62 81.0465 119.092C79.0799 121.986 77.025 125.001 73.963 126.933C73.4447 127.258 72.9999 126.486 73.4851 126.15Z" fill="#595959"/>
<path d="M98.7648 142.781C100.691 153.604 102.216 164.493 103.345 175.422C103.657 178.452 103.94 181.485 104.187 184.522C104.213 184.826 103.72 184.8 103.694 184.5C102.772 173.615 101.496 162.758 99.8161 151.957C99.3456 148.928 98.8456 145.902 98.32 142.879C98.2722 142.601 98.717 142.506 98.7685 142.784L98.7648 142.781Z" fill="#595959"/>
<path d="M101.514 46.1003C107.907 48.453 118.06 49.4995 123.485 55.1599C128.911 60.824 131.624 78.5078 131.888 79.4665C132.149 80.4251 120.949 82.69 120.158 83.0376C119.372 83.3852 69.7836 87.6443 68.9161 87.4357C68.0486 87.2272 67.7655 79.386 67.7104 78.8957C67.6552 78.4054 60.4063 78.5847 58.3772 78.0651C56.3518 77.5455 55.3887 76.2832 55.3887 76.2832C55.3887 76.2832 62.4795 54.0549 65.8467 50.7289C69.2175 47.4029 84.6417 44.6404 87.0384 44.4099C89.4351 44.1793 101.51 46.0966 101.51 46.0966L101.514 46.1003Z" fill="#B1B1B1"/>
<path d="M117.71 80.143C117.578 80.143 117.472 80.0369 117.472 79.9052C117.472 77.6623 117.405 75.2437 117.343 72.9056C117.229 68.6173 117.13 64.9107 117.483 63.8057C117.523 63.6813 117.655 63.6118 117.78 63.6521C117.905 63.6923 117.975 63.824 117.935 63.9484C117.608 64.9803 117.71 68.8258 117.817 72.8946C117.88 75.2364 117.946 77.6586 117.946 79.9089C117.946 80.0406 117.839 80.1467 117.707 80.1467L117.71 80.143Z" fill="#4F4F4F"/>
<path d="M101.515 49.888C101.515 49.888 92.674 53.7775 86.8477 44.8569C88.6746 40.9235 89.6156 31.1797 89.6156 31.1797L91.2367 31.9042L93.2401 32.3396L97.8571 39.2843L101.515 41.5895V49.888Z" fill="#D6D6D6"/>
<path d="M110.076 26.3754C109.841 27.2645 109.638 28.1537 109.473 29.0904C108.885 32.3615 108.212 35.7058 106.94 38.8013C106.499 39.8734 105.97 41.1138 105.014 41.8675C103.308 43.214 99.3679 42.7859 97.5446 42.2883C91.9352 40.7515 90.4354 38.2341 89.6487 32.4383C89.6487 32.4383 85.1751 29.8368 87.5351 26.0022C87.9174 25.3802 88.4871 24.8094 89.2811 24.7691C90.2406 24.7216 90.4317 24.8569 90.6045 23.7227C90.7295 22.8811 90.9022 22.0395 91.2 21.2382C92.4571 17.839 96.1 15.3839 99.8715 15.3985C101.632 15.4058 103.794 15.5375 105.448 16.1413C107.19 16.7779 107.628 18.2525 109.021 19.277C110.006 20.0015 111.098 22.9689 110.524 24.8313C110.363 25.3509 110.216 25.8632 110.08 26.3754H110.076Z" fill="#D6D6D6"/>
<path d="M107.113 36.6928C106.44 36.1989 105.11 35.639 102.908 35.5732C100.61 35.5036 98.809 36.6306 96.4049 34.395C95.361 33.4217 94.8647 31.9874 94.5523 30.6592C94.3942 29.9932 94.306 29.32 94.2067 28.6394C94.0964 27.8564 93.8244 27.2783 94.2766 26.5136C94.5559 26.0379 94.964 25.6464 95.3132 25.2146C95.8462 24.556 96.2432 23.8023 96.4821 23.0009C96.7063 22.2472 96.3829 21.2776 95.9087 20.6665C95.6587 20.3445 95.3352 20.0628 95.1845 19.6859C94.9272 19.0602 95.2286 18.3211 95.7469 17.8711C96.2652 17.4173 96.96 17.1978 97.6437 17.0405C98.5443 16.8356 99.5405 16.7661 100.397 17.1466C101.044 17.432 101.481 17.8784 102.025 18.2809C102.658 18.7456 103.227 19.2871 103.83 19.7847C104.565 20.3921 105.374 20.9519 106.312 21.1971C107.282 21.4495 108.194 21.058 109.149 20.9373C109.333 20.9153 109.524 20.9043 109.697 20.9592C110.021 21.0617 110.41 21.563 110.429 21.8886C110.414 21.6288 110.348 19.792 108.899 17.9589C108.076 16.9161 106.878 16.155 105.672 15.5476C103.617 14.5121 101.581 13.9157 99.2685 14.117C97.3276 14.2853 95.0522 14.6987 92.343 16.3599C89.428 18.1455 89.1891 23.9962 89.303 24.7536C89.303 24.7536 90.5492 24.8743 91.0087 25.189C92.3136 26.0818 92.0195 28.1381 91.6961 29.4444C91.5748 29.9347 91.4498 30.4433 91.3358 30.9116C90.8212 33.0082 90.7256 35.189 91.1704 37.3002C92.1372 41.9178 95.0669 45.006 99.3089 45.4963C106.789 46.3598 107.488 39.4407 107.539 37.56C107.55 37.2197 107.389 36.8977 107.109 36.6928H107.113Z" fill="#717171"/>
<path d="M117.185 77.5936C119.857 80.2939 123.75 85.6945 123.882 86.0897C124.014 86.4812 120.074 123.989 119.155 125.036C118.236 126.082 69.9195 120.33 69.3939 120.594C68.8682 120.854 67.0303 111.055 67.0303 111.055C67.0303 111.055 69.9196 74.853 69.9196 74.9847C69.9196 75.1165 116.346 76.752 117.185 77.5972V77.5936Z" fill="#E9E9E9"/>
<path d="M122.853 86.1594C115.754 85.8154 73.9003 82.9651 73.4775 82.9358L73.5364 82.1016C73.9591 82.1308 115.802 84.9812 122.893 85.3251L122.853 86.163V86.1594Z" fill="#BEBEBE"/>
<path d="M72.5116 81.8199C71.6477 79.9319 69.909 76.3754 69.8906 76.3425L70.6479 75.9766C70.6662 76.0132 72.4123 79.577 73.2798 81.476L72.5152 81.8236L72.5116 81.8199Z" fill="#BEBEBE"/>
<path d="M71.6879 85.1035L69.0645 118.734L69.9037 118.799L72.5272 85.1684L71.6879 85.1035Z" fill="#BEBEBE"/>
<path d="M58.3813 78.074C56.3448 81.9964 55.5435 84.0674 55.084 87.2031C54.6245 90.3388 55.0178 92.8891 58.3666 96.0907C61.7153 99.2924 64.9318 101.319 65.4574 101.905C65.9831 102.494 67.3616 103.965 68.049 105.728C68.74 107.492 69.0341 108.798 69.659 108.733C70.2839 108.667 70.3795 107.262 70.1847 106.705C69.9862 106.149 69.9237 105.791 69.9237 105.791C69.9237 105.791 70.4163 105.758 70.6148 104.583C70.8133 103.409 69.8612 102.066 69.8612 102.066C69.8612 102.066 70.3869 102.198 70.8133 101.868C71.2397 101.539 71.1073 99.6802 70.6478 99.1899C70.1884 98.6996 69.2363 97.8178 69.2363 97.8178C69.2363 97.8178 70.6074 98.0154 71.0706 97.6861C71.5337 97.3604 71.2397 95.8895 70.8427 95.3663C70.4457 94.843 70.0229 93.6356 69.7252 92.9148C69.4311 92.1976 70.0193 90.9536 70.2839 88.374C70.5486 85.7944 69.2988 84.8138 68.6739 84.8138C68.049 84.8138 68.3136 86.4786 68.049 87.2324C67.788 87.9825 66.5712 89.3217 66.3433 89.5192C66.1118 89.7168 65.6229 88.3447 65.6523 87.3312C65.6853 86.3176 68.049 81.8098 68.049 81.8098L68.1482 78.6411C68.1482 78.6411 66.8249 78.6484 63.5239 78.4874C60.1751 78.3228 58.3813 78.0703 58.3813 78.0703V78.074Z" fill="#D6D6D6"/>
<path d="M65.8511 87.6993C65.7665 87.6993 65.682 87.659 65.6342 87.5785C63.1346 83.6561 59.2859 82.3389 59.2491 82.3242C59.1131 82.2803 59.0433 82.134 59.0874 82.0022C59.1315 81.8669 59.2785 81.7973 59.4109 81.8412C59.5763 81.8961 63.4654 83.2243 66.068 87.3041C66.1452 87.4248 66.1084 87.5822 65.9871 87.659C65.943 87.6846 65.8952 87.6993 65.8511 87.6993Z" fill="#757575"/>
<path d="M65.0606 93.0299C64.9503 93.0299 64.8511 92.9604 64.8143 92.8506C64.7959 92.7884 64.3806 91.3248 66.2847 89.0233C66.3729 88.9135 66.5383 88.8989 66.6449 88.9867C66.7552 89.0782 66.7699 89.2392 66.6817 89.3453C64.9724 91.409 65.3032 92.6896 65.3069 92.7006C65.3436 92.836 65.2665 92.9787 65.1304 93.0153C65.1047 93.0226 65.0827 93.0262 65.0569 93.0262L65.0606 93.0299Z" fill="#757575"/>
<path d="M112.851 68.0587C112.814 71.5859 111.932 81.1944 111.274 81.6518C110.616 82.1091 80.0913 81.392 79.3708 81.2603C78.6504 81.1285 72.3903 76.5548 72.1072 76.489C71.8242 76.4231 72.938 63.291 73.2026 62.9617C73.4673 62.6324 103.202 63.8765 103.661 63.8765C104.121 63.8765 112.855 67.605 112.851 68.0587Z" fill="#BEBEBE"/>
<path d="M80.6796 68.0839C80.437 68.0839 79.5989 67.8607 75.0702 64.8786C74.8753 64.7505 74.8239 64.4908 74.9525 64.2968C75.0812 64.1029 75.3422 64.0517 75.537 64.1797C77.7058 65.6104 80.2018 67.1325 80.6759 67.246C81.0803 67.2094 82.5727 67.213 85.5245 67.2277C87.2117 67.235 89.2261 67.246 91.3913 67.246C91.6229 67.246 91.8103 67.4326 91.8103 67.6631C91.8103 67.8936 91.6229 68.0802 91.3913 68.0802C89.2261 68.0802 87.2081 68.0692 85.5208 68.0619C83.0138 68.0509 81.0325 68.04 80.7384 68.0765C80.7237 68.0765 80.7054 68.0802 80.6796 68.0802V68.0839Z" fill="#E9E9E9"/>
<path d="M79.5031 81.0247C79.5031 81.0247 79.4736 81.0247 79.4589 81.0247C79.2274 80.999 79.0619 80.7941 79.084 80.5636C79.0877 80.5197 79.5435 76.1472 79.7383 71.9614C79.7493 71.7309 79.9405 71.5589 80.1794 71.5626C80.411 71.5735 80.5911 71.7675 80.5801 72.0016C80.3853 76.2131 79.9258 80.6075 79.9221 80.6514C79.9001 80.8673 79.7163 81.0283 79.5031 81.0283V81.0247Z" fill="#E9E9E9"/>
<path d="M107.484 68.9844C104.617 68.9844 101.849 68.871 101.808 68.8673C101.577 68.8564 101.397 68.6624 101.408 68.4319C101.419 68.2014 101.603 68.0221 101.845 68.0331C101.908 68.0331 108.098 68.2892 111.513 68.0331C111.744 68.0112 111.947 68.1868 111.965 68.4173C111.983 68.6478 111.811 68.8491 111.579 68.8673C110.417 68.9552 108.94 68.9844 107.491 68.9844H107.484Z" fill="#E9E9E9"/>
<path d="M67.9461 82.7519C67.9461 82.7519 67.935 82.7519 67.9314 82.7519C67.799 82.7446 67.6998 82.6312 67.7108 82.4995C68.1004 76.6158 69.4936 67.2306 70.0413 64.779C70.0707 64.651 70.1957 64.5705 70.3244 64.5998C70.453 64.629 70.5339 64.7534 70.5045 64.8815C69.9605 67.322 68.5746 76.6707 68.185 82.5324C68.1776 82.6568 68.071 82.7519 67.9461 82.7519Z" fill="#4F4F4F"/>
<path d="M96.4857 52.9637C94.5926 52.9637 91.4975 52.7259 88.5898 50.4647C86.5166 48.8511 85.4065 46.8679 84.8404 45.4885C84.7926 45.3677 84.8477 45.2287 84.969 45.1811C85.0903 45.1335 85.23 45.1884 85.2778 45.3092C85.8218 46.6337 86.8879 48.5401 88.8802 50.0915C92.0856 52.5869 95.552 52.5174 97.2209 52.4808C98.8309 52.4478 102.577 52.371 103.374 50.4171C103.635 49.7804 103.58 49.0194 103.22 48.1485C103.169 48.0278 103.227 47.8888 103.349 47.8375C103.47 47.7863 103.61 47.8448 103.661 47.9656C104.073 48.9535 104.128 49.839 103.819 50.5964C102.904 52.843 99.0809 52.9198 97.2466 52.9564C97.0224 52.9601 96.7687 52.9674 96.4894 52.9674L96.4857 52.9637Z" fill="#4F4F4F"/>
<path d="M109.767 27.6432C109.767 27.6432 109.899 22.4731 102.709 21.2839C95.5225 20.0984 90.0307 22.806 89.2808 24.7746C89.2808 24.7746 88.2221 21.101 89.9278 16.4577C91.604 11.9023 99.3749 8.2543 102.22 9.07757C105.889 10.135 112.384 15.1295 111.759 20.3289C111.259 24.4965 109.767 27.6432 109.767 27.6432Z" fill="#B1B1B1"/>
<path d="M107.613 20.5278C107.613 20.5278 102.83 17.414 96.8936 18.6544C96.8936 18.6544 99.0146 12.5951 103.859 13.8721C108.708 15.1528 107.609 20.5241 107.609 20.5241L107.613 20.5278Z" fill="#717171"/>
<path d="M89.5791 21.9196C90.862 20.4011 92.5897 19.4096 94.4497 18.7509C95.4606 18.3924 96.5083 18.074 97.5853 18.0118C98.6881 17.946 99.8239 18.0594 100.923 18.1509C103.11 18.3302 105.323 18.729 107.205 19.9182C108.878 20.9719 110.333 22.5892 111.223 24.3492C111.333 24.5687 110.999 24.7992 110.852 24.587C109.76 23.0429 108.676 21.5683 107.069 20.5072C105.268 19.3144 103.125 18.9193 101.004 18.7363C100.011 18.6521 98.9969 18.5643 98.0007 18.5753C96.942 18.5863 95.9164 18.8607 94.9166 19.1973C93.075 19.823 91.3179 20.7561 90.0533 22.2562C89.8144 22.538 89.3402 22.2087 89.5791 21.9233V21.9196Z" fill="#4F4F4F"/>
<path d="M102.701 9.26253C103.135 10.32 102.988 11.4762 102.613 12.5337C102.532 12.7569 102.161 12.6837 102.198 12.4422C102.349 11.436 102.661 10.4627 102.286 9.46378C102.183 9.18935 102.591 8.98811 102.705 9.26619L102.701 9.26253Z" fill="#4F4F4F"/>
</g>
<path fill-rule="evenodd" clip-rule="evenodd" d="M11.6895 114.305C13.0657 114.305 14.1798 115.432 14.1798 116.821C14.1798 118.21 13.0657 119.337 11.6895 119.337C10.3133 119.337 9.19922 118.21 9.19922 116.821C9.19922 115.432 10.3152 114.305 11.6895 114.305Z" fill="#E1E1E1"/>
<path fill-rule="evenodd" clip-rule="evenodd" d="M10.823 114.648C11.578 114.648 12.2614 114.958 12.7544 115.458C13.2491 115.958 13.5533 116.646 13.5533 117.409C13.5533 118.172 13.2473 118.863 12.7544 119.361C12.2596 119.861 11.5761 120.17 10.823 120.17C10.0699 120.17 9.38635 119.861 8.8916 119.361C8.39684 118.863 8.09082 118.172 8.09082 117.409C8.09082 116.646 8.39684 115.958 8.8916 115.458C9.38635 114.958 10.068 114.648 10.823 114.648ZM12.4135 115.802C12.0067 115.389 11.4442 115.135 10.823 115.135C10.2018 115.135 9.63923 115.389 9.23243 115.802C8.82563 116.211 8.57458 116.782 8.57458 117.409C8.57458 118.037 8.82746 118.605 9.23426 119.016C9.64106 119.428 10.2036 119.681 10.8248 119.681C11.446 119.681 12.0086 119.428 12.4154 119.016C12.8222 118.604 13.0732 118.037 13.0732 117.409C13.0732 116.782 12.8222 116.213 12.4154 115.802H12.4135Z" fill="#E1E1E1"/>
<path fill-rule="evenodd" clip-rule="evenodd" d="M17.9374 114.305H52.5155C53.9191 114.305 55.068 115.466 55.068 116.886C55.068 118.304 53.9191 119.465 52.5155 119.465H17.9374C16.5337 119.465 15.3848 118.304 15.3848 116.886C15.3848 115.466 16.5337 114.305 17.9374 114.305Z" fill="#E1E1E1"/>
<path fill-rule="evenodd" clip-rule="evenodd" d="M17.07 114.648H51.6481C52.4159 114.648 53.114 114.967 53.6198 115.476C54.1255 115.989 54.4389 116.695 54.4389 117.47C54.4389 118.246 54.1255 118.952 53.6198 119.463C53.114 119.976 52.4159 120.294 51.6481 120.294H17.07C16.3022 120.294 15.604 119.976 15.0983 119.465C14.5925 118.952 14.2773 118.246 14.2773 117.47C14.2773 116.695 14.5925 115.989 15.0983 115.478C15.604 114.967 16.304 114.648 17.07 114.648ZM51.6481 115.135H17.07C16.4341 115.135 15.8551 115.398 15.4373 115.822C15.0195 116.245 14.7593 116.83 14.7593 117.472C14.7593 118.115 15.0195 118.7 15.4373 119.124C15.8569 119.546 16.436 119.809 17.07 119.809H51.6481C52.2839 119.809 52.863 119.546 53.2808 119.124C53.6986 118.7 53.9588 118.115 53.9588 117.472C53.9588 116.83 53.6986 116.246 53.2808 115.822C52.863 115.398 52.2839 115.135 51.6481 115.135Z" fill="#E1E1E1"/>
<path fill-rule="evenodd" clip-rule="evenodd" d="M48.8356 53.2629C45.059 55.0071 41.209 55.7922 37.1703 55.7922C23.3061 55.7922 12.0586 45.8952 12.0586 33.693C12.0586 21.4907 23.3061 11.5938 37.1722 11.5938C51.0382 11.5938 62.2839 21.4907 62.2839 33.6911C62.2839 39.0905 60.1161 43.9844 56.4586 47.8432C62.5844 50.7743 68.7121 53.7036 74.8398 56.6347C48.8375 53.261 57.5049 54.385 48.8375 53.261L48.8356 53.2629Z" fill="#C8C8C8"/>
<path fill-rule="evenodd" clip-rule="evenodd" d="M49.8451 53.3827C47.9596 54.2474 46.0575 54.8751 44.1243 55.288C42.1654 55.7065 40.1735 55.9065 38.1377 55.9065C31.1378 55.9065 24.7957 53.4049 20.2036 49.3647C15.6005 45.3152 12.7529 39.7158 12.7529 33.5314C12.7529 27.3469 15.6005 21.7494 20.2036 17.6981C24.7957 13.6578 31.1378 11.1562 38.1377 11.1562C45.1376 11.1562 51.4797 13.656 56.0718 17.6981C60.6749 21.7476 63.5225 27.3469 63.5225 33.5314C63.5225 36.2199 62.9929 38.7845 62.0144 41.1619C61.0487 43.5098 59.6432 45.6762 57.8804 47.5964L75.9226 56.225L75.7723 56.7471L49.8451 53.3827ZM44.0143 54.7492C45.9347 54.3382 47.8221 53.7123 49.6912 52.8494L49.8378 52.8272L74.1396 55.9806L57.3105 47.9315L56.9697 47.7686L57.2317 47.4927C59.0678 45.554 60.5264 43.3487 61.5141 40.9509C62.4651 38.64 62.9819 36.1459 62.9819 33.5314C62.9819 27.5136 60.2057 22.0624 55.7199 18.1147C51.2231 14.1577 45.0075 11.708 38.1432 11.708C31.2789 11.708 25.0633 14.1559 20.5664 18.1147C16.0806 22.0624 13.3045 27.5136 13.3045 33.5314C13.3045 39.5492 16.0806 45.0004 20.5664 48.9481C25.0633 52.905 31.2789 55.3547 38.1432 55.3547C40.146 55.3547 42.0994 55.1603 44.0198 54.7511L44.0143 54.7492Z" fill="#999999"/>
<path fill-rule="evenodd" clip-rule="evenodd" d="M38.3627 40.9681C38.3627 38.1684 38.3627 36.6871 40.6038 33.8467C42.3959 31.584 44.4317 29.1546 44.4317 25.7384C44.4317 22.1166 42.0276 18.5781 36.1638 18.5781C33.3528 18.5781 30.868 19.4428 29.4424 20.3057L30.7049 24.7515C31.8044 23.9682 33.4334 23.5164 34.8188 23.5164C37.1405 23.5164 38.3224 24.7922 38.3224 26.6864C38.3224 28.4566 37.2632 30.0619 35.7148 32.1191C33.8824 34.5466 33.0266 36.8111 33.0266 39.1164C33.0266 39.4868 33.0669 39.6515 33.1476 40.9681H38.3609H38.3627ZM35.6745 51.2576C37.8734 51.2576 39.2588 49.6522 39.2588 47.5117C39.2588 45.2472 37.7928 43.6844 35.6745 43.6844C33.5562 43.6844 32.0903 45.2472 32.0903 47.5117C32.0903 49.5689 33.4353 51.2576 35.6745 51.2576Z" fill="white"/>
<path fill-rule="evenodd" clip-rule="evenodd" d="M37.6957 40.3058C37.6957 37.5062 37.6957 36.0249 39.9349 33.1845C41.7271 30.9218 43.7629 28.4924 43.7629 25.0762C43.7629 21.4544 41.3606 17.9141 35.4949 17.9141C32.684 17.9141 30.1992 18.7788 28.7754 19.6416L30.0379 24.0874C31.1374 23.306 32.7664 22.8524 34.1518 22.8524C36.4735 22.8524 37.6554 24.1281 37.6554 26.0224C37.6554 27.7925 36.5962 29.3979 35.0497 31.455C33.2172 33.8825 32.3615 36.1471 32.3615 38.4524C32.3615 38.8227 32.4018 38.9875 32.4842 40.304H37.6975L37.6957 40.3058ZM35.0075 50.5954C37.2064 50.5954 38.5918 48.99 38.5918 46.8495C38.5918 44.585 37.1258 43.0222 35.0075 43.0222C32.8892 43.0222 31.4233 44.5868 31.4233 46.8495C31.4233 48.9067 32.7664 50.5954 35.0075 50.5954Z" fill="#999999"/>
<path fill-rule="evenodd" clip-rule="evenodd" d="M160.131 23.8594H125.553C124.149 23.8594 123 25.0203 123 26.4387C123 27.857 124.149 29.018 125.553 29.018H160.131C161.534 29.018 162.683 27.857 162.683 26.4387C162.683 25.0203 161.534 23.8594 160.131 23.8594Z" fill="#E1E1E1"/>
<path fill-rule="evenodd" clip-rule="evenodd" d="M160.369 24.2031H125.791C125.023 24.2031 124.325 24.5216 123.819 25.0327C123.313 25.5456 123 26.251 123 27.0269C123 27.8027 123.315 28.5082 123.819 29.0192C124.325 29.5321 125.023 29.8488 125.791 29.8488H160.369C161.137 29.8488 161.835 29.5303 162.341 29.0192C162.846 28.5063 163.16 27.8008 163.16 27.025C163.16 26.2492 162.845 25.5437 162.341 25.0327C161.835 24.5198 161.135 24.2031 160.369 24.2031ZM125.791 24.6901H160.369C161.005 24.6901 161.584 24.953 162.002 25.3752C162.419 25.7992 162.68 26.3825 162.68 27.025C162.68 27.6675 162.419 28.2508 162.002 28.6748C161.582 29.097 161.005 29.3599 160.369 29.3599H125.791C125.155 29.3599 124.578 29.097 124.158 28.6748C123.74 28.2508 123.48 27.6675 123.48 27.025C123.48 26.3825 123.74 25.7974 124.158 25.3752C124.578 24.953 125.157 24.6901 125.791 24.6901Z" fill="#E1E1E1"/>
<path fill-rule="evenodd" clip-rule="evenodd" d="M37.1307 87.4609H2.55259C1.14711 87.4609 0 88.6201 0 90.0403C0 91.4605 1.14894 92.6196 2.55259 92.6196H37.1307C38.5362 92.6196 39.6833 91.4605 39.6833 90.0403C39.6833 88.6201 38.5343 87.4609 37.1307 87.4609Z" fill="#E1E1E1"/>
<path fill-rule="evenodd" clip-rule="evenodd" d="M37.9978 87.7987H3.41971C2.65192 87.7987 1.95376 88.1172 1.44801 88.6264C0.942253 89.1393 0.628906 89.8448 0.628906 90.6206C0.628906 91.3964 0.944086 92.1019 1.44801 92.613C1.95376 93.1259 2.65192 93.4425 3.41971 93.4425H37.9978C38.7656 93.4425 39.4638 93.124 39.9695 92.613C40.4753 92.1019 40.7905 91.3946 40.7905 90.6206C40.7905 89.8466 40.4753 89.1375 39.9695 88.6264C39.4638 88.1135 38.7656 87.7969 37.9978 87.7969V87.7987ZM3.41971 88.2857H37.9978C38.6337 88.2857 39.2109 88.5486 39.6305 88.9708C40.0483 89.3948 40.3085 89.9799 40.3085 90.6225C40.3085 91.265 40.0483 91.8482 39.6305 92.2723C39.2109 92.6944 38.6318 92.9574 37.9978 92.9574H3.41971C2.78385 92.9574 2.2048 92.6944 1.78701 92.2723C1.36921 91.8482 1.10901 91.265 1.10901 90.6225C1.10901 89.9799 1.36921 89.3948 1.78701 88.9708C2.2048 88.5486 2.78385 88.2857 3.41971 88.2857Z" fill="#E1E1E1"/>
<path fill-rule="evenodd" clip-rule="evenodd" d="M89.1385 139.727H54.5604C53.1549 139.727 52.0078 140.888 52.0078 142.306C52.0078 143.726 53.1567 144.885 54.5604 144.885H89.1385C90.544 144.885 91.6911 143.724 91.6911 142.306C91.6911 140.888 90.5422 139.727 89.1385 139.727Z" fill="#E1E1E1"/>
<path fill-rule="evenodd" clip-rule="evenodd" d="M90.0076 140.062H55.4295C54.6617 140.062 53.9635 140.381 53.4578 140.892C52.952 141.405 52.6387 142.11 52.6387 142.886C52.6387 143.662 52.9539 144.368 53.4578 144.879C53.9635 145.39 54.6617 145.708 55.4295 145.708H90.0076C90.7754 145.708 91.4735 145.39 91.9793 144.88C92.485 144.368 92.7984 143.662 92.7984 142.886C92.7984 142.11 92.4832 141.403 91.9793 140.892C91.4735 140.379 90.7754 140.062 90.0076 140.062ZM55.4295 140.549H90.0076C90.6434 140.549 91.2207 140.812 91.6403 141.235C92.0581 141.659 92.3183 142.244 92.3183 142.886C92.3183 143.529 92.0581 144.112 91.6403 144.536C91.2207 144.958 90.6434 145.223 90.0076 145.223H55.4295C54.7936 145.223 54.2164 144.96 53.7968 144.536C53.379 144.114 53.1188 143.529 53.1188 142.886C53.1188 142.244 53.379 141.659 53.7968 141.235C54.2164 140.812 54.7936 140.549 55.4295 140.549Z" fill="#E1E1E1"/>
<path fill-rule="evenodd" clip-rule="evenodd" d="M136.597 82.8828C137.973 82.8828 139.087 84.0086 139.087 85.3992C139.087 86.7898 137.971 87.9155 136.597 87.9155C135.222 87.9155 134.106 86.7879 134.106 85.3992C134.106 84.0105 135.221 82.8828 136.597 82.8828Z" fill="#C8C8C8"/>
<path fill-rule="evenodd" clip-rule="evenodd" d="M135.732 83.2266C136.487 83.2266 137.171 83.5358 137.664 84.0357C138.158 84.5357 138.464 85.2245 138.464 85.9873C138.464 86.7502 138.158 87.4409 137.664 87.939C137.169 88.4389 136.487 88.7481 135.732 88.7481C134.977 88.7481 134.296 88.4389 133.801 87.939C133.306 87.439 133 86.7502 133 85.9873C133 85.2245 133.306 84.5357 133.801 84.0357C134.296 83.5358 134.979 83.2266 135.732 83.2266ZM137.323 84.3783C136.916 83.9672 136.353 83.7117 135.732 83.7117C135.111 83.7117 134.548 83.9672 134.142 84.3783C133.735 84.7893 133.484 85.3578 133.484 85.9855C133.484 86.6132 133.735 87.1816 134.143 87.5927C134.55 88.0038 135.113 88.2593 135.734 88.2593C136.355 88.2593 136.918 88.0056 137.325 87.5927C137.731 87.1816 137.984 86.6132 137.984 85.9855C137.984 85.3578 137.731 84.7893 137.325 84.3783H137.323Z" fill="#C8C8C8"/>
<path fill-rule="evenodd" clip-rule="evenodd" d="M142.847 82.8828H177.425C178.828 82.8828 179.977 84.0438 179.977 85.4621C179.977 86.8805 178.828 88.0415 177.425 88.0415H142.847C141.443 88.0415 140.294 86.8805 140.294 85.4621C140.294 84.0438 141.443 82.8828 142.847 82.8828Z" fill="#E1E1E1"/>
<path fill-rule="evenodd" clip-rule="evenodd" d="M141.979 83.2266H176.557C177.325 83.2266 178.025 83.5432 178.531 84.0561C179.036 84.569 179.352 85.2745 179.352 86.0503C179.352 86.8261 179.036 87.5316 178.531 88.0427C178.025 88.5556 177.325 88.8722 176.557 88.8722H141.979C141.211 88.8722 140.511 88.5537 140.005 88.0427C139.5 87.5298 139.185 86.8243 139.185 86.0484C139.185 85.2726 139.5 84.5671 140.005 84.0561C140.511 83.5432 141.211 83.2266 141.979 83.2266ZM176.557 83.7135H141.979C141.343 83.7135 140.764 83.9765 140.346 84.3986C139.929 84.8227 139.668 85.4059 139.668 86.0484C139.668 86.691 139.929 87.2761 140.346 87.6983C140.764 88.1204 141.343 88.3852 141.979 88.3852H176.557C177.193 88.3852 177.772 88.1223 178.192 87.6983C178.609 87.2742 178.87 86.691 178.87 86.0484C178.87 85.4059 178.609 84.8208 178.192 84.3986C177.772 83.9765 177.193 83.7135 176.557 83.7135Z" fill="#E1E1E1"/>
<path fill-rule="evenodd" clip-rule="evenodd" d="M146.656 93.4922H181.234C182.64 93.4922 183.787 94.6532 183.787 96.0734C183.787 97.4917 182.638 98.6527 181.234 98.6527H146.656C145.251 98.6527 144.104 97.4917 144.104 96.0734C144.104 94.6532 145.252 93.4922 146.656 93.4922Z" fill="#E1E1E1"/>
<path fill-rule="evenodd" clip-rule="evenodd" d="M145.789 93.8359H180.367C181.135 93.8359 181.833 94.1544 182.339 94.6636C182.844 95.1765 183.16 95.882 183.16 96.6578C183.16 97.4337 182.844 98.1391 182.339 98.6502C181.833 99.1631 181.133 99.4816 180.367 99.4816H145.789C145.021 99.4816 144.321 99.1631 143.817 98.652C143.311 98.1391 142.998 97.4337 142.998 96.6578C142.998 95.882 143.313 95.1765 143.817 94.6655C144.323 94.1544 145.021 93.8359 145.789 93.8359ZM180.367 94.3229H145.789C145.153 94.3229 144.574 94.5858 144.156 95.0099C143.738 95.432 143.478 96.0172 143.478 96.6597C143.478 97.3022 143.738 97.8873 144.156 98.3113C144.574 98.7335 145.153 98.9964 145.789 98.9964H180.367C181.003 98.9964 181.58 98.7335 182 98.3113C182.419 97.8873 182.679 97.3022 182.679 96.6597C182.679 96.0172 182.419 95.432 182 95.0099C181.582 94.5858 181.003 94.3229 180.367 94.3229Z" fill="#E1E1E1"/>
</svg>
