<svg width="128" height="126" viewBox="0 0 128 126" fill="none" xmlns="http://www.w3.org/2000/svg">
<circle cx="60.7768" cy="60.7768" r="60.7768" fill="#F8F8F8"/>
<path d="M50.5963 97.9979C49.9354 97.9972 49.2812 97.866 48.6711 97.6118C48.0611 97.3576 47.5072 96.9854 47.0413 96.5167L37.8339 87.3329C37.7604 87.2596 37.7021 87.1724 37.6624 87.0765C37.6226 86.9806 37.6022 86.8778 37.6022 86.774C37.6022 86.6702 37.6226 86.5674 37.6624 86.4715C37.7021 86.3756 37.7604 86.2885 37.8339 86.2151C38.7673 85.2817 39.2917 84.0157 39.2917 82.6956C39.2917 81.3756 38.7673 80.1096 37.8339 79.1762C37.3717 78.714 36.823 78.3474 36.2191 78.0973C35.6153 77.8471 34.968 77.7184 34.3144 77.7184C32.9944 77.7184 31.7284 78.2428 30.795 79.1762C30.7216 79.2496 30.6345 79.3079 30.5386 79.3477C30.4427 79.3874 30.3399 79.4079 30.236 79.4079C30.1322 79.4079 30.0294 79.3874 29.9335 79.3477C29.8376 79.3079 29.7505 79.2496 29.6771 79.1762L20.4776 69.9529C19.5313 69.0031 19 67.717 19 66.3762C19 65.0355 19.5313 63.7493 20.4776 62.7995L62.8097 20.4792C63.7591 19.532 65.0454 19 66.3864 19C67.7275 19 69.0138 19.532 69.9632 20.4792L79.1588 29.6629C79.2322 29.7363 79.2905 29.8234 79.3302 29.9193C79.37 30.0153 79.3905 30.1181 79.3905 30.2219C79.3905 30.3257 79.37 30.4285 79.3302 30.5244C79.2905 30.6203 79.2322 30.7074 79.1588 30.7808C78.254 31.7207 77.7541 32.978 77.7665 34.2826C77.779 35.5871 78.3027 36.8347 79.2252 37.7572C80.1477 38.6797 81.3953 39.2035 82.6998 39.2159C84.0044 39.2283 85.2617 38.7284 86.2016 37.8236C86.3527 37.6809 86.5527 37.6013 86.7605 37.6013C86.9684 37.6013 87.1684 37.6809 87.3195 37.8236L96.5151 47.0429C97.4633 47.9918 97.9959 49.2783 97.9959 50.6197C97.9959 51.9611 97.4633 53.2476 96.5151 54.1964L54.1869 96.5167C53.7166 96.9895 53.157 97.364 52.5405 97.6183C51.9241 97.8726 51.2632 98.0017 50.5963 97.9979ZM39.4771 86.7246L48.1671 95.4146C48.8131 96.0559 49.686 96.4165 50.5963 96.4179C51.0529 96.419 51.5051 96.3294 51.9269 96.1545C52.3486 95.9796 52.7314 95.7227 53.0532 95.3988L95.4012 53.0667C96.0517 52.4137 96.417 51.5295 96.417 50.6078C96.417 49.6861 96.0517 48.8019 95.4012 48.1489L86.7112 39.4787C85.4493 40.4682 83.8687 40.9613 82.268 40.8648C80.6673 40.7683 79.1574 40.0889 78.0235 38.955C76.8895 37.8211 76.2102 36.3112 76.1137 34.7105C76.0172 33.1098 76.5103 31.5292 77.4998 30.2673L68.8098 21.5773C68.1568 20.9268 67.2726 20.5615 66.3509 20.5615C65.4292 20.5615 64.545 20.9268 63.892 21.5773L21.5954 63.9252C20.9449 64.5782 20.5796 65.4624 20.5796 66.3841C20.5796 67.3058 20.9449 68.19 21.5954 68.843L30.2854 77.533C31.5464 76.5413 33.1272 76.0463 34.7286 76.1416C36.3301 76.237 37.841 76.9162 38.9753 78.0505C40.1097 79.1849 40.7889 80.6958 40.8842 82.2972C40.9796 83.8986 40.4846 85.4794 39.4929 86.7404L39.4771 86.7246ZM56.9163 81.7318C57.0635 81.5838 57.146 81.3836 57.146 81.1749C57.146 80.9662 57.0635 80.766 56.9163 80.6179L36.3763 60.0779C36.3029 60.0045 36.2158 59.9463 36.1199 59.9066C36.024 59.8669 35.9212 59.8464 35.8174 59.8464C35.7136 59.8464 35.6108 59.8669 35.5149 59.9066C35.419 59.9463 35.3319 60.0045 35.2585 60.0779C35.1851 60.1513 35.1268 60.2385 35.0871 60.3344C35.0474 60.4303 35.027 60.5331 35.027 60.6369C35.027 60.7407 35.0474 60.8435 35.0871 60.9394C35.1268 61.0353 35.1851 61.1224 35.2585 61.1958L55.7985 81.716C55.9459 81.8644 56.1462 81.9482 56.3554 81.9491C56.5637 81.9535 56.7653 81.8754 56.9163 81.7318ZM64.6307 70.7627C64.8381 70.7333 65.0253 70.6228 65.1513 70.4554C65.2772 70.288 65.3315 70.0774 65.3022 69.87L60.9769 39.2022C60.9627 39.0984 60.9281 38.9985 60.8752 38.9081C60.8223 38.8178 60.7522 38.7387 60.6687 38.6754C60.5853 38.6121 60.4902 38.5659 60.3889 38.5394C60.2876 38.5129 60.182 38.5066 60.0783 38.5208C59.8688 38.5496 59.6793 38.6605 59.5515 38.829C59.4882 38.9125 59.442 39.0075 59.4155 39.1089C59.389 39.2102 59.3826 39.3157 59.3969 39.4194L63.7103 70.0912C63.7371 70.281 63.8321 70.4546 63.9774 70.5796C64.1228 70.7046 64.3086 70.7725 64.5003 70.7706L64.6307 70.7627ZM72.4675 62.677C71.584 62.6766 70.7143 62.4583 69.9353 62.0414C69.1564 61.6245 68.4923 61.022 68.0018 60.2871C67.5114 59.5523 67.2098 58.7078 67.1237 57.8286C67.0376 56.9493 67.1697 56.0624 67.5083 55.2463C67.8468 54.4303 68.3814 53.7104 69.0647 53.1503C69.748 52.5903 70.5589 52.2074 71.4255 52.0356C72.2921 51.8638 73.1877 51.9084 74.033 52.1654C74.8782 52.4224 75.647 52.884 76.2713 53.5091C77.0218 54.2606 77.5327 55.2177 77.7394 56.2594C77.9461 57.3012 77.8394 58.3808 77.4327 59.3619C77.0261 60.3431 76.3377 61.1816 75.4547 61.7717C74.5716 62.3617 73.5335 62.6768 72.4714 62.677H72.4675ZM72.4675 53.513C71.5912 53.5137 70.7424 53.8182 70.0654 54.3745C69.3884 54.9309 68.9253 55.7047 68.7548 56.5642C68.5844 57.4236 68.7171 58.3156 69.1305 59.0882C69.5439 59.8608 70.2124 60.4662 71.022 60.8013C71.8316 61.1363 72.7324 61.1803 73.5708 60.9258C74.4093 60.6713 75.1336 60.134 75.6203 59.4054C76.1071 58.6768 76.3262 57.802 76.2403 56.93C76.1545 56.058 75.769 55.2427 75.1495 54.623C74.7958 54.2685 74.3751 53.9878 73.912 53.7973C73.4488 53.6067 72.9525 53.5101 72.4517 53.513H72.4675ZM52.2435 57.3564C51.3598 57.3566 50.4898 57.1388 49.7104 56.7224C48.9311 56.3059 48.2665 55.7037 47.7755 54.969C47.2846 54.2342 46.9825 53.3898 46.896 52.5104C46.8095 51.631 46.9412 50.7438 47.2795 49.9275C47.6179 49.1112 48.1524 48.391 48.8356 47.8306C49.5189 47.2703 50.3298 46.8871 51.1965 46.7151C52.0633 46.5431 52.9591 46.5876 53.8045 46.8446C54.65 47.1016 55.419 47.5632 56.0434 48.1884C56.7938 48.94 57.3047 49.897 57.5114 50.9388C57.7181 51.9805 57.6114 53.0602 57.2048 54.0413C56.7981 55.0224 56.1098 55.861 55.2267 56.451C54.3437 57.0411 53.3055 57.3561 52.2435 57.3564ZM52.2435 48.1963C51.3669 48.2003 50.5187 48.5079 49.8433 49.0667C49.1679 49.6255 48.707 50.401 48.539 51.2614C48.3709 52.1217 48.5061 53.0137 48.9216 53.7856C49.3371 54.5575 50.0072 55.1616 50.8179 55.4951C51.6285 55.8286 52.5297 55.871 53.3681 55.615C54.2065 55.359 54.9303 54.8204 55.4163 54.0909C55.9024 53.3614 56.1207 52.486 56.0341 51.6137C55.9475 50.7414 55.5613 49.926 54.9413 49.3063C54.5881 48.9511 54.1675 48.6699 53.7043 48.4794C53.241 48.2888 52.7444 48.1925 52.2435 48.1963Z" fill="url(#paint0_linear_5352_18054)"/>
<rect width="14.7292" height="2.53951" rx="1.26976" transform="matrix(-0.707107 0.707107 0.707107 0.707107 20.415 21)" fill="#545454"/>
<rect width="14.7292" height="2.53951" rx="1.26976" transform="matrix(0.707107 0.707107 0.707107 -0.707107 10 22.7969)" fill="#545454"/>
<circle cx="10.1101" cy="77.1101" r="1.11008" stroke="#858585" stroke-width="3"/>
<path d="M62.9144 126.624C84.7865 126.624 102.517 125.589 102.517 124.312C102.517 123.035 84.7865 122 62.9144 122C41.0424 122 23.3115 123.035 23.3115 124.312C23.3115 125.589 41.0424 126.624 62.9144 126.624Z" fill="#EAEAEA"/>
<path d="M88.74 83.7805L94.6906 77.8299L119.211 98.7589C122.215 101.322 122.395 105.901 119.603 108.693C116.811 111.485 112.232 111.304 109.669 108.301L88.74 83.7805Z" fill="#3E3E3E"/>
<path d="M92.9648 88.7276L109.669 108.299C112.232 111.302 116.811 111.482 119.603 108.69C122.395 105.899 122.215 101.319 119.211 98.7562L97.3644 80.1094C96.4853 83.2789 94.9722 86.1968 92.9648 88.7276Z" fill="#6B6B6B"/>
<path fill-rule="evenodd" clip-rule="evenodd" d="M69.6265 53.0059C66.8263 54.8284 64.6082 57.4653 63.262 60.5903C61.9156 63.716 61.5049 67.1834 62.0849 70.5518C62.6649 73.9199 64.2076 77.0286 66.5088 79.4876C68.8094 81.9458 71.7639 83.6439 74.9946 84.3772C78.2249 85.1104 81.5955 84.8485 84.683 83.6223L84.6833 83.6222C86.7343 82.8079 88.6123 81.587 90.2085 80.026C91.8049 78.465 93.0881 76.5944 93.9819 74.5194C94.8758 72.4444 95.3619 70.2074 95.4108 67.9367C95.4597 65.666 95.0705 63.4089 94.2666 61.2949L94.2665 61.2947C93.0562 58.1107 90.9532 55.375 88.2331 53.4269C85.5137 51.4794 82.2974 50.4043 78.9909 50.3296C75.6845 50.255 72.4259 51.1839 69.6265 53.0059ZM58.0875 58.3613C59.8673 54.2295 62.8101 50.7199 66.5531 48.2838C70.2968 45.8472 74.6697 44.5964 79.1181 44.6969C83.5665 44.7973 87.8802 46.2441 91.5136 48.8463C95.1464 51.448 97.9338 55.0856 99.5331 59.2926C100.595 62.0863 101.108 65.0646 101.044 68.0581C100.979 71.0517 100.338 74.0045 99.1565 76.7484C97.9744 79.4925 96.2735 81.9756 94.1477 84.0543C92.022 86.1331 89.513 87.7667 86.7626 88.8587C82.6199 90.5039 78.0896 90.8572 73.7475 89.8717C69.4059 88.8863 65.4566 86.6088 62.3951 83.3375C59.3342 80.0668 57.2971 75.9491 56.5324 71.5079C55.7677 67.0669 56.3078 62.4927 58.0875 58.3613Z" fill="#6B6B6B"/>
<path d="M117.011 98.9525L99.3447 84.4862C98.7971 84.0378 98.1591 84.6684 98.6025 85.2199L112.868 102.963C113.419 103.648 114.214 104.093 115.041 104.179L115.531 104.23C117.223 104.407 118.496 103.07 118.246 101.379L118.188 100.985C118.074 100.209 117.648 99.4741 117.011 98.9525Z" fill="#A3A3A3"/>
<rect width="22.9185" height="3.95147" rx="1.97574" transform="matrix(-0.707107 0.707107 0.707107 0.707107 85.2061 58)" fill="#6B6B6B"/>
<rect width="22.9185" height="3.95147" rx="1.97574" transform="matrix(0.707107 0.707107 0.707107 -0.707107 69 60.7969)" fill="#6B6B6B"/>
<rect width="12.8004" height="2.20696" rx="1.10348" transform="matrix(-0.707107 0.707107 0.707107 0.707107 111.051 37)" fill="#858585"/>
<rect width="12.8004" height="2.20696" rx="1.10348" transform="matrix(0.707107 0.707107 0.707107 -0.707107 102 38.5625)" fill="#858585"/>
<rect width="10.8561" height="1.87174" rx="0.935869" transform="matrix(-0.707107 0.707107 0.707107 0.707107 44.6768 107)" fill="#545454"/>
<rect width="10.8561" height="1.87174" rx="0.935869" transform="matrix(0.707107 0.707107 0.707107 -0.707107 37 108.32)" fill="#545454"/>
<defs>
<linearGradient id="paint0_linear_5352_18054" x1="30.5" y1="16.5" x2="75.351" y2="75.3486" gradientUnits="userSpaceOnUse">
<stop stop-color="#F8F8F8"/>
<stop offset="1" stop-color="#BDBDBD"/>
<stop offset="1" stop-color="#AFAFAF"/>
</linearGradient>
</defs>
</svg>
