<svg width="128" height="128" viewBox="0 0 128 128" fill="none" xmlns="http://www.w3.org/2000/svg">
<g clip-path="url(#clip0_5364_39724)">
<circle cx="60.7768" cy="62.7768" r="60.7768" fill="#F8F8F8"/>
<path d="M89.029 103.448H32.6552C31.1888 103.448 30 102.26 30 100.793V24.6552C30 23.1888 31.1888 22 32.6552 22H76.6726L91.6842 35.8569V100.793C91.6842 102.26 90.4955 103.448 89.029 103.448Z" fill="#F8F8F8" stroke="#CCCCCC" stroke-width="2"/>
<path fill-rule="evenodd" clip-rule="evenodd" d="M36.7852 39.0229C36.7852 38.0136 37.6034 37.1953 38.6127 37.1953H73.9995C75.0089 37.1953 75.8271 38.0136 75.8271 39.0229C75.8271 40.0322 75.0089 40.8505 73.9995 40.8505H38.6127C37.6034 40.8505 36.7852 40.0322 36.7852 39.0229ZM36.7852 50.2878C36.7852 49.2784 37.6034 48.4602 38.6127 48.4602H84.2731C85.2825 48.4602 86.1007 49.2784 86.1007 50.2878C86.1007 51.2971 85.2825 52.1154 84.2731 52.1154H38.6127C37.6034 52.1154 36.7852 51.2971 36.7852 50.2878ZM36.7852 61.5527C36.7852 60.5433 37.6034 59.7251 38.6127 59.7251H51.1693C52.1787 59.7251 52.9969 60.5433 52.9969 61.5527C52.9969 62.562 52.1787 63.3803 51.1693 63.3803H38.6127C37.6034 63.3803 36.7852 62.562 36.7852 61.5527ZM57.3323 61.5527C57.3323 60.5433 58.1506 59.7251 59.1599 59.7251H84.2731C85.2825 59.7251 86.1007 60.5433 86.1007 61.5527C86.1007 62.562 85.2825 63.3803 84.2731 63.3803H59.1599C58.1506 63.3803 57.3323 62.562 57.3323 61.5527ZM36.7852 72.8176C36.7852 71.8082 37.6034 70.99 38.6127 70.99H71.7165C72.7259 70.99 73.5441 71.8082 73.5441 72.8176C73.5441 73.8269 72.7259 74.6452 71.7165 74.6452H38.6127C37.6034 74.6452 36.7852 73.8269 36.7852 72.8176ZM77.8795 72.8176C77.8795 71.8082 78.6977 70.99 79.7071 70.99H84.2731C85.2825 70.99 86.1007 71.8082 86.1007 72.8176C86.1007 73.8269 85.2825 74.6452 84.2731 74.6452H79.7071C78.6977 74.6452 77.8795 73.8269 77.8795 72.8176ZM36.7852 82.956C36.7852 81.9466 37.6034 81.1284 38.6127 81.1284H80.8486C81.8579 81.1284 82.6762 81.9466 82.6762 82.956C82.6762 83.9653 81.8579 84.7836 80.8486 84.7836H38.6127C37.6034 84.7836 36.7852 83.9653 36.7852 82.956ZM36.7852 93.0944C36.7852 92.085 37.6034 91.2668 38.6127 91.2668H69.4335C70.4428 91.2668 71.2611 92.085 71.2611 93.0944C71.2611 94.1037 70.4428 94.922 69.4335 94.922H38.6127C37.6034 94.922 36.7852 94.1037 36.7852 93.0944Z" fill="#CCCCCC"/>
<path d="M36.7852 39.0229C36.7852 38.0136 37.6034 37.1953 38.6127 37.1953H73.9995C75.0089 37.1953 75.8271 38.0136 75.8271 39.0229C75.8271 40.0322 75.0089 40.8505 73.9995 40.8505H38.6127C37.6034 40.8505 36.7852 40.0322 36.7852 39.0229Z" fill="#545454"/>
<path d="M77.0635 21L92.6841 35.4191H81.0635C78.8543 35.4191 77.0635 33.6282 77.0635 31.4191V21Z" fill="#CCCCCC"/>
<rect width="14.7292" height="2.53951" rx="1.26976" transform="matrix(-0.707107 0.707107 0.707107 0.707107 20.415 23)" fill="#545454"/>
<rect width="14.7292" height="2.53951" rx="1.26976" transform="matrix(0.707107 0.707107 0.707107 -0.707107 10 24.7969)" fill="#545454"/>
<circle cx="10.1101" cy="79.1101" r="1.11008" stroke="#858585" stroke-width="3"/>
<path d="M62.9144 128.624C84.7865 128.624 102.517 127.589 102.517 126.312C102.517 125.035 84.7865 124 62.9144 124C41.0424 124 23.3115 125.035 23.3115 126.312C23.3115 127.589 41.0424 128.624 62.9144 128.624Z" fill="#EAEAEA"/>
<path d="M88.74 85.7805L94.6906 79.8299L119.211 100.759C122.215 103.322 122.395 107.901 119.603 110.693C116.811 113.485 112.232 113.304 109.669 110.301L88.74 85.7805Z" fill="#3E3E3E"/>
<path d="M92.9648 90.7276L109.669 110.299C112.232 113.302 116.811 113.482 119.603 110.69C122.395 107.899 122.215 103.319 119.211 100.756L97.3644 82.1094C96.4853 85.2789 94.9722 88.1968 92.9648 90.7276Z" fill="#6B6B6B"/>
<path fill-rule="evenodd" clip-rule="evenodd" d="M69.6265 55.0059C66.8263 56.8284 64.6082 59.4653 63.262 62.5903C61.9156 65.716 61.5049 69.1834 62.0849 72.5518C62.6649 75.9199 64.2076 79.0286 66.5088 81.4876C68.8094 83.9458 71.7639 85.6439 74.9946 86.3772C78.2249 87.1104 81.5955 86.8485 84.683 85.6223L84.6833 85.6222C86.7343 84.8079 88.6123 83.587 90.2085 82.026C91.8049 80.465 93.0881 78.5944 93.9819 76.5194C94.8758 74.4444 95.3619 72.2074 95.4108 69.9367C95.4597 67.666 95.0705 65.4089 94.2666 63.2949L94.2665 63.2947C93.0562 60.1107 90.9532 57.375 88.2331 55.4269C85.5137 53.4794 82.2974 52.4043 78.9909 52.3296C75.6845 52.255 72.4259 53.1839 69.6265 55.0059ZM58.0875 60.3613C59.8673 56.2295 62.8101 52.7199 66.5531 50.2838C70.2968 47.8472 74.6697 46.5964 79.1181 46.6969C83.5665 46.7973 87.8802 48.2441 91.5136 50.8463C95.1464 53.448 97.9338 57.0856 99.5331 61.2926C100.595 64.0863 101.108 67.0646 101.044 70.0581C100.979 73.0517 100.338 76.0045 99.1565 78.7484C97.9744 81.4925 96.2735 83.9756 94.1477 86.0543C92.022 88.1331 89.513 89.7667 86.7626 90.8587C82.6199 92.5039 78.0896 92.8572 73.7475 91.8717C69.4059 90.8863 65.4566 88.6088 62.3951 85.3375C59.3342 82.0668 57.2971 77.9491 56.5324 73.5079C55.7677 69.0669 56.3078 64.4927 58.0875 60.3613Z" fill="#6B6B6B"/>
<path d="M117.011 100.953L99.3447 86.4862C98.7971 86.0378 98.1591 86.6684 98.6025 87.2199L112.868 104.963C113.419 105.648 114.214 106.093 115.041 106.179L115.531 106.23C117.223 106.407 118.496 105.07 118.246 103.379L118.188 102.985C118.074 102.209 117.648 101.474 117.011 100.953Z" fill="#A3A3A3"/>
<rect width="22.9185" height="3.95147" rx="1.97574" transform="matrix(-0.707107 0.707107 0.707107 0.707107 85.2061 60)" fill="#6B6B6B"/>
<rect width="22.9185" height="3.95147" rx="1.97574" transform="matrix(0.707107 0.707107 0.707107 -0.707107 69 62.7969)" fill="#6B6B6B"/>
<rect width="12.8004" height="2.20696" rx="1.10348" transform="matrix(-0.707107 0.707107 0.707107 0.707107 111.051 39)" fill="#858585"/>
<rect width="12.8004" height="2.20696" rx="1.10348" transform="matrix(0.707107 0.707107 0.707107 -0.707107 102 40.5625)" fill="#858585"/>
<rect width="10.8561" height="1.87174" rx="0.935869" transform="matrix(-0.707107 0.707107 0.707107 0.707107 44.6768 109)" fill="#545454"/>
<rect width="10.8561" height="1.87174" rx="0.935869" transform="matrix(0.707107 0.707107 0.707107 -0.707107 37 110.32)" fill="#545454"/>
</g>
<defs>
<clipPath id="clip0_5364_39724">
<rect width="128" height="128" fill="white"/>
</clipPath>
</defs>
</svg>
