<svg width="170" height="212" viewBox="0 0 170 212" fill="none" xmlns="http://www.w3.org/2000/svg">
<g filter="url(#filter0_f_153_22966)">
<ellipse cx="89.1983" cy="185.019" rx="59.0548" ry="3.36255" fill="#A0A0A0" fill-opacity="0.3"/>
</g>
<g opacity="0.4" clip-path="url(#clip0_153_22966)">
<path d="M46.4246 59.5646C46.4246 61.1988 47.0738 62.7661 48.2294 63.9216C49.3849 65.0771 50.9521 65.7263 52.5863 65.7263C52.9132 65.7263 53.2266 65.8562 53.4577 66.0873C53.6888 66.3184 53.8187 66.6318 53.8187 66.9587C53.8187 67.2855 53.6888 67.5989 53.4577 67.83C53.2266 68.0612 52.9132 68.191 52.5863 68.191C50.8802 68.191 49.2124 67.6851 47.7938 66.7372C46.3752 65.7893 45.2695 64.4421 44.6166 62.8658C43.9637 61.2895 43.7929 59.5551 44.1257 57.8817C44.4586 56.2084 45.2801 54.6713 46.4866 53.4649C47.693 52.2585 49.2301 51.4369 50.9034 51.104C52.5767 50.7712 54.3112 50.942 55.8875 51.5949C57.4637 52.2478 58.811 53.3535 59.7589 54.7721C60.7067 56.1907 61.2127 57.8585 61.2127 59.5646L61.2127 89.1407C61.2127 89.4675 61.0828 89.781 60.8517 90.0121C60.6206 90.2432 60.3072 90.373 59.9803 90.373C59.6535 90.373 59.3401 90.2432 59.1089 90.0121C58.8778 89.781 58.748 89.4675 58.748 89.1407L58.748 59.5646C58.748 57.9305 58.0988 56.3632 56.9433 55.2077C55.7877 54.0521 54.2205 53.403 52.5863 53.403C50.9521 53.403 49.3849 54.0521 48.2294 55.2077C47.0738 56.3632 46.4246 57.9305 46.4246 59.5646V59.5646ZM48.8893 76.8173C48.8893 77.471 49.149 78.0979 49.6112 78.5601C50.0734 79.0223 50.7003 79.282 51.354 79.282C51.6808 79.282 51.9943 79.4119 52.2254 79.643C52.4565 79.8741 52.5863 80.1875 52.5863 80.5144C52.5863 80.8412 52.4565 81.1546 52.2254 81.3857C51.9943 81.6169 51.6808 81.7467 51.354 81.7467C50.3791 81.7467 49.426 81.4576 48.6154 80.9159C47.8048 80.3743 47.173 79.6044 46.7999 78.7037C46.4268 77.803 46.3292 76.8119 46.5194 75.8557C46.7096 74.8995 47.179 74.0212 47.8684 73.3318C48.5578 72.6424 49.4361 72.1729 50.3923 71.9827C51.3485 71.7925 52.3396 71.8901 53.2404 72.2632C54.1411 72.6363 54.9109 73.2681 55.4526 74.0787C55.9942 74.8894 56.2833 75.8424 56.2833 76.8173L56.2833 89.1407C56.2833 89.4675 56.1535 89.781 55.9224 90.0121C55.6913 90.2432 55.3778 90.373 55.051 90.373C54.7242 90.373 54.4107 90.2432 54.1796 90.0121C53.9485 89.781 53.8187 89.4675 53.8187 89.1407L53.8187 76.8173C53.8187 76.1637 53.559 75.5368 53.0968 75.0746C52.6346 74.6123 52.0077 74.3527 51.354 74.3527C50.7003 74.3527 50.0734 74.6123 49.6112 75.0746C49.149 75.5368 48.8893 76.1637 48.8893 76.8173V76.8173ZM64.9097 90.373C64.5829 90.373 64.2694 90.2432 64.0383 90.0121C63.8072 89.781 63.6773 89.4675 63.6773 89.1407L63.6773 64.3905C63.6773 62.9281 64.111 61.4985 64.9235 60.2826C65.7359 59.0666 66.8907 58.1189 68.2418 57.5593C69.5929 56.9996 71.0796 56.8532 72.5139 57.1385C73.9482 57.4238 75.2657 58.128 76.2997 59.1621C77.3338 60.1962 78.038 61.5137 78.3233 62.948C78.6086 64.3823 78.4622 65.869 77.9026 67.22C77.3429 68.5711 76.3952 69.7259 75.1793 70.5384C73.9633 71.3508 72.5338 71.7845 71.0714 71.7845C70.7445 71.7845 70.4311 71.6546 70.2 71.4235C69.9689 71.1924 69.839 70.879 69.839 70.5521C69.839 70.2253 69.9689 69.9119 70.2 69.6808C70.4311 69.4496 70.7445 69.3198 71.0714 69.3198C72.0463 69.3198 72.9993 69.0307 73.81 68.4891C74.6206 67.9474 75.2524 67.1776 75.6255 66.2768C75.9986 65.3761 76.0962 64.385 75.906 63.4288C75.7158 62.4726 75.2463 61.5943 74.5569 60.9049C73.8676 60.2155 72.9892 59.746 72.033 59.5558C71.0768 59.3656 70.0857 59.4633 69.185 59.8363C68.2843 60.2094 67.5144 60.8412 66.9728 61.6519C66.4311 62.4625 66.142 63.4155 66.142 64.3905L66.142 89.1407C66.142 89.4675 66.0122 89.781 65.7811 90.0121C65.55 90.2432 65.2365 90.373 64.9097 90.373Z" fill="#A0A0A0"/>
</g>
<g opacity="0.4">
<path d="M94.3926 51.3045C94.3795 51.3465 94.375 51.3908 94.3796 51.4346C94.3841 51.4784 94.3976 51.5208 94.4191 51.5591C94.4407 51.5975 94.4698 51.6311 94.5048 51.6578C94.5398 51.6845 94.5799 51.7038 94.6226 51.7144L95.7081 52.0053C95.8896 52.0539 96.0742 51.944 96.1461 51.7701C96.4958 50.9388 97.2564 50.4686 98.3115 50.7513C99.214 50.9931 99.9193 51.6658 99.6285 52.7512C99.4047 53.5866 98.8097 53.8389 97.8756 54.2147C96.8178 54.6208 95.9153 55.1842 95.6385 56.4172L95.5659 56.7037C95.5442 56.7904 95.5574 56.8822 95.6027 56.9592C95.648 57.0362 95.7218 57.0924 95.8081 57.1155L96.8751 57.4014C96.9623 57.4248 97.0553 57.4125 97.1335 57.3674C97.2117 57.3222 97.2688 57.2479 97.2921 57.1606L97.3291 57.0225C97.5823 56.0778 98.0151 55.8991 99.1818 55.4235C100.146 55.029 101.163 54.5766 101.543 53.1571C102.076 51.1691 100.655 49.7589 98.8165 49.2664C97.1496 48.8197 95.1155 49.1067 94.3926 51.3045V51.3045ZM94.4095 59.4355C94.2216 60.1367 94.6419 60.8049 95.4115 61.0111C96.2127 61.2258 96.9029 60.8551 97.0908 60.1539C97.2854 59.4277 96.8696 58.7691 96.0684 58.5545C95.3 58.3486 94.6041 58.7092 94.4095 59.4355Z" fill="#B6B6B6"/>
</g>
<g opacity="0.4">
<path d="M53.3841 21.4105C53.3822 21.4545 53.3894 21.4984 53.4051 21.5395C53.4208 21.5807 53.4448 21.6181 53.4755 21.6496C53.5063 21.6812 53.5432 21.706 53.5839 21.7228C53.6246 21.7395 53.6683 21.7477 53.7123 21.747H54.836C55.024 21.747 55.1738 21.5931 55.1983 21.4064C55.3209 20.5129 55.9338 19.8619 57.0262 19.8619C57.9606 19.8619 58.816 20.3291 58.816 21.4528C58.816 22.3177 58.3065 22.7154 57.5016 23.3201C56.5849 23.9862 55.8589 24.7639 55.9107 26.0265L55.9148 26.3221C55.9162 26.4115 55.9527 26.4967 56.0164 26.5594C56.0801 26.6221 56.1659 26.6572 56.2553 26.6572H57.3599C57.4502 26.6572 57.5368 26.6213 57.6007 26.5574C57.6646 26.4936 57.7004 26.407 57.7004 26.3167V26.1736C57.7004 25.1957 58.0723 24.911 59.0761 24.1496C59.9056 23.519 60.7705 22.8189 60.7705 21.3492C60.7705 19.2912 59.0325 18.2969 57.1297 18.2969C55.404 18.2969 53.5135 19.1005 53.3841 21.4105V21.4105ZM55.5048 29.2601C55.5048 29.986 56.0837 30.5227 56.8805 30.5227C57.71 30.5227 58.2807 29.986 58.2807 29.2601C58.2807 28.5082 57.7086 27.9797 56.8791 27.9797C56.0837 27.9797 55.5048 28.5082 55.5048 29.2601Z" fill="#B6B6B6"/>
</g>
<g opacity="0.4">
<path d="M14.6459 37.837C14.6663 37.876 14.6945 37.9105 14.7287 37.9382C14.7628 37.966 14.8023 37.9864 14.8447 37.9983C14.8871 38.0102 14.9315 38.0134 14.9751 38.0075C15.0187 38.0016 15.0607 37.9869 15.0984 37.9642L16.0716 37.4024C16.2344 37.3084 16.2872 37.1002 16.2151 36.9263C15.8745 36.0912 16.0798 35.2209 17.0258 34.6747C17.835 34.2076 18.8094 34.1845 19.3712 35.1576C19.8037 35.9066 19.5614 36.5058 19.1666 37.432C18.7058 38.4672 18.4659 39.5037 19.1421 40.5713L19.2934 40.8252C19.3393 40.9019 19.4135 40.9574 19.5 40.9798C19.5866 41.0023 19.6784 40.9898 19.7558 40.9451L20.7124 40.3928C20.7907 40.3476 20.8477 40.2733 20.8711 40.186C20.8945 40.0988 20.8822 40.0059 20.8371 39.9276L20.7656 39.8038C20.2766 38.9569 20.4563 38.5244 20.9449 37.3631C21.348 36.4022 21.747 35.3635 21.0121 34.0907C19.9831 32.3084 17.9808 32.3163 16.3329 33.2677C14.8384 34.1305 13.603 35.7717 14.6459 37.837V37.837ZM20.4073 43.5745C20.7703 44.2032 21.5399 44.3785 22.23 43.9801C22.9484 43.5654 23.1743 42.8153 22.8113 42.1866C22.4354 41.5355 21.6757 41.3638 20.9573 41.7786C20.2685 42.1763 20.0314 42.9234 20.4073 43.5745Z" fill="#B6B6B6"/>
</g>
<circle cx="59.3637" cy="167.857" r="5.24644" transform="rotate(-8.91147 59.3637 167.857)" stroke="#D2D2D2" stroke-width="3.09626"/>
<circle cx="106.946" cy="160.396" r="5.24644" transform="rotate(-8.91147 106.946 160.396)" stroke="#D2D2D2" stroke-width="3.09626"/>
<path d="M56.4277 140.808C56.2806 139.869 55.4004 139.228 54.4619 139.375C53.5233 139.522 52.8818 140.402 53.029 141.341L56.4277 140.808ZM63.5975 155.441L63.7607 157.154L63.5975 155.441ZM107.978 150.223C108.915 150.068 109.549 149.182 109.393 148.245C109.238 147.308 108.352 146.674 107.415 146.829L107.978 150.223ZM96.2065 134.658L95.5976 133.049L95.5976 133.049L96.2065 134.658ZM102.558 128.525L101.042 127.712L101.042 127.712L102.558 128.525ZM23.3052 96.4655L21.8884 97.4411L21.8884 97.4411L23.3052 96.4655ZM44.0548 126.01L42.6425 126.992L44.0548 126.01ZM106.751 116.167L108.4 116.656L106.751 116.167ZM55.1908 141.11L54.9571 139.406L54.9571 139.406L55.1908 141.11ZM53.5465 140.381L54.9632 139.405L53.5465 140.381ZM87.0262 88.5975L85.3098 88.4843L87.0262 88.5975ZM116.317 84.3574L117.968 84.8416L116.317 84.3574ZM83.9316 135.485L85.6481 135.598L83.9316 135.485ZM69.9159 137.668L71.5204 137.048L69.9159 137.668ZM111.307 100.827L109.658 100.337L111.307 100.827ZM56.3487 151.236L54.7372 151.838L56.3487 151.236ZM53.0139 93.9165L54.6185 93.2967L53.0139 93.9165ZM51.4094 94.5364L68.3113 138.288L71.5204 137.048L54.6185 93.2967L51.4094 94.5364ZM72.0534 140.447L82.7482 138.77L82.2152 135.371L71.5204 137.048L72.0534 140.447ZM85.6481 135.598L88.7426 88.7108L85.3098 88.4843L82.2152 135.371L85.6481 135.598ZM84.7769 85.0855L54.0856 89.8979L54.6185 93.2967L85.3098 88.4843L84.7769 85.0855ZM53.029 141.341L54.5787 151.224L57.9775 150.691L56.4277 140.808L53.029 141.341ZM54.7372 151.838C55.5342 153.972 58.3398 157.67 63.7607 157.154L63.4343 153.729C60.0433 154.052 58.4022 151.819 57.9601 150.635L54.7372 151.838ZM63.7607 157.154C68.3674 156.715 95.2154 152.34 107.978 150.223L107.415 146.829C94.5523 148.963 67.8855 153.305 63.4343 153.729L63.7607 157.154ZM0.570175 88.2775L14.1155 86.1536L13.5826 82.7548L0.0372468 84.8787L0.570175 88.2775ZM55.4245 142.814C62.0163 141.91 71.5911 140.556 79.8654 139.297C84.0014 138.668 87.8213 138.062 90.7842 137.546C92.2646 137.288 93.542 137.051 94.5428 136.844C95.4961 136.647 96.3232 136.453 96.8155 136.266L95.5976 133.049C95.4017 133.123 94.8427 133.269 93.8457 133.475C92.8961 133.672 91.6589 133.902 90.1943 134.157C87.2671 134.666 83.4752 135.268 79.3481 135.896C71.0961 137.151 61.5393 138.503 54.9571 139.406L55.4245 142.814ZM96.8155 136.266C98.7087 135.55 100.077 134.784 101.227 133.614C102.332 132.49 103.139 131.081 104.074 129.338L101.042 127.712C100.091 129.486 99.4885 130.475 98.7732 131.203C98.1024 131.885 97.2381 132.428 95.5976 133.049L96.8155 136.266ZM104.074 129.338C104.322 128.875 104.642 128.048 104.995 127.066C105.364 126.038 105.813 124.712 106.32 123.162C107.336 120.06 108.6 116.025 109.955 111.609C112.667 102.776 115.753 92.3899 117.968 84.8416L114.666 83.8731C112.454 91.4141 109.372 101.785 106.667 110.6C105.313 115.008 104.057 119.02 103.051 122.091C102.548 123.628 102.11 124.919 101.757 125.903C101.388 126.933 101.149 127.512 101.042 127.712L104.074 129.338ZM14.1155 86.1536L21.8884 97.4411L24.7219 95.4899L16.949 84.2024L14.1155 86.1536ZM21.8884 97.4411L52.1298 141.356L54.9632 139.405L24.7219 95.4899L21.8884 97.4411ZM114.133 80.4824L23.0387 94.7661L23.5716 98.1649L114.666 83.8812L114.133 80.4824ZM36.2973 111.84L109.658 100.337L109.125 96.9381L35.7644 108.441L36.2973 111.84ZM109.658 100.337L105.102 115.677L108.4 116.656L112.956 101.316L109.658 100.337ZM105.102 115.677L45.4671 125.028L46.0001 128.427L105.635 119.076L105.102 115.677ZM45.4671 125.028L36.2973 111.84L33.4727 113.804L42.6425 126.992L45.4671 125.028ZM45.4671 125.028L45.4671 125.028L42.6425 126.992C43.3947 128.074 44.6985 128.631 46.0001 128.427L45.4671 125.028ZM105.102 115.677L105.102 115.677L105.635 119.076C106.946 118.87 108.022 117.929 108.4 116.656L105.102 115.677ZM35.7644 108.441C33.255 108.835 32.0227 111.718 33.4727 113.804L36.2973 111.84L36.2973 111.84L35.7644 108.441ZM54.9571 139.406C54.9568 139.406 54.958 139.405 54.96 139.406C54.9617 139.406 54.963 139.406 54.9639 139.407C54.9647 139.407 54.9652 139.407 54.9652 139.408C54.9654 139.408 54.9647 139.407 54.9632 139.405L52.1298 141.356C52.8628 142.421 54.1315 142.991 55.4245 142.814L54.9571 139.406ZM14.1155 86.1536L14.1155 86.1536L16.949 84.2024C16.1986 83.1127 14.8897 82.5499 13.5826 82.7548L14.1155 86.1536ZM88.7426 88.7108C88.8878 86.5108 86.9551 84.744 84.7769 85.0855L85.3098 88.4843L85.3098 88.4843L88.7426 88.7108ZM117.968 84.8416C118.681 82.4104 116.614 80.0934 114.133 80.4824L114.666 83.8812C114.67 83.8805 114.673 83.8804 114.674 83.8804C114.675 83.8803 114.675 83.8804 114.674 83.8803C114.672 83.8801 114.67 83.8795 114.667 83.8787C114.665 83.878 114.665 83.8775 114.665 83.8779C114.666 83.8783 114.667 83.8794 114.669 83.8809C114.669 83.8816 114.67 83.8823 114.67 83.8828C114.671 83.8834 114.671 83.8837 114.671 83.8837C114.671 83.8836 114.67 83.882 114.669 83.8788C114.668 83.8752 114.668 83.8714 114.668 83.8681C114.668 83.8667 114.668 83.8661 114.668 83.8666C114.668 83.867 114.668 83.8692 114.666 83.8731L117.968 84.8416ZM82.7482 138.77C84.3376 138.521 85.5421 137.203 85.6481 135.598L82.2152 135.371L82.2152 135.371L82.7482 138.77ZM68.3113 138.288C68.8949 139.799 70.4533 140.698 72.0534 140.447L71.5204 137.048L71.5204 137.048L68.3113 138.288ZM109.658 100.337L109.658 100.337L112.956 101.316C113.676 98.8926 111.623 96.5464 109.125 96.9381L109.658 100.337ZM54.5787 151.224C54.6067 151.403 54.6533 151.614 54.7372 151.838L57.9601 150.635C57.9766 150.679 57.9793 150.703 57.9775 150.691L54.5787 151.224ZM54.6185 93.2967L54.6185 93.2967L54.0856 89.8979C51.919 90.2376 50.6191 92.4907 51.4094 94.5364L54.6185 93.2967Z" fill="#D2D2D2"/>
<path fill-rule="evenodd" clip-rule="evenodd" d="M124.225 81.3975C128.646 81.3975 132.754 80.059 136.169 77.7698L150.137 91.1034L155.203 85.2277L141.725 72.3608C144.214 68.8567 145.679 64.5735 145.679 59.9505C145.679 48.1029 136.076 38.5 124.229 38.5C112.381 38.5 102.778 48.1029 102.778 59.9505C102.778 71.798 112.381 81.4009 124.229 81.4009L124.225 81.3975ZM142.522 59.947C142.522 69.9755 134.391 78.1061 124.363 78.1061C114.334 78.1061 106.204 69.9755 106.204 59.947C106.204 49.9185 114.334 41.7879 124.363 41.7879C134.391 41.7879 142.522 49.9185 142.522 59.947Z" fill="#C6C6C6"/>
<path d="M127.593 59.926L132.12 55.4163C132.545 54.9701 132.775 54.3764 132.768 53.762C132.762 53.1477 132.511 52.5642 132.075 52.1284C131.639 51.6959 131.049 51.4454 130.431 51.4385C129.813 51.4316 129.216 51.6616 128.767 52.0837L124.229 56.5935L119.703 52.0837C119.486 51.8538 119.222 51.6719 118.934 51.5449C118.642 51.4179 118.33 51.3493 118.014 51.3458C117.698 51.3424 117.382 51.4008 117.087 51.5174C116.792 51.6376 116.528 51.8126 116.301 52.0357C116.078 52.2588 115.9 52.523 115.78 52.8148C115.66 53.1065 115.601 53.4188 115.605 53.7346C115.608 54.0503 115.677 54.3592 115.804 54.6509C115.931 54.9392 116.116 55.2001 116.346 55.4163L120.88 59.926L116.346 64.4358C116.116 64.652 115.931 64.9128 115.804 65.2011C115.677 65.4894 115.608 65.8017 115.605 66.1175C115.601 66.4332 115.66 66.7456 115.78 67.0373C115.9 67.329 116.075 67.5933 116.301 67.8164C116.524 68.0394 116.792 68.2145 117.087 68.3346C117.382 68.4547 117.695 68.5131 118.014 68.5062C118.333 68.4993 118.645 68.4341 118.934 68.3071C119.225 68.1802 119.486 67.9983 119.703 67.7683L124.24 63.2586L128.777 67.7683C129.23 68.163 129.817 68.3758 130.421 68.3552C131.025 68.3346 131.598 68.0875 132.024 67.6654C132.449 67.2398 132.696 66.67 132.714 66.0694C132.731 65.4688 132.518 64.8854 132.116 64.4358L127.589 59.926H127.593Z" fill="#C6C6C6"/>
<path d="M150.134 91.1037L155.2 85.2246L155.961 85.9522C156.703 86.6592 157.146 87.6442 157.194 88.6979C157.242 89.7481 156.892 90.7777 156.222 91.5568C155.55 92.3359 154.613 92.8026 153.614 92.8541C152.615 92.9056 151.637 92.5384 150.899 91.8313L150.137 91.1037H150.134Z" fill="#DBDBDB"/>
<defs>
<filter id="filter0_f_153_22966" x="21.7372" y="173.25" width="134.922" height="23.5374" filterUnits="userSpaceOnUse" color-interpolation-filters="sRGB">
<feFlood flood-opacity="0" result="BackgroundImageFix"/>
<feBlend mode="normal" in="SourceGraphic" in2="BackgroundImageFix" result="shape"/>
<feGaussianBlur stdDeviation="4.20319" result="effect1_foregroundBlur_153_22966"/>
</filter>
<clipPath id="clip0_153_22966">
<rect width="39.4348" height="39.4348" fill="white" transform="translate(41.4951 90.373) rotate(-90)"/>
</clipPath>
</defs>
</svg>
