<svg width="150" height="150" viewBox="0 0 150 150" fill="none" xmlns="http://www.w3.org/2000/svg">
<path d="M115.77 87.2344C110.732 87.2344 105.956 88.9462 102.112 92.0938C98.2693 88.9462 93.4925 87.2344 88.4543 87.2344C76.5738 87.2344 66.9082 96.8566 66.9082 108.684C66.9082 123.724 83.2342 141.122 99.0179 149.254C99.9867 149.754 101.05 150.003 102.112 150.003C103.175 150.003 104.238 149.753 105.207 149.254C120.991 141.122 137.317 123.724 137.317 108.684C137.317 96.8569 127.651 87.2344 115.77 87.2344ZM103.195 145.348C102.517 145.697 101.708 145.697 101.03 145.348C82.6685 135.887 71.3027 118.951 71.3027 108.684C71.3027 99.2795 78.997 91.6286 88.4543 91.6286C93.0258 91.6286 97.3269 93.3976 100.565 96.6091C101.422 97.4584 102.803 97.4587 103.66 96.6091C106.898 93.3976 111.199 91.6286 115.77 91.6286C125.227 91.6286 132.922 99.2795 132.922 108.684C132.922 121.87 117.491 137.982 103.195 145.348Z" fill="#DBDBDB"/>
<path d="M62.0331 122.596H17.2384C17.1499 122.596 17.0781 122.524 17.0781 122.436V23.2555H29.0265C32.838 23.2555 35.9391 20.1547 35.9391 16.3429V4.39451H106.828C106.917 4.39451 106.988 4.46658 106.988 4.55477V79.9986C106.988 81.2121 107.972 82.1959 109.186 82.1959C110.399 82.1959 111.383 81.2121 111.383 79.9986V4.55477C111.383 2.04345 109.34 0 106.828 0H35.695C33.8487 0 32.1129 0.718942 30.8072 2.0247L14.7086 18.1236C13.4028 19.429 12.6836 21.1649 12.6836 23.0114V122.436C12.6836 124.948 14.727 126.991 17.2384 126.991H62.0331C63.2466 126.991 64.2304 126.007 64.2304 124.794C64.2304 123.58 63.2469 122.596 62.0331 122.596ZM31.5446 7.50173V16.3429C31.5446 17.7313 30.4152 18.861 29.0265 18.861H20.1856L31.5446 7.50173Z" fill="#DBDBDB"/>
<path d="M47.7274 35.2032C47.7274 32.6916 45.684 30.6484 43.1727 30.6484H33.7423C31.2307 30.6484 29.1875 32.6919 29.1875 35.2032V44.6336C29.1875 47.1452 31.231 49.1884 33.7423 49.1884H43.1727C45.6843 49.1884 47.7274 47.1449 47.7274 44.6336V35.2032ZM43.3329 44.6339C43.3329 44.7224 43.2608 44.7941 43.1727 44.7941H33.7423C33.6538 44.7941 33.582 44.7221 33.582 44.6339V35.2035C33.582 35.115 33.6541 35.0433 33.7423 35.0433H43.1727C43.2611 35.0433 43.3329 35.1153 43.3329 35.2035V44.6339Z" fill="#DBDBDB"/>
<path d="M57.3184 37.4023H73.8219C75.0354 37.4023 76.0191 36.4186 76.0191 35.2051C76.0191 33.9916 75.0354 33.0078 73.8219 33.0078H57.3184C56.1049 33.0078 55.1211 33.9916 55.1211 35.2051C55.1211 36.4186 56.1049 37.4023 57.3184 37.4023Z" fill="#DBDBDB"/>
<path d="M92.6829 42.4375H57.3184C56.1049 42.4375 55.1211 43.4213 55.1211 44.6348C55.1211 45.8482 56.1049 46.832 57.3184 46.832H92.6829C93.8964 46.832 94.8802 45.8482 94.8802 44.6348C94.8802 43.4213 93.8964 42.4375 92.6829 42.4375Z" fill="#DBDBDB"/>
<path d="M47.7274 61.1407C47.7274 58.6291 45.684 56.5859 43.1727 56.5859H33.7423C31.2307 56.5859 29.1875 58.6294 29.1875 61.1407V70.5711C29.1875 73.0827 31.231 75.1259 33.7423 75.1259H43.1727C45.6843 75.1259 47.7274 73.0824 47.7274 70.5711V61.1407ZM43.3329 70.5714C43.3329 70.6599 43.2608 70.7316 43.1727 70.7316H33.7423C33.6538 70.7316 33.582 70.6596 33.582 70.5714V61.141C33.582 61.0525 33.6541 60.9808 33.7423 60.9808H43.1727C43.2611 60.9808 43.3329 61.0528 43.3329 61.141V70.5714Z" fill="#DBDBDB"/>
<path d="M57.3184 63.332H73.8219C75.0354 63.332 76.0191 62.3482 76.0191 61.1348C76.0191 59.9213 75.0354 58.9375 73.8219 58.9375H57.3184C56.1049 58.9375 55.1211 59.9213 55.1211 61.1348C55.1211 62.3482 56.1049 63.332 57.3184 63.332Z" fill="#DBDBDB"/>
<path d="M94.8802 70.5723C94.8802 69.3588 93.8964 68.375 92.6829 68.375H57.3184C56.1049 68.375 55.1211 69.3588 55.1211 70.5723C55.1211 71.7857 56.1049 72.7695 57.3184 72.7695H92.6829C93.8964 72.7695 94.8802 71.7857 94.8802 70.5723Z" fill="#DBDBDB"/>
<path d="M43.1727 82.5156H33.7423C31.2307 82.5156 29.1875 84.5591 29.1875 87.0704V96.5008C29.1875 99.0124 31.231 101.056 33.7423 101.056H43.1727C45.6843 101.056 47.7274 99.0121 47.7274 96.5008V87.0704C47.7274 84.5588 45.684 82.5156 43.1727 82.5156ZM43.3329 96.5011C43.3329 96.5896 43.2608 96.6613 43.1727 96.6613H33.7423C33.6538 96.6613 33.582 96.5893 33.582 96.5011V87.0707C33.582 86.9822 33.6541 86.9105 33.7423 86.9105H43.1727C43.2611 86.9105 43.3329 86.9825 43.3329 87.0707V96.5011Z" fill="#DBDBDB"/>
<path d="M57.3184 84.875C56.1049 84.875 55.1211 85.8588 55.1211 87.0723C55.1211 88.2857 56.1049 89.2695 57.3184 89.2695H69.1065C70.32 89.2695 71.3038 88.2857 71.3038 87.0723C71.3038 85.8588 70.32 84.875 69.1065 84.875H57.3184Z" fill="#DBDBDB"/>
<path d="M62.0337 94.3047H57.3184C56.1049 94.3047 55.1211 95.2885 55.1211 96.502C55.1211 97.7154 56.1049 98.6992 57.3184 98.6992H62.0337C63.2472 98.6992 64.231 97.7154 64.231 96.502C64.231 95.2885 63.2475 94.3047 62.0337 94.3047Z" fill="#DBDBDB"/>
<path d="M104.483 119.787L108.064 116.22C108.401 115.867 108.583 115.397 108.577 114.911C108.572 114.425 108.374 113.964 108.029 113.619C107.684 113.277 107.217 113.079 106.728 113.073C106.24 113.068 105.767 113.25 105.412 113.584L101.823 117.151L98.2417 113.584C98.0707 113.402 97.8616 113.258 97.6336 113.158C97.4028 113.057 97.1557 113.003 96.906 113C96.6562 112.997 96.4064 113.044 96.1729 113.136C95.9395 113.231 95.7304 113.369 95.5512 113.546C95.3748 113.722 95.2336 113.931 95.1386 114.162C95.0436 114.393 94.9974 114.64 95.0001 114.89C95.0028 115.139 95.0571 115.384 95.1576 115.615C95.258 115.843 95.4046 116.049 95.5865 116.22L99.1729 119.787L95.5865 123.355C95.4046 123.526 95.258 123.732 95.1576 123.96C95.0571 124.188 95.0028 124.435 95.0001 124.685C94.9974 124.935 95.0436 125.182 95.1386 125.413C95.2336 125.643 95.3721 125.852 95.5512 126.029C95.7277 126.205 95.9395 126.344 96.1729 126.439C96.4064 126.534 96.6535 126.58 96.906 126.575C97.1585 126.569 97.4055 126.518 97.6336 126.417C97.8643 126.317 98.0707 126.173 98.2417 125.991L101.831 122.424L105.42 125.991C105.778 126.303 106.243 126.471 106.72 126.455C107.198 126.439 107.652 126.243 107.988 125.909C108.325 125.573 108.52 125.122 108.534 124.647C108.547 124.172 108.379 123.71 108.062 123.355L104.481 119.787H104.483Z" fill="#C7C7C7"/>
</svg>
