<svg width="28" height="25" viewBox="0 0 28 25" fill="none" xmlns="http://www.w3.org/2000/svg">
<path fill-rule="evenodd" clip-rule="evenodd" d="M1 4.8999H1.86667V8.36657H1V4.8999Z" fill="white"/>
<path fill-rule="evenodd" clip-rule="evenodd" d="M23.1 1H4.9C2.74708 1.00239 1.00239 2.74708 1 4.9C1 5.13932 1.19401 5.33333 1.43333 5.33333C1.67266 5.33333 1.86667 5.13932 1.86667 4.9C1.86858 3.22553 3.22553 1.86858 4.9 1.86667H23.1C24.7745 1.86858 26.1314 3.22553 26.1333 4.9V15.3C26.1314 16.9745 24.7745 18.3314 23.1 18.3333H12.8586C12.6536 18.3334 12.4552 18.4062 12.2987 18.5387L7.5 22.5995V19.2C7.5 18.7214 7.11198 18.3333 6.63333 18.3333H4.9C3.22553 18.3314 1.86858 16.9745 1.86667 15.3V8.36667C1.86667 8.12734 1.67266 7.93333 1.43333 7.93333C1.19401 7.93333 1 8.12734 1 8.36667V15.3C1.00239 17.4529 2.74708 19.1976 4.9 19.2H6.63333V22.5995C6.63114 22.9381 6.82796 23.2464 7.136 23.3869C7.25108 23.4406 7.37648 23.4685 7.50347 23.4688C7.70835 23.4683 7.90636 23.3948 8.06203 23.2616L12.8586 19.2H23.1C25.2529 19.1976 26.9976 17.4529 27 15.3V4.9C26.9976 2.74708 25.2529 1.00239 23.1 1Z" fill="#428DFF" stroke="#428DFF" stroke-width="1.2"/>
</svg>
