<svg width="27" height="24" viewBox="0 0 27 24" fill="none" xmlns="http://www.w3.org/2000/svg">
<path d="M15.7282 0.0917969C12.9635 0.0917969 10.312 1.19006 8.35711 3.14499C6.40218 5.09991 5.30392 7.75136 5.30392 10.516C5.30392 13.2807 6.40218 15.9322 8.35711 17.8871C10.312 19.842 12.9635 20.9403 15.7282 20.9403C18.4928 20.9403 21.1443 19.842 23.0992 17.8871C25.0541 15.9322 26.1524 13.2807 26.1524 10.516C26.1524 7.75136 25.0541 5.09991 23.0992 3.14499C21.1443 1.19006 18.4928 0.0917969 15.7282 0.0917969ZM3.90968 5.06937C2.71834 6.04659 1.75815 7.27547 1.09805 8.66776C0.437949 10.0601 0.0943063 11.5812 0.0917969 13.1221C0.0917969 15.8868 1.19006 18.5382 3.14499 20.4932C5.09991 22.4481 7.75136 23.5463 10.516 23.5463C11.35 23.5463 12.1709 23.4421 12.9657 23.2466C10.6724 22.7385 8.56149 21.5918 6.82846 20.0151C5.58064 19.3475 4.53739 18.3537 3.80995 17.1398C3.08251 15.9259 2.69815 14.5373 2.69786 13.1221C2.69786 12.7312 2.73695 12.3533 2.78907 11.9624C2.73695 11.4803 2.69786 10.9982 2.69786 10.516C2.69786 8.63968 3.11483 6.77634 3.90968 5.06937ZM21.0576 5.40816L22.8948 7.25846L14.4251 15.7282L9.48664 10.7897L11.3369 8.93937L14.4251 12.0406" fill="currentColor"/>
</svg>
