<svg width="17" height="17" viewBox="0 0 17 17" fill="none" xmlns="http://www.w3.org/2000/svg">
<path d="M4.28231 9.29027L8.79838 4.77436C8.87515 4.69751 8.9663 4.63655 9.06664 4.59496C9.16698 4.55337 9.27453 4.53196 9.38314 4.53196C9.49176 4.53196 9.59931 4.55337 9.69965 4.59496C9.79999 4.63655 9.89114 4.69751 9.9679 4.77436L11.7201 6.52651C11.797 6.60326 11.8579 6.69442 11.8995 6.79475C11.9411 6.89508 11.9625 7.00263 11.9625 7.11124C11.9625 7.21986 11.9411 7.32741 11.8995 7.42774C11.8579 7.52807 11.797 7.61923 11.7201 7.69598L10.1266 9.29027M4.28231 9.29027L2.48712 11.0854C2.40975 11.1627 2.34851 11.2545 2.30694 11.3557L1.45728 13.4186C1.03741 14.4376 2.0565 15.4567 3.0756 15.0377L5.1394 14.188C5.24025 14.1464 5.33183 14.0851 5.40885 14.0079L10.1266 9.29027M4.28231 9.29027H10.1266M9.96708 1.26758L11.7201 3.02055M11.7201 3.02055L12.8888 1.8519C12.9656 1.77506 13.0567 1.7141 13.1571 1.67251C13.2574 1.63091 13.365 1.60951 13.4736 1.60951C13.5822 1.60951 13.6897 1.63091 13.7901 1.67251C13.8904 1.7141 13.9816 1.77506 14.0583 1.8519L14.6427 2.43623C14.7976 2.59122 14.8847 2.8014 14.8847 3.02055C14.8847 3.23971 14.7976 3.44989 14.6427 3.60488L13.474 4.77436M11.7201 3.02055L13.474 4.77436M15.227 6.52733L13.474 4.77436" stroke="white" stroke-width="1.73333" stroke-linecap="round" stroke-linejoin="round"/>
</svg>
