<svg width="25" height="25" viewBox="0 0 25 25" fill="none" xmlns="http://www.w3.org/2000/svg">
<circle cx="12.5" cy="12.5" r="12.5" fill="#FF6D6D"/>
<path d="M9.25 7.45C9.25 7.13174 9.37643 6.82652 9.60147 6.60147C9.82652 6.37643 10.1317 6.25 10.45 6.25H14.05C14.3683 6.25 14.6735 6.37643 14.8985 6.60147C15.1236 6.82652 15.25 7.13174 15.25 7.45V8.65H17.65C17.8091 8.65 17.9617 8.71321 18.0743 8.82574C18.1868 8.93826 18.25 9.09087 18.25 9.25C18.25 9.40913 18.1868 9.56174 18.0743 9.67426C17.9617 9.78679 17.8091 9.85 17.65 9.85H17.0086L16.4884 17.1352C16.4669 17.438 16.3314 17.7213 16.1093 17.9281C15.8872 18.135 15.5949 18.25 15.2914 18.25H9.208C8.90448 18.25 8.61224 18.135 8.39013 17.9281C8.16802 17.7213 8.03255 17.438 8.011 17.1352L7.492 9.85H6.85C6.69087 9.85 6.53826 9.78679 6.42574 9.67426C6.31321 9.56174 6.25 9.40913 6.25 9.25C6.25 9.09087 6.31321 8.93826 6.42574 8.82574C6.53826 8.71321 6.69087 8.65 6.85 8.65H9.25V7.45ZM10.45 8.65H14.05V7.45H10.45V8.65ZM8.6944 9.85L9.2086 17.05H15.292L15.8062 9.85H8.6944ZM11.05 11.05C11.2091 11.05 11.3617 11.1132 11.4743 11.2257C11.5868 11.3383 11.65 11.4909 11.65 11.65V15.25C11.65 15.4091 11.5868 15.5617 11.4743 15.6743C11.3617 15.7868 11.2091 15.85 11.05 15.85C10.8909 15.85 10.7383 15.7868 10.6257 15.6743C10.5132 15.5617 10.45 15.4091 10.45 15.25V11.65C10.45 11.4909 10.5132 11.3383 10.6257 11.2257C10.7383 11.1132 10.8909 11.05 11.05 11.05ZM13.45 11.05C13.6091 11.05 13.7617 11.1132 13.8743 11.2257C13.9868 11.3383 14.05 11.4909 14.05 11.65V15.25C14.05 15.4091 13.9868 15.5617 13.8743 15.6743C13.7617 15.7868 13.6091 15.85 13.45 15.85C13.2909 15.85 13.1383 15.7868 13.0257 15.6743C12.9132 15.5617 12.85 15.4091 12.85 15.25V11.65C12.85 11.4909 12.9132 11.3383 13.0257 11.2257C13.1383 11.1132 13.2909 11.05 13.45 11.05Z" fill="white"/>
</svg>
