<svg width="56" height="56" viewBox="0 0 56 56" fill="none" xmlns="http://www.w3.org/2000/svg">
<path d="M51.8307 35.1385L51.8307 35.1373C51.8269 32.9109 51.0772 30.7501 49.7014 28.9997C48.4233 27.3736 46.6732 26.1889 44.6973 25.6042C43.4442 17.5324 36.4485 11.3354 28.0276 11.3354C21.4819 11.3354 15.7822 15.1052 13.093 21.0519C8.01478 22.7143 4.22453 27.5639 4.22453 32.8273C4.22453 39.5812 9.71816 45.0749 16.4721 45.0749H41.8943C47.3748 45.0749 51.8307 40.6189 51.8307 35.1385ZM30.3387 32.1354H29.6467V32.8273V39.0687H26.4085V32.8273V32.1354H25.7165H20.2229L28.0276 22.3795L35.8323 32.1354H30.3387Z" fill="#C5D2D2" stroke="#C5D2D2" stroke-width="1.38395"/>
</svg>
