<svg width="32" height="32" viewBox="0 0 32 32" fill="none" xmlns="http://www.w3.org/2000/svg">
<path d="M19.36 25C17.71 25 16.36 23.66 16.36 22C16.36 21.88 16.38 21.77 16.4 21.65H15.83C14.18 21.65 12.83 20.31 12.83 18.65C12.83 17.78 13.22 16.99 13.82 16.45V13.15C13.82 10.14 15.7 7.56 18.35 6.51996C18.87 5.62 19.83 5 20.95 5C21.71 5 22.41 5.28998 22.93 5.77997C22.85 3.67999 21.11 2 18.99 2H8.89001C6.71002 2 4.94 3.76996 4.94 5.95001V26.05C4.94 28.23 6.71002 30 8.89001 30H18.99C21.17 30 22.94 28.23 22.94 26.05V24.96C22.8 24.99 22.66 25 22.51 25H19.36ZM13.93 6H13.94C14.49 6 14.94 6.45001 14.94 7C14.94 7.54999 14.49 8 13.94 8C13.38 8 12.93 7.54999 12.93 7C12.93 6.45001 13.37 6 13.93 6Z" fill="#E9F3FF"/>
<path d="M26.07 17.6545V13.15C26.07 10.67 24.3 8.59998 21.95 8.13L21.9453 8.12927V8C21.9453 7.44727 21.498 7 20.9453 7C20.3926 7 19.9453 7.44727 19.9453 8V8.12134C17.5978 8.58331 15.82 10.6717 15.82 13.15V17.6544C15.2747 17.6628 14.835 18.1039 14.835 18.6514C14.835 19.2041 15.2822 19.6514 15.835 19.6514H26.0547C26.6074 19.6514 27.0547 19.2041 27.0547 18.6514C27.0547 18.1041 26.6152 17.6631 26.07 17.6545Z" fill="#E9F3FF"/>
<path d="M22.5107 21H19.3623C18.8096 21 18.3623 21.4473 18.3623 22C18.3623 22.5527 18.8096 23 19.3623 23H22.5107C23.0635 23 23.5107 22.5527 23.5107 22C23.5107 21.4473 23.0635 21 22.5107 21Z" fill="#E9F3FF"/>
</svg>
