<svg width="26" height="25" viewBox="0 0 26 25" fill="none" xmlns="http://www.w3.org/2000/svg">
<rect x="1" y="0.5" width="24" height="24" rx="4.5" stroke="#0078CC"/>
<g clip-path="url(#clip0_7224_2620)">
<path d="M18.368 11.3093C17.5288 10.4477 16.1917 9.95445 14.3568 9.82944V8.07501C14.3568 7.88751 14.2698 7.75584 14.0957 7.6799C13.9126 7.60414 13.7564 7.63529 13.6269 7.77369L10.1985 11.2022C10.1136 11.2871 10.0713 11.3875 10.0713 11.5036C10.0713 11.6197 10.1137 11.72 10.1985 11.8049L13.627 15.2334C13.7075 15.3182 13.8078 15.3606 13.9284 15.3606C13.9819 15.3606 14.0377 15.3495 14.0958 15.3272C14.2699 15.2512 14.357 15.1197 14.357 14.9321V13.2513C15.0757 13.3093 15.6727 13.4265 16.1484 13.6028C16.6238 13.7792 17.0043 14.0258 17.2901 14.3428C17.9553 15.0794 18.1919 16.3404 17.9999 18.1262C17.9911 18.2423 18.0423 18.3182 18.1539 18.3539C18.1673 18.3584 18.1874 18.3606 18.2142 18.3606C18.3035 18.3606 18.3659 18.3226 18.4017 18.2467L18.5356 17.9789C18.598 17.8539 18.6884 17.6518 18.8067 17.3728C18.925 17.0937 19.0323 16.8147 19.1283 16.5357C19.2243 16.2567 19.3102 15.9487 19.3861 15.6117C19.4619 15.2745 19.4999 14.9766 19.4999 14.7177C19.4998 13.2177 19.1225 12.0816 18.368 11.3093Z" fill="#0078CC"/>
<path d="M8.99997 11.5036C8.99997 11.3874 9.0424 11.287 9.12719 11.2022L11.7857 8.53708V8.07501C11.7857 7.88751 11.6986 7.75584 11.5245 7.6799C11.3414 7.60414 11.1852 7.63529 11.0558 7.77369L7.62722 11.2022C7.54243 11.2871 7.5 11.3875 7.5 11.5036C7.5 11.6197 7.54243 11.72 7.62722 11.8049L11.0558 15.2334C11.1361 15.3182 11.2366 15.3606 11.3572 15.3606C11.4107 15.3606 11.4665 15.3495 11.5245 15.3272C11.6987 15.2512 11.7858 15.1197 11.7858 14.9321V14.4633L9.12719 11.8049C9.0424 11.72 8.99997 11.6197 8.99997 11.5036Z" fill="#0078CC"/>
</g>
<defs>
<clipPath id="clip0_7224_2620">
<rect width="12" height="12" fill="white" transform="translate(7.5 7)"/>
</clipPath>
</defs>
</svg>
