<svg width="65" height="64" viewBox="0 0 65 64" fill="none" xmlns="http://www.w3.org/2000/svg">
<path d="M39.5883 55.8088L26.459 55.8086C27.0397 57.0605 27.9662 58.1203 29.1293 58.8629C30.2924 59.6056 31.6436 60.0002 33.0236 60.0003C34.4036 60.0003 35.7548 59.6057 36.918 58.8631C38.0811 58.1204 39.0076 57.0607 39.5883 55.8088Z" fill="#E9F3FF"/>
<path d="M31.0182 20.0138C30.8693 30.9978 43.6608 37.8723 52.7136 31.7219C64.1939 24.1294 58.9765 6.11991 45.028 6.00391C41.3159 6.01553 37.7592 7.4953 35.1344 10.1202C32.5095 12.745 31.0298 16.3018 31.0182 20.0138ZM36.0317 18.7029L50.7821 12.6286C51.0799 12.5128 51.405 12.4861 51.7177 12.5519C52.0305 12.6177 52.3173 12.773 52.5433 12.999C52.7692 13.2249 52.9246 13.5118 52.9903 13.8245C53.0561 14.1372 53.0294 14.4623 52.9136 14.7601L46.8393 29.5106C46.7355 29.7575 46.5727 29.9752 46.3652 30.1446C46.1577 30.314 45.9119 30.43 45.6491 30.4823C45.3864 30.5347 45.1149 30.5218 44.8583 30.4448C44.6018 30.3679 44.368 30.2291 44.1774 30.0408L41.6957 27.5592L39.404 27.7794C38.9856 27.8189 38.568 27.6969 38.2367 27.4382C37.9055 27.1795 37.6858 26.8039 37.6228 26.3884L37.1424 23.006L35.5013 21.3648C35.3154 21.1732 35.1787 20.9393 35.1032 20.6832C35.0276 20.4271 35.0154 20.1564 35.0676 19.8946C35.1198 19.6327 35.2348 19.3874 35.4027 19.1799C35.5707 18.9723 35.7865 18.8086 36.0317 18.7029Z" fill="#E9F3FF"/>
<path d="M39.1038 22.6058L39.5542 25.758C39.5705 25.75 41.9083 25.5311 41.8358 25.5379C42.0498 25.538 42.2617 25.5805 42.4592 25.663C42.6567 25.7454 42.836 25.8662 42.9866 26.0182L45.1982 28.2398L50.7221 14.8203L37.3126 20.3442L38.6435 21.6852C38.8957 21.9319 39.0578 22.256 39.1038 22.6058Z" fill="#E9F3FF"/>
<path d="M55.2252 45.6219H32.9695C32.8378 45.6224 32.7073 45.5968 32.5856 45.5467C32.4638 45.4966 32.3531 45.4229 32.2598 45.33C32.1666 45.237 32.0926 45.1265 32.0421 45.0049C31.9916 44.8833 31.9656 44.7529 31.9656 44.6212C31.9656 44.4896 31.9916 44.3592 32.0421 44.2376C32.0926 44.1159 32.1666 44.0055 32.2598 43.9125C32.3531 43.8196 32.4638 43.7459 32.5856 43.6958C32.7073 43.6457 32.8378 43.6201 32.9695 43.6205H52.7135V34.0638C50.7881 35.1169 48.6667 35.7629 46.4812 35.9619C44.2956 36.1608 42.0925 35.9084 40.0086 35.2202C37.9246 34.5321 36.0044 33.4229 34.3671 31.9616C32.7298 30.5002 31.4104 28.7179 30.4907 26.7253C29.571 24.7327 29.0708 22.5723 29.021 20.3783C28.9712 18.1843 29.3729 16.0034 30.2013 13.9712C31.0296 11.9389 32.2668 10.0986 33.8362 8.56448C35.4055 7.03038 37.2734 5.83524 39.324 5.05326C36.3623 4.04711 33.2033 3.76175 30.1093 4.22086C27.0152 4.67996 24.0753 5.8703 21.5333 7.69309C18.9914 9.51588 16.9208 11.9186 15.4934 14.7018C14.0659 17.485 13.3228 20.5685 13.3256 23.6965V43.6406C13.324 43.9097 13.267 44.1756 13.158 44.4217C13.0491 44.6678 12.8907 44.8888 12.6926 45.071C12.4944 45.2531 12.2609 45.3925 12.0065 45.4804C11.7522 45.5683 11.4824 45.6029 11.2141 45.5819C10.6707 45.5774 10.132 45.6822 9.62996 45.8903C9.12796 46.0983 8.67295 46.4053 8.29205 46.7928C7.72974 47.3735 7.34986 48.1062 7.19934 48.9004C7.04882 49.6946 7.13426 50.5155 7.4451 51.2617C7.75594 52.0079 8.27856 52.6467 8.9484 53.0991C9.61824 53.5516 10.406 53.7979 11.2142 53.8076L54.825 53.8077C55.8739 53.8005 56.8802 53.392 57.6374 52.666C58.3945 51.9401 58.8449 50.9518 58.8961 49.9041C58.9474 48.8564 58.5955 47.8289 57.9128 47.0325C57.2301 46.2362 56.2684 45.7314 55.2252 45.6219ZM25.5542 12.2283C23.6423 13.4688 22.0712 15.168 20.984 17.1711C19.8969 19.1741 19.3282 21.4174 19.3298 23.6965C19.3258 23.9592 19.2185 24.2098 19.0313 24.3941C18.8441 24.5784 18.5918 24.6818 18.3291 24.6818C18.0663 24.6818 17.8141 24.5784 17.6269 24.3941C17.4397 24.2097 17.3325 23.9591 17.3284 23.6964C17.3272 21.0835 17.9793 18.5119 19.2254 16.2153C20.4716 13.9188 22.2722 11.9703 24.4635 10.5471C24.6864 10.4073 24.9553 10.3607 25.2123 10.4175C25.4692 10.4743 25.6935 10.6299 25.8367 10.8506C25.9799 11.0713 26.0306 11.3396 25.9777 11.5973C25.9249 11.8551 25.7728 12.0817 25.5542 12.2283Z" fill="#E9F3FF"/>
</svg>
