<svg width="18" height="18" viewBox="0 0 18 18" fill="none" xmlns="http://www.w3.org/2000/svg">
<path d="M9.75001 12.0001H5.25001C5.05109 12.0001 4.86033 12.0791 4.71968 12.2197C4.57902 12.3604 4.50001 12.5511 4.50001 12.7501C4.50001 12.949 4.57902 13.1397 4.71968 13.2804C4.86033 13.421 5.05109 13.5001 5.25001 13.5001H9.75001C9.94892 13.5001 10.1397 13.421 10.2803 13.2804C10.421 13.1397 10.5 12.949 10.5 12.7501C10.5 12.5511 10.421 12.3604 10.2803 12.2197C10.1397 12.0791 9.94892 12.0001 9.75001 12.0001ZM6.75001 7.50005H8.25001C8.44892 7.50005 8.63968 7.42103 8.78034 7.28038C8.92099 7.13973 9.00001 6.94896 9.00001 6.75005C9.00001 6.55114 8.92099 6.36037 8.78034 6.21972C8.63968 6.07907 8.44892 6.00005 8.25001 6.00005H6.75001C6.55109 6.00005 6.36033 6.07907 6.21968 6.21972C6.07902 6.36037 6.00001 6.55114 6.00001 6.75005C6.00001 6.94896 6.07902 7.13973 6.21968 7.28038C6.36033 7.42103 6.55109 7.50005 6.75001 7.50005ZM15.75 9.00005H13.5V2.25005C13.5005 2.11789 13.4661 1.98794 13.4003 1.87336C13.3344 1.75878 13.2395 1.66363 13.125 1.59755C13.011 1.53173 12.8817 1.49707 12.75 1.49707C12.6184 1.49707 12.489 1.53173 12.375 1.59755L10.125 2.88755L7.87501 1.59755C7.76099 1.53173 7.63166 1.49707 7.50001 1.49707C7.36835 1.49707 7.23902 1.53173 7.12501 1.59755L4.87501 2.88755L2.62501 1.59755C2.51099 1.53173 2.38166 1.49707 2.25001 1.49707C2.11835 1.49707 1.98902 1.53173 1.87501 1.59755C1.76055 1.66363 1.66559 1.75878 1.59974 1.87336C1.53389 1.98794 1.49948 2.11789 1.50001 2.25005V14.2501C1.50001 14.8468 1.73706 15.4191 2.15902 15.841C2.58097 16.263 3.15327 16.5001 3.75001 16.5001H14.25C14.8467 16.5001 15.419 16.263 15.841 15.841C16.263 15.4191 16.5 14.8468 16.5 14.2501V9.75005C16.5 9.55114 16.421 9.36037 16.2803 9.21972C16.1397 9.07907 15.9489 9.00005 15.75 9.00005ZM3.75001 15.0001C3.55109 15.0001 3.36033 14.921 3.21968 14.7804C3.07902 14.6397 3.00001 14.449 3.00001 14.2501V3.54755L4.50001 4.40255C4.61576 4.46301 4.74441 4.49459 4.87501 4.49459C5.0056 4.49459 5.13425 4.46301 5.25001 4.40255L7.50001 3.11255L9.75001 4.40255C9.86576 4.46301 9.99441 4.49459 10.125 4.49459C10.2556 4.49459 10.3843 4.46301 10.5 4.40255L12 3.54755V14.2501C12.002 14.5059 12.0477 14.7595 12.135 15.0001H3.75001ZM15 14.2501C15 14.449 14.921 14.6397 14.7803 14.7804C14.6397 14.921 14.4489 15.0001 14.25 15.0001C14.0511 15.0001 13.8603 14.921 13.7197 14.7804C13.579 14.6397 13.5 14.449 13.5 14.2501V10.5001H15V14.2501ZM9.75001 9.00005H5.25001C5.05109 9.00005 4.86033 9.07907 4.71968 9.21972C4.57902 9.36037 4.50001 9.55114 4.50001 9.75005C4.50001 9.94896 4.57902 10.1397 4.71968 10.2804C4.86033 10.421 5.05109 10.5001 5.25001 10.5001H9.75001C9.94892 10.5001 10.1397 10.421 10.2803 10.2804C10.421 10.1397 10.5 9.94896 10.5 9.75005C10.5 9.55114 10.421 9.36037 10.2803 9.21972C10.1397 9.07907 9.94892 9.00005 9.75001 9.00005Z" fill="white"/>
</svg>
