<svg width="18" height="20" viewBox="0 0 18 20" fill="none" xmlns="http://www.w3.org/2000/svg">
<path d="M9.03952 11.832C10.5569 11.832 11.787 10.6019 11.787 9.08444C11.787 7.56702 10.5569 6.33691 9.03952 6.33691C7.5221 6.33691 6.29199 7.56702 6.29199 9.08444C6.29199 10.6019 7.5221 11.832 9.03952 11.832Z" fill="#1455AC"/>
<path d="M4.76808 15.0536C4.32388 15.7476 4.08911 16.55 4.08911 17.374C4.08911 18.8243 5.26482 20 6.71513 20H11.3641C12.8144 20 13.9901 18.8243 13.9901 17.374C13.9901 16.55 13.7553 15.7476 13.3111 15.0535C12.516 13.8111 11.1606 13.0693 9.68543 13.0693H8.39378C6.91866 13.0693 5.56325 13.8111 4.76808 15.0536Z" fill="#1455AC"/>
<path d="M17.1425 10.8832C17.593 10.7759 17.9109 10.3735 17.9109 9.9104V7.91141C17.9109 7.44835 17.593 7.04585 17.1425 6.9386L16.1883 6.71143C15.914 6.64611 15.6956 6.44354 15.5875 6.18302C15.4794 5.92226 15.4902 5.62377 15.6381 5.38335L16.1522 4.5479C16.3949 4.15353 16.3351 3.64413 16.0077 3.3167L14.5942 1.90319C14.2667 1.57576 13.7573 1.51595 13.363 1.75865L12.5275 2.27279C12.2871 2.42074 11.9886 2.43151 11.7279 2.32334C11.4674 2.21529 11.2648 1.99695 11.1995 1.7226L10.9723 0.768392C10.865 0.317918 10.4625 0 9.99948 0H8.00055C7.53749 0 7.135 0.317909 7.02775 0.768375L6.80054 1.7226C6.73522 1.99695 6.53265 2.21528 6.27215 2.32334C6.0114 2.43151 5.71292 2.42074 5.4725 2.27278L4.63705 1.75864C4.24268 1.51595 3.73328 1.57575 3.40584 1.90318L1.99231 3.3167C1.66487 3.64413 1.60506 4.15353 1.84775 4.5479L2.36187 5.38336C2.50981 5.62377 2.52059 5.92226 2.41243 6.18301C2.30436 6.44353 2.086 6.64611 1.81163 6.71143L0.857516 6.93857C0.407035 7.04582 0.0891113 7.44831 0.0891113 7.91138V9.91034C0.0891113 10.3734 0.40702 10.7759 0.857486 10.8831L1.81168 11.1103C2.08605 11.1757 2.3044 11.3782 2.41246 11.6388C2.52062 11.8995 2.50985 12.198 2.3619 12.4384L1.85153 13.2678C1.60461 13.669 1.67124 14.1882 2.01147 14.514L2.20153 14.6961C2.65759 15.1329 3.42695 14.945 3.76737 14.4131C4.10605 13.8839 4.52443 13.426 5.00156 13.0508C5.62446 12.5609 5.81183 11.4689 5.47495 10.7516C5.23704 10.2451 5.104 9.67986 5.104 9.08416C5.104 6.91406 6.86955 5.14851 9.03965 5.14851C11.2097 5.14851 12.9753 6.91406 12.9753 9.08416C12.9753 9.67986 12.8423 10.2451 12.6043 10.7516C12.2675 11.4689 12.4548 12.5609 13.0777 13.0508C13.5548 13.426 13.9732 13.8839 14.3119 14.4131C14.569 14.8148 14.7705 15.2451 14.9146 15.6934C14.9146 15.6934 14.9146 15.6934 14.9146 15.6934C14.9146 15.6934 14.9146 15.6934 14.9146 15.6934L16.0377 14.4898C16.3448 14.1607 16.3941 13.6669 16.1582 13.2835L15.6382 12.4385C15.4902 12.1981 15.4795 11.8996 15.5876 11.6388C15.6957 11.3783 15.914 11.1757 16.1884 11.1104L17.1425 10.8832Z" fill="#1455AC"/>
</svg>
