<svg width="80" height="80" viewBox="0 0 80 80" fill="none" xmlns="http://www.w3.org/2000/svg">
<g clip-path="url(#clip0_5634_2116)">
<path fill-rule="evenodd" clip-rule="evenodd" d="M59.3188 60.4124C64.9308 69.6076 69.9192 72.1243 78.057 74.4694C76.0418 70.326 74.9574 65.6855 75.0477 60.4124C77.6639 60.4124 79.8283 58.361 80 55.7809V19.8091C79.8283 17.2335 77.6639 15.1776 75.0477 15.1776H71.9254V47.3629C71.9254 50.0966 69.6932 52.3287 66.9595 52.3287H22.2536C20.0666 55.9074 17.9792 58.4738 15.7606 60.4124H59.3188Z" fill="url(#paint0_linear_5634_2116)"/>
<path d="M66.9597 5.53055H6.5293C2.92903 5.53055 0 8.45973 0 12.06V47.363C0 50.4231 2.11591 52.9983 4.96166 53.7022C4.86182 58.0326 3.92433 61.9707 2.10935 65.702C1.8392 66.2575 1.92138 66.9198 2.31904 67.3925C2.62075 67.7511 3.06121 67.9493 3.51543 67.9493C3.6598 67.9493 3.80558 67.9293 3.94886 67.8879C12.4616 65.4316 17.5865 62.6669 23.1235 53.8923H66.9597C70.56 53.8923 73.489 50.9633 73.489 47.363V12.06C73.489 8.45973 70.56 5.53055 66.9597 5.53055ZM70.362 47.3629C70.362 49.2389 68.8356 50.7652 66.9597 50.7652H22.2536C21.7087 50.7652 21.203 51.0489 20.9191 51.5141C16.4281 58.8724 12.4636 61.7361 6.25493 63.8874C7.54179 60.2613 8.15881 56.3792 8.09241 52.3031C8.0785 51.4497 7.38273 50.7652 6.52914 50.7652C4.65307 50.7652 3.12684 49.2388 3.12684 47.3629V12.06C3.12684 10.1839 4.65323 8.6577 6.52914 8.6577H66.9595C68.8356 8.6577 70.3618 10.1841 70.3618 12.06L70.362 47.3629Z" fill="url(#paint1_linear_5634_2116)"/>
<path d="M32.2474 20.1746C32.2404 20.1562 32.2332 20.1379 32.2254 20.1196C31.9143 19.3809 31.1965 18.9054 30.3943 18.9054C30.3906 18.9054 30.3867 18.9054 30.3828 18.9054C29.5782 18.9099 28.8626 19.393 28.5595 20.136C28.555 20.1473 28.5504 20.1587 28.5461 20.1701L21.6057 38.3977C21.2985 39.2047 21.7035 40.1078 22.5105 40.4151C23.3175 40.7225 24.2207 40.3173 24.528 39.5103L25.8736 35.9764H34.8671L36.1988 39.5059C36.435 40.1322 37.03 40.518 37.6619 40.518C37.8453 40.518 38.0319 40.4855 38.2136 40.417C39.0214 40.1122 39.4294 39.2102 39.1245 38.4022L32.2474 20.1746ZM27.0644 32.8495L30.3911 24.1125L33.6874 32.8495H27.0644Z" fill="#585858"/>
<path d="M18.2232 18.9506H10.7677C9.90426 18.9506 9.20427 19.6506 9.20427 20.514V38.9089C9.20427 39.7723 9.90426 40.4723 10.7677 40.4723C11.6311 40.4723 12.3311 39.7723 12.3311 38.9089V31.101H17.6312C18.4946 31.101 19.1946 30.4011 19.1946 29.5376C19.1946 28.6742 18.4946 27.9742 17.6312 27.9742H12.3311V22.0777H18.2232C19.0867 22.0777 19.7866 21.3777 19.7866 20.5143C19.7866 19.6509 19.0867 18.9506 18.2232 18.9506Z" fill="#585858"/>
<path d="M62.125 36.0924C63.4361 34.301 64.2125 32.0946 64.2125 29.7092C64.2125 23.7394 59.3559 18.8827 53.3861 18.8827C47.4138 18.8827 42.5551 23.7394 42.5551 29.7092C42.5551 35.6813 47.4138 40.54 53.3861 40.54C55.8461 40.54 58.1159 39.7134 59.9359 38.3255L61.6157 40.0053C61.921 40.3106 62.3211 40.4632 62.7213 40.4632C63.1214 40.4632 63.5216 40.3106 63.8269 40.0053C64.4375 39.3947 64.4375 38.4047 63.8269 37.7942L62.125 36.0924ZM53.3861 37.4131C49.138 37.4131 45.6821 33.9572 45.6821 29.7092C45.6821 25.4636 49.1382 22.0097 53.3861 22.0097C57.6315 22.0097 61.0855 25.4636 61.0855 29.7092C61.0855 31.2304 60.6408 32.6488 59.8771 33.8446L57.8985 31.866C57.2879 31.2555 56.2981 31.2555 55.6875 31.866C55.0768 32.4766 55.0768 33.4666 55.6875 34.0771L57.6984 36.088C56.4673 36.9241 54.9828 37.4131 53.3861 37.4131Z" fill="#585858"/>
<path d="M72.0859 16.1719C76.5517 16.1719 80.1719 12.5517 80.1719 8.08594C80.1719 3.6202 76.5517 0 72.0859 0C67.6202 0 64 3.6202 64 8.08594C64 12.5517 67.6202 16.1719 72.0859 16.1719Z" fill="#585858"/>
<path d="M74.8983 11.9542C74.7597 11.9544 74.6226 11.9272 74.4946 11.8741C74.3666 11.8211 74.2504 11.7433 74.1526 11.6452L68.5276 6.02021C68.331 5.82219 68.2209 5.55434 68.2214 5.27531C68.2219 4.99629 68.333 4.72883 68.5303 4.53153C68.7276 4.33423 68.995 4.22317 69.2741 4.22266C69.5531 4.22215 69.8209 4.33224 70.019 4.52882L75.644 10.1538C75.7914 10.3013 75.8918 10.4892 75.9325 10.6938C75.9732 10.8984 75.9523 11.1104 75.8725 11.3031C75.7927 11.4958 75.6575 11.6605 75.4841 11.7764C75.3107 11.8923 75.1068 11.9542 74.8983 11.9542Z" fill="white"/>
<path d="M69.2733 11.9542C69.0647 11.9542 68.8608 11.8923 68.6874 11.7764C68.514 11.6605 68.3788 11.4958 68.299 11.3031C68.2192 11.1104 68.1983 10.8984 68.239 10.6938C68.2797 10.4892 68.3801 10.3013 68.5276 10.1538L74.1526 4.52882C74.3506 4.33224 74.6184 4.22215 74.8975 4.22266C75.1765 4.22317 75.4439 4.33423 75.6413 4.53153C75.8386 4.72883 75.9496 4.99629 75.9501 5.27531C75.9506 5.55434 75.8405 5.82219 75.644 6.02021L70.019 11.6452C69.9212 11.7433 69.8049 11.8211 69.677 11.8741C69.549 11.9272 69.4118 11.9544 69.2733 11.9542Z" fill="white"/>
</g>
<defs>
<linearGradient id="paint0_linear_5634_2116" x1="47.8845" y1="74.4615" x2="47.8845" y2="15.1518" gradientUnits="userSpaceOnUse">
<stop stop-color="#9B9B9B"/>
<stop offset="1" stop-color="#DDDDDD"/>
</linearGradient>
<linearGradient id="paint1_linear_5634_2116" x1="36.7493" y1="67.941" x2="36.7493" y2="5.50337" gradientUnits="userSpaceOnUse">
<stop stop-color="#9B9B9B"/>
<stop offset="1" stop-color="#DDDDDD"/>
</linearGradient>
<clipPath id="clip0_5634_2116">
<rect width="80" height="80" fill="white"/>
</clipPath>
</defs>
</svg>
