<svg width="80" height="80" viewBox="0 0 80 80" fill="none" xmlns="http://www.w3.org/2000/svg">
<path d="M60.4608 42.5C61.4961 45.4037 64.2451 47.5 67.5 47.5C71.6357 47.5 75 44.1357 75 40C75 35.8643 71.6357 32.5 67.5 32.5C64.2451 32.5 61.496 34.5963 60.4607 37.5H57.5V15H60.4608C61.4961 17.9037 64.2451 20 67.5 20C71.6357 20 75 16.6357 75 12.5C75 8.36426 71.6357 5 67.5 5C64.2451 5 61.496 7.09625 60.4607 10H55C53.6194 10 52.5 11.1194 52.5 12.5V37.5H47.5V42.5H52.5V67.5C52.5 68.8806 53.6194 70 55 70H60.4608C61.4961 72.9037 64.2451 75 67.5 75C71.6357 75 75 71.6357 75 67.5C75 63.3643 71.6357 60 67.5 60C64.2451 60 61.496 62.0963 60.4607 65H57.5V42.5H60.4608Z" fill="url(#paint0_linear_5634_2103)"/>
<path d="M26.25 38.3133V60.0006L43.4839 52.298C44.4043 51.9049 45 51.0004 45 50.0006V30.0006C45 29.9939 44.9971 29.9879 44.9971 29.9812L26.25 38.3133Z" fill="url(#paint1_linear_5634_2103)"/>
<path d="M25.9839 20.2032C25.3589 19.9323 24.6411 19.9323 24.0161 20.2032C24.0161 20.2032 6.38412 27.7892 6.31409 27.8275L25 36.1322L43.6859 27.8275C43.6159 27.7892 25.9839 20.2032 25.9839 20.2032Z" fill="url(#paint2_linear_5634_2103)"/>
<path d="M5 30.0006V50.0006C5 51.0004 5.5957 51.9049 6.51611 52.298L23.75 60.0006V38.3133L5.0029 29.9812C5.0029 29.9879 5 29.9939 5 30.0006Z" fill="url(#paint3_linear_5634_2103)"/>
<path d="M8.08594 58.1719C12.5517 58.1719 16.1719 54.5517 16.1719 50.0859C16.1719 45.6202 12.5517 42 8.08594 42C3.6202 42 0 45.6202 0 50.0859C0 54.5517 3.6202 58.1719 8.08594 58.1719Z" fill="#585858"/>
<path d="M10.8983 53.9542C10.7597 53.9544 10.6226 53.9272 10.4946 53.8741C10.3666 53.8211 10.2504 53.7433 10.1526 53.6452L4.52757 48.0202C4.33099 47.8222 4.2209 47.5543 4.22141 47.2753C4.22191 46.9963 4.33298 46.7288 4.53028 46.5315C4.72758 46.3342 4.99503 46.2232 5.27406 46.2227C5.55308 46.2221 5.82094 46.3322 6.01896 46.5288L11.644 52.1538C11.7914 52.3013 11.8918 52.4892 11.9325 52.6938C11.9732 52.8984 11.9523 53.1104 11.8725 53.3031C11.7927 53.4958 11.6575 53.6605 11.4841 53.7764C11.3107 53.8923 11.1068 53.9542 10.8983 53.9542Z" fill="white"/>
<path d="M5.27327 53.9542C5.0647 53.9542 4.86082 53.8923 4.6874 53.7764C4.51399 53.6605 4.37884 53.4958 4.29902 53.3031C4.21921 53.1104 4.19833 52.8984 4.23901 52.6938C4.27969 52.4892 4.38011 52.3013 4.52758 52.1538L10.1526 46.5288C10.3506 46.3322 10.6184 46.2221 10.8975 46.2227C11.1765 46.2232 11.4439 46.3342 11.6413 46.5315C11.8386 46.7288 11.9496 46.9963 11.9501 47.2753C11.9506 47.5543 11.8405 47.8222 11.644 48.0202L6.01896 53.6452C5.92116 53.7433 5.80493 53.8211 5.67695 53.8741C5.54898 53.9272 5.41179 53.9544 5.27327 53.9542Z" fill="white"/>
<defs>
<linearGradient id="paint0_linear_5634_2103" x1="61.2518" y1="74.9907" x2="61.2518" y2="4.96952" gradientUnits="userSpaceOnUse">
<stop stop-color="#9B9B9B"/>
<stop offset="1" stop-color="#DDDDDD"/>
</linearGradient>
<linearGradient id="paint1_linear_5634_2103" x1="35.6262" y1="59.9966" x2="35.6262" y2="29.9682" gradientUnits="userSpaceOnUse">
<stop stop-color="#9B9B9B"/>
<stop offset="1" stop-color="#DDDDDD"/>
</linearGradient>
<linearGradient id="paint2_linear_5634_2103" x1="25.0024" y1="36.1301" x2="25.0024" y2="19.993" gradientUnits="userSpaceOnUse">
<stop stop-color="#9B9B9B"/>
<stop offset="1" stop-color="#DDDDDD"/>
</linearGradient>
<linearGradient id="paint3_linear_5634_2103" x1="14.3762" y1="59.9966" x2="14.3762" y2="29.9682" gradientUnits="userSpaceOnUse">
<stop stop-color="#9B9B9B"/>
<stop offset="1" stop-color="#DDDDDD"/>
</linearGradient>
</defs>
</svg>
