<svg width="80" height="80" viewBox="0 0 80 80" fill="none" xmlns="http://www.w3.org/2000/svg">
<g clip-path="url(#clip0_5634_2076)">
<path fill-rule="evenodd" clip-rule="evenodd" d="M78.8281 48.7891V31.2109C78.8281 29.922 77.7734 28.8672 76.4844 28.8672H3.51562C2.22656 28.8672 1.17188 29.9219 1.17188 31.2109V48.7891C1.17188 50.0781 2.22672 51.1328 3.51562 51.1328H76.4844C77.7733 51.1328 78.8281 50.0781 78.8281 48.7891Z" fill="url(#paint0_linear_5634_2076)"/>
<path fill-rule="evenodd" clip-rule="evenodd" d="M65.8338 51.1328H14.1663C18.4795 61.1281 28.422 68.125 40 68.125C51.578 68.125 61.5206 61.1281 65.8338 51.1328ZM65.8338 28.8672H14.1663C18.4795 18.8719 28.422 11.875 40 11.875C51.578 11.875 61.5206 18.8719 65.8338 28.8672Z" fill="white"/>
<path fill-rule="evenodd" clip-rule="evenodd" d="M65.8338 51.1328H14.1663C14.6924 52.3517 15.3027 53.5258 15.9889 54.6484H64.0113C64.6975 53.5258 65.3077 52.3519 65.8338 51.1328ZM15.9889 25.3516H64.0113C64.6975 26.4741 65.3078 27.6481 65.8339 28.8672H14.1663C14.6924 27.6481 15.3027 26.4742 15.9889 25.3516Z" fill="#F3F3F3"/>
<path fill-rule="evenodd" clip-rule="evenodd" d="M40 68.125C28.8892 68.125 19.2846 61.6815 14.7157 52.328C14.3653 51.6108 13.6493 51.1328 12.851 51.1328H8.85203C7.76954 51.1328 6.88352 51.9941 6.85284 53.0761L6.71301 58.0072C6.6916 58.7621 7.09724 59.4647 7.7617 59.8236L15.2968 63.8937C15.6396 64.0789 15.9208 64.3601 16.106 64.7029L20.1761 72.238C20.535 72.9024 21.2376 73.3081 21.9925 73.2867L30.5532 73.044C30.9427 73.0329 31.3269 73.1358 31.6586 73.3401L38.9513 77.8308C39.5944 78.2268 40.4056 78.2268 41.0487 77.8308L48.3412 73.3403C48.6729 73.136 49.0571 73.0331 49.4466 73.0441L58.0074 73.2868C58.7622 73.3082 59.4648 72.9026 59.8237 72.2381L63.8938 64.703C64.079 64.3603 64.3602 64.079 64.703 63.8939L72.2381 59.8237C72.9026 59.4648 73.3082 58.7623 73.2868 58.0074L73.147 53.0763C73.1163 51.9942 72.2303 51.133 71.1478 51.133H67.1488C66.3506 51.133 65.6345 51.6109 65.2841 52.3282C60.7154 61.6815 51.1107 68.125 40 68.125ZM40 11.875C28.8893 11.875 19.2845 18.3185 14.7157 27.672C14.3653 28.3892 13.6492 28.8672 12.851 28.8672H8.85219C7.7697 28.8672 6.88368 28.0059 6.85299 26.9239L6.71317 21.9928C6.69176 21.2379 7.09739 20.5353 7.76185 20.1764L15.2969 16.1063C15.6397 15.9211 15.921 15.6399 16.1061 15.2971L20.1762 7.76203C20.5351 7.09757 21.2377 6.69194 21.9926 6.71334L30.5534 6.95605C30.9428 6.96709 31.327 6.86414 31.6588 6.65986L38.9513 2.1692C39.5943 1.77322 40.4056 1.77321 41.0487 2.16919L48.3412 6.65972C48.6729 6.86399 49.0571 6.96693 49.4466 6.95589L58.0074 6.71318C58.7622 6.69178 59.4648 7.09741 59.8237 7.76187L63.8938 15.297C64.079 15.6397 64.3602 15.921 64.703 16.1061L72.2381 20.1763C72.9026 20.5352 73.3082 21.2377 73.2868 21.9926L73.147 26.9237C73.1163 28.0058 72.2303 28.867 71.1478 28.867H67.1488C66.3506 28.867 65.6345 28.3891 65.2842 27.6718C60.7154 18.3185 51.1108 11.875 40 11.875Z" fill="url(#paint1_linear_5634_2076)"/>
<path fill-rule="evenodd" clip-rule="evenodd" d="M15.9888 54.6484C15.3025 53.5259 14.6922 52.3519 14.1661 51.1328H6.90798L6.80829 54.6484H15.9888ZM73.1916 54.6484L73.0919 51.1328H65.8336C65.3075 52.3517 64.6972 53.5258 64.0109 54.6484H73.1916ZM6.80844 25.3516H15.9889C15.3027 26.4741 14.6924 27.6481 14.1663 28.8672H6.90813L6.80844 25.3516ZM64.0113 25.3516H73.1917L73.092 28.8672H65.8338C65.3078 27.6481 64.6975 26.4742 64.0113 25.3516Z" fill="url(#paint2_linear_5634_2076)"/>
<path fill-rule="evenodd" clip-rule="evenodd" d="M7.03125 28.8672H3.51562C2.22656 28.8672 1.17188 29.9219 1.17188 31.2109V48.7891C1.17188 50.0781 2.22672 51.1328 3.51562 51.1328H7.03125C5.74234 51.1328 4.6875 50.0781 4.6875 48.7891V31.2109C4.6875 29.9219 5.74219 28.8672 7.03125 28.8672Z" fill="url(#paint3_linear_5634_2076)"/>
<path d="M29 60H31.3438V62.3437H29V60Z" fill="#8D8D8D"/>
<path d="M47.0311 17.7342H49.3748V20.078H47.0311V17.7342Z" fill="#8D8D8D"/>
<path d="M51.7186 20.0781H54.0623V22.4219H51.7186V20.0781Z" fill="#8D8D8D"/>
<path d="M37.8705 34.0928L33.6027 45.2986L35.793 46.1328L36.8102 43.4622H40.9183L41.9253 46.1306L44.1181 45.3031L39.8866 34.0905L37.8705 34.0928ZM37.7027 41.1184L38.8734 38.0442L40.0336 41.1184H37.7027Z" fill="#585858"/>
<path d="M55.4539 41.185L50.9969 34.0916H48.7609V45.9081H51.1047V38.6686L55.5617 45.7619H57.7976V34.0738H55.4539V41.185Z" fill="#585858"/>
<path d="M66.1408 34.0736H62.3606V45.627H66.2273L66.2375 45.6269C69.0154 45.5783 71.0318 43.1491 71.0318 39.8503C71.0318 36.3952 69.0662 34.0736 66.1408 34.0736ZM66.2056 43.2835H64.7043V36.4175H66.1408C67.3722 36.4175 68.6881 37.3194 68.6881 39.8506C68.6881 42.1735 67.4029 43.2572 66.2056 43.2835Z" fill="#585858"/>
<path d="M15.7069 39.2814C16.0517 38.7538 16.2524 38.1238 16.2524 37.4477C16.2524 35.5974 14.747 34.092 12.8966 34.092H8.96814V45.9261H13.3783C15.433 45.9261 17.1047 44.2495 17.1047 42.1884C17.1047 41.0141 16.5586 39.9649 15.7069 39.2814ZM11.3119 36.4358H12.8967C13.4547 36.4358 13.9088 36.8897 13.9088 37.4477C13.9088 38.007 13.4549 38.4622 12.8969 38.4622H11.725H11.3119V36.4358ZM13.3783 43.5825H11.3119V40.8059H13.3783C14.1406 40.8059 14.761 41.4263 14.761 42.1886C14.761 42.9572 14.1406 43.5825 13.3783 43.5825Z" fill="#585858"/>
<path d="M29.1424 37.7305C29.1424 35.7242 27.4477 34.0922 25.3645 34.0922H21.6694L21.6674 45.9261L24.0111 45.9264L24.0119 41.9958L27.5445 46.1719L29.3339 44.6581L26.4267 41.2214C27.9941 40.7783 29.1424 39.3816 29.1424 37.7305ZM24.0127 36.4358H25.3644C26.1417 36.4358 26.7985 37.0286 26.7985 37.7303C26.7985 38.432 26.1417 39.0248 25.358 39.0248L24.012 39.0322L24.0127 36.4358Z" fill="#585858"/>
<path d="M64.0859 78.1718C68.5517 78.1718 72.1719 74.5516 72.1719 70.0859C72.1719 65.6202 68.5517 62 64.0859 62C59.6202 62 56 65.6202 56 70.0859C56 74.5516 59.6202 78.1718 64.0859 78.1718Z" fill="#585858"/>
<path d="M66.8983 73.9542C66.7598 73.9543 66.6226 73.9271 66.4946 73.8741C66.3666 73.8211 66.2504 73.7433 66.1526 73.6452L60.5276 68.0202C60.331 67.8222 60.2209 67.5543 60.2214 67.2753C60.2219 66.9963 60.333 66.7288 60.5303 66.5315C60.7276 66.3342 60.9951 66.2231 61.2741 66.2226C61.5531 66.2221 61.821 66.3322 62.019 66.5288L67.644 72.1538C67.7915 72.3013 67.8919 72.4892 67.9326 72.6938C67.9732 72.8983 67.9524 73.1104 67.8725 73.3031C67.7927 73.4958 67.6576 73.6605 67.4842 73.7764C67.3107 73.8923 67.1069 73.9541 66.8983 73.9542Z" fill="white"/>
<path d="M61.2733 73.9542C61.0647 73.9541 60.8608 73.8923 60.6874 73.7764C60.514 73.6605 60.3788 73.4958 60.299 73.3031C60.2192 73.1104 60.1983 72.8983 60.239 72.6938C60.2797 72.4892 60.3801 72.3013 60.5276 72.1538L66.1526 66.5288C66.3506 66.3322 66.6184 66.2221 66.8975 66.2226C67.1765 66.2231 67.4439 66.3342 67.6413 66.5315C67.8386 66.7288 67.9496 66.9963 67.9501 67.2753C67.9506 67.5543 67.8405 67.8222 67.644 68.0202L62.019 73.6452C61.9212 73.7433 61.8049 73.8211 61.677 73.8741C61.549 73.9271 61.4118 73.9543 61.2733 73.9542Z" fill="white"/>
</g>
<defs>
<linearGradient id="paint0_linear_5634_2076" x1="40.005" y1="51.1298" x2="40.005" y2="28.8575" gradientUnits="userSpaceOnUse">
<stop stop-color="#9B9B9B"/>
<stop offset="1" stop-color="#DDDDDD"/>
</linearGradient>
<linearGradient id="paint1_linear_5634_2076" x1="40.0042" y1="78.4663" x2="40.0042" y2="1.48993" gradientUnits="userSpaceOnUse">
<stop stop-color="#9B9B9B"/>
<stop offset="1" stop-color="#DDDDDD"/>
</linearGradient>
<linearGradient id="paint2_linear_5634_2076" x1="40.0043" y1="54.6445" x2="40.0043" y2="25.3388" gradientUnits="userSpaceOnUse">
<stop stop-color="#9B9B9B"/>
<stop offset="1" stop-color="#DDDDDD"/>
</linearGradient>
<linearGradient id="paint3_linear_5634_2076" x1="4.10194" y1="51.1298" x2="4.10194" y2="28.8575" gradientUnits="userSpaceOnUse">
<stop stop-color="#9B9B9B"/>
<stop offset="1" stop-color="#DDDDDD"/>
</linearGradient>
<clipPath id="clip0_5634_2076">
<rect width="80" height="80" fill="white"/>
</clipPath>
</defs>
</svg>
