<svg width="80" height="80" viewBox="0 0 80 80" fill="none" xmlns="http://www.w3.org/2000/svg">
<path d="M60 6.66666H20C17.3478 6.66666 14.8043 7.72023 12.9289 9.59559C11.0536 11.471 10 14.0145 10 16.6667V63.3333C10 65.9855 11.0536 68.529 12.9289 70.4044C14.8043 72.2798 17.3478 73.3333 20 73.3333H60C62.6522 73.3333 65.1957 72.2798 67.0711 70.4044C68.9464 68.529 70 65.9855 70 63.3333V16.6667C70 14.0145 68.9464 11.471 67.0711 9.59559C65.1957 7.72023 62.6522 6.66666 60 6.66666ZM26.6667 18.3333H40C40.8841 18.3333 41.7319 18.6845 42.357 19.3096C42.9821 19.9348 43.3333 20.7826 43.3333 21.6667C43.3333 22.5507 42.9821 23.3986 42.357 24.0237C41.7319 24.6488 40.8841 25 40 25H26.6667C25.7826 25 24.9348 24.6488 24.3096 24.0237C23.6845 23.3986 23.3333 22.5507 23.3333 21.6667C23.3333 20.7826 23.6845 19.9348 24.3096 19.3096C24.9348 18.6845 25.7826 18.3333 26.6667 18.3333ZM53.3333 61.6667H26.6667C25.7826 61.6667 24.9348 61.3155 24.3096 60.6903C23.6845 60.0652 23.3333 59.2174 23.3333 58.3333C23.3333 57.4493 23.6845 56.6014 24.3096 55.9763C24.9348 55.3512 25.7826 55 26.6667 55H53.3333C54.2174 55 55.0652 55.3512 55.6904 55.9763C56.3155 56.6014 56.6667 57.4493 56.6667 58.3333C56.6667 59.2174 56.3155 60.0652 55.6904 60.6903C55.0652 61.3155 54.2174 61.6667 53.3333 61.6667ZM53.3333 49.4333H26.6667C25.7826 49.4333 24.9348 49.0821 24.3096 48.457C23.6845 47.8319 23.3333 46.984 23.3333 46.1C23.3333 45.2159 23.6845 44.3681 24.3096 43.743C24.9348 43.1178 25.7826 42.7667 26.6667 42.7667H53.3333C54.2174 42.7667 55.0652 43.1178 55.6904 43.743C56.3155 44.3681 56.6667 45.2159 56.6667 46.1C56.6667 46.984 56.3155 47.8319 55.6904 48.457C55.0652 49.0821 54.2174 49.4333 53.3333 49.4333ZM53.3333 37.2333H26.6667C25.7826 37.2333 24.9348 36.8821 24.3096 36.257C23.6845 35.6319 23.3333 34.784 23.3333 33.9C23.3333 33.0159 23.6845 32.1681 24.3096 31.543C24.9348 30.9178 25.7826 30.5667 26.6667 30.5667H53.3333C54.2174 30.5667 55.0652 30.9178 55.6904 31.543C56.3155 32.1681 56.6667 33.0159 56.6667 33.9C56.6667 34.784 56.3155 35.6319 55.6904 36.257C55.0652 36.8821 54.2174 37.2333 53.3333 37.2333Z" fill="url(#paint0_linear_5634_2132)"/>
<path d="M68.0859 16.1719C72.5517 16.1719 76.1719 12.5517 76.1719 8.08594C76.1719 3.6202 72.5517 0 68.0859 0C63.6202 0 60 3.6202 60 8.08594C60 12.5517 63.6202 16.1719 68.0859 16.1719Z" fill="#585858"/>
<path d="M70.8983 11.9542C70.7597 11.9544 70.6226 11.9272 70.4946 11.8741C70.3666 11.8211 70.2504 11.7433 70.1526 11.6452L64.5276 6.02021C64.331 5.82219 64.2209 5.55434 64.2214 5.27531C64.2219 4.99629 64.333 4.72883 64.5303 4.53153C64.7276 4.33423 64.995 4.22317 65.2741 4.22266C65.5531 4.22215 65.8209 4.33224 66.019 4.52882L71.644 10.1538C71.7914 10.3013 71.8919 10.4892 71.9325 10.6938C71.9732 10.8984 71.9523 11.1104 71.8725 11.3031C71.7927 11.4958 71.6575 11.6605 71.4841 11.7764C71.3107 11.8923 71.1068 11.9542 70.8983 11.9542Z" fill="white"/>
<path d="M65.2733 11.9542C65.0647 11.9542 64.8608 11.8923 64.6874 11.7764C64.514 11.6605 64.3788 11.4958 64.299 11.3031C64.2192 11.1104 64.1983 10.8984 64.239 10.6938C64.2797 10.4892 64.3801 10.3013 64.5276 10.1538L70.1526 4.52882C70.3506 4.33224 70.6184 4.22215 70.8975 4.22266C71.1765 4.22317 71.4439 4.33423 71.6413 4.53153C71.8386 4.72883 71.9496 4.99629 71.9501 5.27531C71.9506 5.55434 71.8405 5.82219 71.644 6.02021L66.019 11.6452C65.9212 11.7433 65.8049 11.8211 65.677 11.8741C65.549 11.9272 65.4118 11.9544 65.2733 11.9542Z" fill="white"/>
<defs>
<linearGradient id="paint0_linear_5634_2132" x1="40.0039" y1="73.3244" x2="40.0039" y2="6.63762" gradientUnits="userSpaceOnUse">
<stop stop-color="#9B9B9B"/>
<stop offset="1" stop-color="#DDDDDD"/>
</linearGradient>
</defs>
</svg>
