<svg width="80" height="80" viewBox="0 0 80 80" fill="none" xmlns="http://www.w3.org/2000/svg">
<g clip-path="url(#clip0_5634_2142)">
<path d="M9 69.4001C9 73.03 11.9892 76.0001 15.6429 76.0001H64.3571C68.0108 76.0001 71 73.03 71 69.4001V65.0001H9V69.4001Z" fill="url(#paint0_linear_5634_2142)"/>
<path d="M71.413 48.7988C71.4106 41.0759 71.4083 33.3529 71.4059 25.63C73.9633 24.7509 75.4251 21.9174 75.5325 19.2194C75.64 16.5215 74.6724 13.9099 73.7194 11.383C72.7125 8.71311 71.4683 5.78246 68.8572 4.62278C67.476 4.00931 65.9124 3.99948 64.4006 4.00008C48.0049 4.00657 31.6093 4.01309 15.2136 4.01958C13.6591 4.02019 12.0326 4.03786 10.6604 4.76717C8.70074 5.8087 7.72996 8.02496 6.89945 10.0802C5.70482 13.0365 4.46836 16.123 4.45995 19.3603C4.45313 21.9848 6.23095 24.5209 8.60715 25.6325C8.60612 33.3596 8.60506 41.0867 8.60399 48.8138C5.48508 48.471 3.98681 51.9974 4.00009 54.5451C4.00935 56.3201 4.57099 58.2507 6.06006 59.2207C7.2188 59.9755 8.69075 60.0002 10.0744 60.0001C30.2061 59.9972 50.3378 59.9943 70.4695 59.9915C71.5286 59.9913 72.6335 59.9807 73.577 59.5003C75.1253 58.7118 75.8283 56.8613 75.9759 55.1324C76.2062 52.4345 74.7945 48.5288 71.413 48.7988ZM13.0896 26.3273C14.2823 26.1585 15.539 25.6583 16.5201 24.9627C17.1324 24.5287 18.0185 24.5287 18.6363 24.9649C21.3067 26.85 25.0571 26.8521 27.7362 24.9627C28.3485 24.5287 29.2358 24.5287 29.8524 24.9649C32.5228 26.85 36.2732 26.8521 38.9524 24.9627C39.5635 24.5287 40.4508 24.5287 41.0685 24.9649C43.7367 26.85 47.4915 26.8521 50.1685 24.9627C50.7753 24.5308 51.6647 24.5276 52.2846 24.9649C54.9528 26.85 58.7076 26.8521 61.3846 24.9627C61.9914 24.5308 62.8808 24.5276 63.5008 24.9649C64.4975 25.6692 65.7228 26.1418 66.9269 26.3273V48.7988H52.6991C51.3046 44.8694 48.1327 41.847 44.2314 40.5507C45.7479 39.3179 46.7379 37.4633 46.7379 35.3631C46.7379 31.6587 43.7192 28.6453 40.0082 28.6453C36.2973 28.6453 33.2786 31.6587 33.2786 35.3631C33.2786 37.4633 34.2686 39.3179 35.7852 40.5507C31.8844 41.847 28.7127 44.8694 27.3185 48.7988H13.0896C13.0896 48.7988 13.0896 26.3273 13.0896 26.3273Z" fill="url(#paint1_linear_5634_2142)"/>
<path d="M72.0859 16.1719C76.5517 16.1719 80.1719 12.5517 80.1719 8.08594C80.1719 3.6202 76.5517 0 72.0859 0C67.6202 0 64 3.6202 64 8.08594C64 12.5517 67.6202 16.1719 72.0859 16.1719Z" fill="#585858"/>
<path d="M74.8983 11.9542C74.7597 11.9544 74.6226 11.9272 74.4946 11.8741C74.3666 11.8211 74.2504 11.7433 74.1526 11.6452L68.5276 6.02021C68.331 5.82219 68.2209 5.55434 68.2214 5.27531C68.2219 4.99629 68.333 4.72883 68.5303 4.53153C68.7276 4.33423 68.995 4.22317 69.2741 4.22266C69.5531 4.22215 69.8209 4.33224 70.019 4.52882L75.644 10.1538C75.7914 10.3013 75.8918 10.4892 75.9325 10.6938C75.9732 10.8984 75.9523 11.1104 75.8725 11.3031C75.7927 11.4958 75.6575 11.6605 75.4841 11.7764C75.3107 11.8923 75.1068 11.9542 74.8983 11.9542Z" fill="white"/>
<path d="M69.2733 11.9542C69.0647 11.9542 68.8608 11.8923 68.6874 11.7764C68.514 11.6605 68.3788 11.4958 68.299 11.3031C68.2192 11.1104 68.1983 10.8984 68.239 10.6938C68.2797 10.4892 68.3801 10.3013 68.5276 10.1538L74.1526 4.52882C74.3506 4.33224 74.6184 4.22215 74.8975 4.22266C75.1765 4.22317 75.4439 4.33423 75.6413 4.53153C75.8386 4.72883 75.9496 4.99629 75.9501 5.27531C75.9506 5.55434 75.8405 5.82219 75.644 6.02021L70.019 11.6452C69.9212 11.7433 69.8049 11.8211 69.677 11.8741C69.549 11.9272 69.4118 11.9544 69.2733 11.9542Z" fill="white"/>
</g>
<defs>
<linearGradient id="paint0_linear_5634_2142" x1="40.004" y1="75.9986" x2="40.004" y2="64.9953" gradientUnits="userSpaceOnUse">
<stop stop-color="#9B9B9B"/>
<stop offset="1" stop-color="#DDDDDD"/>
</linearGradient>
<linearGradient id="paint1_linear_5634_2142" x1="40.0047" y1="59.9926" x2="40.0047" y2="3.97567" gradientUnits="userSpaceOnUse">
<stop stop-color="#9B9B9B"/>
<stop offset="1" stop-color="#DDDDDD"/>
</linearGradient>
<clipPath id="clip0_5634_2142">
<rect width="80" height="80" fill="white"/>
</clipPath>
</defs>
</svg>
