<svg width="80" height="80" viewBox="0 0 80 80" fill="none" xmlns="http://www.w3.org/2000/svg">
<path d="M61.2174 4.99997H11V15.862H15.7826V70.1724C15.7802 71.3718 16.2213 72.529 17.0196 73.4174C17.818 74.3059 18.916 74.8616 20.0989 74.9758C20.2543 74.9879 20.4217 75 20.5772 75H66V9.82756C66 8.5472 65.4961 7.31928 64.5992 6.41394C63.7023 5.50859 62.4858 4.99997 61.2174 4.99997Z" fill="url(#paint0_linear_5634_2153)" fill-opacity="0.3"/>
<path d="M16 9.8891C16.0001 9.20656 15.854 8.53158 15.5711 7.9076C15.2882 7.28362 14.8749 6.72447 14.3576 6.26614C13.8404 5.80782 13.2308 5.46048 12.5679 5.24648C11.9051 5.03248 11.2038 4.95656 10.5091 5.02362C9.24972 5.17691 8.09269 5.77999 7.26047 6.71692C6.42825 7.65385 5.97959 8.85851 6.00071 10.0993V14.7778C6.00071 15.1019 6.1324 15.4128 6.3668 15.642C6.60121 15.8712 6.91913 16 7.25062 16H16V9.8891Z" fill="#686866"/>
<path d="M20 75H71.1304C72.4219 75 73.6605 74.4849 74.5737 73.568C75.487 72.6512 76 71.4077 76 70.1111V64H24.8696V70.1111C24.8696 71.4077 24.3565 72.6512 23.4433 73.568C22.5301 74.4849 21.2915 75 20 75Z" fill="#8D8D8D"/>
<path fill-rule="evenodd" clip-rule="evenodd" d="M53.1687 49.4306C52.6138 45.1986 51.3349 35.4441 50.838 31.6528C50.6639 30.3256 49.5327 29.3329 48.1938 29.3329C44.8706 29.3329 37.126 29.3329 33.8029 29.3329C32.4643 29.3329 31.3331 30.3256 31.159 31.6528C30.6618 35.4441 29.3829 45.1986 28.8279 49.4306C28.7281 50.1917 28.9614 50.9592 29.4677 51.536C29.974 52.1132 30.7044 52.444 31.4721 52.444H50.5248C51.2925 52.444 52.023 52.1132 52.5293 51.536C53.0356 50.9592 53.2686 50.1917 53.1687 49.4306ZM35.662 33.7784C35.662 36.7219 38.0516 39.1118 40.9953 39.1118C43.9388 39.1118 46.3287 36.7219 46.3287 33.7784C46.3287 33.2878 45.9302 32.8895 45.4398 32.8895C44.9491 32.8895 44.5509 33.2878 44.5509 33.7784C44.5509 35.7408 42.9577 37.334 40.9953 37.334C39.033 37.334 37.4398 35.7408 37.4398 33.7784C37.4398 33.2878 37.0413 32.8895 36.5509 32.8895C36.0602 32.8895 35.662 33.2878 35.662 33.7784Z" fill="#4A4A4A" fill-opacity="0.5"/>
<path d="M68.0859 16.1719C72.5517 16.1719 76.1719 12.5517 76.1719 8.08594C76.1719 3.6202 72.5517 0 68.0859 0C63.6202 0 60 3.6202 60 8.08594C60 12.5517 63.6202 16.1719 68.0859 16.1719Z" fill="#585858"/>
<path d="M70.8983 11.9542C70.7598 11.9544 70.6226 11.9272 70.4946 11.8741C70.3666 11.8211 70.2504 11.7433 70.1526 11.6452L64.5276 6.02021C64.331 5.82219 64.2209 5.55434 64.2214 5.27531C64.2219 4.99629 64.333 4.72883 64.5303 4.53153C64.7276 4.33423 64.9951 4.22317 65.2741 4.22266C65.5531 4.22215 65.821 4.33224 66.019 4.52882L71.644 10.1538C71.7915 10.3013 71.8919 10.4892 71.9326 10.6938C71.9732 10.8984 71.9524 11.1104 71.8725 11.3031C71.7927 11.4958 71.6576 11.6605 71.4842 11.7764C71.3107 11.8923 71.1069 11.9542 70.8983 11.9542Z" fill="white"/>
<path d="M65.2733 11.9542C65.0647 11.9542 64.8608 11.8923 64.6874 11.7764C64.514 11.6605 64.3788 11.4958 64.299 11.3031C64.2192 11.1104 64.1983 10.8984 64.239 10.6938C64.2797 10.4892 64.3801 10.3013 64.5276 10.1538L70.1526 4.52882C70.3506 4.33224 70.6184 4.22215 70.8975 4.22266C71.1765 4.22317 71.4439 4.33423 71.6413 4.53153C71.8386 4.72883 71.9496 4.99629 71.9501 5.27531C71.9506 5.55434 71.8405 5.82219 71.644 6.02021L66.019 11.6452C65.9212 11.7433 65.8049 11.8211 65.677 11.8741C65.549 11.9272 65.4118 11.9544 65.2733 11.9542Z" fill="white"/>
<defs>
<linearGradient id="paint0_linear_5634_2153" x1="38.5036" y1="74.9906" x2="38.5036" y2="4.96949" gradientUnits="userSpaceOnUse">
<stop stop-color="#9B9B9B"/>
<stop offset="1" stop-color="#DDDDDD"/>
</linearGradient>
</defs>
</svg>
