<svg width="138" height="130" viewBox="0 0 138 130" fill="none" xmlns="http://www.w3.org/2000/svg">
<path d="M93.3784 20.3129C94.1344 20.3129 94.7504 20.915 94.7504 21.685V89.389H104.102V17.023C104.102 13.6769 101.386 10.9609 98.0404 10.9609H78.5664L80.5123 20.3129H93.3784Z" fill="#DBDBDB"/>
<path d="M31.0785 22.2977H77.3766C77.7406 22.2977 78.0066 21.9617 77.9366 21.6117L75.3746 9.34768C75.0526 8.00365 73.8486 7.05166 72.4625 7.05166H61.8226C61.5146 7.05166 61.2906 6.81368 61.2625 6.50564C60.9965 3.08964 58.1406 0.429688 54.6406 0.429688C51.1686 0.429688 48.3125 3.08964 48.0465 6.50564C48.0186 6.81368 47.7945 7.05166 47.4866 7.05166H36.0206C34.6346 7.05166 33.4306 8.00365 33.0806 9.34768L30.5326 21.6117C30.4486 21.9617 30.7285 22.2977 31.0785 22.2977ZM54.5285 5.02164C55.8445 5.02164 56.9086 6.08566 56.9086 7.40166C56.9086 8.71766 55.8445 9.78168 54.5285 9.78168C53.2125 9.78168 52.1486 8.71766 52.1486 7.40166C52.1486 6.08566 53.2125 5.02164 54.5285 5.02164Z" fill="#DBDBDB"/>
<path d="M128.379 126.779H128.196C128.512 126.283 128.7 125.696 128.7 125.061V95.3949C128.7 93.631 127.272 92.189 125.494 92.189H114.112V100.729C114.112 101.149 113.65 101.401 113.3 101.177L108.694 98.153C108.512 98.0269 108.288 98.0269 108.106 98.153L103.5 101.177C103.15 101.401 102.688 101.149 102.688 100.729V92.189H91.3059C89.5279 92.189 88.1 93.631 88.1 95.3949V125.061C88.1 125.696 88.2884 126.283 88.6037 126.779H85.5783C85.4131 126.233 85.2999 125.664 85.2999 125.061V119.755H15.0759C14.3339 119.755 13.7179 119.139 13.7179 118.397V21.685C13.7179 20.915 14.3339 20.3129 15.0759 20.3129H27.9419L29.8879 10.9609H10.4279C7.08195 10.9609 4.36595 13.6769 4.36595 17.023V123.045C4.36595 124.461 4.87249 125.747 5.68717 126.779H1.80039C1.02659 126.779 0.400391 127.405 0.400391 128.179C0.400391 128.953 1.02659 129.579 1.80039 129.579H128.379C129.153 129.579 129.779 128.953 129.779 128.179C129.779 127.405 129.153 126.779 128.379 126.779Z" fill="#DBDBDB"/>
<path d="M136.201 126.773H132.054C131.28 126.773 130.654 127.4 130.654 128.173C130.654 128.947 131.28 129.573 132.054 129.573H136.201C136.975 129.573 137.601 128.947 137.601 128.173C137.601 127.4 136.975 126.773 136.201 126.773Z" fill="#DBDBDB"/>
<path d="M60.6406 34.3359H21.5582C20.7844 34.3359 20.1582 34.9621 20.1582 35.7359C20.1582 36.5098 20.7844 37.1359 21.5582 37.1359H60.6406C61.4145 37.1359 62.0406 36.5098 62.0406 35.7359C62.0406 34.9621 61.4145 34.3359 60.6406 34.3359Z" fill="#DBDBDB"/>
<path d="M60.6406 40.8672H21.5582C20.7844 40.8672 20.1582 41.4934 20.1582 42.2672C20.1582 43.041 20.7844 43.6672 21.5582 43.6672H60.6406C61.4145 43.6672 62.0406 43.041 62.0406 42.2672C62.0406 41.4934 61.4145 40.8672 60.6406 40.8672Z" fill="#DBDBDB"/>
<path d="M21.5582 50.1984H41.8459C42.6197 50.1984 43.2459 49.5723 43.2459 48.7984C43.2459 48.0246 42.6197 47.3984 41.8459 47.3984H21.5582C20.7844 47.3984 20.1582 48.0246 20.1582 48.7984C20.1582 49.5723 20.7844 50.1984 21.5582 50.1984Z" fill="#DBDBDB"/>
<path d="M60.6406 62.1016H21.5582C20.7844 62.1016 20.1582 62.7277 20.1582 63.5016C20.1582 64.2754 20.7844 64.9016 21.5582 64.9016H60.6406C61.4145 64.9016 62.0406 64.2754 62.0406 63.5016C62.0406 62.7277 61.4145 62.1016 60.6406 62.1016Z" fill="#DBDBDB"/>
<path d="M60.6406 68.6328H21.5582C20.7844 68.6328 20.1582 69.259 20.1582 70.0328C20.1582 70.8066 20.7844 71.4328 21.5582 71.4328H60.6406C61.4145 71.4328 62.0406 70.8066 62.0406 70.0328C62.0406 69.259 61.4145 68.6328 60.6406 68.6328Z" fill="#DBDBDB"/>
<path d="M21.5582 77.9641H41.8459C42.6197 77.9641 43.2459 77.3379 43.2459 76.5641C43.2459 75.7902 42.6197 75.1641 41.8459 75.1641H21.5582C20.7844 75.1641 20.1582 75.7902 20.1582 76.5641C20.1582 77.3379 20.7844 77.9641 21.5582 77.9641Z" fill="#DBDBDB"/>
<path d="M60.6406 89.8672H21.5582C20.7844 89.8672 20.1582 90.4934 20.1582 91.2672C20.1582 92.041 20.7844 92.6672 21.5582 92.6672H60.6406C61.4145 92.6672 62.0406 92.041 62.0406 91.2672C62.0406 90.4934 61.4145 89.8672 60.6406 89.8672Z" fill="#DBDBDB"/>
<path d="M62.0406 97.7984C62.0406 97.0246 61.4145 96.3984 60.6406 96.3984H21.5582C20.7844 96.3984 20.1582 97.0246 20.1582 97.7984C20.1582 98.5723 20.7844 99.1984 21.5582 99.1984H60.6406C61.4145 99.1984 62.0406 98.5723 62.0406 97.7984Z" fill="#DBDBDB"/>
<path d="M21.5582 102.938C20.7844 102.938 20.1582 103.564 20.1582 104.337C20.1582 105.111 20.7844 105.737 21.5582 105.737H41.8459C42.6197 105.737 43.2459 105.111 43.2459 104.337C43.2459 103.564 42.6197 102.938 41.8459 102.938H21.5582Z" fill="#DBDBDB"/>
<path d="M70.2633 51.3641H85.3133C86.1813 51.3641 86.8953 50.6641 86.8953 49.7961V34.7461C86.8953 33.8781 86.1813 33.1641 85.3133 33.1641H70.2633C69.3953 33.1641 68.6953 33.8781 68.6953 34.7461V49.7961C68.6953 50.6641 69.3953 51.3641 70.2633 51.3641ZM71.0979 42.3142C71.6448 41.7673 72.5307 41.7673 73.0776 42.3142L75.7039 44.942L82.5303 38.1142C83.0772 37.5673 83.9631 37.5673 84.51 38.1142C85.0569 38.6611 85.0569 39.547 84.51 40.0939L76.6938 47.9115C76.4313 48.174 76.0758 48.3216 75.7039 48.3216C75.3321 48.3216 74.9766 48.174 74.7141 47.9115L71.0979 44.2939C70.551 43.747 70.551 42.8611 71.0979 42.3142Z" fill="#DBDBDB"/>
<path d="M68.6953 77.5617C68.6953 78.4297 69.3953 79.1297 70.2633 79.1297H85.3133C86.1813 79.1297 86.8953 78.4297 86.8953 77.5617V62.5117C86.8953 61.6437 86.1813 60.9297 85.3133 60.9297H70.2633C69.3953 60.9297 68.6953 61.6437 68.6953 62.5117V77.5617ZM73.0369 66.1083C72.6178 65.6193 72.676 64.8859 73.1649 64.4669C73.6538 64.0478 74.3872 64.106 74.8063 64.5949L77.7515 68.0057L80.6849 64.5949C81.104 64.106 81.8374 64.0478 82.3263 64.4669C82.8152 64.8859 82.8735 65.6193 82.4544 66.1083L79.288 69.7868L82.4544 73.4653C82.8735 73.9541 82.8152 74.6875 82.3263 75.1067C81.8314 75.5232 81.1107 75.4684 80.6849 74.9786L77.7515 71.5678L74.8063 74.9786C74.3806 75.4684 73.6602 75.5235 73.1649 75.1067C72.676 74.6875 72.6178 73.9541 73.0369 73.4653L76.2032 69.7868L73.0369 66.1083Z" fill="#DBDBDB"/>
<path d="M70.2634 106.903H85.2994V95.3951C85.2994 93.8271 85.9014 92.3991 86.8953 91.3351V90.2851C86.8953 89.4171 86.1814 88.7031 85.3134 88.7031H70.2634C69.3953 88.7031 68.6953 89.4171 68.6953 90.2851V105.335C68.6953 106.203 69.3953 106.903 70.2634 106.903ZM71.1034 97.7891C71.6494 97.2431 72.5314 97.2431 73.0773 97.7891L75.7093 100.421L82.5273 93.5891C83.0733 93.0431 83.9554 93.0431 84.5154 93.5891C85.0613 94.1351 85.0613 95.0312 84.5154 95.5771L76.6893 103.389C76.4374 103.655 76.0733 103.795 75.7093 103.795C75.3314 103.795 74.9814 103.655 74.7154 103.389L71.1034 99.7771C70.5433 99.2312 70.5433 98.3351 71.1034 97.7891Z" fill="#DBDBDB"/>
</svg>
