<svg width="50" height="70" viewBox="0 0 50 70" fill="none" xmlns="http://www.w3.org/2000/svg">
<path d="M49.2131 24.6065C49.2131 35.4852 33.5986 59.4617 27.5117 68.4643C26.1116 70.5119 23.1014 70.5119 21.7014 68.4643C15.191 58.8562 0 35.2997 0 24.6065C0 11.0257 11.0082 0 24.6065 0C38.2049 0 49.2131 11.0257 49.2131 24.6065Z" fill="#E0E0E0"/>
<path d="M24.6049 38.5005C32.3374 38.5005 38.6058 32.2321 38.6058 24.4997C38.6058 16.7672 32.3374 10.4988 24.6049 10.4988C16.8724 10.4988 10.604 16.7672 10.604 24.4997C10.604 32.2321 16.8724 38.5005 24.6049 38.5005Z" fill="#F0F0F0"/>
<path d="M41.0752 59.1504C44.9827 59.1504 48.1504 55.9827 48.1504 52.0752C48.1504 48.1677 44.9827 45 41.0752 45C37.1677 45 34 48.1677 34 52.0752C34 55.9827 37.1677 59.1504 41.0752 59.1504Z" fill="#BFBEBE"/>
<path d="M43.5361 55.4599C43.4149 55.4601 43.2948 55.4363 43.1829 55.3899C43.0709 55.3435 42.9692 55.2754 42.8836 55.1896L37.9617 50.2677C37.7897 50.0944 37.6934 49.86 37.6938 49.6159C37.6943 49.3717 37.7915 49.1377 37.9641 48.9651C38.1368 48.7925 38.3708 48.6953 38.6149 48.6948C38.8591 48.6944 39.0934 48.7907 39.2667 48.9627L44.1886 53.8846C44.3176 54.0137 44.4055 54.1781 44.4411 54.3571C44.4767 54.5361 44.4584 54.7216 44.3886 54.8902C44.3187 55.0588 44.2005 55.2029 44.0487 55.3044C43.897 55.4058 43.7186 55.4599 43.5361 55.4599Z" fill="white"/>
<path d="M38.6141 55.4599C38.4316 55.4599 38.2532 55.4058 38.1015 55.3044C37.9497 55.2029 37.8315 55.0588 37.7616 54.8902C37.6918 54.7216 37.6735 54.5361 37.7091 54.3571C37.7447 54.1781 37.8326 54.0137 37.9616 53.8846L42.8835 48.9627C43.0568 48.7907 43.2911 48.6944 43.5353 48.6948C43.7794 48.6953 44.0135 48.7925 44.1861 48.9651C44.3587 49.1377 44.4559 49.3717 44.4564 49.6159C44.4568 49.86 44.3605 50.0944 44.1885 50.2677L39.2666 55.1896C39.181 55.2754 39.0793 55.3435 38.9673 55.3899C38.8554 55.4363 38.7353 55.4601 38.6141 55.4599Z" fill="white"/>
<path d="M31.6041 22.7539V31.5044C31.6041 32.4705 30.8201 33.2545 29.854 33.2545H19.3534C18.3873 33.2545 17.6033 32.4705 17.6033 31.5044V22.7539L24.6037 15.7534L31.6041 22.7539Z" fill="#E0E0E0"/>
<path d="M32.1139 25.7414L24.6007 18.2281L17.0875 25.7414C16.4032 26.4256 15.2971 26.4256 14.6128 25.7414C13.9285 25.0571 13.9285 23.951 14.6128 23.2667L23.3634 14.5161C24.0477 13.8319 25.1537 13.8319 25.838 14.5161L34.5886 23.2667C35.2729 23.951 35.2729 25.0571 34.5886 25.7414C33.9043 26.4256 32.7982 26.4256 32.1139 25.7414Z" fill="#BFBEBE"/>
<path d="M27.2298 26.2506V33.251H21.9795V26.2506C21.9795 25.2845 22.7635 24.5005 23.7296 24.5005H25.4797C26.4458 24.5005 27.2298 25.2845 27.2298 26.2506Z" fill="#BFBEBE"/>
</svg>
