<svg width="70" height="70" viewBox="0 0 70 70" fill="none" xmlns="http://www.w3.org/2000/svg">
<path d="M53.5652 4.375H9.625V13.8793H13.8098V61.4009C13.8077 62.4504 14.1936 63.4629 14.8922 64.2403C15.5907 65.0177 16.5515 65.5039 17.5865 65.6039C17.7226 65.6144 17.869 65.625 18.005 65.625H57.75V8.59914C57.75 7.47883 57.3091 6.4044 56.5243 5.61222C55.7395 4.82004 54.6751 4.375 53.5652 4.375Z" fill="#E0E0E0"/>
<path d="M14 8.65299C14.0001 8.05577 13.8722 7.46516 13.6247 6.91918C13.3772 6.37319 13.0155 5.88394 12.5629 5.4829C12.1104 5.08187 11.5769 4.77794 10.9969 4.59069C10.417 4.40344 9.80331 4.33702 9.1955 4.3957C8.0935 4.52983 7.0811 5.05752 6.35291 5.87733C5.62472 6.69715 5.23214 7.75122 5.25062 8.83693V12.9306C5.25062 13.2142 5.36585 13.4862 5.57095 13.6868C5.77606 13.8873 6.05424 14 6.3443 14H14V8.65299Z" fill="#D1D1D1"/>
<path d="M17.5 65.625H62.2391C63.3692 65.625 64.4529 65.1743 65.252 64.3721C66.0511 63.5698 66.5 62.4818 66.5 61.3472V56H21.7609V61.3472C21.7609 62.4818 21.312 63.5698 20.5129 64.3721C19.7138 65.1743 18.6301 65.625 17.5 65.625Z" fill="#D1D1D1"/>
<path fill-rule="evenodd" clip-rule="evenodd" d="M46.5227 43.2518C46.0371 39.5488 44.9181 31.0136 44.4833 27.6962C44.331 26.5349 43.3412 25.6663 42.1696 25.6663C39.2619 25.6663 32.4854 25.6663 29.5776 25.6663C28.4063 25.6663 27.4165 26.5349 27.2642 27.6962C26.8291 31.0136 25.7101 39.5488 25.2245 43.2518C25.1372 43.9178 25.3413 44.5893 25.7843 45.094C26.2273 45.599 26.8665 45.8885 27.5382 45.8885H44.2093C44.881 45.8885 45.5202 45.599 45.9632 45.094C46.4062 44.5893 46.6101 43.9178 46.5227 43.2518ZM31.2043 29.5561C31.2043 32.1316 33.2953 34.2228 35.871 34.2228C38.4465 34.2228 40.5377 32.1316 40.5377 29.5561C40.5377 29.1268 40.189 28.7784 39.7599 28.7784C39.3306 28.7784 38.9821 29.1268 38.9821 29.5561C38.9821 31.2732 37.5881 32.6673 35.871 32.6673C34.1539 32.6673 32.7599 31.2732 32.7599 29.5561C32.7599 29.1268 32.4112 28.7784 31.9821 28.7784C31.5528 28.7784 31.2043 29.1268 31.2043 29.5561Z" fill="white"/>
<path d="M60.0752 14.1504C63.9827 14.1504 67.1504 10.9827 67.1504 7.0752C67.1504 3.16767 63.9827 0 60.0752 0C56.1677 0 53 3.16767 53 7.0752C53 10.9827 56.1677 14.1504 60.0752 14.1504Z" fill="#BFBEBE"/>
<path d="M62.536 10.4599C62.4148 10.4601 62.2947 10.4363 62.1828 10.3899C62.0708 10.3435 61.9691 10.2754 61.8835 10.1896L56.9616 5.26768C56.7896 5.09442 56.6933 4.86004 56.6937 4.6159C56.6942 4.37175 56.7914 4.13773 56.964 3.96509C57.1366 3.79245 57.3707 3.69527 57.6148 3.69483C57.8589 3.69438 58.0933 3.79071 58.2666 3.96272L63.1885 8.8846C63.3175 9.01366 63.4054 9.17808 63.441 9.35708C63.4766 9.53607 63.4583 9.7216 63.3884 9.89022C63.3186 10.0588 63.2003 10.2029 63.0486 10.3044C62.8969 10.4058 62.7185 10.4599 62.536 10.4599Z" fill="white"/>
<path d="M57.6141 10.4599C57.4316 10.4599 57.2532 10.4058 57.1015 10.3044C56.9497 10.2029 56.8315 10.0588 56.7616 9.89022C56.6918 9.7216 56.6735 9.53607 56.7091 9.35708C56.7447 9.17808 56.8326 9.01366 56.9616 8.8846L61.8835 3.96272C62.0568 3.79071 62.2911 3.69438 62.5353 3.69483C62.7794 3.69527 63.0135 3.79245 63.1861 3.96509C63.3587 4.13773 63.4559 4.37175 63.4564 4.6159C63.4568 4.86004 63.3605 5.09442 63.1885 5.26768L58.2666 10.1896C58.181 10.2754 58.0793 10.3435 57.9673 10.3899C57.8554 10.4363 57.7353 10.4601 57.6141 10.4599Z" fill="white"/>
</svg>
