<svg width="70" height="70" viewBox="0 0 70 70" fill="none" xmlns="http://www.w3.org/2000/svg">
<path d="M33.5416 51.0417C33.541 53.9319 34.2575 56.777 35.6268 59.3221C36.9961 61.8673 38.9754 64.033 41.3875 65.6251H10.9812C9.94706 65.6262 8.92453 65.4071 7.98167 64.9823C7.0388 64.5574 6.19721 63.9367 5.51291 63.1613C4.8286 62.386 4.31727 61.4738 4.01294 60.4854C3.7086 59.4971 3.61824 58.4552 3.74787 57.4293L8.12288 22.4292C8.34321 20.666 9.19982 19.044 10.5318 17.8678C11.8637 16.6916 13.5793 16.0422 15.3562 16.0417H18.9583V24.7917C18.9583 25.1785 19.1119 25.5495 19.3854 25.8229C19.6589 26.0964 20.0299 26.2501 20.4166 26.2501C20.8034 26.2501 21.1743 26.0964 21.4478 25.8229C21.7213 25.5495 21.875 25.1785 21.875 24.7917V16.0417H39.375V24.7917C39.375 25.1785 39.5286 25.5495 39.8021 25.8229C40.0756 26.0964 40.4465 26.2501 40.8333 26.2501C41.2201 26.2501 41.591 26.0964 41.8645 25.8229C42.138 25.5495 42.2916 25.1785 42.2916 24.7917V16.0417H45.8937C47.6706 16.0422 49.3862 16.6916 50.7182 17.8678C52.0501 19.044 52.9067 20.666 53.127 22.4292L54.5562 33.8917C52.0129 33.3757 49.3868 33.4309 46.8674 34.0532C44.3479 34.6755 41.9981 35.8494 39.9876 37.4902C37.977 39.1311 36.3559 41.1978 35.2411 43.5413C34.1264 45.8848 33.5459 48.4466 33.5416 51.0417Z" fill="#E0E0E0"/>
<path d="M42.2917 16.0417H39.375C39.375 13.721 38.4532 11.4954 36.8122 9.85448C35.1713 8.21354 32.9457 7.29167 30.625 7.29167C28.3044 7.29167 26.0788 8.21354 24.4379 9.85448C22.7969 11.4954 21.875 13.721 21.875 16.0417H18.9584C18.9584 12.9475 20.1875 9.98001 22.3755 7.79209C24.5634 5.60416 27.5308 4.375 30.625 4.375C33.7192 4.375 36.6867 5.60416 38.8746 7.79209C41.0625 9.98001 42.2917 12.9475 42.2917 16.0417Z" fill="#E0E0E0"/>
<path d="M51.0417 36.4583C48.1574 36.4583 45.3379 37.3136 42.9396 38.916C40.5414 40.5184 38.6722 42.796 37.5685 45.4608C36.4647 48.1255 36.1759 51.0578 36.7386 53.8867C37.3013 56.7155 38.6902 59.314 40.7297 61.3536C42.7693 63.3931 45.3678 64.782 48.1966 65.3447C51.0255 65.9074 53.9578 65.6186 56.6225 64.5148C59.2873 63.4111 61.5649 61.5419 63.1673 59.1437C64.7698 56.7454 65.625 53.9259 65.625 51.0416C65.6208 47.1751 64.083 43.4683 61.349 40.7343C58.615 38.0003 54.9082 36.4625 51.0417 36.4583ZM55.4167 52.4999H52.5V55.4166C52.5 55.8034 52.3464 56.1743 52.0729 56.4478C51.7994 56.7213 51.4285 56.8749 51.0417 56.8749C50.6549 56.8749 50.284 56.7213 50.0105 56.4478C49.737 56.1743 49.5834 55.8034 49.5834 55.4166V52.4999H46.6667C46.2799 52.4999 45.909 52.3463 45.6355 52.0728C45.362 51.7993 45.2084 51.4284 45.2084 51.0416C45.2084 50.6548 45.362 50.2839 45.6355 50.0104C45.909 49.7369 46.2799 49.5833 46.6667 49.5833H49.5834V46.6666C49.5834 46.2798 49.737 45.9089 50.0105 45.6354C50.284 45.3619 50.6549 45.2083 51.0417 45.2083C51.4285 45.2083 51.7994 45.3619 52.0729 45.6354C52.3464 45.9089 52.5 46.2798 52.5 46.6666V49.5833H55.4167C55.8035 49.5833 56.1744 49.7369 56.4479 50.0104C56.7214 50.2839 56.875 50.6548 56.875 51.0416C56.875 51.4284 56.7214 51.7993 56.4479 52.0728C56.1744 52.3463 55.8035 52.4999 55.4167 52.4999Z" fill="#E0E0E0"/>
</svg>
