<svg width="70" height="70" viewBox="0 0 70 70" fill="none" xmlns="http://www.w3.org/2000/svg">
<path d="M46.5209 70H8.24687L5.46327 69.5352C4.70817 69.5352 4.09608 68.9231 4.09608 68.168L4.89179 17.7352C4.89179 16.9801 5.50388 16.368 6.25898 16.368L8.11562 15.6848H25.8227L29.8867 30.0602L47.8881 41.0352V68.6328C47.8881 69.3879 47.276 70 46.5209 70Z" fill="#E9E9E9"/>
<path d="M7.15777 68.5915V17.0933C7.15777 16.3154 7.78831 15.6848 8.56624 15.6848H4.76327C3.98534 15.6848 3.3548 16.3154 3.3548 17.0933V68.5915C3.3548 69.3695 3.98534 70 4.76327 70H8.56611C7.78831 70 7.15777 69.3695 7.15777 68.5915Z" fill="#F5F5F5"/>
<path d="M46.4796 15.6848H25.8228C25.6836 16.6894 25.6099 17.7147 25.6099 18.757C25.6099 31.0412 35.6037 41.0352 47.8881 41.0352V17.0933C47.8881 16.3155 47.2575 15.6848 46.4796 15.6848Z" fill="#F5F5F5"/>
<path d="M18.1318 30.0603C18.0566 34.4614 11.5101 34.4607 11.4356 30.0601C11.5106 25.6593 18.0571 25.66 18.1318 30.0603Z" fill="white"/>
<path d="M25.6215 31.1167H22.5623C21.9789 31.1167 21.506 30.6438 21.506 30.0604C21.506 29.4771 21.9789 29.0042 22.5623 29.0042H25.6215C26.2049 29.0042 26.6778 29.4771 26.6778 30.0604C26.6778 30.6438 26.2049 31.1167 25.6215 31.1167Z" fill="white"/>
<path d="M18.1318 43.3707C18.0566 47.7718 11.5101 47.7711 11.4356 43.3705C11.5106 38.9696 18.0571 38.9702 18.1318 43.3707Z" fill="white"/>
<path d="M39.8074 44.4268H22.5623C21.9789 44.4268 21.506 43.9539 21.506 43.3705C21.506 42.7871 21.9789 42.3142 22.5623 42.3142H39.8074C40.3908 42.3142 40.8637 42.7871 40.8637 43.3705C40.8637 43.9539 40.3908 44.4268 39.8074 44.4268Z" fill="white"/>
<path d="M14.7837 60.029C16.6328 60.029 18.1318 58.53 18.1318 56.6809C18.1318 54.8318 16.6328 53.3328 14.7837 53.3328C12.9346 53.3328 11.4356 54.8318 11.4356 56.6809C11.4356 58.53 12.9346 60.029 14.7837 60.029Z" fill="white"/>
<path d="M39.8074 57.7373H22.5623C21.9789 57.7373 21.506 57.2644 21.506 56.681C21.506 56.0977 21.9789 55.6248 22.5623 55.6248H39.8074C40.3908 55.6248 40.8637 56.0977 40.8637 56.681C40.8637 57.2644 40.3908 57.7373 39.8074 57.7373Z" fill="white"/>
<path d="M66.645 18.757C66.645 29.1162 58.2472 37.514 47.8881 37.514C37.5289 37.514 31.9211 29.1163 31.9211 18.757C31.9211 8.39768 37.5289 0 47.8881 0C58.2472 0 66.645 8.39781 66.645 18.757Z" fill="#E0E0E0"/>
<path d="M32.5113 18.757C32.5113 8.96766 40.0112 0.931191 49.5782 0.0765625C49.0213 0.0269336 48.4579 0 47.8881 0C37.5289 0 29.1311 8.39781 29.1311 18.757C29.1311 29.1162 37.5289 37.514 47.8881 37.514C48.4579 37.514 49.0213 37.4872 49.5782 37.4374C40.0112 36.5828 32.5113 28.5465 32.5113 18.757Z" fill="#E0E0E0"/>
<path d="M49.7496 10.9825L48.1646 12.5696C48.0119 12.7226 47.764 12.7226 47.6113 12.5696L46.0264 10.9825C45.4052 10.3604 44.6393 9.9162 43.8078 9.68241C43.3644 9.55772 42.9224 9.89296 42.4538 9.89296C38.2071 9.89296 36.7165 14.4071 39.3545 17.7351L47.2751 27.6445C47.5882 28.0395 48.1877 28.0395 48.5008 27.6445L49.274 27.8763L57.3211 17.7239C59.9591 14.3959 57.5889 9.49292 53.3422 9.49292C51.9945 9.49292 50.702 10.0289 49.7496 10.9825Z" fill="white"/>
<path d="M41.2268 17.7242C38.8954 14.783 40.4772 10.6137 43.8075 9.68402C43.3642 9.55934 42.9026 9.49316 42.4338 9.49316C38.1872 9.49316 35.817 14.3963 38.4549 17.7242L47.2751 28.8519C47.5882 29.2468 48.1877 29.2468 48.5008 28.8519L49.274 27.8765L41.2268 17.7242Z" fill="white"/>
</svg>
