<svg width="70" height="70" viewBox="0 0 70 70" fill="none" xmlns="http://www.w3.org/2000/svg">
<g clip-path="url(#clip0_6311_125)">
<path d="M7.875 60.725C7.875 63.9012 10.4906 66.5 13.6875 66.5H56.3125C59.5094 66.5 62.125 63.9012 62.125 60.725V56.875H7.875V60.725Z" fill="#E0E0E0"/>
<path d="M62.4864 42.6989C62.4843 35.9413 62.4822 29.1838 62.4801 22.4262C64.7179 21.657 65.997 19.1776 66.091 16.817C66.185 14.4563 65.3384 12.1711 64.5045 9.96003C63.6234 7.62392 62.5348 5.05959 60.2501 4.04488C59.0415 3.50809 57.6733 3.49949 56.3505 3.50002C42.0043 3.5057 27.6581 3.5114 13.3119 3.51708C11.9517 3.51761 10.5285 3.53307 9.32784 4.17122C7.61314 5.08256 6.76372 7.02178 6.03702 8.82015C4.99172 11.4069 3.90982 14.1075 3.90245 16.9402C3.89649 19.2366 5.45208 21.4557 7.53126 22.4283C7.53035 29.1896 7.52943 35.9508 7.52849 42.7121C4.79944 42.4121 3.48846 45.4977 3.50008 47.7269C3.50818 49.28 3.99961 50.9693 5.30255 51.8181C6.31645 52.4785 7.60441 52.5002 8.8151 52.5C26.4303 52.4975 44.0456 52.495 61.6608 52.4925C62.5876 52.4923 63.5543 52.4831 64.3798 52.0627C65.7346 51.3728 66.3498 49.7536 66.4789 48.2408C66.6804 45.8802 65.4452 42.4626 62.4864 42.6989ZM11.4534 23.0363C12.497 22.8887 13.5966 22.451 14.4551 21.8423C14.9909 21.4625 15.7662 21.4625 16.3068 21.8443C18.6434 23.4937 21.9249 23.4956 24.2692 21.8423C24.805 21.4625 25.5813 21.4625 26.1209 21.8443C28.4575 23.4937 31.739 23.4956 34.0833 21.8423C34.6181 21.4625 35.3944 21.4625 35.935 21.8443C38.2696 23.4937 41.5551 23.4956 43.8974 21.8423C44.4284 21.4644 45.2066 21.4616 45.7491 21.8443C48.0837 23.4937 51.3692 23.4956 53.7115 21.8423C54.2425 21.4644 55.0207 21.4616 55.5632 21.8443C56.4353 22.4605 57.5075 22.874 58.561 23.0363V42.6989H46.1117C44.8915 39.2607 42.1161 36.6161 38.7025 35.4819C40.0294 34.4031 40.8957 32.7803 40.8957 30.9427C40.8957 27.7013 38.2543 25.0646 35.0072 25.0646C31.7601 25.0646 29.1188 27.7013 29.1188 30.9427C29.1188 32.7803 29.985 34.4031 31.3121 35.4819C27.8988 36.6161 25.1236 39.2607 23.9037 42.6989H11.4534C11.4534 42.6989 11.4534 23.0363 11.4534 23.0363Z" fill="#E0E0E0"/>
<path d="M63.0752 14.1504C66.9827 14.1504 70.1504 10.9827 70.1504 7.0752C70.1504 3.16767 66.9827 0 63.0752 0C59.1677 0 56 3.16767 56 7.0752C56 10.9827 59.1677 14.1504 63.0752 14.1504Z" fill="#BFBEBE"/>
<path d="M65.536 10.4599C65.4148 10.4601 65.2947 10.4363 65.1828 10.3899C65.0708 10.3435 64.9691 10.2754 64.8835 10.1896L59.9616 5.26768C59.7896 5.09442 59.6933 4.86004 59.6937 4.6159C59.6942 4.37175 59.7914 4.13773 59.964 3.96509C60.1366 3.79245 60.3707 3.69527 60.6148 3.69483C60.8589 3.69438 61.0933 3.79071 61.2666 3.96272L66.1885 8.8846C66.3175 9.01366 66.4054 9.17808 66.441 9.35708C66.4766 9.53607 66.4583 9.7216 66.3884 9.89022C66.3186 10.0588 66.2003 10.2029 66.0486 10.3044C65.8969 10.4058 65.7185 10.4599 65.536 10.4599Z" fill="white"/>
<path d="M60.6141 10.4599C60.4316 10.4599 60.2532 10.4058 60.1015 10.3044C59.9497 10.2029 59.8315 10.0588 59.7616 9.89022C59.6918 9.7216 59.6735 9.53607 59.7091 9.35708C59.7447 9.17808 59.8326 9.01366 59.9616 8.8846L64.8835 3.96272C65.0568 3.79071 65.2911 3.69438 65.5353 3.69483C65.7794 3.69527 66.0135 3.79245 66.1861 3.96509C66.3587 4.13773 66.4559 4.37175 66.4564 4.6159C66.4568 4.86004 66.3605 5.09442 66.1885 5.26768L61.2666 10.1896C61.181 10.2754 61.0793 10.3435 60.9673 10.3899C60.8554 10.4363 60.7353 10.4601 60.6141 10.4599Z" fill="white"/>
</g>
<defs>
<clipPath id="clip0_6311_125">
<rect width="70" height="70" fill="white"/>
</clipPath>
</defs>
</svg>
