<svg width="16" height="16" viewBox="0 0 16 16" fill="none" xmlns="http://www.w3.org/2000/svg">
<g id="mdi:facebook">
<path id="Vector" d="M8.00016 1.35986C4.3335 1.35986 1.3335 4.3532 1.3335 8.03986C1.3335 11.3732 3.7735 14.1399 6.96016 14.6399V9.9732H5.26683V8.03986H6.96016V6.56653C6.96016 4.8932 7.9535 3.9732 9.48016 3.9732C10.2068 3.9732 10.9668 4.09986 10.9668 4.09986V5.74653H10.1268C9.30016 5.74653 9.04016 6.25986 9.04016 6.78653V8.03986H10.8935L10.5935 9.9732H9.04016V14.6399C10.6111 14.3918 12.0416 13.5902 13.0734 12.3799C14.1053 11.1696 14.6704 9.63029 14.6668 8.03986C14.6668 4.3532 11.6668 1.35986 8.00016 1.35986Z" fill="#1455AC"/>
</g>
</svg>
