<svg width="16" height="16" viewBox="0 0 16 16" fill="none" xmlns="http://www.w3.org/2000/svg">
<g id="mdi:pinterest">
<path id="Vector" d="M6.02683 14.3602C6.66683 14.5535 7.3135 14.6668 8.00016 14.6668C9.76827 14.6668 11.464 13.9644 12.7142 12.7142C13.9644 11.464 14.6668 9.76827 14.6668 8.00016C14.6668 7.12468 14.4944 6.25778 14.1594 5.44894C13.8243 4.6401 13.3333 3.90517 12.7142 3.28612C12.0951 2.66706 11.3602 2.176 10.5514 1.84097C9.74255 1.50593 8.87564 1.3335 8.00016 1.3335C7.12468 1.3335 6.25778 1.50593 5.44894 1.84097C4.6401 2.176 3.90517 2.66706 3.28612 3.28612C2.03587 4.53636 1.3335 6.23205 1.3335 8.00016C1.3335 10.8335 3.1135 13.2668 5.62683 14.2268C5.56683 13.7068 5.50683 12.8468 5.62683 12.2535L6.3935 8.96016C6.3935 8.96016 6.20016 8.5735 6.20016 7.96016C6.20016 7.04016 6.7735 6.3535 7.42683 6.3535C8.00016 6.3535 8.26683 6.7735 8.26683 7.3135C8.26683 7.88683 7.88683 8.70683 7.6935 9.49349C7.58016 10.1468 8.04016 10.7202 8.70683 10.7202C9.8935 10.7202 10.8135 9.4535 10.8135 7.66683C10.8135 6.06683 9.66683 4.9735 8.02016 4.9735C6.14016 4.9735 5.0335 6.3735 5.0335 7.84683C5.0335 8.42016 5.22016 9.00016 5.52683 9.38016C5.58683 9.42016 5.58683 9.4735 5.56683 9.57349L5.3735 10.3002C5.3735 10.4135 5.30016 10.4535 5.18683 10.3735C4.3335 10.0002 3.84016 8.78683 3.84016 7.80683C3.84016 5.70016 5.3335 3.78683 8.2135 3.78683C10.5068 3.78683 12.2935 5.4335 12.2935 7.62016C12.2935 9.9135 10.8735 11.7535 8.84016 11.7535C8.1935 11.7535 7.56016 11.4068 7.3335 11.0002L6.88683 12.5802C6.7335 13.1535 6.3135 13.9202 6.02683 14.3802V14.3602Z" fill="#1455AC"/>
</g>
</svg>
