<svg width="16" height="16" viewBox="0 0 16 16" fill="none" xmlns="http://www.w3.org/2000/svg">
<g id="mdi:twitter">
<path id="Vector" d="M14.9735 3.99984C14.4602 4.23317 13.9069 4.3865 13.3335 4.45984C13.9202 4.1065 14.3735 3.5465 14.5869 2.87317C14.0335 3.2065 13.4202 3.43984 12.7735 3.57317C12.2469 2.99984 11.5069 2.6665 10.6669 2.6665C9.10019 2.6665 7.82019 3.9465 7.82019 5.5265C7.82019 5.75317 7.84686 5.97317 7.89352 6.17984C5.52019 6.05984 3.40686 4.91984 2.00019 3.19317C1.75352 3.61317 1.61352 4.1065 1.61352 4.6265C1.61352 5.61984 2.11352 6.49984 2.88686 6.99984C2.41352 6.99984 1.97352 6.8665 1.58686 6.6665V6.6865C1.58686 8.07317 2.57352 9.23317 3.88019 9.49317C3.46067 9.60798 3.02025 9.62395 2.59352 9.53984C2.77459 10.1082 3.12921 10.6054 3.60753 10.9618C4.08585 11.3181 4.66382 11.5156 5.26019 11.5265C4.24928 12.3268 2.99619 12.7594 1.70686 12.7532C1.48019 12.7532 1.25352 12.7398 1.02686 12.7132C2.29352 13.5265 3.80019 13.9998 5.41352 13.9998C10.6669 13.9998 13.5535 9.63984 13.5535 5.85984C13.5535 5.73317 13.5535 5.61317 13.5469 5.4865C14.1069 5.0865 14.5869 4.57984 14.9735 3.99984Z" fill="#1455AC"/>
</g>
</svg>
