<svg width="14" height="16" viewBox="0 0 14 16" fill="none" xmlns="http://www.w3.org/2000/svg">
<path d="M2.8335 15.5C2.37516 15.5 1.98294 15.3369 1.65683 15.0108C1.33016 14.6842 1.16683 14.2917 1.16683 13.8333V3C0.930718 3 0.732663 2.92028 0.572663 2.76083C0.413218 2.60083 0.333496 2.40278 0.333496 2.16667C0.333496 1.93056 0.413218 1.7325 0.572663 1.5725C0.732663 1.41306 0.930718 1.33333 1.16683 1.33333H4.50016C4.50016 1.09722 4.58016 0.899167 4.74016 0.739167C4.89961 0.579722 5.09738 0.5 5.3335 0.5H8.66683C8.90294 0.5 9.101 0.579722 9.261 0.739167C9.42044 0.899167 9.50016 1.09722 9.50016 1.33333H12.8335C13.0696 1.33333 13.2674 1.41306 13.4268 1.5725C13.5868 1.7325 13.6668 1.93056 13.6668 2.16667C13.6668 2.40278 13.5868 2.60083 13.4268 2.76083C13.2674 2.92028 13.0696 3 12.8335 3V13.8333C12.8335 14.2917 12.6704 14.6842 12.3443 15.0108C12.0177 15.3369 11.6252 15.5 11.1668 15.5H2.8335ZM2.8335 3V13.8333H11.1668V3H2.8335ZM4.50016 11.3333C4.50016 11.5694 4.58016 11.7672 4.74016 11.9267C4.89961 12.0867 5.09738 12.1667 5.3335 12.1667C5.56961 12.1667 5.76766 12.0867 5.92766 11.9267C6.08711 11.7672 6.16683 11.5694 6.16683 11.3333V5.5C6.16683 5.26389 6.08711 5.06583 5.92766 4.90583C5.76766 4.74639 5.56961 4.66667 5.3335 4.66667C5.09738 4.66667 4.89961 4.74639 4.74016 4.90583C4.58016 5.06583 4.50016 5.26389 4.50016 5.5V11.3333ZM7.8335 11.3333C7.8335 11.5694 7.9135 11.7672 8.0735 11.9267C8.23294 12.0867 8.43072 12.1667 8.66683 12.1667C8.90294 12.1667 9.101 12.0867 9.261 11.9267C9.42044 11.7672 9.50016 11.5694 9.50016 11.3333V5.5C9.50016 5.26389 9.42044 5.06583 9.261 4.90583C9.101 4.74639 8.90294 4.66667 8.66683 4.66667C8.43072 4.66667 8.23294 4.74639 8.0735 4.90583C7.9135 5.06583 7.8335 5.26389 7.8335 5.5V11.3333Z" fill="#FF4848"/>
</svg>
