<svg width="16" height="11" viewBox="0 0 16 11" fill="none" xmlns="http://www.w3.org/2000/svg">
<path d="M5.33284 9.66667C5.68647 9.66667 6.02561 9.52619 6.27565 9.27614C6.5257 9.02609 6.66618 8.68696 6.66618 8.33333C6.66618 7.97971 6.5257 7.64057 6.27565 7.39052C6.02561 7.14048 5.68647 7 5.33284 7C4.97922 7 4.64008 7.14048 4.39004 7.39052C4.13999 7.64057 3.99951 7.97971 3.99951 8.33333C3.99951 8.68696 4.13999 9.02609 4.39004 9.27614C4.64008 9.52619 4.97922 9.66667 5.33284 9.66667ZM11.9995 9.66667C12.3531 9.66667 12.6923 9.52619 12.9423 9.27614C13.1924 9.02609 13.3328 8.68696 13.3328 8.33333C13.3328 7.97971 13.1924 7.64057 12.9423 7.39052C12.6923 7.14048 12.3531 7 11.9995 7C11.6459 7 11.3068 7.14048 11.0567 7.39052C10.8067 7.64057 10.6662 7.97971 10.6662 8.33333C10.6662 8.68696 10.8067 9.02609 11.0567 9.27614C11.3068 9.52619 11.6459 9.66667 11.9995 9.66667Z" stroke="currentColor" stroke-width="0.954545" stroke-miterlimit="1.5" stroke-linecap="round" stroke-linejoin="round"/>
<path d="M6.69984 8.33333H9.99984V1.4C9.99984 1.29391 9.95769 1.19217 9.88268 1.11716C9.80767 1.04214 9.70592 1 9.59984 1H0.666504M3.7665 8.33333H2.39984C2.34731 8.33333 2.29529 8.32299 2.24676 8.30289C2.19823 8.28278 2.15414 8.25332 2.11699 8.21618C2.07985 8.17903 2.05039 8.13494 2.03029 8.08641C2.01018 8.03788 1.99984 7.98586 1.99984 7.93333V4.66667" stroke="currentColor" stroke-width="0.954545" stroke-linecap="round"/>
<path d="M1.33301 3H3.99967" stroke="currentColor" stroke-width="0.954545" stroke-linecap="round" stroke-linejoin="round"/>
<path d="M9.99951 3H13.7395C13.8168 3.00002 13.8925 3.02245 13.9573 3.06457C14.0222 3.10669 14.0734 3.1667 14.1048 3.23733L15.2982 5.92267C15.3209 5.97366 15.3327 6.02884 15.3328 6.08467V7.93333C15.3328 7.98586 15.3225 8.03788 15.3024 8.08641C15.2823 8.13494 15.2528 8.17903 15.2157 8.21618C15.1785 8.25332 15.1344 8.28278 15.0859 8.30289C15.0374 8.32299 14.9854 8.33333 14.9328 8.33333H13.6662M9.99951 8.33333H10.6662" stroke="currentColor" stroke-width="0.954545" stroke-linecap="round"/>
</svg>
