<svg width="15" height="19" viewBox="0 0 15 19" fill="none" xmlns="http://www.w3.org/2000/svg">
<path d="M6.16683 9.16732H7.91683L13.0835 4.00065L11.3335 2.25065L6.16683 7.41732V9.16732ZM13.6668 3.41732L14.2502 2.83398C14.4168 2.66732 14.5002 2.47287 14.5002 2.25065C14.5002 2.02843 14.4168 1.83398 14.2502 1.66732L13.6668 1.08398C13.5002 0.917318 13.3057 0.833984 13.0835 0.833984C12.8613 0.833984 12.6668 0.917318 12.5002 1.08398L11.9168 1.66732L13.6668 3.41732ZM7.00016 18.334C4.76405 16.4312 3.09405 14.6637 1.99016 13.0315C0.885718 11.3998 0.333496 9.88954 0.333496 8.50065C0.333496 6.41732 1.00377 4.7576 2.34433 3.52148C3.68433 2.28537 5.23627 1.66732 7.00016 1.66732C7.37516 1.66732 7.74683 1.69843 8.11516 1.76065C8.48294 1.82343 8.84044 1.91037 9.18766 2.02148L7.8335 3.39648C7.69461 3.36871 7.55905 3.35121 7.42683 3.34398C7.29516 3.33732 7.15294 3.33398 7.00016 3.33398C5.59739 3.33398 4.41322 3.81648 3.44766 4.78148C2.48266 5.74704 2.00016 6.98676 2.00016 8.50065C2.00016 9.48676 2.40988 10.6151 3.22933 11.8857C4.04877 13.1568 5.30572 14.5701 7.00016 16.1257C8.69461 14.5701 9.95155 13.1568 10.771 11.8857C11.5904 10.6151 12.0002 9.48676 12.0002 8.50065C12.0002 8.33398 11.9932 8.17065 11.9793 8.01065C11.9654 7.85121 11.9446 7.6951 11.9168 7.54232L13.2918 6.16732C13.4168 6.52843 13.5107 6.90343 13.5735 7.29232C13.6357 7.68121 13.6668 8.08398 13.6668 8.50065C13.6668 9.88954 13.1149 11.3998 12.011 13.0315C10.9066 14.6637 9.23627 16.4312 7.00016 18.334Z" fill="#1B7FED"/>
</svg>
