<svg width="20" height="20" viewBox="0 0 20 20" fill="none" xmlns="http://www.w3.org/2000/svg">
<g clip-path="url(#clip0_1652_25808)">
<path d="M15.8333 1.6665H4.16667C1.86917 1.6665 0 3.53567 0 5.83317V14.1665C0 16.464 1.86917 18.3332 4.16667 18.3332H15.8333C18.1308 18.3332 20 16.464 20 14.1665V5.83317C20 3.53567 18.1308 1.6665 15.8333 1.6665ZM1.66667 14.1665V5.83317C1.66667 4.45484 2.78833 3.33317 4.16667 3.33317H7.5V16.6665H4.16667C2.78833 16.6665 1.66667 15.5448 1.66667 14.1665ZM18.3333 14.1665C18.3333 15.5448 17.2117 16.6665 15.8333 16.6665H9.16667V3.33317H15.8333C17.2117 3.33317 18.3333 4.45484 18.3333 5.83317V14.1665ZM5.83333 9.1665C5.83333 9.62734 5.46083 9.99984 5 9.99984H4.16667C3.70583 9.99984 3.33333 9.62734 3.33333 9.1665C3.33333 8.70567 3.70583 8.33317 4.16667 8.33317H5C5.46083 8.33317 5.83333 8.70567 5.83333 9.1665ZM5.83333 12.4998C5.83333 12.9607 5.46083 13.3332 5 13.3332H4.16667C3.70583 13.3332 3.33333 12.9607 3.33333 12.4998C3.33333 12.039 3.70583 11.6665 4.16667 11.6665H5C5.46083 11.6665 5.83333 12.039 5.83333 12.4998ZM3.33333 5.83317C3.33333 5.37234 3.70583 4.99984 4.16667 4.99984H5C5.46083 4.99984 5.83333 5.37234 5.83333 5.83317C5.83333 6.294 5.46083 6.6665 5 6.6665H4.16667C3.70583 6.6665 3.33333 6.294 3.33333 5.83317Z" fill="currentColor"/>
</g>
<defs>
<clipPath id="clip0_1652_25808">
<rect width="20" height="20" fill="currentColor"/>
</clipPath>
</defs>
</svg>
