<svg width="512" height="512" viewBox="0 0 512 512" fill="none" xmlns="http://www.w3.org/2000/svg">
<path d="M237.382 507.345C365.914 507.345 470.109 403.15 470.109 274.618C470.109 146.086 365.914 41.8906 237.382 41.8906C108.85 41.8906 4.65454 146.086 4.65454 274.618C4.65454 403.15 108.85 507.345 237.382 507.345Z" fill="#E7EFFF"/>
<path d="M32.5818 46.5445C40.2937 46.5445 46.5454 40.2927 46.5454 32.5808C46.5454 24.8689 40.2937 18.6172 32.5818 18.6172C24.8699 18.6172 18.6182 24.8689 18.6182 32.5808C18.6182 40.2927 24.8699 46.5445 32.5818 46.5445Z" fill="#00C99F"/>
<path d="M479.418 32.5816C487.13 32.5816 493.382 26.3298 493.382 18.6179C493.382 10.906 487.13 4.6543 479.418 4.6543C471.706 4.6543 465.455 10.906 465.455 18.6179C465.455 26.3298 471.706 32.5816 479.418 32.5816Z" fill="#FFA100"/>
<path d="M493.382 484.072C501.094 484.072 507.345 477.82 507.345 470.108C507.345 462.396 501.094 456.145 493.382 456.145C485.67 456.145 479.418 462.396 479.418 470.108C479.418 477.82 485.67 484.072 493.382 484.072Z" fill="#00C99F"/>
<path d="M41.8909 493.382C49.6028 493.382 55.8545 487.131 55.8545 479.419C55.8545 471.707 49.6028 465.455 41.8909 465.455C34.179 465.455 27.9272 471.707 27.9272 479.419C27.9272 487.131 34.179 493.382 41.8909 493.382Z" fill="#FF4D69"/>
<path d="M404.945 134.982H125.673C112.819 134.982 102.4 145.402 102.4 158.255V437.528C102.4 450.381 112.819 460.801 125.673 460.801H404.945C417.799 460.801 428.218 450.381 428.218 437.528V158.255C428.218 145.402 417.799 134.982 404.945 134.982Z" fill="#4E6AFF"/>
<path d="M352.814 397.498L338.851 378.879C338.417 378.301 337.855 377.832 337.209 377.509C336.562 377.186 335.85 377.018 335.127 377.018C334.405 377.018 333.692 377.186 333.046 377.509C332.399 377.832 331.837 378.301 331.404 378.879L317.44 397.498C316.921 398.189 316.605 399.011 316.528 399.872C316.45 400.733 316.614 401.599 317 402.372C317.387 403.145 317.981 403.795 318.717 404.25C319.452 404.704 320.299 404.945 321.164 404.945H330.473V428.218C330.473 429.452 330.963 430.636 331.836 431.509C332.709 432.382 333.893 432.872 335.127 432.872C336.362 432.872 337.546 432.382 338.418 431.509C339.291 430.636 339.782 429.452 339.782 428.218V404.945H349.091C349.955 404.945 350.803 404.704 351.538 404.25C352.273 403.795 352.867 403.145 353.254 402.372C353.641 401.599 353.804 400.733 353.727 399.872C353.649 399.011 353.333 398.189 352.814 397.498Z" fill="white"/>
<path d="M399.36 397.498L385.396 378.879C384.963 378.301 384.401 377.832 383.754 377.509C383.108 377.186 382.395 377.018 381.673 377.018C380.95 377.018 380.237 377.186 379.591 377.509C378.945 377.832 378.383 378.301 377.949 378.879L363.985 397.498C363.467 398.189 363.151 399.011 363.073 399.872C362.996 400.733 363.159 401.599 363.546 402.372C363.933 403.145 364.527 403.795 365.262 404.25C365.997 404.704 366.845 404.945 367.709 404.945H377.018V428.218C377.018 429.452 377.509 430.636 378.381 431.509C379.254 432.382 380.438 432.872 381.673 432.872C382.907 432.872 384.091 432.382 384.964 431.509C385.837 430.636 386.327 429.452 386.327 428.218V404.945H395.636C396.501 404.945 397.348 404.704 398.083 404.25C398.819 403.795 399.413 403.145 399.8 402.372C400.186 401.599 400.35 400.733 400.272 399.872C400.194 399.011 399.879 398.189 399.36 397.498Z" fill="white"/>
<path d="M256 362.03C256.141 363.948 255.884 365.875 255.246 367.689C254.608 369.503 253.602 371.166 252.291 372.573C250.98 373.98 249.392 375.101 247.628 375.866C245.863 376.631 243.959 377.023 242.036 377.018H232.727C236.431 377.018 239.982 378.489 242.601 381.108C245.22 383.726 246.691 387.278 246.691 390.981C246.691 394.685 245.22 398.237 242.601 400.855C239.982 403.474 236.431 404.945 232.727 404.945H214.109C216.007 404.942 217.886 405.327 219.63 406.075C221.375 406.822 222.949 407.918 224.256 409.295C225.563 410.671 226.575 412.3 227.231 414.081C227.888 415.862 228.174 417.758 228.073 419.653C227.733 423.311 226.024 426.706 223.288 429.157C220.552 431.608 216.991 432.935 213.318 432.872H109.94C100.212 432.872 94.5338 430.266 81.6407 425.937C74.1702 423.745 66.3612 422.94 58.6007 423.563C57.6698 422.493 56.7389 421.376 55.8545 420.259V302.545C68.3752 302.545 77.6378 303.383 89.8792 296.401C116.364 281.367 108.311 283.927 172.218 283.927C174.687 283.927 177.055 284.908 178.801 286.653C180.546 288.399 181.527 290.767 181.527 293.236C181.527 300.643 178.585 307.746 173.348 312.984C168.11 318.221 161.007 321.163 153.6 321.163H231.936C233.77 321.111 235.596 321.421 237.31 322.075C239.024 322.729 240.592 323.713 241.926 324.973C243.259 326.233 244.331 327.744 245.081 329.418C245.831 331.092 246.243 332.898 246.295 334.731C246.347 336.565 246.037 338.391 245.384 340.105C244.73 341.819 243.745 343.388 242.485 344.721C241.225 346.054 239.715 347.127 238.041 347.876C236.366 348.626 234.561 349.039 232.727 349.091H241.245C244.88 349 248.416 350.281 251.15 352.678C253.884 355.076 255.615 358.414 256 362.03Z" fill="#A5BCED"/>
<path d="M55.8546 297.891V420.259C25.6522 382.712 7.90225 336.686 5.07349 288.582H46.5455C49.0144 288.582 51.3822 289.563 53.128 291.309C54.8738 293.054 55.8546 295.422 55.8546 297.891Z" fill="#4E6AFF"/>
<path d="M174.359 311.854C171.757 314.789 168.561 317.137 164.981 318.742C161.402 320.347 157.522 321.172 153.6 321.163H125.673C124.438 321.163 123.254 320.672 122.381 319.799C121.508 318.926 121.018 317.743 121.018 316.508C121.018 315.274 121.508 314.09 122.381 313.217C123.254 312.344 124.438 311.854 125.673 311.854H174.359Z" fill="#7F96D1"/>
<path d="M246.691 390.98C246.691 394.684 245.22 398.236 242.601 400.854C239.982 403.473 236.431 404.944 232.727 404.944H158.254C157.02 404.944 155.836 404.454 154.963 403.581C154.09 402.708 153.6 401.524 153.6 400.29C153.6 399.055 154.09 397.871 154.963 396.998C155.836 396.125 157.02 395.635 158.254 395.635H242.036C243.271 395.635 244.455 395.145 245.327 394.272C246.2 393.399 246.691 392.215 246.691 390.98Z" fill="#7F96D1"/>
<path d="M256 363.053C256 366.756 254.529 370.308 251.91 372.927C249.291 375.545 245.74 377.016 242.036 377.016H158.254C157.02 377.016 155.836 376.526 154.963 375.653C154.09 374.78 153.6 373.596 153.6 372.362C153.6 371.127 154.09 369.943 154.963 369.071C155.836 368.198 157.02 367.707 158.254 367.707H251.345C252.58 367.707 253.764 367.217 254.637 366.344C255.509 365.471 256 364.287 256 363.053Z" fill="#7F96D1"/>
<path d="M246.691 335.127C246.691 338.83 245.22 342.382 242.601 345.001C239.982 347.619 236.431 349.091 232.727 349.091H158.254C157.02 349.091 155.836 348.6 154.963 347.727C154.09 346.854 153.6 345.671 153.6 344.436C153.6 343.202 154.09 342.018 154.963 341.145C155.836 340.272 157.02 339.781 158.254 339.781H242.036C243.271 339.781 244.455 339.291 245.327 338.418C246.2 337.545 246.691 336.361 246.691 335.127Z" fill="#7F96D1"/>
<path d="M302.545 139.637V214.11C302.545 214.974 302.305 215.821 301.85 216.557C301.396 217.292 300.746 217.886 299.973 218.273C299.199 218.659 298.334 218.823 297.473 218.745C296.612 218.668 295.79 218.352 295.098 217.833L279.692 206.29L268.614 217.414C268.181 217.851 267.666 218.197 267.099 218.433C266.532 218.67 265.924 218.791 265.309 218.791C264.695 218.791 264.086 218.67 263.519 218.433C262.952 218.197 262.437 217.851 262.004 217.414L250.927 206.29L235.52 217.833C234.828 218.352 234.006 218.668 233.145 218.745C232.284 218.823 231.419 218.659 230.646 218.273C229.873 217.886 229.222 217.292 228.768 216.557C228.313 215.821 228.073 214.974 228.073 214.11V139.637C228.073 138.403 228.563 137.219 229.436 136.346C230.309 135.473 231.493 134.982 232.727 134.982H297.891C299.125 134.982 300.309 135.473 301.182 136.346C302.055 137.219 302.545 138.403 302.545 139.637Z" fill="#8FA2FF"/>
<path d="M395.636 181.527C434.196 181.527 465.454 150.268 465.454 111.709C465.454 73.1493 434.196 41.8906 395.636 41.8906C357.077 41.8906 325.818 73.1493 325.818 111.709C325.818 150.268 357.077 181.527 395.636 181.527Z" fill="#00C99F"/>
<path d="M384.419 136.89L361.146 113.617C359.621 111.836 358.824 109.545 358.915 107.202C359.005 104.86 359.976 102.637 361.634 100.979C363.292 99.3214 365.515 98.3501 367.857 98.2596C370.2 98.1691 372.491 98.9661 374.272 100.491L390.982 117.154L421.655 86.5275C423.436 85.0024 425.727 84.2055 428.07 84.296C430.413 84.3865 432.635 85.3577 434.293 87.0156C435.951 88.6735 436.922 90.896 437.013 93.2389C437.103 95.5817 436.306 97.8725 434.781 99.6533L397.545 136.89C395.801 138.624 393.441 139.597 390.982 139.597C388.522 139.597 386.163 138.624 384.419 136.89Z" fill="white"/>
</svg>
