<svg width="187" height="181" viewBox="0 0 187 181" fill="none" xmlns="http://www.w3.org/2000/svg">
<path d="M182.253 92.6217C182.253 141.547 142.586 181.001 93.8736 181.001C45.1613 181.001 5.49414 141.578 5.49414 92.6217C5.49414 71.8524 12.6621 52.7544 24.6613 37.6742C41.2187 16.7895 66.4999 4.24219 93.8736 4.24219C121.247 4.24219 146.561 16.8684 163.099 37.6742C175.1 52.7544 182.253 71.8524 182.253 92.6217Z" fill="#EDEDED"/>
<path d="M16.8648 15.9279C15.9013 18.0531 16.8744 20.5707 18.9996 21.5323C21.1248 22.4958 23.6289 21.5515 24.5925 19.4263C25.556 17.3011 24.6252 14.7682 22.5 13.8046C20.3748 12.8411 17.8284 13.8008 16.8667 15.926L16.8648 15.9279Z" fill="#E3E3E3"/>
<path d="M143.704 2.49822C142.74 4.62342 143.713 7.14097 145.839 8.1026C147.964 9.06615 150.468 8.12183 151.431 5.99663C152.395 3.87143 151.464 1.3385 149.339 0.374946C147.214 -0.588606 144.667 0.371099 143.706 2.4963L143.704 2.49822Z" fill="#E3E3E3"/>
<path d="M7.18909 176.748C6.58711 176.748 6.09668 176.26 6.09668 175.656V159.124C6.09668 158.522 6.58519 158.031 7.18909 158.031C7.79299 158.031 8.2815 158.52 8.2815 159.124V175.656C8.2815 176.258 7.79299 176.748 7.18909 176.748Z" fill="#EDEDED"/>
<path d="M14.3764 158.084C14.3764 162.054 11.1607 165.269 7.19106 165.269C3.22146 165.269 0 162.054 0 158.084C0 154.114 3.22146 140.727 7.19106 140.727C11.1607 140.727 14.3764 154.116 14.3764 158.084Z" fill="#D6D6D6"/>
<path d="M164.633 104.844V169.304C164.633 172.679 161.897 175.416 158.521 175.416H69.7842V104.846H164.633V104.844Z" fill="#F8F8F8"/>
<path d="M79.1834 109.222V175.417H29.5037C26.1284 175.417 23.3916 172.68 23.3916 169.305V106.712C23.3916 105.141 23.9359 103.633 24.9244 102.408L46.0976 76.4592C47.3842 74.8764 49.3248 73.9609 51.3654 73.9609C53.406 73.9609 55.3485 74.8764 56.6332 76.4592L79.1795 109.22L79.1834 109.222Z" fill="#EAEAEA"/>
<path d="M172.718 114.567C171.593 116.942 169.193 118.45 166.571 118.45H86.3407C87.5408 116.125 87.3177 113.205 85.5617 111.053L56.634 76.4592C55.3474 74.8764 53.4068 73.9609 51.3662 73.9609H141.355C143.396 73.9609 145.339 74.8764 146.623 76.4592L171.841 107.343C173.499 109.383 173.845 112.191 172.72 114.565L172.718 114.567Z" fill="#BBBBBB"/>
<path d="M84.6583 120.571C84.6468 120.596 84.6217 120.621 84.5967 120.633C81.6484 123.031 77.3826 122.546 75.0247 119.667L51.3648 91.5185L27.7183 119.667C25.3431 122.573 21.0639 123.006 18.1463 120.633C18.1213 120.619 18.0963 120.596 18.0847 120.571C15.2287 118.196 14.819 113.942 17.1827 111.061L46.0989 76.4671C47.3971 74.8842 49.3261 73.9688 51.3667 73.9688C53.4073 73.9688 55.3498 74.8842 56.6345 76.4671L85.5622 111.061C87.924 113.942 87.5163 118.198 84.6602 120.571H84.6583Z" fill="#B1B1B1"/>
<path d="M114.764 135.266H102.161C100.812 135.266 99.7188 136.359 99.7188 137.708V150.311C99.7188 151.66 100.812 152.754 102.161 152.754H114.764C116.113 152.754 117.207 151.66 117.207 150.311V137.708C117.207 136.359 116.113 135.266 114.764 135.266Z" fill="#D9D9D9"/>
<path d="M149.632 135.266H137.028C135.68 135.266 134.586 136.359 134.586 137.708V150.311C134.586 151.66 135.68 152.754 137.028 152.754H149.632C150.981 152.754 152.074 151.66 152.074 150.311V137.708C152.074 136.359 150.981 135.266 149.632 135.266Z" fill="#D9D9D9"/>
<path d="M61.1412 148.486V175.416H39.4834V148.486C39.4834 142.505 44.3319 137.656 50.3133 137.656C56.2946 137.656 61.1431 142.505 61.1431 148.486H61.1412Z" fill="#D9D9D9"/>
<path d="M113.219 80.7735C113.219 82.8718 106.377 84.5547 97.9373 84.5547C89.498 84.5547 82.6416 82.8737 82.6416 80.7735C82.6416 78.6734 89.4846 77.0078 97.9373 77.0078C106.39 77.0078 113.219 78.6907 113.219 80.7735Z" fill="#9E9E9E"/>
<path d="M99.521 4.28437C82.3309 3.38236 68.1104 17.0644 68.1104 34.0641C68.1104 43.9035 72.8704 52.6216 80.2057 58.0663C85.912 62.2879 90.5105 67.8326 93.1165 74.441L94.7609 78.6183C95.8956 81.4993 99.971 81.4993 101.092 78.6183L102.592 74.8333C105.272 68.0365 109.972 62.3302 115.809 57.9336C123.291 52.3293 128.035 43.3053 127.745 33.1755C127.293 17.8337 114.863 5.08252 99.521 4.28244V4.28437ZM97.9343 48.4731C89.9816 48.4731 83.5272 42.0206 83.5272 34.066C83.5272 26.1114 89.9816 19.6723 97.9343 19.6723C105.887 19.6723 112.328 26.1133 112.328 34.066C112.328 42.0187 105.887 48.4731 97.9343 48.4731Z" fill="#BBBBBB"/>
<path d="M175.3 176.746C174.698 176.746 174.208 176.257 174.208 175.653V160.444C174.208 159.842 174.697 159.352 175.3 159.352C175.904 159.352 176.393 159.84 176.393 160.444V175.653C176.393 176.255 175.904 176.746 175.3 176.746Z" fill="#EDEDED"/>
<path d="M181.915 159.486C181.915 163.139 178.957 166.097 175.304 166.097C171.652 166.097 168.688 163.139 168.688 159.486C168.688 155.834 171.652 143.516 175.304 143.516C178.957 143.516 181.915 155.834 181.915 159.486Z" fill="#D6D6D6"/>
<path d="M51.9384 55.9825C51.9384 60.4387 48.3112 64.066 43.8454 64.066H18.7045C13.6521 64.066 9.55176 59.9579 9.55176 54.9132C9.55176 49.8685 13.5617 45.8489 18.5353 45.7604C20.397 40.1195 25.7283 36.2422 31.7346 36.2422C38.6853 36.2422 44.4781 41.2773 45.4955 48.0587C49.2113 48.8241 51.9384 52.1129 51.9384 55.9806V55.9825Z" fill="#E3E3E3"/>
<path d="M186.308 35.5472C186.308 40.5399 182.245 44.6038 177.242 44.6038H149.072C143.41 44.6038 138.817 39.9995 138.817 34.349C138.817 28.6984 143.31 24.1942 148.884 24.0942C150.97 17.7724 156.942 13.4297 163.674 13.4297C171.463 13.4297 177.954 19.0725 179.092 26.6713C183.256 27.531 186.312 31.2141 186.312 35.5491L186.308 35.5472Z" fill="#E3E3E3"/>
<path d="M178.361 176.747H172.558C171.956 176.747 171.466 176.259 171.466 175.655C171.466 175.051 171.954 174.562 172.558 174.562H178.361C178.963 174.562 179.453 175.051 179.453 175.655C179.453 176.259 178.965 176.747 178.361 176.747Z" fill="#EDEDED"/>
<path d="M10.0882 176.747H4.28577C3.68379 176.747 3.19336 176.259 3.19336 175.655C3.19336 175.051 3.68187 174.562 4.28577 174.562H10.0882C10.6902 174.562 11.1806 175.051 11.1806 175.655C11.1806 176.259 10.6921 176.747 10.0882 176.747Z" fill="#EDEDED"/>
</svg>
