<svg width="15" height="15" viewBox="0 0 15 15" fill="none" xmlns="http://www.w3.org/2000/svg">
<path d="M7.5 0.59375C6.13408 0.59375 4.79882 0.998795 3.6631 1.75766C2.52737 2.51653 1.64218 3.59514 1.11946 4.85709C0.596742 6.11904 0.459976 7.50766 0.726455 8.84734C0.992934 10.187 1.65069 11.4176 2.61655 12.3835C3.5824 13.3493 4.81298 14.0071 6.15266 14.2735C7.49234 14.54 8.88096 14.4033 10.1429 13.8805C11.4049 13.3578 12.4835 12.4726 13.2423 11.3369C14.0012 10.2012 14.4063 8.86593 14.4063 7.5C14.4027 5.66943 13.674 3.91483 12.3796 2.62042C11.0852 1.32601 9.33058 0.59726 7.5 0.59375ZM7.5 13.3438C6.34422 13.3438 5.21439 13.001 4.25339 12.3589C3.29239 11.7168 2.54338 10.8041 2.10108 9.73631C1.65878 8.6685 1.54306 7.49352 1.76854 6.35994C1.99402 5.22636 2.55058 4.18511 3.36785 3.36784C4.18511 2.55058 5.22637 1.99402 6.35994 1.76854C7.49352 1.54305 8.6685 1.65878 9.73631 2.10108C10.8041 2.54338 11.7168 3.29239 12.3589 4.25339C13.001 5.21439 13.3438 6.34422 13.3438 7.5C13.342 9.04932 12.7258 10.5347 11.6302 11.6302C10.5347 12.7257 9.04932 13.342 7.5 13.3438ZM10.1563 8.82812C10.1545 9.32072 9.95804 9.79265 9.60972 10.141C9.2614 10.4893 8.78948 10.6858 8.29688 10.6875H8.03125V11.2188C8.03125 11.3596 7.97528 11.4948 7.87565 11.5944C7.77603 11.694 7.6409 11.75 7.5 11.75C7.35911 11.75 7.22398 11.694 7.12435 11.5944C7.02472 11.4948 6.96875 11.3596 6.96875 11.2188V10.6875H5.90625C5.76536 10.6875 5.63023 10.6315 5.5306 10.5319C5.43097 10.4323 5.375 10.2971 5.375 10.1562C5.375 10.0154 5.43097 9.88023 5.5306 9.7806C5.63023 9.68097 5.76536 9.625 5.90625 9.625H8.29688C8.50822 9.625 8.71091 9.54104 8.86035 9.3916C9.0098 9.24216 9.09375 9.03947 9.09375 8.82812C9.09375 8.61678 9.0098 8.41409 8.86035 8.26465C8.71091 8.11521 8.50822 8.03125 8.29688 8.03125H6.70313C6.20999 8.03125 5.73705 7.83535 5.38835 7.48665C5.03965 7.13795 4.84375 6.66501 4.84375 6.17188C4.84375 5.67874 5.03965 5.2058 5.38835 4.8571C5.73705 4.5084 6.20999 4.3125 6.70313 4.3125H6.96875V3.78125C6.96875 3.64035 7.02472 3.50523 7.12435 3.4056C7.22398 3.30597 7.35911 3.25 7.5 3.25C7.6409 3.25 7.77603 3.30597 7.87565 3.4056C7.97528 3.50523 8.03125 3.64035 8.03125 3.78125V4.3125H9.09375C9.23465 4.3125 9.36977 4.36847 9.4694 4.4681C9.56903 4.56773 9.625 4.70285 9.625 4.84375C9.625 4.98465 9.56903 5.11977 9.4694 5.2194C9.36977 5.31903 9.23465 5.375 9.09375 5.375H6.70313C6.49178 5.375 6.2891 5.45896 6.13965 5.6084C5.99021 5.75784 5.90625 5.96053 5.90625 6.17188C5.90625 6.38322 5.99021 6.58591 6.13965 6.73535C6.2891 6.88479 6.49178 6.96875 6.70313 6.96875H8.29688C8.78948 6.9705 9.2614 7.16696 9.60972 7.51528C9.95804 7.8636 10.1545 8.33553 10.1563 8.82812Z" fill="currentColor"/>
</svg>
