<svg width="35" height="35" viewBox="0 0 35 35" fill="none" xmlns="http://www.w3.org/2000/svg">
<path d="M32.8144 17.8395C32.8144 16.5805 32.7102 15.6617 32.4846 14.709H17.8145V20.3916H26.4255C26.2519 21.8038 25.3144 23.9305 23.2311 25.3596L23.2019 25.5498L27.8403 29.0713L28.1617 29.1027C31.113 26.4315 32.8144 22.5013 32.8144 17.8395Z" fill="#4285F4"/>
<path d="M17.8138 32.8134C22.0325 32.8134 25.5741 31.4523 28.161 29.1044L23.2304 25.3612C21.911 26.263 20.1401 26.8925 17.8138 26.8925C13.6819 26.8925 10.175 24.2213 8.92487 20.5293L8.74163 20.5445L3.91854 24.2026L3.85547 24.3744C6.42488 29.3765 11.7026 32.8134 17.8138 32.8134Z" fill="#34A853"/>
<path d="M8.92549 20.5294C8.59563 19.5766 8.40474 18.5557 8.40474 17.5009C8.40474 16.446 8.59563 15.4252 8.90813 14.4724L8.8994 14.2695L4.01586 10.5527L3.85608 10.6272C2.7971 12.7029 2.18945 15.0339 2.18945 17.5009C2.18945 19.9679 2.7971 22.2987 3.85608 24.3745L8.92549 20.5294Z" fill="#FBBC05"/>
<path d="M17.8139 8.10829C20.7479 8.10829 22.727 9.3503 23.8555 10.3882L28.2652 6.16875C25.557 3.70174 22.0326 2.1875 17.8139 2.1875C11.7027 2.1875 6.42489 5.62428 3.85547 10.6263L8.90754 14.4715C10.175 10.7795 13.6819 8.10829 17.8139 8.10829Z" fill="#EB4335"/>
</svg>
