<svg width="10" height="18" viewBox="0 0 10 18" fill="none" xmlns="http://www.w3.org/2000/svg">
<path d="M0.960449 1.30047V9.53303C0.960449 10.0361 1.37208 10.4478 1.87518 10.4478H3.70463V16.9881C3.70463 17.4546 4.3175 17.6192 4.55533 17.2167L9.30277 9.07567C9.38431 8.93725 9.42776 8.77971 9.4287 8.61907C9.42964 8.45843 9.38805 8.30039 9.30815 8.16103C9.22824 8.02166 9.11288 7.90593 8.97377 7.82558C8.83465 7.74523 8.67675 7.70314 8.51611 7.70357H6.44882L8.72649 1.62063C8.77937 1.48278 8.79789 1.33412 8.78044 1.18752C8.76299 1.04091 8.7101 0.900752 8.62634 0.779166C8.54258 0.65758 8.43047 0.55822 8.2997 0.489673C8.16893 0.421127 8.02344 0.385456 7.8758 0.385744H1.87518C1.37208 0.385744 0.960449 0.797372 0.960449 1.30047Z" fill="currentColor"/>
</svg>
