<svg width="20" height="20" viewBox="0 0 20 20" fill="none" xmlns="http://www.w3.org/2000/svg">
<g clip-path="url(#clip0_1652_25810)">
<path d="M15.8333 1.6665H4.16667C1.86917 1.6665 0 3.53567 0 5.83317V14.1665C0 16.464 1.86917 18.3332 4.16667 18.3332H15.8333C18.1308 18.3332 20 16.464 20 14.1665V5.83317C20 3.53567 18.1308 1.6665 15.8333 1.6665ZM1.66667 14.1665V5.83317C1.66667 4.45484 2.78833 3.33317 4.16667 3.33317H10.8333V16.6665H4.16667C2.78833 16.6665 1.66667 15.5448 1.66667 14.1665ZM18.3333 14.1665C18.3333 15.5448 17.2117 16.6665 15.8333 16.6665H12.5V3.33317H15.8333C17.2117 3.33317 18.3333 4.45484 18.3333 5.83317V14.1665ZM16.6667 9.1665C16.6667 9.62734 16.2933 9.99984 15.8333 9.99984H15C14.54 9.99984 14.1667 9.62734 14.1667 9.1665C14.1667 8.70567 14.54 8.33317 15 8.33317H15.8333C16.2933 8.33317 16.6667 8.70567 16.6667 9.1665ZM16.6667 12.4998C16.6667 12.9607 16.2933 13.3332 15.8333 13.3332H15C14.54 13.3332 14.1667 12.9607 14.1667 12.4998C14.1667 12.039 14.54 11.6665 15 11.6665H15.8333C16.2933 11.6665 16.6667 12.039 16.6667 12.4998ZM16.6667 5.83317C16.6667 6.294 16.2933 6.6665 15.8333 6.6665H15C14.54 6.6665 14.1667 6.294 14.1667 5.83317C14.1667 5.37234 14.54 4.99984 15 4.99984H15.8333C16.2933 4.99984 16.6667 5.37234 16.6667 5.83317Z" fill="currentColor"/>
</g>
<defs>
<clipPath id="clip0_1652_25810">
<rect width="20" height="20" fill="currentColor"/>
</clipPath>
</defs>
</svg>
